<!DOCTYPE svg PUBLIC "-//W3C//DTD SVG 1.1//EN"
    "http://www.w3.org/Graphics/SVG/1.1/DTD/svg11.dtd" >
<svg contentScriptType="text/ecmascript" width="800"
     xmlns:xlink="http://www.w3.org/1999/xlink" zoomAndPan="magnify"
     style="height: 600px;" contentStyleType="text/css" height="600"
     preserveAspectRatio="xMidYMid meet" xmlns="http://www.w3.org/2000/svg"
     version="1.0">
    <style type="text/css" xml:space="preserve">.knime-title { color: black; fill: black; font-size: 24px; }
.knime-label, .knime-axis-label, .knime-tick-label, .knime-label text, text.knime-axis-label, text.knime-tick-label { color: black; fill: black; font-size: 12px; }
.knime-legend-label, text.knime-legend-label { color: black; fill: black; font-size: 12px; font-weight: normal; }
.knime-tooltip-caption, .knime-tooltip-key, .knime-tooltip-value { color: black; fill: black; font-size: 12px; }
.knime-tooltip-key { font-weight: normal; }
.knime-tooltip-caption, .knime-tooltip-value { font-weight: bold; }</style><g transform="translate(70,46)">
        <rect x="-70" fill="rgb(255,255,255)" width="800" fill-opacity="1.0"
              height="600" y="-46"/>
        <rect fill="rgb(230,230,230)" width="710" fill-opacity="1.0"
              height="469"/>
        <g class="x axis knime-x knime-axis" transform="translate(0,469)">
            <g class="tick major knime-tick" style="opacity: 1;"
               transform="translate(0,0)">
                <line y2="-469" class="knime-tick-line" x2="0"
                      stroke="rgb(255,255,255)"/>
                <text x="0" dy=".71em" y="10" style="text-anchor: middle;"
                      class="knime-tick-label">
                    0.0
                </text>
            </g>
            <g class="tick major knime-tick" style="opacity: 1;"
               transform="translate(71,0)">
                <line y2="-469" class="knime-tick-line" x2="0"
                      stroke="rgb(255,255,255)"/>
                <text x="0" dy=".71em" y="10" style="text-anchor: middle;"
                      class="knime-tick-label">
                    0.1
                </text>
            </g>
            <g class="tick major knime-tick" style="opacity: 1;"
               transform="translate(142,0)">
                <line y2="-469" class="knime-tick-line" x2="0"
                      stroke="rgb(255,255,255)"/>
                <text x="0" dy=".71em" y="10" style="text-anchor: middle;"
                      class="knime-tick-label">
                    0.2
                </text>
            </g>
            <g class="tick major knime-tick" style="opacity: 1;"
               transform="translate(213,0)">
                <line y2="-469" class="knime-tick-line" x2="0"
                      stroke="rgb(255,255,255)"/>
                <text x="0" dy=".71em" y="10" style="text-anchor: middle;"
                      class="knime-tick-label">
                    0.3
                </text>
            </g>
            <g class="tick major knime-tick" style="opacity: 1;"
               transform="translate(284,0)">
                <line y2="-469" class="knime-tick-line" x2="0"
                      stroke="rgb(255,255,255)"/>
                <text x="0" dy=".71em" y="10" style="text-anchor: middle;"
                      class="knime-tick-label">
                    0.4
                </text>
            </g>
            <g class="tick major knime-tick" style="opacity: 1;"
               transform="translate(355,0)">
                <line y2="-469" class="knime-tick-line" x2="0"
                      stroke="rgb(255,255,255)"/>
                <text x="0" dy=".71em" y="10" style="text-anchor: middle;"
                      class="knime-tick-label">
                    0.5
                </text>
            </g>
            <g class="tick major knime-tick" style="opacity: 1;"
               transform="translate(426,0)">
                <line y2="-469" class="knime-tick-line" x2="0"
                      stroke="rgb(255,255,255)"/>
                <text x="0" dy=".71em" y="10" style="text-anchor: middle;"
                      class="knime-tick-label">
                    0.6
                </text>
            </g>
            <g class="tick major knime-tick" style="opacity: 1;"
               transform="translate(496.99999999999994,0)">
                <line y2="-469" class="knime-tick-line" x2="0"
                      stroke="rgb(255,255,255)"/>
                <text x="0" dy=".71em" y="10" style="text-anchor: middle;"
                      class="knime-tick-label">
                    0.7
                </text>
            </g>
            <g class="tick major knime-tick" style="opacity: 1;"
               transform="translate(568,0)">
                <line y2="-469" class="knime-tick-line" x2="0"
                      stroke="rgb(255,255,255)"/>
                <text x="0" dy=".71em" y="10" style="text-anchor: middle;"
                      class="knime-tick-label">
                    0.8
                </text>
            </g>
            <g class="tick major knime-tick" style="opacity: 1;"
               transform="translate(639,0)">
                <line y2="-469" class="knime-tick-line" x2="0"
                      stroke="rgb(255,255,255)"/>
                <text x="0" dy=".71em" y="10" style="text-anchor: middle;"
                      class="knime-tick-label">
                    0.9
                </text>
            </g>
            <g class="tick major knime-tick" style="opacity: 1;"
               transform="translate(710,0)">
                <line y2="-469" class="knime-tick-line" x2="0"
                      stroke="rgb(255,255,255)"/>
                <text x="0" dy=".71em" y="10" style="text-anchor: middle;"
                      class="knime-tick-label">
                    1.0
                </text>
            </g>
            <path fill="none" stroke-width="1" d="M0,0V0H710V0" class="domain"
                  stroke="rgb(255,255,255)"/>
        </g>
        <g class="y axis knime-y knime-axis">
            <g class="tick major knime-tick" style="opacity: 1;"
               transform="translate(0,469)">
                <line y2="0" class="knime-tick-line" x2="710"
                      stroke="rgb(255,255,255)"/>
                <text x="-10" dy=".32em" y="0" style="text-anchor: end;"
                      class="knime-tick-label">
                    0.0
                </text>
            </g>
            <g class="tick major knime-tick" style="opacity: 1;"
               transform="translate(0,422.1)">
                <line y2="0" class="knime-tick-line" x2="710"
                      stroke="rgb(255,255,255)"/>
                <text x="-10" dy=".32em" y="0" style="text-anchor: end;"
                      class="knime-tick-label">
                    0.1
                </text>
            </g>
            <g class="tick major knime-tick" style="opacity: 1;"
               transform="translate(0,375.2)">
                <line y2="0" class="knime-tick-line" x2="710"
                      stroke="rgb(255,255,255)"/>
                <text x="-10" dy=".32em" y="0" style="text-anchor: end;"
                      class="knime-tick-label">
                    0.2
                </text>
            </g>
            <g class="tick major knime-tick" style="opacity: 1;"
               transform="translate(0,328.3)">
                <line y2="0" class="knime-tick-line" x2="710"
                      stroke="rgb(255,255,255)"/>
                <text x="-10" dy=".32em" y="0" style="text-anchor: end;"
                      class="knime-tick-label">
                    0.3
                </text>
            </g>
            <g class="tick major knime-tick" style="opacity: 1;"
               transform="translate(0,281.4)">
                <line y2="0" class="knime-tick-line" x2="710"
                      stroke="rgb(255,255,255)"/>
                <text x="-10" dy=".32em" y="0" style="text-anchor: end;"
                      class="knime-tick-label">
                    0.4
                </text>
            </g>
            <g class="tick major knime-tick" style="opacity: 1;"
               transform="translate(0,234.5)">
                <line y2="0" class="knime-tick-line" x2="710"
                      stroke="rgb(255,255,255)"/>
                <text x="-10" dy=".32em" y="0" style="text-anchor: end;"
                      class="knime-tick-label">
                    0.5
                </text>
            </g>
            <g class="tick major knime-tick" style="opacity: 1;"
               transform="translate(0,187.60000000000002)">
                <line y2="0" class="knime-tick-line" x2="710"
                      stroke="rgb(255,255,255)"/>
                <text x="-10" dy=".32em" y="0" style="text-anchor: end;"
                      class="knime-tick-label">
                    0.6
                </text>
            </g>
            <g class="tick major knime-tick" style="opacity: 1;"
               transform="translate(0,140.70000000000005)">
                <line y2="0" class="knime-tick-line" x2="710"
                      stroke="rgb(255,255,255)"/>
                <text x="-10" dy=".32em" y="0" style="text-anchor: end;"
                      class="knime-tick-label">
                    0.7
                </text>
            </g>
            <g class="tick major knime-tick" style="opacity: 1;"
               transform="translate(0,93.79999999999995)">
                <line y2="0" class="knime-tick-line" x2="710"
                      stroke="rgb(255,255,255)"/>
                <text x="-10" dy=".32em" y="0" style="text-anchor: end;"
                      class="knime-tick-label">
                    0.8
                </text>
            </g>
            <g class="tick major knime-tick" style="opacity: 1;"
               transform="translate(0,46.89999999999998)">
                <line y2="0" class="knime-tick-line" x2="710"
                      stroke="rgb(255,255,255)"/>
                <text x="-10" dy=".32em" y="0" style="text-anchor: end;"
                      class="knime-tick-label">
                    0.9
                </text>
            </g>
            <g class="tick major knime-tick" style="opacity: 1;"
               transform="translate(0,0)">
                <line y2="0" class="knime-tick-line" x2="710"
                      stroke="rgb(255,255,255)"/>
                <text x="-10" dy=".32em" y="0" style="text-anchor: end;"
                      class="knime-tick-label">
                    1.0
                </text>
            </g>
            <path fill="none" stroke-width="1" d="M0,0H0V469H0" class="domain"
                  stroke="rgb(255,255,255)"/>
        </g>
        <text x="700" id="xtitle" y="514"
              class="x label knime-x knime-axis-label" text-anchor="end">
            False Positive Rate
        </text>
        <text dy=".75em" id="ytitle" y="-55"
              class="y label knime-y knime-axis-label" transform="rotate(-90)"
              text-anchor="end">
            True Positive Rate
        </text>
        <g class="knime-tooltip" transform="translate(624,319)">
            <text x="0" y="0" style="fill: rgb(31, 119, 180);"
                  class="knime-tooltip-key knime-tooltip-value knime-tooltip-color">
                DT (0.809)
            </text>
            <text x="0" y="25" style="fill: rgb(255, 127, 14);"
                  class="knime-tooltip-key knime-tooltip-value knime-tooltip-color">
                RF (0.923)
            </text>
            <text x="0" y="50" style="fill: rgb(44, 160, 44);"
                  class="knime-tooltip-key knime-tooltip-value knime-tooltip-color">
                ZeroR (0.482)
            </text>
            <text x="0" y="75" style="fill: rgb(214, 39, 40);"
                  class="knime-tooltip-key knime-tooltip-value knime-tooltip-color">
                NB (0.915)
            </text>
            <text x="0" y="100" style="fill: rgb(148, 103, 189);"
                  class="knime-tooltip-key knime-tooltip-value knime-tooltip-color">
                XGB (0.783)
            </text>
            <text x="0" y="125" style="fill: rgb(140, 86, 75);"
                  class="knime-tooltip-key knime-tooltip-value knime-tooltip-color">
                k-NN (0.842)
            </text>
        </g>
        <path class="line"
              style="stroke: rgb(31, 119, 180); fill: none; stroke-width: 2;"
              d="M0,469L84.85365853658536,252.04133858267716L84.85365853658536,239.11614173228347L86.58536585365853,221.5748031496063L90.04878048780488,196.6476377952756L91.78048780487805,195.7244094488189L95.2439024390244,192.03149606299218L95.2439024390244,183.7224409448819L95.2439024390244,180.0295275590551L96.97560975609757,173.56692913385825L98.70731707317074,168.95078740157481L102.17073170731706,160.64173228346453L105.6341463414634,145.8700787401575L109.09756097560975,135.71456692913387L109.09756097560975,132.9448818897638L110.82926829268293,119.09645669291336L110.82926829268293,117.25L112.5609756097561,114.48031496062993L112.5609756097561,111.71062992125985L114.29268292682927,108.94094488188978L114.29268292682927,105.24803149606299L117.75609756097562,104.32480314960634L121.21951219512196,101.55511811023621L133.34146341463415,98.78543307086613L133.34146341463415,97.86220472440942L147.1951219512195,87.70669291338584L148.92682926829266,87.70669291338584L148.92682926829266,85.86023622047247L150.65853658536585,85.86023622047247L150.65853658536585,84.93700787401576L150.65853658536585,84.01377952755905L155.85365853658536,82.16732283464569L161.0487804878049,73.85826771653547L164.51219512195124,68.31889763779526L174.90243902439025,64.62598425196848L180.09756097560975,63.70275590551182L180.09756097560975,62.77952755905511L180.09756097560975,61.8562992125984L181.82926829268294,60.00984251968504L188.75609756097563,58.16338582677167L199.14634146341464,57.24015748031496L206.0731707317073,56.31692913385825L211.2682926829268,56.31692913385825L216.46341463414635,56.31692913385825L221.65853658536585,53.54724409448818L225.1219512195122,52.624015748031525L252.8292682926829,51.700787401574814L299.5853658536585,50.777559055118104L303.0487804878049,50.777559055118104L335.9512195121951,49.85433070866145L365.390243902439,48.93110236220474L393.0975609756098,48.00787401574803L451.9756097560976,44.3149606299213L455.4390243902439,44.3149606299213L457.1707317073171,44.3149606299213L458.9024390243903,43.391732283464535L507.390243902439,40.62204724409446L550.6829268292684,40.62204724409446L592.2439024390244,40.62204724409446L623.4146341463414,40.62204724409446L710,0"/>
        <g class="knime-legend" transform="translate(0,539)">
            <text class="knime-legend-label" x="20">
                DT
            </text>
            <circle fill="#1f77b4" r="5" class="knime-legend-symbol" cx="5"
                    cy="-5"/>
        </g>
        <path class="line"
              style="stroke: rgb(255, 127, 14); fill: none; stroke-width: 2;"
              d="M0,469L1.7317073170731707,451.45866141732284L10.390243902439025,428.37795275590554L13.853658536585366,402.5275590551181L13.853658536585366,378.5236220472441L13.853658536585366,363.751968503937L15.585365853658535,346.21062992125985L17.317073170731707,331.43897637795277L17.317073170731707,317.59055118110234L17.317073170731707,304.6653543307087L17.317073170731707,284.3543307086614L20.78048780487805,265.8897637795276L22.51219512195122,252.96456692913384L27.70731707317073,240.03937007874015L29.439024390243905,231.73031496062993L34.63414634146341,216.95866141732282L39.829268292682926,209.57283464566927L43.292682926829265,201.26377952755905L43.292682926829265,191.10826771653547L45.02439024390244,185.56889763779526L45.02439024390244,180.0295275590551L45.02439024390244,172.6437007874016L45.02439024390244,168.0275590551181L46.75609756097561,162.48818897637796L50.21951219512194,157.87204724409446L53.68292682926829,152.3326771653543L57.146341463414636,150.48622047244095L58.87804878048781,140.33070866141736L64.07317073170732,138.48425196850394L64.07317073170732,131.09842519685037L64.07317073170732,125.55905511811022L67.53658536585365,119.09645669291336L69.26829268292683,116.32677165354329L71,110.78740157480314L71,105.24803149606299L76.1951219512195,96.93897637795271L76.1951219512195,93.24606299212599L76.1951219512195,89.5531496062992L76.1951219512195,84.01377952755905L77.92682926829268,81.24409448818898L83.1219512195122,79.39763779527561L84.85365853658536,75.70472440944883L86.58536585365853,73.85826771653547L88.3170731707317,71.08858267716533L95.2439024390244,66.4724409448819L96.97560975609757,62.77952755905511L105.6341463414634,60.93307086614175L107.36585365853658,58.16338582677167L109.09756097560975,55.3937007874016L114.29268292682927,50.777559055118104L122.95121951219511,48.93110236220474L131.60975609756096,48.00787401574803L135.0731707317073,45.238188976377955L135.0731707317073,42.468503937007824L138.53658536585365,38.7755905511811L142,37.852362204724386L143.7317073170732,35.08267716535431L145.46341463414635,33.23622047244095L148.92682926829266,32.31299212598424L155.85365853658536,31.389763779527527L162.78048780487805,30.466535433070874L167.97560975609755,29.543307086614163L167.97560975609755,26.77362204724409L173.17073170731706,24.927165354330725L180.09756097560975,24.003937007874015L183.5609756097561,24.003937007874015L187.02439024390245,22.15748031496065L192.21951219512195,19.387795275590577L197.41463414634148,19.387795275590577L200.87804878048777,18.464566929133866L207.80487804878047,16.618110236220502L211.2682926829268,15.694881889763792L213,15.694881889763792L221.65853658536585,15.694881889763792L223.39024390243904,14.771653543307139L228.58536585365854,13.848425196850371L242.43902439024393,13.848425196850371L249.36585365853657,12.925196850393661L254.5609756097561,12.925196850393661L261.4878048780488,12.925196850393661L275.3414634146342,12.001968503937007L282.26829268292687,12.001968503937007L290.9268292682927,12.001968503937007L306.5121951219512,11.078740157480297L315.1707317073171,9.232283464566933L323.8292682926829,9.232283464566933L334.2195121951219,6.462598425196859L342.8780487804878,6.462598425196859L360.1951219512195,6.462598425196859L370.5853658536586,6.462598425196859L380.9756097560976,6.462598425196859L398.2926829268293,4.616141732283438L427.73170731707313,3.6929133858267846L445.0487804878049,2.7696850393700743L472.75609756097566,1.846456692913364L484.87804878048786,1.846456692913364L503.92682926829264,0.9232283464567104L540.2926829268292,0.9232283464567104L569.7317073170732,0.9232283464567104L632.0731707317074,0.9232283464567104L710,0"/>
        <g class="knime-legend" transform="translate(46,539)">
            <text class="knime-legend-label" x="20">
                RF
            </text>
            <circle fill="#ff7f0e" r="5" class="knime-legend-symbol" cx="5"
                    cy="-5"/>
        </g>
        <path class="line"
              style="stroke: rgb(44, 160, 44); fill: none; stroke-width: 2;"
              d="M0,469L294.390243902439,286.2007874015748L439.8536585365854,194.80118110236225L574.9268292682927,97.86220472440942L710,0"/>
        <g class="knime-legend" transform="translate(92,539)">
            <text class="knime-legend-label" x="20">
                ZeroR
            </text>
            <circle fill="#2ca02c" r="5" class="knime-legend-symbol" cx="5"
                    cy="-5"/>
        </g>
        <path class="line"
              style="stroke: rgb(214, 39, 40); fill: none; stroke-width: 2;"
              d="M0,469L0,468.0767716535433L0,467.15354330708664L0,466.2303149606299L0,465.3070866141732L0,464.38385826771656L0,463.46062992125985L0,462.53740157480314L0,461.61417322834643L0,460.6909448818898L0,459.76771653543307L1.7317073170731707,459.76771653543307L1.7317073170731707,458.84448818897636L1.7317073170731707,457.9212598425197L1.7317073170731707,456.998031496063L1.7317073170731707,456.0748031496063L1.7317073170731707,455.15157480314963L1.7317073170731707,454.2283464566929L1.7317073170731707,453.3051181102362L1.7317073170731707,452.38188976377955L1.7317073170731707,451.45866141732284L1.7317073170731707,450.53543307086613L1.7317073170731707,449.6122047244094L1.7317073170731707,448.68897637795277L1.7317073170731707,447.76574803149606L1.7317073170731707,446.84251968503935L1.7317073170731707,445.9192913385827L3.4634146341463414,445.9192913385827L3.4634146341463414,444.996062992126L3.4634146341463414,444.0728346456693L3.4634146341463414,443.1496062992126L3.4634146341463414,442.2263779527559L3.4634146341463414,441.3031496062992L3.4634146341463414,440.3799212598425L3.4634146341463414,439.45669291338584L3.4634146341463414,438.5334645669291L3.4634146341463414,437.6102362204724L3.4634146341463414,436.68700787401576L3.4634146341463414,435.76377952755905L3.4634146341463414,434.84055118110234L3.4634146341463414,433.9173228346457L3.4634146341463414,432.994094488189L3.4634146341463414,432.07086614173227L3.4634146341463414,431.1476377952756L3.4634146341463414,430.2244094488189L3.4634146341463414,429.3011811023622L3.4634146341463414,428.37795275590554L3.4634146341463414,427.45472440944883L3.4634146341463414,426.5314960629921L3.4634146341463414,425.6082677165354L3.4634146341463414,424.68503937007875L3.4634146341463414,423.76181102362204L3.4634146341463414,422.83858267716533L3.4634146341463414,421.9153543307087L3.4634146341463414,420.99212598425197L3.4634146341463414,420.06889763779526L3.4634146341463414,419.14566929133855L3.4634146341463414,418.2224409448819L3.4634146341463414,417.2992125984252L5.195121951219512,417.2992125984252L5.195121951219512,416.3759842519685L5.195121951219512,415.4527559055118L5.195121951219512,414.5295275590551L6.926829268292683,414.5295275590551L6.926829268292683,413.6062992125984L6.926829268292683,412.68307086614175L6.926829268292683,411.75984251968504L6.926829268292683,410.8366141732283L6.926829268292683,409.9133858267717L6.926829268292683,408.99015748031496L6.926829268292683,408.06692913385825L6.926829268292683,407.1437007874016L6.926829268292683,406.2204724409449L6.926829268292683,405.2972440944882L6.926829268292683,404.3740157480315L6.926829268292683,403.4507874015748L6.926829268292683,402.5275590551181L6.926829268292683,401.60433070866145L6.926829268292683,400.68110236220474L6.926829268292683,399.75787401574803L6.926829268292683,398.8346456692913L6.926829268292683,397.9114173228346L6.926829268292683,396.98818897637796L6.926829268292683,396.06496062992125L6.926829268292683,395.14173228346453L6.926829268292683,394.2185039370079L6.926829268292683,393.29527559055117L6.926829268292683,392.37204724409446L6.926829268292683,391.4488188976378L6.926829268292683,390.5255905511811L6.926829268292683,389.6023622047244L6.926829268292683,388.67913385826773L6.926829268292683,387.755905511811L6.926829268292683,386.8326771653543L6.926829268292683,385.90944881889766L6.926829268292683,384.98622047244095L6.926829268292683,384.06299212598424L6.926829268292683,383.1397637795276L6.926829268292683,382.2165354330709L6.926829268292683,381.29330708661416L6.926829268292683,380.3700787401575L6.926829268292683,379.4468503937008L6.926829268292683,378.5236220472441L6.926829268292683,377.60039370078744L6.926829268292683,376.67716535433067L6.926829268292683,375.753937007874L6.926829268292683,374.8307086614173L6.926829268292683,373.9074803149606L6.926829268292683,372.98425196850394L6.926829268292683,372.06102362204723L6.926829268292683,371.1377952755906L6.926829268292683,370.21456692913387L6.926829268292683,369.29133858267716L6.926829268292683,368.36811023622045L6.926829268292683,367.4448818897638L6.926829268292683,366.5216535433071L6.926829268292683,365.59842519685037L6.926829268292683,364.6751968503937L8.658536585365853,364.6751968503937L8.658536585365853,363.751968503937L8.658536585365853,362.8287401574803L8.658536585365853,361.90551181102364L8.658536585365853,360.98228346456693L8.658536585365853,360.0590551181102L8.658536585365853,359.13582677165357L8.658536585365853,358.21259842519686L8.658536585365853,357.28937007874015L8.658536585365853,356.3661417322835L8.658536585365853,355.4429133858268L8.658536585365853,354.5196850393701L8.658536585365853,353.59645669291336L8.658536585365853,352.6732283464567L8.658536585365853,351.75L8.658536585365853,350.8267716535433L8.658536585365853,349.90354330708664L8.658536585365853,348.9803149606299L10.390243902439025,348.9803149606299L10.390243902439025,348.0570866141732L10.390243902439025,347.13385826771656L10.390243902439025,346.21062992125985L10.390243902439025,345.28740157480314L10.390243902439025,344.36417322834643L10.390243902439025,343.4409448818898L10.390243902439025,342.51771653543307L10.390243902439025,341.59448818897636L10.390243902439025,340.6712598425197L10.390243902439025,339.748031496063L10.390243902439025,338.8248031496063L10.390243902439025,337.90157480314963L10.390243902439025,336.9783464566929L10.390243902439025,336.0551181102362L10.390243902439025,335.13188976377955L10.390243902439025,334.20866141732284L10.390243902439025,333.28543307086613L10.390243902439025,332.3622047244095L10.390243902439025,331.43897637795277L10.390243902439025,330.51574803149606L10.390243902439025,329.59251968503935L12.121951219512196,329.59251968503935L12.121951219512196,328.66929133858264L12.121951219512196,327.746062992126L13.853658536585366,327.746062992126L13.853658536585366,326.8228346456693L13.853658536585366,325.89960629921256L13.853658536585366,324.9763779527559L13.853658536585366,324.0531496062992L13.853658536585366,323.1299212598425L13.853658536585366,322.20669291338584L13.853658536585366,321.2834645669291L13.853658536585366,320.3602362204724L13.853658536585366,319.43700787401576L13.853658536585366,318.51377952755905L13.853658536585366,317.59055118110234L13.853658536585366,316.6673228346457L15.585365853658535,316.6673228346457L15.585365853658535,315.744094488189L15.585365853658535,314.82086614173227L15.585365853658535,313.8976377952756L15.585365853658535,312.97440944881885L15.585365853658535,312.0511811023622L15.585365853658535,311.12795275590554L15.585365853658535,310.2047244094488L15.585365853658535,309.2814960629921L15.585365853658535,308.35826771653547L15.585365853658535,307.43503937007875L15.585365853658535,306.51181102362204L15.585365853658535,305.5885826771654L15.585365853658535,304.6653543307087L15.585365853658535,303.74212598425197L15.585365853658535,302.8188976377953L15.585365853658535,301.8956692913386L15.585365853658535,300.9724409448819L15.585365853658535,300.0492125984252L15.585365853658535,299.1259842519685L15.585365853658535,298.2027559055118L15.585365853658535,297.2795275590551L17.317073170731707,297.2795275590551L17.317073170731707,296.3562992125984L17.317073170731707,295.43307086614175L17.317073170731707,294.50984251968504L17.317073170731707,293.5866141732283L17.317073170731707,292.6633858267717L17.317073170731707,291.74015748031496L17.317073170731707,290.81692913385825L17.317073170731707,289.8937007874016L17.317073170731707,288.9704724409449L19.048780487804876,288.9704724409449L19.048780487804876,288.0472440944882L19.048780487804876,287.1240157480315L19.048780487804876,286.2007874015748L19.048780487804876,285.2775590551181L19.048780487804876,284.3543307086614L19.048780487804876,283.4311023622047L19.048780487804876,282.50787401574803L19.048780487804876,281.5846456692913L19.048780487804876,280.6614173228346L19.048780487804876,279.73818897637796L19.048780487804876,278.81496062992125L19.048780487804876,277.89173228346453L19.048780487804876,276.9685039370079L19.048780487804876,276.0452755905512L19.048780487804876,275.12204724409446L19.048780487804876,274.1988188976378L19.048780487804876,273.27559055118115L19.048780487804876,272.3523622047244L19.048780487804876,271.42913385826773L19.048780487804876,270.505905511811L19.048780487804876,269.5826771653543L19.048780487804876,268.65944881889766L19.048780487804876,267.73622047244095L19.048780487804876,266.81299212598424L19.048780487804876,265.8897637795276L19.048780487804876,264.9665354330709L19.048780487804876,264.04330708661416L19.048780487804876,263.1200787401575L19.048780487804876,262.1968503937008L19.048780487804876,261.2736220472441L19.048780487804876,260.35039370078744L19.048780487804876,259.4271653543307L19.048780487804876,258.503937007874L19.048780487804876,257.58070866141736L19.048780487804876,256.65748031496065L19.048780487804876,255.7342519685039L19.048780487804876,254.81102362204723L19.048780487804876,253.88779527559055L20.78048780487805,253.88779527559055L20.78048780487805,252.96456692913384L20.78048780487805,252.04133858267716L20.78048780487805,251.11811023622047L22.51219512195122,251.11811023622047L22.51219512195122,250.19488188976376L24.243902439024392,250.19488188976376L24.243902439024392,249.27165354330708L24.243902439024392,248.3484251968504L24.243902439024392,247.42519685039372L25.97560975609756,247.42519685039372L25.97560975609756,246.501968503937L25.97560975609756,245.57874015748033L25.97560975609756,244.65551181102364L25.97560975609756,243.73228346456693L25.97560975609756,242.80905511811025L25.97560975609756,241.88582677165357L25.97560975609756,240.96259842519683L25.97560975609756,240.03937007874015L25.97560975609756,239.11614173228347L25.97560975609756,238.19291338582676L25.97560975609756,237.26968503937007L27.70731707317073,237.26968503937007L27.70731707317073,236.3464566929134L29.439024390243905,236.3464566929134L29.439024390243905,235.42322834645668L29.439024390243905,234.5L29.439024390243905,233.57677165354332L29.439024390243905,232.6535433070866L29.439024390243905,231.73031496062993L29.439024390243905,230.80708661417324L29.439024390243905,229.88385826771653L29.439024390243905,228.96062992125985L29.439024390243905,228.03740157480317L29.439024390243905,227.11417322834646L29.439024390243905,226.19094488188978L29.439024390243905,225.2677165354331L29.439024390243905,224.34448818897638L29.439024390243905,223.4212598425197L29.439024390243905,222.49803149606302L29.439024390243905,221.5748031496063L29.439024390243905,220.65157480314963L29.439024390243905,219.7283464566929L29.439024390243905,218.8051181102362L29.439024390243905,217.8818897637795L31.17073170731707,217.8818897637795L31.17073170731707,216.95866141732282L31.17073170731707,216.03543307086613L31.17073170731707,215.11220472440942L31.17073170731707,214.18897637795274L31.17073170731707,213.26574803149606L31.17073170731707,212.34251968503935L31.17073170731707,211.41929133858264L31.17073170731707,210.49606299212599L31.17073170731707,209.57283464566927L31.17073170731707,208.64960629921256L31.17073170731707,207.7263779527559L31.17073170731707,206.8031496062992L32.90243902439024,206.8031496062992L32.90243902439024,205.8799212598425L32.90243902439024,204.95669291338584L34.63414634146341,204.95669291338584L34.63414634146341,204.03346456692913L34.63414634146341,203.11023622047247L34.63414634146341,202.18700787401576L34.63414634146341,201.26377952755905L34.63414634146341,200.3405511811024L36.36585365853659,200.3405511811024L36.36585365853659,199.4173228346457L36.36585365853659,198.49409448818898L38.09756097560975,198.49409448818898L38.09756097560975,197.57086614173232L38.09756097560975,196.6476377952756L38.09756097560975,195.7244094488189L38.09756097560975,194.80118110236225L38.09756097560975,193.87795275590554L38.09756097560975,192.95472440944883L38.09756097560975,192.03149606299218L38.09756097560975,191.10826771653547L38.09756097560975,190.1850393700787L38.09756097560975,189.26181102362204L38.09756097560975,188.33858267716533L38.09756097560975,187.41535433070862L38.09756097560975,186.49212598425197L38.09756097560975,185.56889763779526L39.829268292682926,185.56889763779526L39.829268292682926,184.64566929133855L39.829268292682926,183.7224409448819L39.829268292682926,182.79921259842519L39.829268292682926,181.87598425196848L39.829268292682926,180.95275590551182L39.829268292682926,180.0295275590551L39.829268292682926,179.1062992125984L39.829268292682926,178.18307086614175L39.829268292682926,177.25984251968504L39.829268292682926,176.33661417322833L41.5609756097561,176.33661417322833L41.5609756097561,175.41338582677167L41.5609756097561,174.49015748031496L41.5609756097561,173.56692913385825L41.5609756097561,172.6437007874016L41.5609756097561,171.7204724409449L43.292682926829265,171.7204724409449L43.292682926829265,170.79724409448818L43.292682926829265,169.87401574803152L45.02439024390244,169.87401574803152L45.02439024390244,168.95078740157481L45.02439024390244,168.0275590551181L45.02439024390244,167.10433070866145L45.02439024390244,166.18110236220474L46.75609756097561,166.18110236220474L48.487804878048784,166.18110236220474L48.487804878048784,165.25787401574803L48.487804878048784,164.33464566929138L50.21951219512194,164.33464566929138L50.21951219512194,163.41141732283467L50.21951219512194,162.48818897637796L51.95121951219512,162.48818897637796L51.95121951219512,161.5649606299213L51.95121951219512,160.64173228346453L51.95121951219512,159.71850393700782L51.95121951219512,158.79527559055117L51.95121951219512,157.87204724409446L53.68292682926829,157.87204724409446L53.68292682926829,156.94881889763775L53.68292682926829,156.0255905511811L53.68292682926829,155.1023622047244L55.41463414634146,155.1023622047244L55.41463414634146,154.17913385826768L57.146341463414636,154.17913385826768L57.146341463414636,153.25590551181102L58.87804878048781,153.25590551181102L58.87804878048781,152.3326771653543L58.87804878048781,151.4094488188976L58.87804878048781,150.48622047244095L58.87804878048781,149.56299212598424L58.87804878048781,148.63976377952753L58.87804878048781,147.71653543307087L58.87804878048781,146.79330708661416L58.87804878048781,145.8700787401575L58.87804878048781,144.9468503937008L58.87804878048781,144.0236220472441L58.87804878048781,143.10039370078744L58.87804878048781,142.17716535433073L58.87804878048781,141.25393700787401L58.87804878048781,140.33070866141736L58.87804878048781,139.40748031496065L58.87804878048781,138.48425196850394L58.87804878048781,137.5610236220473L58.87804878048781,136.63779527559058L58.87804878048781,135.71456692913387L58.87804878048781,134.7913385826772L58.87804878048781,133.8681102362205L60.60975609756098,133.8681102362205L60.60975609756098,132.9448818897638L62.34146341463414,132.9448818897638L62.34146341463414,132.02165354330714L62.34146341463414,131.09842519685037L62.34146341463414,130.17519685039366L62.34146341463414,129.251968503937L62.34146341463414,128.3287401574803L62.34146341463414,127.40551181102359L64.07317073170732,127.40551181102359L64.07317073170732,126.48228346456693L64.07317073170732,125.55905511811022L65.80487804878048,125.55905511811022L65.80487804878048,124.63582677165351L65.80487804878048,123.71259842519686L65.80487804878048,122.78937007874015L65.80487804878048,121.86614173228344L65.80487804878048,120.94291338582678L65.80487804878048,120.01968503937007L65.80487804878048,119.09645669291336L65.80487804878048,118.17322834645671L67.53658536585365,118.17322834645671L67.53658536585365,117.25L67.53658536585365,116.32677165354329L69.26829268292683,116.32677165354329L69.26829268292683,115.40354330708664L71,115.40354330708664L72.73170731707317,115.40354330708664L72.73170731707317,114.48031496062993L74.46341463414633,114.48031496062993L74.46341463414633,113.55708661417322L74.46341463414633,112.63385826771656L74.46341463414633,111.71062992125985L74.46341463414633,110.78740157480314L74.46341463414633,109.86417322834649L74.46341463414633,108.94094488188978L76.1951219512195,108.94094488188978L76.1951219512195,108.01771653543307L76.1951219512195,107.09448818897641L76.1951219512195,106.1712598425197L76.1951219512195,105.24803149606299L77.92682926829268,105.24803149606299L77.92682926829268,104.32480314960634L77.92682926829268,103.40157480314963L77.92682926829268,102.47834645669286L77.92682926829268,101.55511811023621L79.65853658536585,101.55511811023621L79.65853658536585,100.6318897637795L79.65853658536585,99.70866141732279L79.65853658536585,98.78543307086613L79.65853658536585,97.86220472440942L79.65853658536585,96.93897637795271L79.65853658536585,96.01574803149606L79.65853658536585,95.09251968503935L79.65853658536585,94.16929133858264L79.65853658536585,93.24606299212599L81.39024390243902,93.24606299212599L83.1219512195122,93.24606299212599L83.1219512195122,92.32283464566927L83.1219512195122,91.39960629921256L84.85365853658536,91.39960629921256L84.85365853658536,90.47637795275591L84.85365853658536,89.5531496062992L84.85365853658536,88.62992125984249L84.85365853658536,87.70669291338584L86.58536585365853,87.70669291338584L88.3170731707317,87.70669291338584L88.3170731707317,86.78346456692913L88.3170731707317,85.86023622047247L90.04878048780488,85.86023622047247L91.78048780487805,85.86023622047247L93.51219512195122,85.86023622047247L95.2439024390244,85.86023622047247L95.2439024390244,84.93700787401576L96.97560975609757,84.93700787401576L96.97560975609757,84.01377952755905L96.97560975609757,83.0905511811024L98.70731707317074,83.0905511811024L98.70731707317074,82.16732283464569L98.70731707317074,81.24409448818898L98.70731707317074,80.32086614173232L98.70731707317074,79.39763779527561L100.43902439024389,79.39763779527561L100.43902439024389,78.4744094488189L102.17073170731706,78.4744094488189L103.90243902439023,78.4744094488189L105.6341463414634,78.4744094488189L105.6341463414634,77.55118110236225L105.6341463414634,76.62795275590554L105.6341463414634,75.70472440944883L107.36585365853658,75.70472440944883L107.36585365853658,74.78149606299218L109.09756097560975,74.78149606299218L110.82926829268293,74.78149606299218L110.82926829268293,73.85826771653547L112.5609756097561,73.85826771653547L112.5609756097561,72.9350393700787L114.29268292682927,72.9350393700787L116.02439024390245,72.9350393700787L116.02439024390245,72.01181102362204L117.75609756097562,72.01181102362204L119.48780487804879,72.01181102362204L119.48780487804879,71.08858267716533L119.48780487804879,70.16535433070862L121.21951219512196,70.16535433070862L121.21951219512196,69.24212598425197L122.95121951219511,69.24212598425197L122.95121951219511,68.31889763779526L124.68292682926828,68.31889763779526L126.41463414634146,68.31889763779526L128.14634146341464,68.31889763779526L128.14634146341464,67.39566929133855L129.8780487804878,67.39566929133855L129.8780487804878,66.4724409448819L129.8780487804878,65.54921259842519L129.8780487804878,64.62598425196848L129.8780487804878,63.70275590551182L129.8780487804878,62.77952755905511L129.8780487804878,61.8562992125984L129.8780487804878,60.93307086614175L129.8780487804878,60.00984251968504L131.60975609756096,60.00984251968504L131.60975609756096,59.08661417322833L133.34146341463415,59.08661417322833L133.34146341463415,58.16338582677167L135.0731707317073,58.16338582677167L136.8048780487805,58.16338582677167L136.8048780487805,57.24015748031496L136.8048780487805,56.31692913385825L138.53658536585365,56.31692913385825L140.26829268292684,56.31692913385825L140.26829268292684,55.3937007874016L140.26829268292684,54.47047244094489L142,54.47047244094489L143.7317073170732,54.47047244094489L145.46341463414635,54.47047244094489L147.1951219512195,54.47047244094489L147.1951219512195,53.54724409448818L147.1951219512195,52.624015748031525L148.92682926829266,52.624015748031525L148.92682926829266,51.700787401574814L148.92682926829266,50.777559055118104L150.65853658536585,50.777559055118104L150.65853658536585,49.85433070866145L152.390243902439,49.85433070866145L152.390243902439,48.93110236220474L152.390243902439,48.00787401574803L152.390243902439,47.084645669291376L154.1219512195122,47.084645669291376L155.85365853658536,47.084645669291376L157.58536585365854,47.084645669291376L159.3170731707317,47.084645669291376L161.0487804878049,47.084645669291376L161.0487804878049,46.161417322834666L161.0487804878049,45.238188976377955L162.78048780487805,45.238188976377955L162.78048780487805,44.3149606299213L162.78048780487805,43.391732283464535L162.78048780487805,42.468503937007824L162.78048780487805,41.54527559055117L164.51219512195124,41.54527559055117L166.2439024390244,41.54527559055117L167.97560975609755,41.54527559055117L167.97560975609755,40.62204724409446L167.97560975609755,39.69881889763775L169.7073170731707,39.69881889763775L169.7073170731707,38.7755905511811L169.7073170731707,37.852362204724386L171.4390243902439,37.852362204724386L171.4390243902439,36.929133858267676L171.4390243902439,36.00590551181102L173.17073170731706,36.00590551181102L174.90243902439025,36.00590551181102L176.6341463414634,36.00590551181102L178.3658536585366,36.00590551181102L180.09756097560975,36.00590551181102L181.82926829268294,36.00590551181102L183.5609756097561,36.00590551181102L183.5609756097561,35.08267716535431L185.2926829268293,35.08267716535431L187.02439024390245,35.08267716535431L188.75609756097563,35.08267716535431L190.4878048780488,35.08267716535431L192.21951219512195,35.08267716535431L193.95121951219514,35.08267716535431L195.6829268292683,35.08267716535431L195.6829268292683,34.1594488188976L197.41463414634148,34.1594488188976L199.14634146341464,34.1594488188976L200.87804878048777,34.1594488188976L202.60975609756096,34.1594488188976L204.34146341463412,34.1594488188976L206.0731707317073,34.1594488188976L206.0731707317073,33.23622047244095L207.80487804878047,33.23622047244095L209.53658536585365,33.23622047244095L211.2682926829268,33.23622047244095L211.2682926829268,32.31299212598424L213,32.31299212598424L214.73170731707316,32.31299212598424L216.46341463414635,32.31299212598424L216.46341463414635,31.389763779527527L218.1951219512195,31.389763779527527L218.1951219512195,30.466535433070874L219.9268292682927,30.466535433070874L219.9268292682927,29.543307086614163L221.65853658536585,29.543307086614163L223.39024390243904,29.543307086614163L225.1219512195122,29.543307086614163L226.85365853658536,29.543307086614163L226.85365853658536,28.62007874015751L228.58536585365854,28.62007874015751L230.3170731707317,28.62007874015751L230.3170731707317,27.6968503937008L232.0487804878049,27.6968503937008L233.78048780487805,27.6968503937008L233.78048780487805,26.77362204724409L235.51219512195124,26.77362204724409L237.2439024390244,26.77362204724409L237.2439024390244,25.850393700787436L238.97560975609758,25.850393700787436L240.70731707317074,25.850393700787436L240.70731707317074,24.927165354330725L242.43902439024393,24.927165354330725L244.17073170731706,24.927165354330725L245.90243902439022,24.927165354330725L247.6341463414634,24.927165354330725L249.36585365853657,24.927165354330725L251.09756097560975,24.927165354330725L252.8292682926829,24.927165354330725L254.5609756097561,24.927165354330725L256.2926829268293,24.927165354330725L258.0243902439024,24.927165354330725L258.0243902439024,24.003937007874015L259.7560975609756,24.003937007874015L261.4878048780488,24.003937007874015L263.2195121951219,24.003937007874015L264.9512195121951,24.003937007874015L266.6829268292683,24.003937007874015L266.6829268292683,23.08070866141736L268.4146341463415,23.08070866141736L270.1463414634146,23.08070866141736L271.8780487804878,23.08070866141736L273.609756097561,23.08070866141736L275.3414634146342,23.08070866141736L277.0731707317073,23.08070866141736L278.8048780487805,23.08070866141736L280.5365853658537,23.08070866141736L282.26829268292687,23.08070866141736L284,23.08070866141736L285.7317073170732,23.08070866141736L287.4634146341464,23.08070866141736L289.1951219512195,23.08070866141736L290.9268292682927,23.08070866141736L292.6585365853658,23.08070866141736L294.390243902439,23.08070866141736L294.390243902439,22.15748031496065L294.390243902439,21.23425196850394L294.390243902439,20.311023622047287L296.1219512195122,20.311023622047287L297.8536585365853,20.311023622047287L297.8536585365853,19.387795275590577L297.8536585365853,18.464566929133866L299.5853658536585,18.464566929133866L301.3170731707317,18.464566929133866L303.0487804878049,18.464566929133866L303.0487804878049,17.541338582677213L304.780487804878,17.541338582677213L304.780487804878,16.618110236220502L306.5121951219512,16.618110236220502L308.2439024390244,16.618110236220502L309.9756097560976,16.618110236220502L311.7073170731707,16.618110236220502L313.4390243902439,16.618110236220502L315.1707317073171,16.618110236220502L316.9024390243903,16.618110236220502L316.9024390243903,15.694881889763792L318.6341463414634,15.694881889763792L320.3658536585366,15.694881889763792L320.3658536585366,14.771653543307139L322.0975609756098,14.771653543307139L322.0975609756098,13.848425196850371L323.8292682926829,13.848425196850371L325.5609756097561,13.848425196850371L327.2926829268293,13.848425196850371L329.0243902439025,13.848425196850371L329.0243902439025,12.925196850393661L330.7560975609756,12.925196850393661L332.4878048780488,12.925196850393661L332.4878048780488,12.001968503937007L334.2195121951219,12.001968503937007L335.9512195121951,12.001968503937007L337.6829268292683,12.001968503937007L337.6829268292683,11.078740157480297L339.4146341463414,11.078740157480297L341.1463414634146,11.078740157480297L342.8780487804878,11.078740157480297L344.609756097561,11.078740157480297L346.3414634146341,11.078740157480297L348.0731707317073,11.078740157480297L349.8048780487805,11.078740157480297L351.5365853658537,11.078740157480297L351.5365853658537,10.155511811023587L353.2682926829268,10.155511811023587L355,10.155511811023587L356.7317073170732,10.155511811023587L356.7317073170732,9.232283464566933L358.4634146341463,9.232283464566933L360.1951219512195,9.232283464566933L361.9268292682927,9.232283464566933L361.9268292682927,8.309055118110223L361.9268292682927,7.385826771653512L361.9268292682927,6.462598425196859L363.6585365853659,6.462598425196859L365.390243902439,6.462598425196859L365.390243902439,5.5393700787401485L367.1219512195122,5.5393700787401485L368.8536585365854,5.5393700787401485L370.5853658536586,5.5393700787401485L372.3170731707317,5.5393700787401485L374.0487804878049,5.5393700787401485L375.7804878048781,5.5393700787401485L377.51219512195127,5.5393700787401485L379.2439024390244,5.5393700787401485L380.9756097560976,5.5393700787401485L382.70731707317077,5.5393700787401485L384.4390243902439,5.5393700787401485L386.1707317073171,5.5393700787401485L387.9024390243903,5.5393700787401485L389.63414634146346,5.5393700787401485L391.3658536585366,5.5393700787401485L393.0975609756098,5.5393700787401485L394.82926829268297,5.5393700787401485L396.56097560975616,5.5393700787401485L398.2926829268293,5.5393700787401485L400.0243902439024,5.5393700787401485L401.75609756097555,5.5393700787401485L403.48780487804873,5.5393700787401485L405.2195121951219,5.5393700787401485L406.9512195121951,5.5393700787401485L408.68292682926824,5.5393700787401485L410.4146341463414,5.5393700787401485L412.1463414634146,5.5393700787401485L413.8780487804878,5.5393700787401485L413.8780487804878,4.616141732283438L415.60975609756093,4.616141732283438L417.3414634146341,4.616141732283438L419.0731707317073,4.616141732283438L420.8048780487805,4.616141732283438L422.5365853658536,4.616141732283438L424.2682926829268,4.616141732283438L426,4.616141732283438L427.73170731707313,4.616141732283438L429.4634146341463,4.616141732283438L431.1951219512195,4.616141732283438L432.9268292682927,4.616141732283438L434.6585365853658,4.616141732283438L436.390243902439,4.616141732283438L438.1219512195122,4.616141732283438L439.8536585365854,4.616141732283438L441.5853658536585,4.616141732283438L443.3170731707317,4.616141732283438L445.0487804878049,4.616141732283438L446.7804878048781,4.616141732283438L448.5121951219512,4.616141732283438L450.2439024390244,4.616141732283438L451.9756097560976,4.616141732283438L451.9756097560976,3.6929133858267846L453.7073170731707,3.6929133858267846L455.4390243902439,3.6929133858267846L455.4390243902439,2.7696850393700743L457.1707317073171,2.7696850393700743L458.9024390243903,2.7696850393700743L460.6341463414634,2.7696850393700743L462.3658536585366,2.7696850393700743L464.0975609756098,2.7696850393700743L464.0975609756098,1.846456692913364L465.82926829268297,1.846456692913364L467.5609756097561,1.846456692913364L469.2926829268293,1.846456692913364L469.2926829268293,0.9232283464567104L471.0243902439025,0.9232283464567104L472.75609756097566,0.9232283464567104L474.4878048780488,0.9232283464567104L476.219512195122,0.9232283464567104L477.95121951219517,0.9232283464567104L479.6829268292683,0.9232283464567104L481.4146341463415,0.9232283464567104L483.1463414634147,0.9232283464567104L484.87804878048786,0.9232283464567104L486.609756097561,0.9232283464567104L488.3414634146341,0.9232283464567104L490.0731707317073,0.9232283464567104L491.80487804878044,0.9232283464567104L493.5365853658536,0.9232283464567104L495.2682926829268,0.9232283464567104L496.99999999999994,0.9232283464567104L498.73170731707313,0.9232283464567104L500.4634146341463,0.9232283464567104L502.1951219512195,0.9232283464567104L503.92682926829264,0.9232283464567104L505.6585365853658,0.9232283464567104L507.390243902439,0.9232283464567104L509.1219512195122,0.9232283464567104L510.8536585365853,0.9232283464567104L512.5853658536586,0.9232283464567104L514.3170731707316,0.9232283464567104L516.0487804878048,0.9232283464567104L517.780487804878,0.9232283464567104L519.5121951219512,0.9232283464567104L521.2439024390244,0.9232283464567104L522.9756097560976,0.9232283464567104L524.7073170731708,0.9232283464567104L526.4390243902438,0.9232283464567104L528.170731707317,0.9232283464567104L529.9024390243902,0.9232283464567104L531.6341463414634,0.9232283464567104L533.3658536585366,0.9232283464567104L535.0975609756098,0.9232283464567104L536.829268292683,0.9232283464567104L538.5609756097562,0.9232283464567104L540.2926829268292,0.9232283464567104L540.2926829268292,0L542.0243902439024,0L543.7560975609756,0L545.4878048780488,0L547.219512195122,0L548.9512195121952,0L550.6829268292684,0L552.4146341463414,0L554.1463414634146,0L555.8780487804878,0L557.609756097561,0L559.3414634146342,0L561.0731707317074,0L562.8048780487806,0L564.5365853658537,0L566.2682926829268,0L568,0L569.7317073170732,0L571.4634146341464,0L573.1951219512196,0L574.9268292682927,0L576.6585365853659,0L578.390243902439,0L580.1219512195122,0L581.8536585365854,0L583.5853658536585,0L585.3170731707316,0L587.0487804878048,0L588.780487804878,0L590.5121951219512,0L592.2439024390244,0L593.9756097560976,0L595.7073170731707,0L597.4390243902438,0L599.170731707317,0L600.9024390243902,0L602.6341463414634,0L604.3658536585366,0L606.0975609756098,0L607.829268292683,0L609.560975609756,0L611.2926829268292,0L613.0243902439024,0L614.7560975609756,0L616.4878048780488,0L618.219512195122,0L619.9512195121952,0L621.6829268292682,0L623.4146341463414,0L625.1463414634146,0L626.8780487804878,0L628.609756097561,0L630.3414634146342,0L632.0731707317074,0L633.8048780487806,0L635.5365853658536,0L637.2682926829268,0L639,0L640.7317073170732,0L642.4634146341464,0L644.1951219512196,0L645.9268292682927,0L647.6585365853658,0L649.390243902439,0L651.1219512195122,0L652.8536585365854,0L654.5853658536586,0L656.3170731707318,0L658.048780487805,0L659.7804878048781,0L661.5121951219512,0L663.2439024390244,0L664.9756097560976,0L666.7073170731707,0L668.4390243902438,0L670.170731707317,0L671.9024390243902,0L673.6341463414634,0L675.3658536585366,0L677.0975609756098,0L678.8292682926829,0L680.560975609756,0L682.2926829268292,0L684.0243902439024,0L685.7560975609756,0L687.4878048780488,0L689.219512195122,0L690.951219512195,0L692.6829268292682,0L694.4146341463414,0L696.1463414634146,0L697.8780487804878,0L699.609756097561,0L701.3414634146342,0L703.0731707317074,0L704.8048780487804,0L706.5365853658536,0L708.2682926829268,0L710,0"/>
        <g class="knime-legend" transform="translate(155,539)">
            <text class="knime-legend-label" x="20">
                NB
            </text>
            <circle fill="#d62728" r="5" class="knime-legend-symbol" cx="5"
                    cy="-5"/>
        </g>
        <path class="line"
              style="stroke: rgb(148, 103, 189); fill: none; stroke-width: 2;"
              d="M0,469L100.43902439024389,215.11220472440942L102.17073170731706,209.57283464566927L105.6341463414634,205.8799212598425L107.36585365853658,204.03346456692913L110.82926829268293,202.18700787401576L110.82926829268293,201.26377952755905L110.82926829268293,200.3405511811024L110.82926829268293,199.4173228346457L112.5609756097561,197.57086614173232L112.5609756097561,196.6476377952756L114.29268292682927,196.6476377952756L116.02439024390245,196.6476377952756L117.75609756097562,195.7244094488189L119.48780487804879,195.7244094488189L121.21951219512196,195.7244094488189L121.21951219512196,194.80118110236225L121.21951219512196,193.87795275590554L122.95121951219511,193.87795275590554L124.68292682926828,193.87795275590554L124.68292682926828,192.95472440944883L124.68292682926828,192.03149606299218L124.68292682926828,191.10826771653547L126.41463414634146,191.10826771653547L126.41463414634146,189.26181102362204L126.41463414634146,188.33858267716533L126.41463414634146,187.41535433070862L128.14634146341464,186.49212598425197L129.8780487804878,186.49212598425197L129.8780487804878,185.56889763779526L129.8780487804878,184.64566929133855L129.8780487804878,183.7224409448819L131.60975609756096,183.7224409448819L133.34146341463415,183.7224409448819L133.34146341463415,182.79921259842519L133.34146341463415,181.87598425196848L135.0731707317073,181.87598425196848L135.0731707317073,180.95275590551182L135.0731707317073,180.0295275590551L136.8048780487805,180.0295275590551L138.53658536585365,180.0295275590551L140.26829268292684,180.0295275590551L140.26829268292684,179.1062992125984L140.26829268292684,178.18307086614175L140.26829268292684,177.25984251968504L140.26829268292684,176.33661417322833L140.26829268292684,175.41338582677167L142,175.41338582677167L142,174.49015748031496L142,173.56692913385825L143.7317073170732,173.56692913385825L143.7317073170732,172.6437007874016L145.46341463414635,172.6437007874016L147.1951219512195,172.6437007874016L147.1951219512195,171.7204724409449L147.1951219512195,170.79724409448818L147.1951219512195,169.87401574803152L148.92682926829266,169.87401574803152L150.65853658536585,169.87401574803152L150.65853658536585,168.95078740157481L152.390243902439,168.95078740157481L152.390243902439,168.0275590551181L152.390243902439,167.10433070866145L154.1219512195122,167.10433070866145L155.85365853658536,167.10433070866145L157.58536585365854,167.10433070866145L159.3170731707317,167.10433070866145L159.3170731707317,166.18110236220474L161.0487804878049,166.18110236220474L162.78048780487805,166.18110236220474L164.51219512195124,166.18110236220474L166.2439024390244,166.18110236220474L167.97560975609755,166.18110236220474L169.7073170731707,166.18110236220474L169.7073170731707,165.25787401574803L169.7073170731707,164.33464566929138L171.4390243902439,164.33464566929138L171.4390243902439,163.41141732283467L173.17073170731706,163.41141732283467L173.17073170731706,162.48818897637796L173.17073170731706,161.5649606299213L173.17073170731706,160.64173228346453L173.17073170731706,159.71850393700782L174.90243902439025,159.71850393700782L176.6341463414634,159.71850393700782L178.3658536585366,159.71850393700782L180.09756097560975,159.71850393700782L180.09756097560975,158.79527559055117L180.09756097560975,157.87204724409446L180.09756097560975,156.94881889763775L181.82926829268294,156.94881889763775L181.82926829268294,156.0255905511811L181.82926829268294,155.1023622047244L181.82926829268294,154.17913385826768L183.5609756097561,154.17913385826768L183.5609756097561,153.25590551181102L183.5609756097561,152.3326771653543L183.5609756097561,151.4094488188976L183.5609756097561,150.48622047244095L183.5609756097561,149.56299212598424L183.5609756097561,148.63976377952753L185.2926829268293,148.63976377952753L185.2926829268293,147.71653543307087L185.2926829268293,146.79330708661416L187.02439024390245,146.79330708661416L188.75609756097563,146.79330708661416L188.75609756097563,145.8700787401575L188.75609756097563,144.9468503937008L188.75609756097563,144.0236220472441L188.75609756097563,143.10039370078744L188.75609756097563,142.17716535433073L188.75609756097563,141.25393700787401L188.75609756097563,140.33070866141736L188.75609756097563,139.40748031496065L188.75609756097563,138.48425196850394L190.4878048780488,138.48425196850394L190.4878048780488,137.5610236220473L190.4878048780488,136.63779527559058L192.21951219512195,136.63779527559058L192.21951219512195,135.71456692913387L192.21951219512195,134.7913385826772L192.21951219512195,133.8681102362205L193.95121951219514,133.8681102362205L193.95121951219514,132.9448818897638L193.95121951219514,132.02165354330714L195.6829268292683,132.02165354330714L195.6829268292683,131.09842519685037L195.6829268292683,130.17519685039366L195.6829268292683,129.251968503937L195.6829268292683,128.3287401574803L195.6829268292683,127.40551181102359L195.6829268292683,126.48228346456693L195.6829268292683,125.55905511811022L197.41463414634148,125.55905511811022L199.14634146341464,125.55905511811022L200.87804878048777,125.55905511811022L200.87804878048777,124.63582677165351L200.87804878048777,123.71259842519686L200.87804878048777,122.78937007874015L200.87804878048777,121.86614173228344L200.87804878048777,120.94291338582678L200.87804878048777,120.01968503937007L202.60975609756096,120.01968503937007L202.60975609756096,119.09645669291336L204.34146341463412,119.09645669291336L206.0731707317073,119.09645669291336L207.80487804878047,119.09645669291336L207.80487804878047,118.17322834645671L207.80487804878047,117.25L207.80487804878047,116.32677165354329L209.53658536585365,116.32677165354329L211.2682926829268,116.32677165354329L213,116.32677165354329L213,115.40354330708664L214.73170731707316,115.40354330708664L214.73170731707316,114.48031496062993L214.73170731707316,113.55708661417322L214.73170731707316,112.63385826771656L216.46341463414635,112.63385826771656L216.46341463414635,111.71062992125985L218.1951219512195,111.71062992125985L219.9268292682927,111.71062992125985L219.9268292682927,110.78740157480314L221.65853658536585,110.78740157480314L223.39024390243904,110.78740157480314L225.1219512195122,110.78740157480314L225.1219512195122,109.86417322834649L225.1219512195122,108.94094488188978L226.85365853658536,108.94094488188978L226.85365853658536,108.01771653543307L228.58536585365854,108.01771653543307L228.58536585365854,107.09448818897641L228.58536585365854,106.1712598425197L228.58536585365854,105.24803149606299L228.58536585365854,104.32480314960634L230.3170731707317,104.32480314960634L230.3170731707317,103.40157480314963L230.3170731707317,102.47834645669286L230.3170731707317,101.55511811023621L230.3170731707317,100.6318897637795L230.3170731707317,99.70866141732279L232.0487804878049,99.70866141732279L233.78048780487805,99.70866141732279L235.51219512195124,99.70866141732279L237.2439024390244,99.70866141732279L237.2439024390244,98.78543307086613L238.97560975609758,98.78543307086613L240.70731707317074,98.78543307086613L242.43902439024393,98.78543307086613L242.43902439024393,97.86220472440942L242.43902439024393,96.93897637795271L244.17073170731706,96.93897637795271L244.17073170731706,96.01574803149606L245.90243902439022,96.01574803149606L247.6341463414634,96.01574803149606L247.6341463414634,95.09251968503935L249.36585365853657,95.09251968503935L251.09756097560975,95.09251968503935L252.8292682926829,95.09251968503935L252.8292682926829,94.16929133858264L252.8292682926829,93.24606299212599L254.5609756097561,93.24606299212599L254.5609756097561,92.32283464566927L256.2926829268293,92.32283464566927L256.2926829268293,91.39960629921256L258.0243902439024,91.39960629921256L259.7560975609756,91.39960629921256L259.7560975609756,90.47637795275591L259.7560975609756,89.5531496062992L261.4878048780488,89.5531496062992L263.2195121951219,89.5531496062992L263.2195121951219,88.62992125984249L263.2195121951219,87.70669291338584L264.9512195121951,87.70669291338584L266.6829268292683,87.70669291338584L268.4146341463415,87.70669291338584L270.1463414634146,87.70669291338584L271.8780487804878,87.70669291338584L273.609756097561,87.70669291338584L273.609756097561,86.78346456692913L275.3414634146342,86.78346456692913L275.3414634146342,85.86023622047247L277.0731707317073,85.86023622047247L277.0731707317073,84.93700787401576L277.0731707317073,84.01377952755905L278.8048780487805,84.01377952755905L280.5365853658537,84.01377952755905L280.5365853658537,83.0905511811024L282.26829268292687,83.0905511811024L282.26829268292687,82.16732283464569L282.26829268292687,81.24409448818898L282.26829268292687,80.32086614173232L282.26829268292687,79.39763779527561L282.26829268292687,78.4744094488189L284,78.4744094488189L285.7317073170732,78.4744094488189L285.7317073170732,77.55118110236225L285.7317073170732,76.62795275590554L287.4634146341464,76.62795275590554L289.1951219512195,76.62795275590554L290.9268292682927,76.62795275590554L292.6585365853658,76.62795275590554L294.390243902439,76.62795275590554L296.1219512195122,76.62795275590554L296.1219512195122,75.70472440944883L297.8536585365853,75.70472440944883L297.8536585365853,74.78149606299218L299.5853658536585,74.78149606299218L299.5853658536585,73.85826771653547L301.3170731707317,73.85826771653547L303.0487804878049,73.85826771653547L304.780487804878,73.85826771653547L306.5121951219512,73.85826771653547L306.5121951219512,72.9350393700787L306.5121951219512,72.01181102362204L308.2439024390244,72.01181102362204L309.9756097560976,72.01181102362204L309.9756097560976,71.08858267716533L311.7073170731707,71.08858267716533L313.4390243902439,71.08858267716533L313.4390243902439,70.16535433070862L315.1707317073171,70.16535433070862L315.1707317073171,69.24212598425197L315.1707317073171,68.31889763779526L316.9024390243903,68.31889763779526L318.6341463414634,68.31889763779526L320.3658536585366,68.31889763779526L320.3658536585366,67.39566929133855L322.0975609756098,67.39566929133855L323.8292682926829,67.39566929133855L325.5609756097561,67.39566929133855L325.5609756097561,66.4724409448819L325.5609756097561,65.54921259842519L325.5609756097561,64.62598425196848L327.2926829268293,64.62598425196848L329.0243902439025,64.62598425196848L329.0243902439025,63.70275590551182L329.0243902439025,62.77952755905511L330.7560975609756,62.77952755905511L332.4878048780488,62.77952755905511L334.2195121951219,62.77952755905511L334.2195121951219,61.8562992125984L335.9512195121951,61.8562992125984L337.6829268292683,61.8562992125984L339.4146341463414,61.8562992125984L341.1463414634146,61.8562992125984L341.1463414634146,60.93307086614175L342.8780487804878,60.93307086614175L344.609756097561,60.93307086614175L344.609756097561,60.00984251968504L346.3414634146341,60.00984251968504L346.3414634146341,59.08661417322833L348.0731707317073,59.08661417322833L349.8048780487805,59.08661417322833L351.5365853658537,59.08661417322833L353.2682926829268,59.08661417322833L355,59.08661417322833L356.7317073170732,59.08661417322833L358.4634146341463,59.08661417322833L360.1951219512195,59.08661417322833L361.9268292682927,59.08661417322833L363.6585365853659,59.08661417322833L363.6585365853659,58.16338582677167L363.6585365853659,57.24015748031496L365.390243902439,57.24015748031496L367.1219512195122,57.24015748031496L367.1219512195122,56.31692913385825L368.8536585365854,56.31692913385825L370.5853658536586,56.31692913385825L372.3170731707317,56.31692913385825L374.0487804878049,56.31692913385825L375.7804878048781,56.31692913385825L377.51219512195127,56.31692913385825L379.2439024390244,56.31692913385825L379.2439024390244,55.3937007874016L379.2439024390244,54.47047244094489L380.9756097560976,54.47047244094489L380.9756097560976,53.54724409448818L382.70731707317077,53.54724409448818L384.4390243902439,53.54724409448818L384.4390243902439,52.624015748031525L386.1707317073171,52.624015748031525L386.1707317073171,51.700787401574814L386.1707317073171,50.777559055118104L387.9024390243903,50.777559055118104L389.63414634146346,50.777559055118104L391.3658536585366,50.777559055118104L391.3658536585366,49.85433070866145L393.0975609756098,49.85433070866145L394.82926829268297,49.85433070866145L396.56097560975616,49.85433070866145L398.2926829268293,49.85433070866145L400.0243902439024,49.85433070866145L401.75609756097555,49.85433070866145L403.48780487804873,49.85433070866145L405.2195121951219,49.85433070866145L406.9512195121951,49.85433070866145L408.68292682926824,49.85433070866145L410.4146341463414,49.85433070866145L410.4146341463414,48.93110236220474L412.1463414634146,48.93110236220474L413.8780487804878,48.93110236220474L415.60975609756093,48.93110236220474L415.60975609756093,48.00787401574803L415.60975609756093,47.084645669291376L417.3414634146341,47.084645669291376L417.3414634146341,46.161417322834666L417.3414634146341,45.238188976377955L419.0731707317073,45.238188976377955L420.8048780487805,45.238188976377955L420.8048780487805,44.3149606299213L422.5365853658536,44.3149606299213L422.5365853658536,43.391732283464535L424.2682926829268,43.391732283464535L424.2682926829268,42.468503937007824L426,42.468503937007824L427.73170731707313,42.468503937007824L429.4634146341463,42.468503937007824L431.1951219512195,42.468503937007824L431.1951219512195,41.54527559055117L432.9268292682927,41.54527559055117L432.9268292682927,40.62204724409446L434.6585365853658,40.62204724409446L436.390243902439,40.62204724409446L438.1219512195122,40.62204724409446L438.1219512195122,39.69881889763775L439.8536585365854,39.69881889763775L441.5853658536585,39.69881889763775L443.3170731707317,39.69881889763775L443.3170731707317,38.7755905511811L445.0487804878049,38.7755905511811L446.7804878048781,38.7755905511811L446.7804878048781,37.852362204724386L448.5121951219512,37.852362204724386L448.5121951219512,36.929133858267676L450.2439024390244,36.929133858267676L451.9756097560976,36.929133858267676L453.7073170731707,36.929133858267676L453.7073170731707,36.00590551181102L455.4390243902439,36.00590551181102L455.4390243902439,35.08267716535431L457.1707317073171,35.08267716535431L457.1707317073171,34.1594488188976L458.9024390243903,34.1594488188976L458.9024390243903,33.23622047244095L458.9024390243903,32.31299212598424L460.6341463414634,32.31299212598424L462.3658536585366,32.31299212598424L464.0975609756098,32.31299212598424L464.0975609756098,31.389763779527527L464.0975609756098,30.466535433070874L465.82926829268297,30.466535433070874L465.82926829268297,29.543307086614163L465.82926829268297,28.62007874015751L467.5609756097561,28.62007874015751L467.5609756097561,27.6968503937008L469.2926829268293,27.6968503937008L469.2926829268293,26.77362204724409L471.0243902439025,26.77362204724409L472.75609756097566,26.77362204724409L474.4878048780488,26.77362204724409L474.4878048780488,25.850393700787436L476.219512195122,25.850393700787436L476.219512195122,24.927165354330725L477.95121951219517,24.927165354330725L477.95121951219517,24.003937007874015L479.6829268292683,24.003937007874015L481.4146341463415,24.003937007874015L481.4146341463415,23.08070866141736L483.1463414634147,23.08070866141736L484.87804878048786,23.08070866141736L486.609756097561,23.08070866141736L488.3414634146341,23.08070866141736L488.3414634146341,22.15748031496065L490.0731707317073,22.15748031496065L491.80487804878044,22.15748031496065L493.5365853658536,22.15748031496065L495.2682926829268,22.15748031496065L495.2682926829268,21.23425196850394L496.99999999999994,21.23425196850394L498.73170731707313,21.23425196850394L498.73170731707313,20.311023622047287L498.73170731707313,19.387795275590577L500.4634146341463,19.387795275590577L502.1951219512195,19.387795275590577L503.92682926829264,19.387795275590577L505.6585365853658,19.387795275590577L507.390243902439,19.387795275590577L509.1219512195122,19.387795275590577L509.1219512195122,18.464566929133866L510.8536585365853,18.464566929133866L510.8536585365853,17.541338582677213L512.5853658536586,17.541338582677213L514.3170731707316,17.541338582677213L516.0487804878048,17.541338582677213L517.780487804878,17.541338582677213L517.780487804878,16.618110236220502L519.5121951219512,16.618110236220502L521.2439024390244,16.618110236220502L522.9756097560976,16.618110236220502L522.9756097560976,15.694881889763792L524.7073170731708,15.694881889763792L524.7073170731708,14.771653543307139L526.4390243902438,14.771653543307139L528.170731707317,14.771653543307139L529.9024390243902,14.771653543307139L531.6341463414634,14.771653543307139L533.3658536585366,14.771653543307139L533.3658536585366,13.848425196850371L535.0975609756098,13.848425196850371L535.0975609756098,12.925196850393661L535.0975609756098,12.001968503937007L535.0975609756098,11.078740157480297L536.829268292683,11.078740157480297L538.5609756097562,11.078740157480297L540.2926829268292,11.078740157480297L542.0243902439024,11.078740157480297L543.7560975609756,11.078740157480297L545.4878048780488,11.078740157480297L545.4878048780488,10.155511811023587L547.219512195122,10.155511811023587L547.219512195122,9.232283464566933L548.9512195121952,9.232283464566933L550.6829268292684,9.232283464566933L552.4146341463414,9.232283464566933L554.1463414634146,9.232283464566933L555.8780487804878,9.232283464566933L555.8780487804878,8.309055118110223L557.609756097561,8.309055118110223L557.609756097561,7.385826771653512L559.3414634146342,7.385826771653512L561.0731707317074,7.385826771653512L562.8048780487806,7.385826771653512L564.5365853658537,7.385826771653512L564.5365853658537,6.462598425196859L566.2682926829268,6.462598425196859L568,6.462598425196859L569.7317073170732,6.462598425196859L569.7317073170732,5.5393700787401485L571.4634146341464,5.5393700787401485L573.1951219512196,5.5393700787401485L574.9268292682927,5.5393700787401485L576.6585365853659,5.5393700787401485L578.390243902439,5.5393700787401485L580.1219512195122,5.5393700787401485L581.8536585365854,5.5393700787401485L583.5853658536585,5.5393700787401485L585.3170731707316,5.5393700787401485L587.0487804878048,5.5393700787401485L588.780487804878,5.5393700787401485L590.5121951219512,5.5393700787401485L592.2439024390244,5.5393700787401485L593.9756097560976,5.5393700787401485L595.7073170731707,5.5393700787401485L597.4390243902438,5.5393700787401485L599.170731707317,5.5393700787401485L600.9024390243902,5.5393700787401485L602.6341463414634,5.5393700787401485L604.3658536585366,5.5393700787401485L606.0975609756098,5.5393700787401485L607.829268292683,5.5393700787401485L609.560975609756,5.5393700787401485L611.2926829268292,5.5393700787401485L611.2926829268292,4.616141732283438L613.0243902439024,4.616141732283438L614.7560975609756,4.616141732283438L616.4878048780488,4.616141732283438L616.4878048780488,3.6929133858267846L618.219512195122,3.6929133858267846L619.9512195121952,3.6929133858267846L621.6829268292682,3.6929133858267846L623.4146341463414,3.6929133858267846L625.1463414634146,3.6929133858267846L626.8780487804878,3.6929133858267846L628.609756097561,3.6929133858267846L630.3414634146342,3.6929133858267846L632.0731707317074,3.6929133858267846L633.8048780487806,3.6929133858267846L635.5365853658536,3.6929133858267846L637.2682926829268,3.6929133858267846L639,3.6929133858267846L640.7317073170732,3.6929133858267846L642.4634146341464,3.6929133858267846L644.1951219512196,3.6929133858267846L645.9268292682927,3.6929133858267846L647.6585365853658,3.6929133858267846L649.390243902439,3.6929133858267846L651.1219512195122,3.6929133858267846L652.8536585365854,3.6929133858267846L654.5853658536586,3.6929133858267846L656.3170731707318,3.6929133858267846L658.048780487805,3.6929133858267846L659.7804878048781,3.6929133858267846L661.5121951219512,3.6929133858267846L663.2439024390244,3.6929133858267846L664.9756097560976,3.6929133858267846L666.7073170731707,3.6929133858267846L668.4390243902438,3.6929133858267846L670.170731707317,3.6929133858267846L671.9024390243902,3.6929133858267846L673.6341463414634,3.6929133858267846L675.3658536585366,3.6929133858267846L677.0975609756098,3.6929133858267846L678.8292682926829,3.6929133858267846L680.560975609756,3.6929133858267846L682.2926829268292,3.6929133858267846L684.0243902439024,3.6929133858267846L685.7560975609756,3.6929133858267846L687.4878048780488,3.6929133858267846L689.219512195122,3.6929133858267846L690.951219512195,3.6929133858267846L690.951219512195,2.7696850393700743L690.951219512195,1.846456692913364L692.6829268292682,1.846456692913364L694.4146341463414,1.846456692913364L696.1463414634146,1.846456692913364L697.8780487804878,1.846456692913364L699.609756097561,1.846456692913364L701.3414634146342,1.846456692913364L701.3414634146342,0.9232283464567104L703.0731707317074,0.9232283464567104L704.8048780487804,0.9232283464567104L706.5365853658536,0.9232283464567104L710,0"/>
        <g class="knime-legend" transform="translate(201,539)">
            <text class="knime-legend-label" x="20">
                XGB
            </text>
            <circle fill="#9467bd" r="5" class="knime-legend-symbol" cx="5"
                    cy="-5"/>
        </g>
        <path class="line"
              style="stroke: rgb(140, 86, 75); fill: none; stroke-width: 2;"
              d="M0,469L143.7317073170732,53.54724409448818L710,0"/>
        <g class="knime-legend" transform="translate(256,539)">
            <text class="knime-legend-label" x="20">
                k-NN
            </text>
            <circle fill="#8c564b" r="5" class="knime-legend-symbol" cx="5"
                    cy="-5"/>
        </g>
        <path class="line" style="stroke: black; fill: none; stroke-width: 2;"
              d="M0,469L710,0"/>
        <g class="knime-legend" transform="translate(313,539)">
            <text class="knime-legend-label" x="20">
                random
            </text>
            <circle fill="black" r="5" class="knime-legend-symbol" cx="5"
                    cy="-5"/>
        </g>
    </g>
    <g transform="translate(70,0)">
        <text class="knime-title" id="title" y="30">
            ROC Curve
        </text>
    </g>
</svg>