<!DOCTYPE svg PUBLIC "-//W3C//DTD SVG 1.1//EN"
    "http://www.w3.org/Graphics/SVG/1.1/DTD/svg11.dtd" >
<svg contentScriptType="text/ecmascript" width="800"
     xmlns:xlink="http://www.w3.org/1999/xlink" zoomAndPan="magnify"
     style="height: 600px;" contentStyleType="text/css" height="600"
     preserveAspectRatio="xMidYMid meet" xmlns="http://www.w3.org/2000/svg"
     version="1.0">
    <style type="text/css" xml:space="preserve">.knime-title { color: black; fill: black; font-size: 24px; }
.knime-label, .knime-axis-label, .knime-tick-label, .knime-label text, text.knime-axis-label, text.knime-tick-label { color: black; fill: black; font-size: 12px; }
.knime-legend-label, text.knime-legend-label { color: black; fill: black; font-size: 12px; font-weight: normal; }
.knime-tooltip-caption, .knime-tooltip-key, .knime-tooltip-value { color: black; fill: black; font-size: 12px; }
.knime-tooltip-key { font-weight: normal; }
.knime-tooltip-caption, .knime-tooltip-value { font-weight: bold; }</style><g transform="translate(70,46)">
        <rect x="-70" fill="rgb(255,255,255)" width="800" fill-opacity="1.0"
              height="600" y="-46"/>
        <rect fill="rgb(230,230,230)" width="710" fill-opacity="1.0"
              height="469"/>
        <g class="x axis knime-x knime-axis" transform="translate(0,469)">
            <g class="tick major knime-tick" style="opacity: 1;"
               transform="translate(0,0)">
                <line y2="-469" class="knime-tick-line" x2="0"
                      stroke="rgb(255,255,255)"/>
                <text x="0" dy=".71em" y="10" style="text-anchor: middle;"
                      class="knime-tick-label">
                    0.0
                </text>
            </g>
            <g class="tick major knime-tick" style="opacity: 1;"
               transform="translate(71,0)">
                <line y2="-469" class="knime-tick-line" x2="0"
                      stroke="rgb(255,255,255)"/>
                <text x="0" dy=".71em" y="10" style="text-anchor: middle;"
                      class="knime-tick-label">
                    0.1
                </text>
            </g>
            <g class="tick major knime-tick" style="opacity: 1;"
               transform="translate(142,0)">
                <line y2="-469" class="knime-tick-line" x2="0"
                      stroke="rgb(255,255,255)"/>
                <text x="0" dy=".71em" y="10" style="text-anchor: middle;"
                      class="knime-tick-label">
                    0.2
                </text>
            </g>
            <g class="tick major knime-tick" style="opacity: 1;"
               transform="translate(213,0)">
                <line y2="-469" class="knime-tick-line" x2="0"
                      stroke="rgb(255,255,255)"/>
                <text x="0" dy=".71em" y="10" style="text-anchor: middle;"
                      class="knime-tick-label">
                    0.3
                </text>
            </g>
            <g class="tick major knime-tick" style="opacity: 1;"
               transform="translate(284,0)">
                <line y2="-469" class="knime-tick-line" x2="0"
                      stroke="rgb(255,255,255)"/>
                <text x="0" dy=".71em" y="10" style="text-anchor: middle;"
                      class="knime-tick-label">
                    0.4
                </text>
            </g>
            <g class="tick major knime-tick" style="opacity: 1;"
               transform="translate(355,0)">
                <line y2="-469" class="knime-tick-line" x2="0"
                      stroke="rgb(255,255,255)"/>
                <text x="0" dy=".71em" y="10" style="text-anchor: middle;"
                      class="knime-tick-label">
                    0.5
                </text>
            </g>
            <g class="tick major knime-tick" style="opacity: 1;"
               transform="translate(426,0)">
                <line y2="-469" class="knime-tick-line" x2="0"
                      stroke="rgb(255,255,255)"/>
                <text x="0" dy=".71em" y="10" style="text-anchor: middle;"
                      class="knime-tick-label">
                    0.6
                </text>
            </g>
            <g class="tick major knime-tick" style="opacity: 1;"
               transform="translate(496.99999999999994,0)">
                <line y2="-469" class="knime-tick-line" x2="0"
                      stroke="rgb(255,255,255)"/>
                <text x="0" dy=".71em" y="10" style="text-anchor: middle;"
                      class="knime-tick-label">
                    0.7
                </text>
            </g>
            <g class="tick major knime-tick" style="opacity: 1;"
               transform="translate(568,0)">
                <line y2="-469" class="knime-tick-line" x2="0"
                      stroke="rgb(255,255,255)"/>
                <text x="0" dy=".71em" y="10" style="text-anchor: middle;"
                      class="knime-tick-label">
                    0.8
                </text>
            </g>
            <g class="tick major knime-tick" style="opacity: 1;"
               transform="translate(639,0)">
                <line y2="-469" class="knime-tick-line" x2="0"
                      stroke="rgb(255,255,255)"/>
                <text x="0" dy=".71em" y="10" style="text-anchor: middle;"
                      class="knime-tick-label">
                    0.9
                </text>
            </g>
            <g class="tick major knime-tick" style="opacity: 1;"
               transform="translate(710,0)">
                <line y2="-469" class="knime-tick-line" x2="0"
                      stroke="rgb(255,255,255)"/>
                <text x="0" dy=".71em" y="10" style="text-anchor: middle;"
                      class="knime-tick-label">
                    1.0
                </text>
            </g>
            <path fill="none" stroke-width="1" d="M0,0V0H710V0" class="domain"
                  stroke="rgb(255,255,255)"/>
        </g>
        <g class="y axis knime-y knime-axis">
            <g class="tick major knime-tick" style="opacity: 1;"
               transform="translate(0,469)">
                <line y2="0" class="knime-tick-line" x2="710"
                      stroke="rgb(255,255,255)"/>
                <text x="-10" dy=".32em" y="0" style="text-anchor: end;"
                      class="knime-tick-label">
                    0.0
                </text>
            </g>
            <g class="tick major knime-tick" style="opacity: 1;"
               transform="translate(0,422.1)">
                <line y2="0" class="knime-tick-line" x2="710"
                      stroke="rgb(255,255,255)"/>
                <text x="-10" dy=".32em" y="0" style="text-anchor: end;"
                      class="knime-tick-label">
                    0.1
                </text>
            </g>
            <g class="tick major knime-tick" style="opacity: 1;"
               transform="translate(0,375.2)">
                <line y2="0" class="knime-tick-line" x2="710"
                      stroke="rgb(255,255,255)"/>
                <text x="-10" dy=".32em" y="0" style="text-anchor: end;"
                      class="knime-tick-label">
                    0.2
                </text>
            </g>
            <g class="tick major knime-tick" style="opacity: 1;"
               transform="translate(0,328.3)">
                <line y2="0" class="knime-tick-line" x2="710"
                      stroke="rgb(255,255,255)"/>
                <text x="-10" dy=".32em" y="0" style="text-anchor: end;"
                      class="knime-tick-label">
                    0.3
                </text>
            </g>
            <g class="tick major knime-tick" style="opacity: 1;"
               transform="translate(0,281.4)">
                <line y2="0" class="knime-tick-line" x2="710"
                      stroke="rgb(255,255,255)"/>
                <text x="-10" dy=".32em" y="0" style="text-anchor: end;"
                      class="knime-tick-label">
                    0.4
                </text>
            </g>
            <g class="tick major knime-tick" style="opacity: 1;"
               transform="translate(0,234.5)">
                <line y2="0" class="knime-tick-line" x2="710"
                      stroke="rgb(255,255,255)"/>
                <text x="-10" dy=".32em" y="0" style="text-anchor: end;"
                      class="knime-tick-label">
                    0.5
                </text>
            </g>
            <g class="tick major knime-tick" style="opacity: 1;"
               transform="translate(0,187.60000000000002)">
                <line y2="0" class="knime-tick-line" x2="710"
                      stroke="rgb(255,255,255)"/>
                <text x="-10" dy=".32em" y="0" style="text-anchor: end;"
                      class="knime-tick-label">
                    0.6
                </text>
            </g>
            <g class="tick major knime-tick" style="opacity: 1;"
               transform="translate(0,140.70000000000005)">
                <line y2="0" class="knime-tick-line" x2="710"
                      stroke="rgb(255,255,255)"/>
                <text x="-10" dy=".32em" y="0" style="text-anchor: end;"
                      class="knime-tick-label">
                    0.7
                </text>
            </g>
            <g class="tick major knime-tick" style="opacity: 1;"
               transform="translate(0,93.79999999999995)">
                <line y2="0" class="knime-tick-line" x2="710"
                      stroke="rgb(255,255,255)"/>
                <text x="-10" dy=".32em" y="0" style="text-anchor: end;"
                      class="knime-tick-label">
                    0.8
                </text>
            </g>
            <g class="tick major knime-tick" style="opacity: 1;"
               transform="translate(0,46.89999999999998)">
                <line y2="0" class="knime-tick-line" x2="710"
                      stroke="rgb(255,255,255)"/>
                <text x="-10" dy=".32em" y="0" style="text-anchor: end;"
                      class="knime-tick-label">
                    0.9
                </text>
            </g>
            <g class="tick major knime-tick" style="opacity: 1;"
               transform="translate(0,0)">
                <line y2="0" class="knime-tick-line" x2="710"
                      stroke="rgb(255,255,255)"/>
                <text x="-10" dy=".32em" y="0" style="text-anchor: end;"
                      class="knime-tick-label">
                    1.0
                </text>
            </g>
            <path fill="none" stroke-width="1" d="M0,0H0V469H0" class="domain"
                  stroke="rgb(255,255,255)"/>
        </g>
        <text x="700" id="xtitle" y="514"
              class="x label knime-x knime-axis-label" text-anchor="end">
            False Positive Rate
        </text>
        <text dy=".75em" id="ytitle" y="-55"
              class="y label knime-y knime-axis-label" transform="rotate(-90)"
              text-anchor="end">
            True Positive Rate
        </text>
        <g class="knime-tooltip" transform="translate(626,344)">
            <text x="0" y="0" style="fill: rgb(31, 119, 180);"
                  class="knime-tooltip-key knime-tooltip-value knime-tooltip-color">
                DT-2 (0.809)
            </text>
            <text x="0" y="25" style="fill: rgb(255, 127, 14);"
                  class="knime-tooltip-key knime-tooltip-value knime-tooltip-color">
                DT-5 (0.881)
            </text>
            <text x="0" y="50" style="fill: rgb(44, 160, 44);"
                  class="knime-tooltip-key knime-tooltip-value knime-tooltip-color">
                DT-10 (0.887)
            </text>
            <text x="0" y="75" style="fill: rgb(214, 39, 40);"
                  class="knime-tooltip-key knime-tooltip-value knime-tooltip-color">
                DT-15 (0.892)
            </text>
            <text x="0" y="100" style="fill: rgb(148, 103, 189);"
                  class="knime-tooltip-key knime-tooltip-value knime-tooltip-color">
                DT-20 (0.863)
            </text>
        </g>
        <path class="line"
              style="stroke: rgb(31, 119, 180); fill: none; stroke-width: 2;"
              d="M0,469L84.85365853658536,252.04133858267716L84.85365853658536,239.11614173228347L86.58536585365853,221.5748031496063L90.04878048780488,196.6476377952756L91.78048780487805,195.7244094488189L95.2439024390244,192.03149606299218L95.2439024390244,183.7224409448819L95.2439024390244,180.0295275590551L96.97560975609757,173.56692913385825L98.70731707317074,168.95078740157481L102.17073170731706,160.64173228346453L105.6341463414634,145.8700787401575L109.09756097560975,135.71456692913387L109.09756097560975,132.9448818897638L110.82926829268293,119.09645669291336L110.82926829268293,117.25L112.5609756097561,114.48031496062993L112.5609756097561,111.71062992125985L114.29268292682927,108.94094488188978L114.29268292682927,105.24803149606299L117.75609756097562,104.32480314960634L121.21951219512196,101.55511811023621L133.34146341463415,98.78543307086613L133.34146341463415,97.86220472440942L147.1951219512195,87.70669291338584L148.92682926829266,87.70669291338584L148.92682926829266,85.86023622047247L150.65853658536585,85.86023622047247L150.65853658536585,84.93700787401576L150.65853658536585,84.01377952755905L155.85365853658536,82.16732283464569L161.0487804878049,73.85826771653547L164.51219512195124,68.31889763779526L174.90243902439025,64.62598425196848L180.09756097560975,63.70275590551182L180.09756097560975,62.77952755905511L180.09756097560975,61.8562992125984L181.82926829268294,60.00984251968504L188.75609756097563,58.16338582677167L199.14634146341464,57.24015748031496L206.0731707317073,56.31692913385825L211.2682926829268,56.31692913385825L216.46341463414635,56.31692913385825L221.65853658536585,53.54724409448818L225.1219512195122,52.624015748031525L252.8292682926829,51.700787401574814L299.5853658536585,50.777559055118104L303.0487804878049,50.777559055118104L335.9512195121951,49.85433070866145L365.390243902439,48.93110236220474L393.0975609756098,48.00787401574803L451.9756097560976,44.3149606299213L455.4390243902439,44.3149606299213L457.1707317073171,44.3149606299213L458.9024390243903,43.391732283464535L507.390243902439,40.62204724409446L550.6829268292684,40.62204724409446L592.2439024390244,40.62204724409446L623.4146341463414,40.62204724409446L710,0"/>
        <g class="knime-legend" transform="translate(0,539)">
            <text class="knime-legend-label" x="20">
                DT-2
            </text>
            <circle fill="#1f77b4" r="5" class="knime-legend-symbol" cx="5"
                    cy="-5"/>
        </g>
        <path class="line"
              style="stroke: rgb(255, 127, 14); fill: none; stroke-width: 2;"
              d="M0,469L24.243902439024392,432.07086614173227L31.17073170731707,395.14173228346453L32.90243902439024,390.5255905511811L36.36585365853659,346.21062992125985L41.5609756097561,299.1259842519685L43.292682926829265,271.42913385826773L45.02439024390244,264.04330708661416L46.75609756097561,257.58070866141736L46.75609756097561,253.88779527559055L57.146341463414636,189.26181102362204L58.87804878048781,184.64566929133855L60.60975609756098,181.87598425196848L64.07317073170732,167.10433070866145L65.80487804878048,147.71653543307087L69.26829268292683,142.17716535433073L69.26829268292683,140.33070866141736L72.73170731707317,139.40748031496065L72.73170731707317,138.48425196850394L72.73170731707317,133.8681102362205L72.73170731707317,130.17519685039366L77.92682926829268,124.63582677165351L77.92682926829268,122.78937007874015L83.1219512195122,113.55708661417322L100.43902439024389,108.01771653543307L102.17073170731706,106.1712598425197L105.6341463414634,103.40157480314963L112.5609756097561,93.24606299212599L114.29268292682927,92.32283464566927L116.02439024390245,88.62992125984249L116.02439024390245,84.93700787401576L117.75609756097562,80.32086614173232L119.48780487804879,75.70472440944883L126.41463414634146,73.85826771653547L126.41463414634146,72.9350393700787L131.60975609756096,72.9350393700787L138.53658536585365,72.01181102362204L138.53658536585365,71.08858267716533L140.26829268292684,70.16535433070862L147.1951219512195,65.54921259842519L150.65853658536585,64.62598425196848L155.85365853658536,59.08661417322833L159.3170731707317,57.24015748031496L169.7073170731707,50.777559055118104L176.6341463414634,48.00787401574803L178.3658536585366,46.161417322834666L199.14634146341464,46.161417322834666L200.87804878048777,44.3149606299213L206.0731707317073,43.391732283464535L207.80487804878047,43.391732283464535L225.1219512195122,36.00590551181102L235.51219512195124,34.1594488188976L237.2439024390244,33.23622047244095L240.70731707317074,31.389763779527527L242.43902439024393,28.62007874015751L247.6341463414634,28.62007874015751L252.8292682926829,24.927165354330725L254.5609756097561,23.08070866141736L266.6829268292683,22.15748031496065L284,17.541338582677213L290.9268292682927,16.618110236220502L292.6585365853658,16.618110236220502L294.390243902439,16.618110236220502L296.1219512195122,15.694881889763792L325.5609756097561,13.848425196850371L353.2682926829268,12.001968503937007L361.9268292682927,11.078740157480297L412.1463414634146,11.078740157480297L458.9024390243903,10.155511811023587L462.3658536585366,10.155511811023587L495.2682926829268,9.232283464566933L524.7073170731708,8.309055118110223L568,7.385826771653512L616.4878048780488,4.616141732283438L659.7804878048781,4.616141732283438L690.951219512195,4.616141732283438L710,0"/>
        <g class="knime-legend" transform="translate(56,539)">
            <text class="knime-legend-label" x="20">
                DT-5
            </text>
            <circle fill="#ff7f0e" r="5" class="knime-legend-symbol" cx="5"
                    cy="-5"/>
        </g>
        <path class="line"
              style="stroke: rgb(44, 160, 44); fill: none; stroke-width: 2;"
              d="M0,469L6.926829268292683,464.38385826771656L13.853658536585366,430.2244094488189L19.048780487804876,385.90944881889766L24.243902439024392,338.8248031496063L27.70731707317073,327.746062992126L29.439024390243905,318.51377952755905L39.829268292682926,253.88779527559055L39.829268292682926,252.04133858267716L46.75609756097561,195.7244094488189L48.487804878048784,181.87598425196848L50.21951219512194,179.1062992125984L53.68292682926829,175.41338582677167L53.68292682926829,173.56692913385825L53.68292682926829,168.95078740157481L58.87804878048781,167.10433070866145L62.34146341463414,157.87204724409446L72.73170731707317,151.4094488188976L72.73170731707317,150.48622047244095L72.73170731707317,149.56299212598424L74.46341463414633,143.10039370078744L91.78048780487805,136.63779527559058L95.2439024390244,135.71456692913387L100.43902439024389,129.251968503937L103.90243902439023,124.63582677165351L107.36585365853658,121.86614173228344L114.29268292682927,100.6318897637795L126.41463414634146,84.93700787401576L129.8780487804878,82.16732283464569L131.60975609756096,81.24409448818898L133.34146341463415,78.4744094488189L140.26829268292684,75.70472440944883L145.46341463414635,70.16535433070862L148.92682926829266,69.24212598425197L148.92682926829266,68.31889763779526L148.92682926829266,66.4724409448819L150.65853658536585,64.62598425196848L166.2439024390244,60.93307086614175L171.4390243902439,56.31692913385825L174.90243902439025,53.54724409448818L178.3658536585366,50.777559055118104L185.2926829268293,48.00787401574803L192.21951219512195,46.161417322834666L195.6829268292683,43.391732283464535L202.60975609756096,37.852362204724386L218.1951219512195,37.852362204724386L223.39024390243904,36.929133858267676L226.85365853658536,36.00590551181102L228.58536585365854,36.00590551181102L244.17073170731706,31.389763779527527L251.09756097560975,30.466535433070874L261.4878048780488,28.62007874015751L263.2195121951219,27.6968503937008L266.6829268292683,26.77362204724409L277.0731707317073,23.08070866141736L282.26829268292687,23.08070866141736L287.4634146341464,19.387795275590577L289.1951219512195,17.541338582677213L306.5121951219512,12.925196850393661L308.2439024390244,12.925196850393661L341.1463414634146,12.001968503937007L372.3170731707317,11.078740157480297L419.0731707317073,9.232283464566933L448.5121951219512,7.385826771653512L476.219512195122,5.5393700787401485L526.4390243902438,5.5393700787401485L561.0731707317074,5.5393700787401485L564.5365853658537,5.5393700787401485L618.219512195122,4.616141732283438L661.5121951219512,3.6929133858267846L710,0.9232283464567104L710,0"/>
        <g class="knime-legend" transform="translate(112,539)">
            <text class="knime-legend-label" x="20">
                DT-10
            </text>
            <circle fill="#2ca02c" r="5" class="knime-legend-symbol" cx="5"
                    cy="-5"/>
        </g>
        <path class="line"
              style="stroke: rgb(214, 39, 40); fill: none; stroke-width: 2;"
              d="M0,469L3.4634146341463414,465.3070866141732L8.658536585365853,418.2224409448819L12.121951219512196,407.1437007874016L22.51219512195122,342.51771653543307L29.439024390243905,286.2007874015748L50.21951219512194,227.11417322834646L50.21951219512194,216.03543307086613L67.53658536585365,156.0255905511811L71,152.3326771653543L71,151.4094488188976L71,146.79330708661416L81.39024390243902,140.33070866141736L81.39024390243902,139.40748031496065L91.78048780487805,136.63779527559058L95.2439024390244,135.71456692913387L100.43902439024389,129.251968503937L103.90243902439023,124.63582677165351L107.36585365853658,121.86614173228344L116.02439024390245,96.01574803149606L119.48780487804879,89.5531496062992L121.21951219512196,88.62992125984249L122.95121951219511,85.86023622047247L124.68292682926828,81.24409448818898L126.41463414634146,80.32086614173232L133.34146341463415,65.54921259842519L133.34146341463415,64.62598425196848L135.0731707317073,62.77952755905511L136.8048780487805,60.93307086614175L155.85365853658536,54.47047244094489L159.3170731707317,51.700787401574814L166.2439024390244,49.85433070866145L169.7073170731707,48.93110236220474L180.09756097560975,47.084645669291376L190.4878048780488,39.69881889763775L192.21951219512195,37.852362204724386L211.2682926829268,32.31299212598424L237.2439024390244,24.927165354330725L258.0243902439024,18.464566929133866L264.9512195121951,18.464566929133866L270.1463414634146,18.464566929133866L278.8048780487805,17.541338582677213L285.7317073170732,16.618110236220502L296.1219512195122,14.771653543307139L299.5853658536585,13.848425196850371L303.0487804878049,12.925196850393661L311.7073170731707,12.001968503937007L344.609756097561,11.078740157480297L375.7804878048781,10.155511811023587L422.5365853658536,8.309055118110223L451.9756097560976,6.462598425196859L479.6829268292683,4.616141732283438L529.9024390243902,4.616141732283438L564.5365853658537,4.616141732283438L618.219512195122,3.6929133858267846L661.5121951219512,2.7696850393700743L710,0"/>
        <g class="knime-legend" transform="translate(175,539)">
            <text class="knime-legend-label" x="20">
                DT-15
            </text>
            <circle fill="#d62728" r="5" class="knime-legend-symbol" cx="5"
                    cy="-5"/>
        </g>
        <path class="line"
              style="stroke: rgb(148, 103, 189); fill: none; stroke-width: 2;"
              d="M0,469L1.7317073170731707,467.15354330708664L22.51219512195122,408.06692913385825L39.829268292682926,348.0570866141732L58.87804878048781,289.8937007874016L79.65853658536585,219.7283464566929L93.51219512195122,159.71850393700782L103.90243902439023,153.25590551181102L114.29268292682927,150.48622047244095L117.75609756097562,149.56299212598424L122.95121951219511,141.25393700787401L128.14634146341464,134.7913385826772L131.60975609756096,130.17519685039366L135.0731707317073,122.78937007874015L138.53658536585365,120.01968503937007L147.1951219512195,94.16929133858264L154.1219512195122,73.85826771653547L155.85365853658536,69.24212598425197L162.78048780487805,54.47047244094489L162.78048780487805,53.54724409448818L166.2439024390244,52.624015748031525L171.4390243902439,51.700787401574814L173.17073170731706,50.777559055118104L178.3658536585366,48.00787401574803L188.75609756097563,40.62204724409446L190.4878048780488,38.7755905511811L209.53658536585365,36.00590551181102L228.58536585365854,30.466535433070874L254.5609756097561,23.08070866141736L275.3414634146342,16.618110236220502L282.26829268292687,16.618110236220502L290.9268292682927,15.694881889763792L297.8536585365853,14.771653543307139L308.2439024390244,12.925196850393661L311.7073170731707,12.001968503937007L344.609756097561,11.078740157480297L375.7804878048781,10.155511811023587L422.5365853658536,8.309055118110223L451.9756097560976,6.462598425196859L479.6829268292683,4.616141732283438L529.9024390243902,4.616141732283438L564.5365853658537,4.616141732283438L618.219512195122,3.6929133858267846L661.5121951219512,2.7696850393700743L710,0"/>
        <g class="knime-legend" transform="translate(238,539)">
            <text class="knime-legend-label" x="20">
                DT-20
            </text>
            <circle fill="#9467bd" r="5" class="knime-legend-symbol" cx="5"
                    cy="-5"/>
        </g>
        <path class="line" style="stroke: black; fill: none; stroke-width: 2;"
              d="M0,469L710,0"/>
        <g class="knime-legend" transform="translate(301,539)">
            <text class="knime-legend-label" x="20">
                random
            </text>
            <circle fill="black" r="5" class="knime-legend-symbol" cx="5"
                    cy="-5"/>
        </g>
    </g>
    <g transform="translate(70,0)">
        <text class="knime-title" id="title" y="30">
            ROC Curve
        </text>
    </g>
</svg>