<!DOCTYPE svg PUBLIC "-//W3C//DTD SVG 1.1//EN"
    "http://www.w3.org/Graphics/SVG/1.1/DTD/svg11.dtd" >
<svg contentScriptType="text/ecmascript" width="800"
     xmlns:xlink="http://www.w3.org/1999/xlink" zoomAndPan="magnify"
     style="height: 600px;" contentStyleType="text/css" height="600"
     preserveAspectRatio="xMidYMid meet" xmlns="http://www.w3.org/2000/svg"
     version="1.0">
    <style type="text/css" xml:space="preserve">.knime-title { color: black; fill: black; font-size: 24px; }
.knime-label, .knime-axis-label, .knime-tick-label, .knime-label text, text.knime-axis-label, text.knime-tick-label { color: black; fill: black; font-size: 12px; }
.knime-legend-label, text.knime-legend-label { color: black; fill: black; font-size: 12px; font-weight: normal; }
.knime-tooltip-caption, .knime-tooltip-key, .knime-tooltip-value { color: black; fill: black; font-size: 12px; }
.knime-tooltip-key { font-weight: normal; }
.knime-tooltip-caption, .knime-tooltip-value { font-weight: bold; }</style><g transform="translate(70,46)">
        <rect x="-70" fill="rgb(255,255,255)" width="800" fill-opacity="1.0"
              height="600" y="-46"/>
        <rect fill="rgb(230,230,230)" width="710" fill-opacity="1.0"
              height="469"/>
        <g class="x axis knime-x knime-axis" transform="translate(0,469)">
            <g class="tick major knime-tick" style="opacity: 1;"
               transform="translate(0,0)">
                <line y2="-469" class="knime-tick-line" x2="0"
                      stroke="rgb(255,255,255)"/>
                <text x="0" dy=".71em" y="10" style="text-anchor: middle;"
                      class="knime-tick-label">
                    0.0
                </text>
            </g>
            <g class="tick major knime-tick" style="opacity: 1;"
               transform="translate(71,0)">
                <line y2="-469" class="knime-tick-line" x2="0"
                      stroke="rgb(255,255,255)"/>
                <text x="0" dy=".71em" y="10" style="text-anchor: middle;"
                      class="knime-tick-label">
                    0.1
                </text>
            </g>
            <g class="tick major knime-tick" style="opacity: 1;"
               transform="translate(142,0)">
                <line y2="-469" class="knime-tick-line" x2="0"
                      stroke="rgb(255,255,255)"/>
                <text x="0" dy=".71em" y="10" style="text-anchor: middle;"
                      class="knime-tick-label">
                    0.2
                </text>
            </g>
            <g class="tick major knime-tick" style="opacity: 1;"
               transform="translate(213,0)">
                <line y2="-469" class="knime-tick-line" x2="0"
                      stroke="rgb(255,255,255)"/>
                <text x="0" dy=".71em" y="10" style="text-anchor: middle;"
                      class="knime-tick-label">
                    0.3
                </text>
            </g>
            <g class="tick major knime-tick" style="opacity: 1;"
               transform="translate(284,0)">
                <line y2="-469" class="knime-tick-line" x2="0"
                      stroke="rgb(255,255,255)"/>
                <text x="0" dy=".71em" y="10" style="text-anchor: middle;"
                      class="knime-tick-label">
                    0.4
                </text>
            </g>
            <g class="tick major knime-tick" style="opacity: 1;"
               transform="translate(355,0)">
                <line y2="-469" class="knime-tick-line" x2="0"
                      stroke="rgb(255,255,255)"/>
                <text x="0" dy=".71em" y="10" style="text-anchor: middle;"
                      class="knime-tick-label">
                    0.5
                </text>
            </g>
            <g class="tick major knime-tick" style="opacity: 1;"
               transform="translate(426,0)">
                <line y2="-469" class="knime-tick-line" x2="0"
                      stroke="rgb(255,255,255)"/>
                <text x="0" dy=".71em" y="10" style="text-anchor: middle;"
                      class="knime-tick-label">
                    0.6
                </text>
            </g>
            <g class="tick major knime-tick" style="opacity: 1;"
               transform="translate(496.99999999999994,0)">
                <line y2="-469" class="knime-tick-line" x2="0"
                      stroke="rgb(255,255,255)"/>
                <text x="0" dy=".71em" y="10" style="text-anchor: middle;"
                      class="knime-tick-label">
                    0.7
                </text>
            </g>
            <g class="tick major knime-tick" style="opacity: 1;"
               transform="translate(568,0)">
                <line y2="-469" class="knime-tick-line" x2="0"
                      stroke="rgb(255,255,255)"/>
                <text x="0" dy=".71em" y="10" style="text-anchor: middle;"
                      class="knime-tick-label">
                    0.8
                </text>
            </g>
            <g class="tick major knime-tick" style="opacity: 1;"
               transform="translate(639,0)">
                <line y2="-469" class="knime-tick-line" x2="0"
                      stroke="rgb(255,255,255)"/>
                <text x="0" dy=".71em" y="10" style="text-anchor: middle;"
                      class="knime-tick-label">
                    0.9
                </text>
            </g>
            <g class="tick major knime-tick" style="opacity: 1;"
               transform="translate(710,0)">
                <line y2="-469" class="knime-tick-line" x2="0"
                      stroke="rgb(255,255,255)"/>
                <text x="0" dy=".71em" y="10" style="text-anchor: middle;"
                      class="knime-tick-label">
                    1.0
                </text>
            </g>
            <path fill="none" stroke-width="1" d="M0,0V0H710V0" class="domain"
                  stroke="rgb(255,255,255)"/>
        </g>
        <g class="y axis knime-y knime-axis">
            <g class="tick major knime-tick" style="opacity: 1;"
               transform="translate(0,469)">
                <line y2="0" class="knime-tick-line" x2="710"
                      stroke="rgb(255,255,255)"/>
                <text x="-10" dy=".32em" y="0" style="text-anchor: end;"
                      class="knime-tick-label">
                    0.0
                </text>
            </g>
            <g class="tick major knime-tick" style="opacity: 1;"
               transform="translate(0,422.1)">
                <line y2="0" class="knime-tick-line" x2="710"
                      stroke="rgb(255,255,255)"/>
                <text x="-10" dy=".32em" y="0" style="text-anchor: end;"
                      class="knime-tick-label">
                    0.1
                </text>
            </g>
            <g class="tick major knime-tick" style="opacity: 1;"
               transform="translate(0,375.2)">
                <line y2="0" class="knime-tick-line" x2="710"
                      stroke="rgb(255,255,255)"/>
                <text x="-10" dy=".32em" y="0" style="text-anchor: end;"
                      class="knime-tick-label">
                    0.2
                </text>
            </g>
            <g class="tick major knime-tick" style="opacity: 1;"
               transform="translate(0,328.3)">
                <line y2="0" class="knime-tick-line" x2="710"
                      stroke="rgb(255,255,255)"/>
                <text x="-10" dy=".32em" y="0" style="text-anchor: end;"
                      class="knime-tick-label">
                    0.3
                </text>
            </g>
            <g class="tick major knime-tick" style="opacity: 1;"
               transform="translate(0,281.4)">
                <line y2="0" class="knime-tick-line" x2="710"
                      stroke="rgb(255,255,255)"/>
                <text x="-10" dy=".32em" y="0" style="text-anchor: end;"
                      class="knime-tick-label">
                    0.4
                </text>
            </g>
            <g class="tick major knime-tick" style="opacity: 1;"
               transform="translate(0,234.5)">
                <line y2="0" class="knime-tick-line" x2="710"
                      stroke="rgb(255,255,255)"/>
                <text x="-10" dy=".32em" y="0" style="text-anchor: end;"
                      class="knime-tick-label">
                    0.5
                </text>
            </g>
            <g class="tick major knime-tick" style="opacity: 1;"
               transform="translate(0,187.60000000000002)">
                <line y2="0" class="knime-tick-line" x2="710"
                      stroke="rgb(255,255,255)"/>
                <text x="-10" dy=".32em" y="0" style="text-anchor: end;"
                      class="knime-tick-label">
                    0.6
                </text>
            </g>
            <g class="tick major knime-tick" style="opacity: 1;"
               transform="translate(0,140.70000000000005)">
                <line y2="0" class="knime-tick-line" x2="710"
                      stroke="rgb(255,255,255)"/>
                <text x="-10" dy=".32em" y="0" style="text-anchor: end;"
                      class="knime-tick-label">
                    0.7
                </text>
            </g>
            <g class="tick major knime-tick" style="opacity: 1;"
               transform="translate(0,93.79999999999995)">
                <line y2="0" class="knime-tick-line" x2="710"
                      stroke="rgb(255,255,255)"/>
                <text x="-10" dy=".32em" y="0" style="text-anchor: end;"
                      class="knime-tick-label">
                    0.8
                </text>
            </g>
            <g class="tick major knime-tick" style="opacity: 1;"
               transform="translate(0,46.89999999999998)">
                <line y2="0" class="knime-tick-line" x2="710"
                      stroke="rgb(255,255,255)"/>
                <text x="-10" dy=".32em" y="0" style="text-anchor: end;"
                      class="knime-tick-label">
                    0.9
                </text>
            </g>
            <g class="tick major knime-tick" style="opacity: 1;"
               transform="translate(0,0)">
                <line y2="0" class="knime-tick-line" x2="710"
                      stroke="rgb(255,255,255)"/>
                <text x="-10" dy=".32em" y="0" style="text-anchor: end;"
                      class="knime-tick-label">
                    1.0
                </text>
            </g>
            <path fill="none" stroke-width="1" d="M0,0H0V469H0" class="domain"
                  stroke="rgb(255,255,255)"/>
        </g>
        <text x="700" id="xtitle" y="514"
              class="x label knime-x knime-axis-label" text-anchor="end">
            False Positive Rate
        </text>
        <text dy=".75em" id="ytitle" y="-55"
              class="y label knime-y knime-axis-label" transform="rotate(-90)"
              text-anchor="end">
            True Positive Rate
        </text>
        <g class="knime-tooltip" transform="translate(624,319)">
            <text x="0" y="0" style="fill: rgb(31, 119, 180);"
                  class="knime-tooltip-key knime-tooltip-value knime-tooltip-color">
                DT (0.844)
            </text>
            <text x="0" y="25" style="fill: rgb(255, 127, 14);"
                  class="knime-tooltip-key knime-tooltip-value knime-tooltip-color">
                RF (0.942)
            </text>
            <text x="0" y="50" style="fill: rgb(44, 160, 44);"
                  class="knime-tooltip-key knime-tooltip-value knime-tooltip-color">
                ZeroR (0.473)
            </text>
            <text x="0" y="75" style="fill: rgb(214, 39, 40);"
                  class="knime-tooltip-key knime-tooltip-value knime-tooltip-color">
                NB (0.917)
            </text>
            <text x="0" y="100" style="fill: rgb(148, 103, 189);"
                  class="knime-tooltip-key knime-tooltip-value knime-tooltip-color">
                XGB (0.802)
            </text>
            <text x="0" y="125" style="fill: rgb(140, 86, 75);"
                  class="knime-tooltip-key knime-tooltip-value knime-tooltip-color">
                k-NN (0.83)
            </text>
        </g>
        <path class="line"
              style="stroke: rgb(31, 119, 180); fill: none; stroke-width: 2;"
              d="M0,469L65.68897637795276,242.80905511811025L67.08661417322834,228.03740157480317L69.88188976377953,193.87795275590554L74.0748031496063,187.41535433070862L76.87007874015748,180.0295275590551L78.26771653543307,171.7204724409449L78.26771653543307,168.95078740157481L79.66535433070865,162.48818897637796L81.06299212598425,155.1023622047244L81.06299212598425,144.9468503937008L81.06299212598425,143.10039370078744L82.46062992125984,142.17716535433073L82.46062992125984,139.40748031496065L88.05118110236221,124.63582677165351L88.05118110236221,123.71259842519686L92.24409448818896,119.09645669291336L92.24409448818896,117.25L102.0275590551181,105.24803149606299L102.0275590551181,102.47834645669286L110.41338582677166,94.16929133858264L110.41338582677166,93.24606299212599L111.81102362204724,89.5531496062992L117.40157480314961,84.93700787401576L122.99212598425197,82.16732283464569L134.17322834645668,78.4744094488189L143.95669291338584,72.9350393700787L149.54724409448818,61.8562992125984L150.9448818897638,61.8562992125984L152.34251968503938,60.93307086614175L152.34251968503938,60.00984251968504L153.74015748031496,58.16338582677167L155.13779527559055,58.16338582677167L162.1259842519685,57.24015748031496L167.71653543307087,55.3937007874016L171.90944881889763,54.47047244094489L178.89763779527559,50.777559055118104L185.88582677165354,50.777559055118104L194.2716535433071,50.777559055118104L209.64566929133858,48.93110236220474L215.23622047244095,48.93110236220474L245.98425196850394,48.93110236220474L275.3346456692913,48.93110236220474L292.1062992125984,46.161417322834666L329.84251968503935,44.3149606299213L364.7834645669291,42.468503937007824L405.31496062992125,40.62204724409446L451.43700787401576,40.62204724409446L710,0"/>
        <g class="knime-legend" transform="translate(0,539)">
            <text class="knime-legend-label" x="20">
                DT
            </text>
            <circle fill="#1f77b4" r="5" class="knime-legend-symbol" cx="5"
                    cy="-5"/>
        </g>
        <path class="line"
              style="stroke: rgb(255, 127, 14); fill: none; stroke-width: 2;"
              d="M0,469L1.3976377952755905,453.3051181102362L2.795275590551181,435.76377952755905L2.795275590551181,416.3759842519685L2.795275590551181,394.2185039370079L2.795275590551181,376.67716535433067L5.590551181102362,348.9803149606299L5.590551181102362,333.28543307086613L6.988188976377953,321.2834645669291L6.988188976377953,304.6653543307087L8.385826771653543,291.74015748031496L8.385826771653543,276.0452755905512L11.181102362204724,263.1200787401575L13.976377952755906,243.73228346456693L13.976377952755906,235.42322834645668L13.976377952755906,225.2677165354331L16.771653543307085,216.03543307086613L18.169291338582678,211.41929133858264L19.566929133858267,199.4173228346457L22.362204724409448,190.1850393700787L23.75984251968504,181.87598425196848L23.75984251968504,172.6437007874016L26.555118110236222,167.10433070866145L26.555118110236222,161.5649606299213L27.95275590551181,154.17913385826768L29.350393700787404,148.63976377952753L32.145669291338585,143.10039370078744L34.94094488188976,138.48425196850394L37.73622047244095,136.63779527559058L39.13385826771653,132.9448818897638L40.531496062992126,129.251968503937L44.724409448818896,128.3287401574803L47.51968503937008,120.01968503937007L48.917322834645674,117.25L50.31496062992126,110.78740157480314L53.110236220472444,103.40157480314963L57.30314960629921,98.78543307086613L61.496062992125985,97.86220472440942L62.89370078740157,94.16929133858264L64.29133858267717,90.47637795275591L69.88188976377953,84.93700787401576L69.88188976377953,84.01377952755905L69.88188976377953,81.24409448818898L72.67716535433071,76.62795275590554L75.4724409448819,72.01181102362204L78.26771653543307,70.16535433070862L78.26771653543307,67.39566929133855L79.66535433070865,60.93307086614175L83.85826771653544,56.31692913385825L86.65354330708662,53.54724409448818L88.05118110236221,51.700787401574814L92.24409448818896,49.85433070866145L95.03937007874016,44.3149606299213L100.62992125984252,43.391732283464535L102.0275590551181,41.54527559055117L104.82283464566929,39.69881889763775L110.41338582677166,37.852362204724386L114.60629921259842,36.929133858267676L120.19685039370079,36.00590551181102L125.78740157480314,34.1594488188976L134.17322834645668,31.389763779527527L141.16141732283464,29.543307086614163L145.35433070866142,29.543307086614163L148.1496062992126,27.6968503937008L152.34251968503938,27.6968503937008L157.93307086614172,25.850393700787436L162.1259842519685,24.927165354330725L163.5236220472441,24.003937007874015L170.51181102362204,22.15748031496065L181.69291338582676,21.23425196850394L187.28346456692913,21.23425196850394L192.8740157480315,20.311023622047287L194.2716535433071,20.311023622047287L199.86220472440945,19.387795275590577L202.65748031496062,18.464566929133866L209.64566929133858,16.618110236220502L212.44094488188978,15.694881889763792L220.82677165354332,15.694881889763792L230.61023622047242,13.848425196850371L243.18897637795277,13.848425196850371L257.1653543307087,13.848425196850371L262.755905511811,13.848425196850371L275.3346456692913,12.001968503937007L289.31102362204723,12.001968503937007L293.503937007874,11.078740157480297L304.68503937007875,11.078740157480297L314.4685039370079,8.309055118110223L322.85433070866145,8.309055118110223L325.6496062992126,6.462598425196859L341.0236220472441,6.462598425196859L360.59055118110234,6.462598425196859L377.3622047244095,5.5393700787401485L403.9173228346457,5.5393700787401485L426.27952755905517,4.616141732283438L445.84645669291336,4.616141732283438L466.8110236220473,3.6929133858267846L496.1614173228346,0.9232283464567104L522.7165354330709,0.9232283464567104L563.248031496063,0.9232283464567104L620.5511811023622,0.9232283464567104L710,0"/>
        <g class="knime-legend" transform="translate(46,539)">
            <text class="knime-legend-label" x="20">
                RF
            </text>
            <circle fill="#ff7f0e" r="5" class="knime-legend-symbol" cx="5"
                    cy="-5"/>
        </g>
        <path class="line"
              style="stroke: rgb(44, 160, 44); fill: none; stroke-width: 2;"
              d="M0,469L150.9448818897638,381.29330708661416L297.69685039370074,290.81692913385825L441.65354330708664,198.49409448818898L575.8267716535433,99.70866141732279L710,0"/>
        <g class="knime-legend" transform="translate(92,539)">
            <text class="knime-legend-label" x="20">
                ZeroR
            </text>
            <circle fill="#2ca02c" r="5" class="knime-legend-symbol" cx="5"
                    cy="-5"/>
        </g>
        <path class="line"
              style="stroke: rgb(214, 39, 40); fill: none; stroke-width: 2;"
              d="M0,469L0,468.0767716535433L0,467.15354330708664L0,466.2303149606299L0,465.3070866141732L0,464.38385826771656L0,463.46062992125985L0,462.53740157480314L1.3976377952755905,462.53740157480314L1.3976377952755905,461.61417322834643L1.3976377952755905,460.6909448818898L1.3976377952755905,459.76771653543307L1.3976377952755905,458.84448818897636L1.3976377952755905,457.9212598425197L1.3976377952755905,456.998031496063L1.3976377952755905,456.0748031496063L1.3976377952755905,455.15157480314963L1.3976377952755905,454.2283464566929L1.3976377952755905,453.3051181102362L1.3976377952755905,452.38188976377955L1.3976377952755905,451.45866141732284L1.3976377952755905,450.53543307086613L1.3976377952755905,449.6122047244094L1.3976377952755905,448.68897637795277L1.3976377952755905,447.76574803149606L1.3976377952755905,446.84251968503935L1.3976377952755905,445.9192913385827L1.3976377952755905,444.996062992126L1.3976377952755905,444.0728346456693L1.3976377952755905,443.1496062992126L2.795275590551181,443.1496062992126L2.795275590551181,442.2263779527559L2.795275590551181,441.3031496062992L2.795275590551181,440.3799212598425L2.795275590551181,439.45669291338584L2.795275590551181,438.5334645669291L2.795275590551181,437.6102362204724L2.795275590551181,436.68700787401576L2.795275590551181,435.76377952755905L2.795275590551181,434.84055118110234L2.795275590551181,433.9173228346457L2.795275590551181,432.994094488189L2.795275590551181,432.07086614173227L2.795275590551181,431.1476377952756L2.795275590551181,430.2244094488189L2.795275590551181,429.3011811023622L2.795275590551181,428.37795275590554L2.795275590551181,427.45472440944883L2.795275590551181,426.5314960629921L2.795275590551181,425.6082677165354L2.795275590551181,424.68503937007875L4.192913385826771,424.68503937007875L4.192913385826771,423.76181102362204L4.192913385826771,422.83858267716533L4.192913385826771,421.9153543307087L4.192913385826771,420.99212598425197L4.192913385826771,420.06889763779526L4.192913385826771,419.14566929133855L4.192913385826771,418.2224409448819L4.192913385826771,417.2992125984252L4.192913385826771,416.3759842519685L4.192913385826771,415.4527559055118L4.192913385826771,414.5295275590551L4.192913385826771,413.6062992125984L4.192913385826771,412.68307086614175L5.590551181102362,412.68307086614175L5.590551181102362,411.75984251968504L5.590551181102362,410.8366141732283L5.590551181102362,409.9133858267717L5.590551181102362,408.99015748031496L5.590551181102362,408.06692913385825L5.590551181102362,407.1437007874016L5.590551181102362,406.2204724409449L5.590551181102362,405.2972440944882L5.590551181102362,404.3740157480315L5.590551181102362,403.4507874015748L5.590551181102362,402.5275590551181L5.590551181102362,401.60433070866145L5.590551181102362,400.68110236220474L5.590551181102362,399.75787401574803L5.590551181102362,398.8346456692913L5.590551181102362,397.9114173228346L5.590551181102362,396.98818897637796L5.590551181102362,396.06496062992125L5.590551181102362,395.14173228346453L5.590551181102362,394.2185039370079L5.590551181102362,393.29527559055117L5.590551181102362,392.37204724409446L5.590551181102362,391.4488188976378L5.590551181102362,390.5255905511811L5.590551181102362,389.6023622047244L5.590551181102362,388.67913385826773L5.590551181102362,387.755905511811L6.988188976377953,387.755905511811L6.988188976377953,386.8326771653543L6.988188976377953,385.90944881889766L6.988188976377953,384.98622047244095L6.988188976377953,384.06299212598424L6.988188976377953,383.1397637795276L8.385826771653543,383.1397637795276L8.385826771653543,382.2165354330709L8.385826771653543,381.29330708661416L8.385826771653543,380.3700787401575L8.385826771653543,379.4468503937008L8.385826771653543,378.5236220472441L8.385826771653543,377.60039370078744L8.385826771653543,376.67716535433067L8.385826771653543,375.753937007874L8.385826771653543,374.8307086614173L8.385826771653543,373.9074803149606L8.385826771653543,372.98425196850394L8.385826771653543,372.06102362204723L8.385826771653543,371.1377952755906L8.385826771653543,370.21456692913387L8.385826771653543,369.29133858267716L8.385826771653543,368.36811023622045L8.385826771653543,367.4448818897638L8.385826771653543,366.5216535433071L8.385826771653543,365.59842519685037L8.385826771653543,364.6751968503937L8.385826771653543,363.751968503937L8.385826771653543,362.8287401574803L8.385826771653543,361.90551181102364L8.385826771653543,360.98228346456693L8.385826771653543,360.0590551181102L8.385826771653543,359.13582677165357L8.385826771653543,358.21259842519686L8.385826771653543,357.28937007874015L8.385826771653543,356.3661417322835L8.385826771653543,355.4429133858268L8.385826771653543,354.5196850393701L8.385826771653543,353.59645669291336L8.385826771653543,352.6732283464567L8.385826771653543,351.75L8.385826771653543,350.8267716535433L8.385826771653543,349.90354330708664L8.385826771653543,348.9803149606299L8.385826771653543,348.0570866141732L8.385826771653543,347.13385826771656L9.783464566929133,347.13385826771656L11.181102362204724,347.13385826771656L11.181102362204724,346.21062992125985L11.181102362204724,345.28740157480314L11.181102362204724,344.36417322834643L11.181102362204724,343.4409448818898L11.181102362204724,342.51771653543307L11.181102362204724,341.59448818897636L11.181102362204724,340.6712598425197L11.181102362204724,339.748031496063L11.181102362204724,338.8248031496063L11.181102362204724,337.90157480314963L11.181102362204724,336.9783464566929L11.181102362204724,336.0551181102362L11.181102362204724,335.13188976377955L11.181102362204724,334.20866141732284L11.181102362204724,333.28543307086613L11.181102362204724,332.3622047244095L11.181102362204724,331.43897637795277L11.181102362204724,330.51574803149606L11.181102362204724,329.59251968503935L11.181102362204724,328.66929133858264L11.181102362204724,327.746062992126L11.181102362204724,326.8228346456693L11.181102362204724,325.89960629921256L11.181102362204724,324.9763779527559L11.181102362204724,324.0531496062992L11.181102362204724,323.1299212598425L11.181102362204724,322.20669291338584L11.181102362204724,321.2834645669291L11.181102362204724,320.3602362204724L11.181102362204724,319.43700787401576L11.181102362204724,318.51377952755905L11.181102362204724,317.59055118110234L12.578740157480315,317.59055118110234L12.578740157480315,316.6673228346457L12.578740157480315,315.744094488189L12.578740157480315,314.82086614173227L12.578740157480315,313.8976377952756L12.578740157480315,312.97440944881885L12.578740157480315,312.0511811023622L12.578740157480315,311.12795275590554L12.578740157480315,310.2047244094488L12.578740157480315,309.2814960629921L12.578740157480315,308.35826771653547L12.578740157480315,307.43503937007875L12.578740157480315,306.51181102362204L13.976377952755906,306.51181102362204L13.976377952755906,305.5885826771654L13.976377952755906,304.6653543307087L13.976377952755906,303.74212598425197L13.976377952755906,302.8188976377953L13.976377952755906,301.8956692913386L13.976377952755906,300.9724409448819L13.976377952755906,300.0492125984252L13.976377952755906,299.1259842519685L13.976377952755906,298.2027559055118L13.976377952755906,297.2795275590551L15.374015748031496,297.2795275590551L15.374015748031496,296.3562992125984L15.374015748031496,295.43307086614175L15.374015748031496,294.50984251968504L15.374015748031496,293.5866141732283L15.374015748031496,292.6633858267717L15.374015748031496,291.74015748031496L15.374015748031496,290.81692913385825L16.771653543307085,290.81692913385825L16.771653543307085,289.8937007874016L16.771653543307085,288.9704724409449L16.771653543307085,288.0472440944882L16.771653543307085,287.1240157480315L16.771653543307085,286.2007874015748L16.771653543307085,285.2775590551181L16.771653543307085,284.3543307086614L16.771653543307085,283.4311023622047L16.771653543307085,282.50787401574803L16.771653543307085,281.5846456692913L16.771653543307085,280.6614173228346L16.771653543307085,279.73818897637796L16.771653543307085,278.81496062992125L16.771653543307085,277.89173228346453L18.169291338582678,277.89173228346453L18.169291338582678,276.9685039370079L18.169291338582678,276.0452755905512L18.169291338582678,275.12204724409446L18.169291338582678,274.1988188976378L18.169291338582678,273.27559055118115L18.169291338582678,272.3523622047244L18.169291338582678,271.42913385826773L18.169291338582678,270.505905511811L19.566929133858267,270.505905511811L19.566929133858267,269.5826771653543L19.566929133858267,268.65944881889766L19.566929133858267,267.73622047244095L19.566929133858267,266.81299212598424L19.566929133858267,265.8897637795276L19.566929133858267,264.9665354330709L19.566929133858267,264.04330708661416L19.566929133858267,263.1200787401575L19.566929133858267,262.1968503937008L19.566929133858267,261.2736220472441L19.566929133858267,260.35039370078744L19.566929133858267,259.4271653543307L19.566929133858267,258.503937007874L19.566929133858267,257.58070866141736L19.566929133858267,256.65748031496065L19.566929133858267,255.7342519685039L19.566929133858267,254.81102362204723L20.96456692913386,254.81102362204723L20.96456692913386,253.88779527559055L20.96456692913386,252.96456692913384L20.96456692913386,252.04133858267716L20.96456692913386,251.11811023622047L20.96456692913386,250.19488188976376L20.96456692913386,249.27165354330708L20.96456692913386,248.3484251968504L22.362204724409448,248.3484251968504L22.362204724409448,247.42519685039372L22.362204724409448,246.501968503937L23.75984251968504,246.501968503937L25.15748031496063,246.501968503937L25.15748031496063,245.57874015748033L25.15748031496063,244.65551181102364L25.15748031496063,243.73228346456693L26.555118110236222,243.73228346456693L26.555118110236222,242.80905511811025L26.555118110236222,241.88582677165357L26.555118110236222,240.96259842519683L26.555118110236222,240.03937007874015L26.555118110236222,239.11614173228347L26.555118110236222,238.19291338582676L26.555118110236222,237.26968503937007L26.555118110236222,236.3464566929134L26.555118110236222,235.42322834645668L26.555118110236222,234.5L26.555118110236222,233.57677165354332L26.555118110236222,232.6535433070866L26.555118110236222,231.73031496062993L26.555118110236222,230.80708661417324L26.555118110236222,229.88385826771653L26.555118110236222,228.96062992125985L26.555118110236222,228.03740157480317L26.555118110236222,227.11417322834646L26.555118110236222,226.19094488188978L26.555118110236222,225.2677165354331L26.555118110236222,224.34448818897638L26.555118110236222,223.4212598425197L27.95275590551181,223.4212598425197L27.95275590551181,222.49803149606302L27.95275590551181,221.5748031496063L27.95275590551181,220.65157480314963L27.95275590551181,219.7283464566929L27.95275590551181,218.8051181102362L27.95275590551181,217.8818897637795L27.95275590551181,216.95866141732282L27.95275590551181,216.03543307086613L27.95275590551181,215.11220472440942L27.95275590551181,214.18897637795274L27.95275590551181,213.26574803149606L29.350393700787404,213.26574803149606L29.350393700787404,212.34251968503935L29.350393700787404,211.41929133858264L30.748031496062993,211.41929133858264L30.748031496062993,210.49606299212599L32.145669291338585,210.49606299212599L32.145669291338585,209.57283464566927L32.145669291338585,208.64960629921256L32.145669291338585,207.7263779527559L32.145669291338585,206.8031496062992L33.54330708661417,206.8031496062992L33.54330708661417,205.8799212598425L33.54330708661417,204.95669291338584L33.54330708661417,204.03346456692913L33.54330708661417,203.11023622047247L33.54330708661417,202.18700787401576L33.54330708661417,201.26377952755905L33.54330708661417,200.3405511811024L33.54330708661417,199.4173228346457L33.54330708661417,198.49409448818898L33.54330708661417,197.57086614173232L33.54330708661417,196.6476377952756L33.54330708661417,195.7244094488189L34.94094488188976,195.7244094488189L34.94094488188976,194.80118110236225L34.94094488188976,193.87795275590554L34.94094488188976,192.95472440944883L36.338582677165356,192.95472440944883L36.338582677165356,192.03149606299218L36.338582677165356,191.10826771653547L36.338582677165356,190.1850393700787L36.338582677165356,189.26181102362204L36.338582677165356,188.33858267716533L36.338582677165356,187.41535433070862L36.338582677165356,186.49212598425197L36.338582677165356,185.56889763779526L36.338582677165356,184.64566929133855L37.73622047244095,184.64566929133855L37.73622047244095,183.7224409448819L37.73622047244095,182.79921259842519L37.73622047244095,181.87598425196848L37.73622047244095,180.95275590551182L37.73622047244095,180.0295275590551L37.73622047244095,179.1062992125984L37.73622047244095,178.18307086614175L37.73622047244095,177.25984251968504L39.13385826771653,177.25984251968504L39.13385826771653,176.33661417322833L39.13385826771653,175.41338582677167L39.13385826771653,174.49015748031496L39.13385826771653,173.56692913385825L39.13385826771653,172.6437007874016L39.13385826771653,171.7204724409449L39.13385826771653,170.79724409448818L39.13385826771653,169.87401574803152L39.13385826771653,168.95078740157481L39.13385826771653,168.0275590551181L39.13385826771653,167.10433070866145L39.13385826771653,166.18110236220474L39.13385826771653,165.25787401574803L40.531496062992126,165.25787401574803L40.531496062992126,164.33464566929138L40.531496062992126,163.41141732283467L40.531496062992126,162.48818897637796L41.92913385826772,162.48818897637796L41.92913385826772,161.5649606299213L43.32677165354331,161.5649606299213L46.12204724409448,161.5649606299213L47.51968503937008,161.5649606299213L47.51968503937008,160.64173228346453L48.917322834645674,160.64173228346453L48.917322834645674,159.71850393700782L48.917322834645674,158.79527559055117L48.917322834645674,157.87204724409446L50.31496062992126,157.87204724409446L50.31496062992126,156.94881889763775L50.31496062992126,156.0255905511811L50.31496062992126,155.1023622047244L50.31496062992126,154.17913385826768L50.31496062992126,153.25590551181102L50.31496062992126,152.3326771653543L50.31496062992126,151.4094488188976L50.31496062992126,150.48622047244095L50.31496062992126,149.56299212598424L50.31496062992126,148.63976377952753L51.712598425196845,148.63976377952753L51.712598425196845,147.71653543307087L51.712598425196845,146.79330708661416L51.712598425196845,145.8700787401575L53.110236220472444,145.8700787401575L53.110236220472444,144.9468503937008L53.110236220472444,144.0236220472441L53.110236220472444,143.10039370078744L53.110236220472444,142.17716535433073L53.110236220472444,141.25393700787401L54.50787401574803,141.25393700787401L54.50787401574803,140.33070866141736L55.90551181102362,140.33070866141736L55.90551181102362,139.40748031496065L55.90551181102362,138.48425196850394L55.90551181102362,137.5610236220473L57.30314960629921,137.5610236220473L57.30314960629921,136.63779527559058L58.70078740157481,136.63779527559058L60.09842519685039,136.63779527559058L60.09842519685039,135.71456692913387L60.09842519685039,134.7913385826772L61.496062992125985,134.7913385826772L61.496062992125985,133.8681102362205L61.496062992125985,132.9448818897638L61.496062992125985,132.02165354330714L62.89370078740157,132.02165354330714L64.29133858267717,132.02165354330714L64.29133858267717,131.09842519685037L64.29133858267717,130.17519685039366L64.29133858267717,129.251968503937L64.29133858267717,128.3287401574803L64.29133858267717,127.40551181102359L64.29133858267717,126.48228346456693L64.29133858267717,125.55905511811022L64.29133858267717,124.63582677165351L64.29133858267717,123.71259842519686L65.68897637795276,123.71259842519686L65.68897637795276,122.78937007874015L67.08661417322834,122.78937007874015L68.48425196850394,122.78937007874015L68.48425196850394,121.86614173228344L68.48425196850394,120.94291338582678L68.48425196850394,120.01968503937007L68.48425196850394,119.09645669291336L69.88188976377953,119.09645669291336L69.88188976377953,118.17322834645671L69.88188976377953,117.25L71.27952755905513,117.25L71.27952755905513,116.32677165354329L72.67716535433071,116.32677165354329L72.67716535433071,115.40354330708664L72.67716535433071,114.48031496062993L72.67716535433071,113.55708661417322L74.0748031496063,113.55708661417322L75.4724409448819,113.55708661417322L76.87007874015748,113.55708661417322L76.87007874015748,112.63385826771656L76.87007874015748,111.71062992125985L76.87007874015748,110.78740157480314L76.87007874015748,109.86417322834649L76.87007874015748,108.94094488188978L76.87007874015748,108.01771653543307L76.87007874015748,107.09448818897641L78.26771653543307,107.09448818897641L78.26771653543307,106.1712598425197L78.26771653543307,105.24803149606299L79.66535433070865,105.24803149606299L79.66535433070865,104.32480314960634L79.66535433070865,103.40157480314963L79.66535433070865,102.47834645669286L81.06299212598425,102.47834645669286L81.06299212598425,101.55511811023621L81.06299212598425,100.6318897637795L81.06299212598425,99.70866141732279L81.06299212598425,98.78543307086613L81.06299212598425,97.86220472440942L81.06299212598425,96.93897637795271L82.46062992125984,96.93897637795271L82.46062992125984,96.01574803149606L82.46062992125984,95.09251968503935L82.46062992125984,94.16929133858264L82.46062992125984,93.24606299212599L82.46062992125984,92.32283464566927L82.46062992125984,91.39960629921256L83.85826771653544,91.39960629921256L85.25590551181102,91.39960629921256L86.65354330708662,91.39960629921256L88.05118110236221,91.39960629921256L88.05118110236221,90.47637795275591L89.44881889763779,90.47637795275591L89.44881889763779,89.5531496062992L89.44881889763779,88.62992125984249L89.44881889763779,87.70669291338584L89.44881889763779,86.78346456692913L89.44881889763779,85.86023622047247L90.84645669291338,85.86023622047247L90.84645669291338,84.93700787401576L92.24409448818896,84.93700787401576L92.24409448818896,84.01377952755905L93.64173228346456,84.01377952755905L95.03937007874016,84.01377952755905L96.43700787401575,84.01377952755905L96.43700787401575,83.0905511811024L97.83464566929135,83.0905511811024L99.23228346456693,83.0905511811024L99.23228346456693,82.16732283464569L100.62992125984252,82.16732283464569L100.62992125984252,81.24409448818898L100.62992125984252,80.32086614173232L100.62992125984252,79.39763779527561L100.62992125984252,78.4744094488189L100.62992125984252,77.55118110236225L100.62992125984252,76.62795275590554L100.62992125984252,75.70472440944883L102.0275590551181,75.70472440944883L102.0275590551181,74.78149606299218L103.42519685039369,74.78149606299218L104.82283464566929,74.78149606299218L106.22047244094489,74.78149606299218L107.61811023622047,74.78149606299218L109.01574803149606,74.78149606299218L109.01574803149606,73.85826771653547L109.01574803149606,72.9350393700787L110.41338582677166,72.9350393700787L110.41338582677166,72.01181102362204L111.81102362204724,72.01181102362204L111.81102362204724,71.08858267716533L113.20866141732283,71.08858267716533L113.20866141732283,70.16535433070862L113.20866141732283,69.24212598425197L114.60629921259842,69.24212598425197L116.003937007874,69.24212598425197L116.003937007874,68.31889763779526L116.003937007874,67.39566929133855L117.40157480314961,67.39566929133855L118.7992125984252,67.39566929133855L118.7992125984252,66.4724409448819L118.7992125984252,65.54921259842519L120.19685039370079,65.54921259842519L121.59448818897638,65.54921259842519L122.99212598425197,65.54921259842519L122.99212598425197,64.62598425196848L124.38976377952756,64.62598425196848L124.38976377952756,63.70275590551182L127.18503937007873,63.70275590551182L128.58267716535434,63.70275590551182L128.58267716535434,62.77952755905511L129.98031496062993,62.77952755905511L131.3779527559055,62.77952755905511L132.7755905511811,62.77952755905511L132.7755905511811,61.8562992125984L132.7755905511811,60.93307086614175L132.7755905511811,60.00984251968504L134.17322834645668,60.00984251968504L134.17322834645668,59.08661417322833L134.17322834645668,58.16338582677167L134.17322834645668,57.24015748031496L135.57086614173227,57.24015748031496L135.57086614173227,56.31692913385825L135.57086614173227,55.3937007874016L135.57086614173227,54.47047244094489L135.57086614173227,53.54724409448818L135.57086614173227,52.624015748031525L136.96850393700788,52.624015748031525L138.36614173228347,52.624015748031525L139.76377952755905,52.624015748031525L141.16141732283464,52.624015748031525L141.16141732283464,51.700787401574814L141.16141732283464,50.777559055118104L142.55905511811025,50.777559055118104L142.55905511811025,49.85433070866145L142.55905511811025,48.93110236220474L143.95669291338584,48.93110236220474L145.35433070866142,48.93110236220474L145.35433070866142,48.00787401574803L145.35433070866142,47.084645669291376L146.751968503937,47.084645669291376L148.1496062992126,47.084645669291376L149.54724409448818,47.084645669291376L150.9448818897638,47.084645669291376L152.34251968503938,47.084645669291376L153.74015748031496,47.084645669291376L153.74015748031496,46.161417322834666L153.74015748031496,45.238188976377955L155.13779527559055,45.238188976377955L156.53543307086613,45.238188976377955L157.93307086614172,45.238188976377955L159.3307086614173,45.238188976377955L160.7283464566929,45.238188976377955L160.7283464566929,44.3149606299213L162.1259842519685,44.3149606299213L163.5236220472441,44.3149606299213L163.5236220472441,43.391732283464535L164.92125984251967,43.391732283464535L166.3188976377953,43.391732283464535L167.71653543307087,43.391732283464535L167.71653543307087,42.468503937007824L167.71653543307087,41.54527559055117L167.71653543307087,40.62204724409446L167.71653543307087,39.69881889763775L169.11417322834646,39.69881889763775L170.51181102362204,39.69881889763775L171.90944881889763,39.69881889763775L171.90944881889763,38.7755905511811L171.90944881889763,37.852362204724386L173.30708661417324,37.852362204724386L174.70472440944883,37.852362204724386L176.10236220472441,37.852362204724386L176.10236220472441,36.929133858267676L177.5,36.929133858267676L178.89763779527559,36.929133858267676L180.29527559055117,36.929133858267676L181.69291338582676,36.929133858267676L181.69291338582676,36.00590551181102L183.09055118110234,36.00590551181102L184.48818897637793,36.00590551181102L185.88582677165354,36.00590551181102L187.28346456692913,36.00590551181102L188.68110236220474,36.00590551181102L188.68110236220474,35.08267716535431L188.68110236220474,34.1594488188976L190.07874015748033,34.1594488188976L191.4763779527559,34.1594488188976L192.8740157480315,34.1594488188976L194.2716535433071,34.1594488188976L194.2716535433071,33.23622047244095L195.6692913385827,33.23622047244095L197.06692913385828,33.23622047244095L198.46456692913387,33.23622047244095L199.86220472440945,33.23622047244095L201.25984251968504,33.23622047244095L202.65748031496062,33.23622047244095L204.0551181102362,33.23622047244095L205.4527559055118,33.23622047244095L206.85039370078738,33.23622047244095L206.85039370078738,32.31299212598424L208.24803149606296,32.31299212598424L209.64566929133858,32.31299212598424L211.0433070866142,32.31299212598424L212.44094488188978,32.31299212598424L213.83858267716536,32.31299212598424L215.23622047244095,32.31299212598424L216.63385826771653,32.31299212598424L219.42913385826773,32.31299212598424L219.42913385826773,31.389763779527527L220.82677165354332,31.389763779527527L222.2244094488189,31.389763779527527L223.6220472440945,31.389763779527527L223.6220472440945,30.466535433070874L225.01968503937007,30.466535433070874L226.41732283464566,30.466535433070874L227.81496062992125,30.466535433070874L229.21259842519683,30.466535433070874L230.61023622047242,30.466535433070874L233.40551181102364,30.466535433070874L234.80314960629923,30.466535433070874L234.80314960629923,29.543307086614163L236.20078740157481,29.543307086614163L237.5984251968504,29.543307086614163L238.99606299212599,29.543307086614163L240.39370078740157,29.543307086614163L241.79133858267716,29.543307086614163L241.79133858267716,28.62007874015751L241.79133858267716,27.6968503937008L241.79133858267716,26.77362204724409L241.79133858267716,25.850393700787436L243.18897637795277,25.850393700787436L244.58661417322836,25.850393700787436L245.98425196850394,25.850393700787436L247.38188976377953,25.850393700787436L248.7795275590551,25.850393700787436L248.7795275590551,24.927165354330725L250.1771653543307,24.927165354330725L250.1771653543307,24.003937007874015L251.57480314960628,24.003937007874015L252.97244094488187,24.003937007874015L254.37007874015745,24.003937007874015L255.7677165354331,24.003937007874015L257.1653543307087,24.003937007874015L258.56299212598424,24.003937007874015L259.96062992125985,24.003937007874015L261.35826771653547,24.003937007874015L261.35826771653547,23.08070866141736L262.755905511811,23.08070866141736L264.15354330708664,23.08070866141736L265.5511811023622,23.08070866141736L266.9488188976378,23.08070866141736L268.34645669291336,23.08070866141736L268.34645669291336,22.15748031496065L269.744094488189,22.15748031496065L271.14173228346453,22.15748031496065L272.53937007874015,22.15748031496065L273.93700787401576,22.15748031496065L275.3346456692913,22.15748031496065L276.73228346456693,22.15748031496065L278.12992125984255,22.15748031496065L279.5275590551181,22.15748031496065L280.9251968503937,22.15748031496065L282.3228346456693,22.15748031496065L283.7204724409449,22.15748031496065L285.1181102362205,22.15748031496065L285.1181102362205,21.23425196850394L285.1181102362205,20.311023622047287L286.51574803149606,20.311023622047287L286.51574803149606,19.387795275590577L287.9133858267717,19.387795275590577L289.31102362204723,19.387795275590577L290.70866141732284,19.387795275590577L292.1062992125984,19.387795275590577L293.503937007874,19.387795275590577L294.9015748031496,19.387795275590577L296.2992125984252,19.387795275590577L296.2992125984252,18.464566929133866L297.69685039370074,18.464566929133866L299.09448818897636,18.464566929133866L300.49212598425197,18.464566929133866L301.8897637795276,18.464566929133866L303.28740157480314,18.464566929133866L303.28740157480314,17.541338582677213L304.68503937007875,17.541338582677213L306.0826771653543,17.541338582677213L307.4803149606299,17.541338582677213L307.4803149606299,16.618110236220502L308.87795275590554,16.618110236220502L310.2755905511811,16.618110236220502L311.6732283464567,16.618110236220502L313.07086614173227,16.618110236220502L314.4685039370079,16.618110236220502L314.4685039370079,15.694881889763792L315.86614173228344,15.694881889763792L317.26377952755905,15.694881889763792L318.6614173228346,15.694881889763792L320.0590551181102,15.694881889763792L321.4566929133858,15.694881889763792L321.4566929133858,14.771653543307139L322.85433070866145,14.771653543307139L324.251968503937,14.771653543307139L325.6496062992126,14.771653543307139L327.0472440944882,14.771653543307139L328.4448818897638,14.771653543307139L329.84251968503935,14.771653543307139L331.24015748031496,14.771653543307139L332.6377952755906,14.771653543307139L334.03543307086613,14.771653543307139L335.43307086614175,14.771653543307139L336.8307086614173,14.771653543307139L336.8307086614173,13.848425196850371L338.2283464566929,13.848425196850371L338.2283464566929,12.925196850393661L338.2283464566929,12.001968503937007L338.2283464566929,11.078740157480297L339.6259842519685,11.078740157480297L341.0236220472441,11.078740157480297L341.0236220472441,10.155511811023587L342.42125984251965,10.155511811023587L343.81889763779526,10.155511811023587L345.2165354330709,10.155511811023587L346.6141732283465,10.155511811023587L346.6141732283465,9.232283464566933L348.01181102362204,9.232283464566933L349.40944881889766,9.232283464566933L350.8070866141732,9.232283464566933L352.20472440944883,9.232283464566933L353.6023622047244,9.232283464566933L355,9.232283464566933L356.3976377952756,9.232283464566933L357.79527559055117,9.232283464566933L359.1929133858268,9.232283464566933L360.59055118110234,9.232283464566933L361.98818897637796,9.232283464566933L361.98818897637796,8.309055118110223L363.3858267716535,8.309055118110223L363.3858267716535,7.385826771653512L364.7834645669291,7.385826771653512L366.1811023622047,7.385826771653512L367.5787401574803,7.385826771653512L368.97637795275585,7.385826771653512L370.37401574803147,7.385826771653512L371.7716535433071,7.385826771653512L373.16929133858264,7.385826771653512L374.56692913385825,7.385826771653512L375.9645669291338,7.385826771653512L377.3622047244095,7.385826771653512L378.7598425196851,7.385826771653512L381.55511811023626,7.385826771653512L382.9527559055118,7.385826771653512L384.35039370078744,7.385826771653512L385.748031496063,7.385826771653512L385.748031496063,6.462598425196859L387.1456692913386,6.462598425196859L388.5433070866142,6.462598425196859L389.9409448818898,6.462598425196859L391.3385826771654,6.462598425196859L392.73622047244095,6.462598425196859L394.13385826771656,6.462598425196859L395.5314960629921,6.462598425196859L396.92913385826773,6.462598425196859L396.92913385826773,5.5393700787401485L398.3267716535433,5.5393700787401485L399.7244094488189,5.5393700787401485L401.12204724409446,5.5393700787401485L402.5196850393701,5.5393700787401485L403.9173228346457,5.5393700787401485L405.31496062992125,5.5393700787401485L406.71259842519686,5.5393700787401485L408.1102362204724,5.5393700787401485L409.50787401574803,5.5393700787401485L410.9055118110236,5.5393700787401485L412.3031496062992,5.5393700787401485L413.70078740157476,5.5393700787401485L415.09842519685037,5.5393700787401485L416.4960629921259,5.5393700787401485L417.89370078740154,5.5393700787401485L419.29133858267716,5.5393700787401485L420.6889763779527,5.5393700787401485L420.6889763779527,4.616141732283438L422.0866141732284,4.616141732283438L423.484251968504,4.616141732283438L424.88188976377955,4.616141732283438L426.27952755905517,4.616141732283438L427.6771653543307,4.616141732283438L429.07480314960634,4.616141732283438L430.4724409448819,4.616141732283438L431.8700787401575,4.616141732283438L433.26771653543307,4.616141732283438L434.6653543307087,4.616141732283438L436.06299212598424,4.616141732283438L437.46062992125985,4.616141732283438L438.85826771653547,4.616141732283438L440.255905511811,4.616141732283438L441.65354330708664,4.616141732283438L443.0511811023622,4.616141732283438L444.4488188976378,4.616141732283438L445.84645669291336,4.616141732283438L445.84645669291336,3.6929133858267846L447.244094488189,3.6929133858267846L448.64173228346453,3.6929133858267846L450.03937007874015,3.6929133858267846L451.43700787401576,3.6929133858267846L452.8346456692913,3.6929133858267846L452.8346456692913,2.7696850393700743L454.23228346456693,2.7696850393700743L455.6299212598425,2.7696850393700743L457.0275590551181,2.7696850393700743L458.42519685039366,2.7696850393700743L459.8228346456693,2.7696850393700743L461.22047244094483,2.7696850393700743L462.61811023622045,2.7696850393700743L464.015748031496,2.7696850393700743L465.4133858267716,2.7696850393700743L466.8110236220473,2.7696850393700743L468.20866141732284,2.7696850393700743L469.60629921259846,2.7696850393700743L469.60629921259846,1.846456692913364L471.0039370078741,1.846456692913364L472.40157480314963,1.846456692913364L473.79921259842524,1.846456692913364L475.1968503937008,1.846456692913364L475.1968503937008,0.9232283464567104L476.5944881889764,0.9232283464567104L477.99212598425197,0.9232283464567104L479.3897637795276,0.9232283464567104L480.78740157480314,0.9232283464567104L482.18503937007875,0.9232283464567104L483.5826771653543,0.9232283464567104L484.9803149606299,0.9232283464567104L486.37795275590554,0.9232283464567104L487.7755905511811,0.9232283464567104L489.1732283464567,0.9232283464567104L490.57086614173227,0.9232283464567104L491.9685039370079,0.9232283464567104L493.36614173228344,0.9232283464567104L494.76377952755905,0.9232283464567104L496.1614173228346,0.9232283464567104L497.5590551181102,0.9232283464567104L498.9566929133858,0.9232283464567104L500.3543307086614,0.9232283464567104L501.751968503937,0.9232283464567104L503.14960629921256,0.9232283464567104L504.5472440944882,0.9232283464567104L505.94488188976374,0.9232283464567104L508.7401574803149,0.9232283464567104L510.1377952755905,0.9232283464567104L511.5354330708662,0.9232283464567104L512.9330708661417,0.9232283464567104L514.3307086614174,0.9232283464567104L515.728346456693,0.9232283464567104L517.1259842519685,0.9232283464567104L518.5236220472441,0.9232283464567104L519.9212598425197,0.9232283464567104L521.3188976377953,0.9232283464567104L522.7165354330709,0.9232283464567104L524.1141732283464,0.9232283464567104L525.511811023622,0.9232283464567104L526.9094488188977,0.9232283464567104L528.3070866141733,0.9232283464567104L529.7047244094488,0.9232283464567104L531.1023622047244,0.9232283464567104L532.5,0.9232283464567104L533.8976377952756,0.9232283464567104L535.2952755905512,0.9232283464567104L536.6929133858267,0.9232283464567104L539.488188976378,0.9232283464567104L540.8858267716536,0.9232283464567104L542.2834645669291,0.9232283464567104L543.6811023622047,0.9232283464567104L545.0787401574803,0.9232283464567104L546.4763779527559,0.9232283464567104L547.8740157480315,0.9232283464567104L549.271653543307,0.9232283464567104L550.6692913385826,0.9232283464567104L552.0669291338583,0.9232283464567104L553.4645669291339,0.9232283464567104L554.8622047244095,0.9232283464567104L556.2598425196851,0.9232283464567104L557.6574803149607,0.9232283464567104L559.0551181102362,0.9232283464567104L559.0551181102362,0L560.4527559055118,0L561.8503937007874,0L563.248031496063,0L564.6456692913385,0L566.0433070866142,0L567.4409448818898,0L568.8385826771654,0L570.236220472441,0L571.6338582677165,0L573.0314960629921,0L574.4291338582677,0L575.8267716535433,0L577.2244094488188,0L578.6220472440945,0L580.0196850393701,0L582.8149606299213,0L584.2125984251968,0L585.6102362204724,0L587.007874015748,0L588.4055118110236,0L589.8031496062991,0L591.2007874015748,0L592.5984251968504,0L593.996062992126,0L595.3937007874015,0L596.7913385826771,0L598.1889763779527,0L599.5866141732284,0L600.9842519685039,0L602.3818897637796,0L603.7795275590552,0L605.1771653543308,0L606.5748031496063,0L607.9724409448819,0L609.3700787401575,0L610.7677165354331,0L612.1653543307086,0L613.5629921259842,0L614.9606299212599,0L616.3582677165355,0L617.7559055118111,0L619.1535433070866,0L620.5511811023622,0L621.9488188976378,0L623.3464566929134,0L624.7440944881889,0L626.1417322834645,0L627.5393700787401,0L628.9370078740158,0L630.3346456692914,0L631.7322834645669,0L633.1299212598425,0L635.9251968503937,0L637.3228346456692,0L638.7204724409448,0L640.1181102362204,0L641.5157480314961,0L642.9133858267716,0L644.3110236220473,0L645.7086614173229,0L647.1062992125985,0L648.503937007874,0L649.9015748031496,0L651.2992125984252,0L652.6968503937009,0L654.0944881889764,0L655.492125984252,0L656.8897637795276,0L658.2874015748032,0L659.6850393700787,0L661.0826771653543,0L662.4803149606299,0L663.8779527559055,0L665.2755905511812,0L666.6732283464567,0L668.0708661417323,0L669.4685039370079,0L670.8661417322835,0L672.263779527559,0L673.6614173228346,0L675.0590551181102,0L676.4566929133858,0L677.8543307086615,0L679.251968503937,0L680.6496062992126,0L682.0472440944882,0L683.4448818897638,0L684.8425196850393,0L686.2401574803149,0L687.6377952755905,0L689.0354330708661,0L690.4330708661417,0L691.8307086614174,0L693.228346456693,0L694.6259842519685,0L696.0236220472441,0L697.4212598425197,0L698.8188976377953,0L700.2165354330709,0L701.6141732283464,0L703.011811023622,0L704.4094488188977,0L705.8070866141733,0L707.2047244094488,0L708.6023622047244,0L710,0"/>
        <g class="knime-legend" transform="translate(155,539)">
            <text class="knime-legend-label" x="20">
                NB
            </text>
            <circle fill="#d62728" r="5" class="knime-legend-symbol" cx="5"
                    cy="-5"/>
        </g>
        <path class="line"
              style="stroke: rgb(148, 103, 189); fill: none; stroke-width: 2;"
              d="M0,469L86.65354330708662,216.95866141732282L93.64173228346456,208.64960629921256L95.03937007874016,206.8031496062992L95.03937007874016,205.8799212598425L96.43700787401575,204.03346456692913L96.43700787401575,203.11023622047247L97.83464566929135,201.26377952755905L99.23228346456693,199.4173228346457L99.23228346456693,198.49409448818898L99.23228346456693,197.57086614173232L100.62992125984252,196.6476377952756L100.62992125984252,194.80118110236225L100.62992125984252,192.95472440944883L100.62992125984252,192.03149606299218L100.62992125984252,191.10826771653547L100.62992125984252,190.1850393700787L102.0275590551181,190.1850393700787L103.42519685039369,190.1850393700787L103.42519685039369,189.26181102362204L104.82283464566929,188.33858267716533L104.82283464566929,187.41535433070862L106.22047244094489,186.49212598425197L106.22047244094489,185.56889763779526L106.22047244094489,184.64566929133855L106.22047244094489,183.7224409448819L107.61811023622047,183.7224409448819L107.61811023622047,182.79921259842519L109.01574803149606,182.79921259842519L110.41338582677166,182.79921259842519L111.81102362204724,182.79921259842519L111.81102362204724,181.87598425196848L113.20866141732283,181.87598425196848L114.60629921259842,181.87598425196848L114.60629921259842,180.95275590551182L114.60629921259842,180.0295275590551L116.003937007874,180.0295275590551L117.40157480314961,180.0295275590551L117.40157480314961,179.1062992125984L118.7992125984252,179.1062992125984L118.7992125984252,178.18307086614175L120.19685039370079,178.18307086614175L120.19685039370079,177.25984251968504L120.19685039370079,176.33661417322833L120.19685039370079,175.41338582677167L121.59448818897638,175.41338582677167L121.59448818897638,174.49015748031496L122.99212598425197,174.49015748031496L122.99212598425197,173.56692913385825L124.38976377952756,173.56692913385825L124.38976377952756,172.6437007874016L125.78740157480314,172.6437007874016L127.18503937007873,172.6437007874016L127.18503937007873,171.7204724409449L127.18503937007873,170.79724409448818L127.18503937007873,169.87401574803152L127.18503937007873,168.95078740157481L127.18503937007873,168.0275590551181L128.58267716535434,168.0275590551181L129.98031496062993,168.0275590551181L131.3779527559055,168.0275590551181L131.3779527559055,167.10433070866145L132.7755905511811,167.10433070866145L134.17322834645668,167.10433070866145L135.57086614173227,167.10433070866145L135.57086614173227,166.18110236220474L136.96850393700788,166.18110236220474L138.36614173228347,166.18110236220474L139.76377952755905,166.18110236220474L139.76377952755905,165.25787401574803L141.16141732283464,165.25787401574803L141.16141732283464,164.33464566929138L142.55905511811025,164.33464566929138L143.95669291338584,164.33464566929138L145.35433070866142,164.33464566929138L145.35433070866142,163.41141732283467L145.35433070866142,162.48818897637796L146.751968503937,162.48818897637796L146.751968503937,161.5649606299213L146.751968503937,160.64173228346453L148.1496062992126,160.64173228346453L148.1496062992126,159.71850393700782L149.54724409448818,159.71850393700782L149.54724409448818,158.79527559055117L149.54724409448818,157.87204724409446L150.9448818897638,157.87204724409446L150.9448818897638,156.94881889763775L152.34251968503938,156.94881889763775L152.34251968503938,156.0255905511811L153.74015748031496,156.0255905511811L153.74015748031496,155.1023622047244L153.74015748031496,154.17913385826768L153.74015748031496,153.25590551181102L153.74015748031496,152.3326771653543L153.74015748031496,151.4094488188976L155.13779527559055,151.4094488188976L155.13779527559055,150.48622047244095L156.53543307086613,150.48622047244095L156.53543307086613,149.56299212598424L156.53543307086613,148.63976377952753L156.53543307086613,147.71653543307087L156.53543307086613,146.79330708661416L156.53543307086613,145.8700787401575L157.93307086614172,145.8700787401575L157.93307086614172,144.9468503937008L157.93307086614172,144.0236220472441L157.93307086614172,143.10039370078744L159.3307086614173,143.10039370078744L160.7283464566929,143.10039370078744L162.1259842519685,143.10039370078744L162.1259842519685,142.17716535433073L162.1259842519685,141.25393700787401L162.1259842519685,140.33070866141736L162.1259842519685,139.40748031496065L162.1259842519685,138.48425196850394L163.5236220472441,138.48425196850394L163.5236220472441,137.5610236220473L164.92125984251967,137.5610236220473L164.92125984251967,136.63779527559058L166.3188976377953,136.63779527559058L166.3188976377953,135.71456692913387L167.71653543307087,135.71456692913387L167.71653543307087,134.7913385826772L167.71653543307087,133.8681102362205L169.11417322834646,133.8681102362205L170.51181102362204,133.8681102362205L171.90944881889763,133.8681102362205L173.30708661417324,133.8681102362205L173.30708661417324,132.9448818897638L173.30708661417324,132.02165354330714L174.70472440944883,132.02165354330714L176.10236220472441,132.02165354330714L176.10236220472441,131.09842519685037L176.10236220472441,130.17519685039366L177.5,130.17519685039366L177.5,129.251968503937L178.89763779527559,129.251968503937L178.89763779527559,128.3287401574803L180.29527559055117,128.3287401574803L181.69291338582676,128.3287401574803L181.69291338582676,127.40551181102359L181.69291338582676,126.48228346456693L183.09055118110234,126.48228346456693L183.09055118110234,125.55905511811022L183.09055118110234,124.63582677165351L183.09055118110234,123.71259842519686L183.09055118110234,122.78937007874015L183.09055118110234,121.86614173228344L183.09055118110234,120.94291338582678L183.09055118110234,120.01968503937007L184.48818897637793,120.01968503937007L185.88582677165354,120.01968503937007L187.28346456692913,120.01968503937007L188.68110236220474,120.01968503937007L190.07874015748033,120.01968503937007L190.07874015748033,119.09645669291336L191.4763779527559,119.09645669291336L192.8740157480315,119.09645669291336L194.2716535433071,119.09645669291336L194.2716535433071,118.17322834645671L194.2716535433071,117.25L195.6692913385827,117.25L195.6692913385827,116.32677165354329L195.6692913385827,115.40354330708664L195.6692913385827,114.48031496062993L195.6692913385827,113.55708661417322L195.6692913385827,112.63385826771656L195.6692913385827,111.71062992125985L197.06692913385828,111.71062992125985L197.06692913385828,110.78740157480314L197.06692913385828,109.86417322834649L197.06692913385828,108.94094488188978L197.06692913385828,108.01771653543307L198.46456692913387,108.01771653543307L199.86220472440945,108.01771653543307L201.25984251968504,108.01771653543307L202.65748031496062,108.01771653543307L202.65748031496062,107.09448818897641L202.65748031496062,106.1712598425197L204.0551181102362,106.1712598425197L205.4527559055118,106.1712598425197L205.4527559055118,105.24803149606299L206.85039370078738,105.24803149606299L208.24803149606296,105.24803149606299L209.64566929133858,105.24803149606299L211.0433070866142,105.24803149606299L211.0433070866142,104.32480314960634L212.44094488188978,104.32480314960634L213.83858267716536,104.32480314960634L213.83858267716536,103.40157480314963L215.23622047244095,103.40157480314963L215.23622047244095,102.47834645669286L215.23622047244095,101.55511811023621L215.23622047244095,100.6318897637795L215.23622047244095,99.70866141732279L216.63385826771653,99.70866141732279L218.03149606299212,99.70866141732279L218.03149606299212,98.78543307086613L219.42913385826773,98.78543307086613L219.42913385826773,97.86220472440942L219.42913385826773,96.93897637795271L219.42913385826773,96.01574803149606L219.42913385826773,95.09251968503935L219.42913385826773,94.16929133858264L219.42913385826773,93.24606299212599L220.82677165354332,93.24606299212599L220.82677165354332,92.32283464566927L222.2244094488189,92.32283464566927L222.2244094488189,91.39960629921256L222.2244094488189,90.47637795275591L223.6220472440945,90.47637795275591L225.01968503937007,90.47637795275591L226.41732283464566,90.47637795275591L227.81496062992125,90.47637795275591L227.81496062992125,89.5531496062992L227.81496062992125,88.62992125984249L229.21259842519683,88.62992125984249L230.61023622047242,88.62992125984249L232.007874015748,88.62992125984249L232.007874015748,87.70669291338584L233.40551181102364,87.70669291338584L233.40551181102364,86.78346456692913L233.40551181102364,85.86023622047247L234.80314960629923,85.86023622047247L234.80314960629923,84.93700787401576L234.80314960629923,84.01377952755905L236.20078740157481,84.01377952755905L237.5984251968504,84.01377952755905L238.99606299212599,84.01377952755905L238.99606299212599,83.0905511811024L240.39370078740157,83.0905511811024L240.39370078740157,82.16732283464569L241.79133858267716,82.16732283464569L241.79133858267716,81.24409448818898L241.79133858267716,80.32086614173232L243.18897637795277,80.32086614173232L244.58661417322836,80.32086614173232L245.98425196850394,80.32086614173232L245.98425196850394,79.39763779527561L245.98425196850394,78.4744094488189L247.38188976377953,78.4744094488189L247.38188976377953,77.55118110236225L248.7795275590551,77.55118110236225L250.1771653543307,77.55118110236225L250.1771653543307,76.62795275590554L251.57480314960628,76.62795275590554L252.97244094488187,76.62795275590554L254.37007874015745,76.62795275590554L254.37007874015745,75.70472440944883L254.37007874015745,74.78149606299218L254.37007874015745,73.85826771653547L254.37007874015745,72.9350393700787L254.37007874015745,72.01181102362204L254.37007874015745,71.08858267716533L255.7677165354331,71.08858267716533L257.1653543307087,71.08858267716533L258.56299212598424,71.08858267716533L259.96062992125985,71.08858267716533L259.96062992125985,70.16535433070862L261.35826771653547,70.16535433070862L262.755905511811,70.16535433070862L262.755905511811,69.24212598425197L264.15354330708664,69.24212598425197L265.5511811023622,69.24212598425197L266.9488188976378,69.24212598425197L268.34645669291336,69.24212598425197L269.744094488189,69.24212598425197L271.14173228346453,69.24212598425197L272.53937007874015,69.24212598425197L273.93700787401576,69.24212598425197L273.93700787401576,68.31889763779526L275.3346456692913,68.31889763779526L275.3346456692913,67.39566929133855L276.73228346456693,67.39566929133855L278.12992125984255,67.39566929133855L278.12992125984255,66.4724409448819L279.5275590551181,66.4724409448819L279.5275590551181,65.54921259842519L280.9251968503937,65.54921259842519L282.3228346456693,65.54921259842519L283.7204724409449,65.54921259842519L285.1181102362205,65.54921259842519L286.51574803149606,65.54921259842519L287.9133858267717,65.54921259842519L289.31102362204723,65.54921259842519L290.70866141732284,65.54921259842519L292.1062992125984,65.54921259842519L293.503937007874,65.54921259842519L294.9015748031496,65.54921259842519L294.9015748031496,64.62598425196848L294.9015748031496,63.70275590551182L296.2992125984252,63.70275590551182L297.69685039370074,63.70275590551182L299.09448818897636,63.70275590551182L300.49212598425197,63.70275590551182L301.8897637795276,63.70275590551182L303.28740157480314,63.70275590551182L303.28740157480314,62.77952755905511L304.68503937007875,62.77952755905511L306.0826771653543,62.77952755905511L307.4803149606299,62.77952755905511L307.4803149606299,61.8562992125984L308.87795275590554,61.8562992125984L310.2755905511811,61.8562992125984L311.6732283464567,61.8562992125984L311.6732283464567,60.93307086614175L313.07086614173227,60.93307086614175L313.07086614173227,60.00984251968504L314.4685039370079,60.00984251968504L315.86614173228344,60.00984251968504L317.26377952755905,60.00984251968504L317.26377952755905,59.08661417322833L318.6614173228346,59.08661417322833L318.6614173228346,58.16338582677167L320.0590551181102,58.16338582677167L321.4566929133858,58.16338582677167L322.85433070866145,58.16338582677167L324.251968503937,58.16338582677167L324.251968503937,57.24015748031496L325.6496062992126,57.24015748031496L327.0472440944882,57.24015748031496L328.4448818897638,57.24015748031496L329.84251968503935,57.24015748031496L329.84251968503935,56.31692913385825L329.84251968503935,55.3937007874016L331.24015748031496,55.3937007874016L332.6377952755906,55.3937007874016L334.03543307086613,55.3937007874016L334.03543307086613,54.47047244094489L334.03543307086613,53.54724409448818L335.43307086614175,53.54724409448818L336.8307086614173,53.54724409448818L338.2283464566929,53.54724409448818L338.2283464566929,52.624015748031525L339.6259842519685,52.624015748031525L341.0236220472441,52.624015748031525L341.0236220472441,51.700787401574814L342.42125984251965,51.700787401574814L343.81889763779526,51.700787401574814L345.2165354330709,51.700787401574814L345.2165354330709,50.777559055118104L346.6141732283465,50.777559055118104L348.01181102362204,50.777559055118104L349.40944881889766,50.777559055118104L350.8070866141732,50.777559055118104L352.20472440944883,50.777559055118104L353.6023622047244,50.777559055118104L355,50.777559055118104L356.3976377952756,50.777559055118104L356.3976377952756,49.85433070866145L357.79527559055117,49.85433070866145L359.1929133858268,49.85433070866145L360.59055118110234,49.85433070866145L361.98818897637796,49.85433070866145L361.98818897637796,48.93110236220474L361.98818897637796,48.00787401574803L363.3858267716535,48.00787401574803L364.7834645669291,48.00787401574803L364.7834645669291,47.084645669291376L366.1811023622047,47.084645669291376L367.5787401574803,47.084645669291376L368.97637795275585,47.084645669291376L370.37401574803147,47.084645669291376L370.37401574803147,46.161417322834666L371.7716535433071,46.161417322834666L373.16929133858264,46.161417322834666L373.16929133858264,45.238188976377955L373.16929133858264,44.3149606299213L374.56692913385825,44.3149606299213L374.56692913385825,43.391732283464535L375.9645669291338,43.391732283464535L377.3622047244095,43.391732283464535L378.7598425196851,43.391732283464535L380.15748031496065,43.391732283464535L381.55511811023626,43.391732283464535L382.9527559055118,43.391732283464535L384.35039370078744,43.391732283464535L384.35039370078744,42.468503937007824L385.748031496063,42.468503937007824L387.1456692913386,42.468503937007824L388.5433070866142,42.468503937007824L388.5433070866142,41.54527559055117L388.5433070866142,40.62204724409446L389.9409448818898,40.62204724409446L391.3385826771654,40.62204724409446L392.73622047244095,40.62204724409446L394.13385826771656,40.62204724409446L395.5314960629921,40.62204724409446L396.92913385826773,40.62204724409446L398.3267716535433,40.62204724409446L398.3267716535433,39.69881889763775L399.7244094488189,39.69881889763775L401.12204724409446,39.69881889763775L402.5196850393701,39.69881889763775L403.9173228346457,39.69881889763775L405.31496062992125,39.69881889763775L405.31496062992125,38.7755905511811L406.71259842519686,38.7755905511811L408.1102362204724,38.7755905511811L409.50787401574803,38.7755905511811L410.9055118110236,38.7755905511811L410.9055118110236,37.852362204724386L412.3031496062992,37.852362204724386L413.70078740157476,37.852362204724386L413.70078740157476,36.929133858267676L415.09842519685037,36.929133858267676L415.09842519685037,36.00590551181102L416.4960629921259,36.00590551181102L416.4960629921259,35.08267716535431L417.89370078740154,35.08267716535431L419.29133858267716,35.08267716535431L420.6889763779527,35.08267716535431L422.0866141732284,35.08267716535431L423.484251968504,35.08267716535431L424.88188976377955,35.08267716535431L426.27952755905517,35.08267716535431L427.6771653543307,35.08267716535431L429.07480314960634,35.08267716535431L430.4724409448819,35.08267716535431L431.8700787401575,35.08267716535431L431.8700787401575,34.1594488188976L431.8700787401575,33.23622047244095L431.8700787401575,32.31299212598424L433.26771653543307,32.31299212598424L434.6653543307087,32.31299212598424L436.06299212598424,32.31299212598424L436.06299212598424,31.389763779527527L437.46062992125985,31.389763779527527L437.46062992125985,30.466535433070874L438.85826771653547,30.466535433070874L440.255905511811,30.466535433070874L441.65354330708664,30.466535433070874L443.0511811023622,30.466535433070874L444.4488188976378,30.466535433070874L445.84645669291336,30.466535433070874L447.244094488189,30.466535433070874L448.64173228346453,30.466535433070874L450.03937007874015,30.466535433070874L451.43700787401576,30.466535433070874L452.8346456692913,30.466535433070874L454.23228346456693,30.466535433070874L455.6299212598425,30.466535433070874L457.0275590551181,30.466535433070874L458.42519685039366,30.466535433070874L458.42519685039366,29.543307086614163L459.8228346456693,29.543307086614163L461.22047244094483,29.543307086614163L461.22047244094483,28.62007874015751L462.61811023622045,28.62007874015751L462.61811023622045,27.6968503937008L464.015748031496,27.6968503937008L465.4133858267716,27.6968503937008L466.8110236220473,27.6968503937008L468.20866141732284,27.6968503937008L469.60629921259846,27.6968503937008L471.0039370078741,27.6968503937008L472.40157480314963,27.6968503937008L473.79921259842524,27.6968503937008L475.1968503937008,27.6968503937008L475.1968503937008,26.77362204724409L476.5944881889764,26.77362204724409L477.99212598425197,26.77362204724409L479.3897637795276,26.77362204724409L479.3897637795276,25.850393700787436L480.78740157480314,25.850393700787436L482.18503937007875,25.850393700787436L483.5826771653543,25.850393700787436L483.5826771653543,24.927165354330725L484.9803149606299,24.927165354330725L484.9803149606299,24.003937007874015L486.37795275590554,24.003937007874015L487.7755905511811,24.003937007874015L489.1732283464567,24.003937007874015L490.57086614173227,24.003937007874015L491.9685039370079,24.003937007874015L493.36614173228344,24.003937007874015L493.36614173228344,23.08070866141736L494.76377952755905,23.08070866141736L496.1614173228346,23.08070866141736L497.5590551181102,23.08070866141736L498.9566929133858,23.08070866141736L500.3543307086614,23.08070866141736L501.751968503937,23.08070866141736L503.14960629921256,23.08070866141736L503.14960629921256,22.15748031496065L504.5472440944882,22.15748031496065L504.5472440944882,21.23425196850394L505.94488188976374,21.23425196850394L507.34251968503935,21.23425196850394L508.7401574803149,21.23425196850394L508.7401574803149,20.311023622047287L510.1377952755905,20.311023622047287L511.5354330708662,20.311023622047287L512.9330708661417,20.311023622047287L514.3307086614174,20.311023622047287L515.728346456693,20.311023622047287L517.1259842519685,20.311023622047287L518.5236220472441,20.311023622047287L519.9212598425197,20.311023622047287L521.3188976377953,20.311023622047287L521.3188976377953,19.387795275590577L522.7165354330709,19.387795275590577L524.1141732283464,19.387795275590577L524.1141732283464,18.464566929133866L525.511811023622,18.464566929133866L526.9094488188977,18.464566929133866L526.9094488188977,17.541338582677213L528.3070866141733,17.541338582677213L528.3070866141733,16.618110236220502L529.7047244094488,16.618110236220502L529.7047244094488,15.694881889763792L531.1023622047244,15.694881889763792L532.5,15.694881889763792L533.8976377952756,15.694881889763792L535.2952755905512,15.694881889763792L536.6929133858267,15.694881889763792L538.0905511811023,15.694881889763792L539.488188976378,15.694881889763792L539.488188976378,14.771653543307139L540.8858267716536,14.771653543307139L542.2834645669291,14.771653543307139L543.6811023622047,14.771653543307139L545.0787401574803,14.771653543307139L546.4763779527559,14.771653543307139L546.4763779527559,13.848425196850371L547.8740157480315,13.848425196850371L549.271653543307,13.848425196850371L550.6692913385826,13.848425196850371L552.0669291338583,13.848425196850371L553.4645669291339,13.848425196850371L554.8622047244095,13.848425196850371L556.2598425196851,13.848425196850371L557.6574803149607,13.848425196850371L559.0551181102362,13.848425196850371L560.4527559055118,13.848425196850371L561.8503937007874,13.848425196850371L563.248031496063,13.848425196850371L564.6456692913385,13.848425196850371L566.0433070866142,13.848425196850371L567.4409448818898,13.848425196850371L568.8385826771654,13.848425196850371L570.236220472441,13.848425196850371L571.6338582677165,13.848425196850371L573.0314960629921,13.848425196850371L574.4291338582677,13.848425196850371L575.8267716535433,13.848425196850371L577.2244094488188,13.848425196850371L577.2244094488188,12.925196850393661L578.6220472440945,12.925196850393661L580.0196850393701,12.925196850393661L581.4173228346457,12.925196850393661L582.8149606299213,12.925196850393661L584.2125984251968,12.925196850393661L585.6102362204724,12.925196850393661L587.007874015748,12.925196850393661L588.4055118110236,12.925196850393661L589.8031496062991,12.925196850393661L591.2007874015748,12.925196850393661L592.5984251968504,12.925196850393661L593.996062992126,12.925196850393661L595.3937007874015,12.925196850393661L595.3937007874015,12.001968503937007L595.3937007874015,11.078740157480297L596.7913385826771,11.078740157480297L598.1889763779527,11.078740157480297L599.5866141732284,11.078740157480297L600.9842519685039,11.078740157480297L602.3818897637796,11.078740157480297L603.7795275590552,11.078740157480297L603.7795275590552,10.155511811023587L605.1771653543308,10.155511811023587L605.1771653543308,9.232283464566933L606.5748031496063,9.232283464566933L607.9724409448819,9.232283464566933L607.9724409448819,8.309055118110223L609.3700787401575,8.309055118110223L609.3700787401575,7.385826771653512L610.7677165354331,7.385826771653512L612.1653543307086,7.385826771653512L613.5629921259842,7.385826771653512L614.9606299212599,7.385826771653512L616.3582677165355,7.385826771653512L617.7559055118111,7.385826771653512L617.7559055118111,6.462598425196859L619.1535433070866,6.462598425196859L620.5511811023622,6.462598425196859L621.9488188976378,6.462598425196859L623.3464566929134,6.462598425196859L624.7440944881889,6.462598425196859L626.1417322834645,6.462598425196859L626.1417322834645,5.5393700787401485L627.5393700787401,5.5393700787401485L627.5393700787401,4.616141732283438L628.9370078740158,4.616141732283438L630.3346456692914,4.616141732283438L631.7322834645669,4.616141732283438L633.1299212598425,4.616141732283438L634.5275590551181,4.616141732283438L635.9251968503937,4.616141732283438L637.3228346456692,4.616141732283438L637.3228346456692,3.6929133858267846L638.7204724409448,3.6929133858267846L640.1181102362204,3.6929133858267846L641.5157480314961,3.6929133858267846L642.9133858267716,3.6929133858267846L644.3110236220473,3.6929133858267846L645.7086614173229,3.6929133858267846L647.1062992125985,3.6929133858267846L648.503937007874,3.6929133858267846L649.9015748031496,3.6929133858267846L651.2992125984252,3.6929133858267846L652.6968503937009,3.6929133858267846L654.0944881889764,3.6929133858267846L654.0944881889764,2.7696850393700743L655.492125984252,2.7696850393700743L656.8897637795276,2.7696850393700743L658.2874015748032,2.7696850393700743L659.6850393700787,2.7696850393700743L661.0826771653543,2.7696850393700743L662.4803149606299,2.7696850393700743L663.8779527559055,2.7696850393700743L665.2755905511812,2.7696850393700743L666.6732283464567,2.7696850393700743L668.0708661417323,2.7696850393700743L669.4685039370079,2.7696850393700743L669.4685039370079,1.846456692913364L670.8661417322835,1.846456692913364L672.263779527559,1.846456692913364L673.6614173228346,1.846456692913364L675.0590551181102,1.846456692913364L675.0590551181102,0.9232283464567104L676.4566929133858,0.9232283464567104L677.8543307086615,0.9232283464567104L679.251968503937,0.9232283464567104L680.6496062992126,0.9232283464567104L682.0472440944882,0.9232283464567104L683.4448818897638,0.9232283464567104L684.8425196850393,0.9232283464567104L686.2401574803149,0.9232283464567104L687.6377952755905,0.9232283464567104L687.6377952755905,0L689.0354330708661,0L690.4330708661417,0L691.8307086614174,0L693.228346456693,0L694.6259842519685,0L696.0236220472441,0L697.4212598425197,0L698.8188976377953,0L700.2165354330709,0L701.6141732283464,0L703.011811023622,0L704.4094488188977,0L710,0"/>
        <g class="knime-legend" transform="translate(201,539)">
            <text class="knime-legend-label" x="20">
                XGB
            </text>
            <circle fill="#9467bd" r="5" class="knime-legend-symbol" cx="5"
                    cy="-5"/>
        </g>
        <path class="line"
              style="stroke: rgb(140, 86, 75); fill: none; stroke-width: 2;"
              d="M0,469L116.003937007874,83.0905511811024L710,0"/>
        <g class="knime-legend" transform="translate(256,539)">
            <text class="knime-legend-label" x="20">
                k-NN
            </text>
            <circle fill="#8c564b" r="5" class="knime-legend-symbol" cx="5"
                    cy="-5"/>
        </g>
        <path class="line" style="stroke: black; fill: none; stroke-width: 2;"
              d="M0,469L710,0"/>
        <g class="knime-legend" transform="translate(313,539)">
            <text class="knime-legend-label" x="20">
                random
            </text>
            <circle fill="black" r="5" class="knime-legend-symbol" cx="5"
                    cy="-5"/>
        </g>
    </g>
    <g transform="translate(70,0)">
        <text class="knime-title" id="title" y="30">
            ROC Curve
        </text>
    </g>
</svg>