<!DOCTYPE svg PUBLIC "-//W3C//DTD SVG 1.1//EN"
    "http://www.w3.org/Graphics/SVG/1.1/DTD/svg11.dtd" >
<svg contentScriptType="text/ecmascript" width="800"
     xmlns:xlink="http://www.w3.org/1999/xlink" zoomAndPan="magnify"
     style="height: 600px;" contentStyleType="text/css" height="600"
     preserveAspectRatio="xMidYMid meet" xmlns="http://www.w3.org/2000/svg"
     version="1.0">
    <style type="text/css" xml:space="preserve">.knime-title { color: black; fill: black; font-size: 24px; }
.knime-label, .knime-axis-label, .knime-tick-label, .knime-label text, text.knime-axis-label, text.knime-tick-label { color: black; fill: black; font-size: 12px; }
.knime-legend-label, text.knime-legend-label { color: black; fill: black; font-size: 12px; font-weight: normal; }
.knime-tooltip-caption, .knime-tooltip-key, .knime-tooltip-value { color: black; fill: black; font-size: 12px; }
.knime-tooltip-key { font-weight: normal; }
.knime-tooltip-caption, .knime-tooltip-value { font-weight: bold; }</style><g transform="translate(70,46)">
        <rect x="-70" fill="rgb(255,255,255)" width="800" fill-opacity="1.0"
              height="600" y="-46"/>
        <rect fill="rgb(230,230,230)" width="710" fill-opacity="1.0"
              height="469"/>
        <g class="x axis knime-x knime-axis" transform="translate(0,469)">
            <g class="tick major knime-tick" style="opacity: 1;"
               transform="translate(0,0)">
                <line y2="-469" class="knime-tick-line" x2="0"
                      stroke="rgb(255,255,255)"/>
                <text x="0" dy=".71em" y="10" style="text-anchor: middle;"
                      class="knime-tick-label">
                    0.0
                </text>
            </g>
            <g class="tick major knime-tick" style="opacity: 1;"
               transform="translate(71,0)">
                <line y2="-469" class="knime-tick-line" x2="0"
                      stroke="rgb(255,255,255)"/>
                <text x="0" dy=".71em" y="10" style="text-anchor: middle;"
                      class="knime-tick-label">
                    0.1
                </text>
            </g>
            <g class="tick major knime-tick" style="opacity: 1;"
               transform="translate(142,0)">
                <line y2="-469" class="knime-tick-line" x2="0"
                      stroke="rgb(255,255,255)"/>
                <text x="0" dy=".71em" y="10" style="text-anchor: middle;"
                      class="knime-tick-label">
                    0.2
                </text>
            </g>
            <g class="tick major knime-tick" style="opacity: 1;"
               transform="translate(213,0)">
                <line y2="-469" class="knime-tick-line" x2="0"
                      stroke="rgb(255,255,255)"/>
                <text x="0" dy=".71em" y="10" style="text-anchor: middle;"
                      class="knime-tick-label">
                    0.3
                </text>
            </g>
            <g class="tick major knime-tick" style="opacity: 1;"
               transform="translate(284,0)">
                <line y2="-469" class="knime-tick-line" x2="0"
                      stroke="rgb(255,255,255)"/>
                <text x="0" dy=".71em" y="10" style="text-anchor: middle;"
                      class="knime-tick-label">
                    0.4
                </text>
            </g>
            <g class="tick major knime-tick" style="opacity: 1;"
               transform="translate(355,0)">
                <line y2="-469" class="knime-tick-line" x2="0"
                      stroke="rgb(255,255,255)"/>
                <text x="0" dy=".71em" y="10" style="text-anchor: middle;"
                      class="knime-tick-label">
                    0.5
                </text>
            </g>
            <g class="tick major knime-tick" style="opacity: 1;"
               transform="translate(426,0)">
                <line y2="-469" class="knime-tick-line" x2="0"
                      stroke="rgb(255,255,255)"/>
                <text x="0" dy=".71em" y="10" style="text-anchor: middle;"
                      class="knime-tick-label">
                    0.6
                </text>
            </g>
            <g class="tick major knime-tick" style="opacity: 1;"
               transform="translate(496.99999999999994,0)">
                <line y2="-469" class="knime-tick-line" x2="0"
                      stroke="rgb(255,255,255)"/>
                <text x="0" dy=".71em" y="10" style="text-anchor: middle;"
                      class="knime-tick-label">
                    0.7
                </text>
            </g>
            <g class="tick major knime-tick" style="opacity: 1;"
               transform="translate(568,0)">
                <line y2="-469" class="knime-tick-line" x2="0"
                      stroke="rgb(255,255,255)"/>
                <text x="0" dy=".71em" y="10" style="text-anchor: middle;"
                      class="knime-tick-label">
                    0.8
                </text>
            </g>
            <g class="tick major knime-tick" style="opacity: 1;"
               transform="translate(639,0)">
                <line y2="-469" class="knime-tick-line" x2="0"
                      stroke="rgb(255,255,255)"/>
                <text x="0" dy=".71em" y="10" style="text-anchor: middle;"
                      class="knime-tick-label">
                    0.9
                </text>
            </g>
            <g class="tick major knime-tick" style="opacity: 1;"
               transform="translate(710,0)">
                <line y2="-469" class="knime-tick-line" x2="0"
                      stroke="rgb(255,255,255)"/>
                <text x="0" dy=".71em" y="10" style="text-anchor: middle;"
                      class="knime-tick-label">
                    1.0
                </text>
            </g>
            <path fill="none" stroke-width="1" d="M0,0V0H710V0" class="domain"
                  stroke="rgb(255,255,255)"/>
        </g>
        <g class="y axis knime-y knime-axis">
            <g class="tick major knime-tick" style="opacity: 1;"
               transform="translate(0,469)">
                <line y2="0" class="knime-tick-line" x2="710"
                      stroke="rgb(255,255,255)"/>
                <text x="-10" dy=".32em" y="0" style="text-anchor: end;"
                      class="knime-tick-label">
                    0.0
                </text>
            </g>
            <g class="tick major knime-tick" style="opacity: 1;"
               transform="translate(0,422.1)">
                <line y2="0" class="knime-tick-line" x2="710"
                      stroke="rgb(255,255,255)"/>
                <text x="-10" dy=".32em" y="0" style="text-anchor: end;"
                      class="knime-tick-label">
                    0.1
                </text>
            </g>
            <g class="tick major knime-tick" style="opacity: 1;"
               transform="translate(0,375.2)">
                <line y2="0" class="knime-tick-line" x2="710"
                      stroke="rgb(255,255,255)"/>
                <text x="-10" dy=".32em" y="0" style="text-anchor: end;"
                      class="knime-tick-label">
                    0.2
                </text>
            </g>
            <g class="tick major knime-tick" style="opacity: 1;"
               transform="translate(0,328.3)">
                <line y2="0" class="knime-tick-line" x2="710"
                      stroke="rgb(255,255,255)"/>
                <text x="-10" dy=".32em" y="0" style="text-anchor: end;"
                      class="knime-tick-label">
                    0.3
                </text>
            </g>
            <g class="tick major knime-tick" style="opacity: 1;"
               transform="translate(0,281.4)">
                <line y2="0" class="knime-tick-line" x2="710"
                      stroke="rgb(255,255,255)"/>
                <text x="-10" dy=".32em" y="0" style="text-anchor: end;"
                      class="knime-tick-label">
                    0.4
                </text>
            </g>
            <g class="tick major knime-tick" style="opacity: 1;"
               transform="translate(0,234.5)">
                <line y2="0" class="knime-tick-line" x2="710"
                      stroke="rgb(255,255,255)"/>
                <text x="-10" dy=".32em" y="0" style="text-anchor: end;"
                      class="knime-tick-label">
                    0.5
                </text>
            </g>
            <g class="tick major knime-tick" style="opacity: 1;"
               transform="translate(0,187.60000000000002)">
                <line y2="0" class="knime-tick-line" x2="710"
                      stroke="rgb(255,255,255)"/>
                <text x="-10" dy=".32em" y="0" style="text-anchor: end;"
                      class="knime-tick-label">
                    0.6
                </text>
            </g>
            <g class="tick major knime-tick" style="opacity: 1;"
               transform="translate(0,140.70000000000005)">
                <line y2="0" class="knime-tick-line" x2="710"
                      stroke="rgb(255,255,255)"/>
                <text x="-10" dy=".32em" y="0" style="text-anchor: end;"
                      class="knime-tick-label">
                    0.7
                </text>
            </g>
            <g class="tick major knime-tick" style="opacity: 1;"
               transform="translate(0,93.79999999999995)">
                <line y2="0" class="knime-tick-line" x2="710"
                      stroke="rgb(255,255,255)"/>
                <text x="-10" dy=".32em" y="0" style="text-anchor: end;"
                      class="knime-tick-label">
                    0.8
                </text>
            </g>
            <g class="tick major knime-tick" style="opacity: 1;"
               transform="translate(0,46.89999999999998)">
                <line y2="0" class="knime-tick-line" x2="710"
                      stroke="rgb(255,255,255)"/>
                <text x="-10" dy=".32em" y="0" style="text-anchor: end;"
                      class="knime-tick-label">
                    0.9
                </text>
            </g>
            <g class="tick major knime-tick" style="opacity: 1;"
               transform="translate(0,0)">
                <line y2="0" class="knime-tick-line" x2="710"
                      stroke="rgb(255,255,255)"/>
                <text x="-10" dy=".32em" y="0" style="text-anchor: end;"
                      class="knime-tick-label">
                    1.0
                </text>
            </g>
            <path fill="none" stroke-width="1" d="M0,0H0V469H0" class="domain"
                  stroke="rgb(255,255,255)"/>
        </g>
        <text x="700" id="xtitle" y="514"
              class="x label knime-x knime-axis-label" text-anchor="end">
            False Positive Rate
        </text>
        <text dy=".75em" id="ytitle" y="-55"
              class="y label knime-y knime-axis-label" transform="rotate(-90)"
              text-anchor="end">
            True Positive Rate
        </text>
        <g class="knime-tooltip" transform="translate(631,319)">
            <text x="0" y="0" style="fill: rgb(31, 119, 180);"
                  class="knime-tooltip-key knime-tooltip-value knime-tooltip-color">
                DT (0.804)
            </text>
            <text x="0" y="25" style="fill: rgb(255, 127, 14);"
                  class="knime-tooltip-key knime-tooltip-value knime-tooltip-color">
                RF (0.926)
            </text>
            <text x="0" y="50" style="fill: rgb(44, 160, 44);"
                  class="knime-tooltip-key knime-tooltip-value knime-tooltip-color">
                ZeroR (0.46)
            </text>
            <text x="0" y="75" style="fill: rgb(214, 39, 40);"
                  class="knime-tooltip-key knime-tooltip-value knime-tooltip-color">
                NB (0.915)
            </text>
            <text x="0" y="100" style="fill: rgb(148, 103, 189);"
                  class="knime-tooltip-key knime-tooltip-value knime-tooltip-color">
                XGB (0.919)
            </text>
            <text x="0" y="125" style="fill: rgb(140, 86, 75);"
                  class="knime-tooltip-key knime-tooltip-value knime-tooltip-color">
                k-NN (0.842)
            </text>
        </g>
        <path class="line"
              style="stroke: rgb(31, 119, 180); fill: none; stroke-width: 2;"
              d="M0,469L62.34146341463414,277.89173228346453L65.80487804878048,256.65748031496065L65.80487804878048,247.42519685039372L76.1951219512195,216.95866141732282L81.39024390243902,204.95669291338584L83.1219512195122,199.4173228346457L84.85365853658536,180.95275590551182L90.04878048780488,172.6437007874016L93.51219512195122,168.0275590551181L95.2439024390244,164.33464566929138L96.97560975609757,150.48622047244095L98.70731707317074,147.71653543307087L98.70731707317074,144.0236220472441L102.17073170731706,143.10039370078744L102.17073170731706,139.40748031496065L109.09756097560975,137.5610236220473L117.75609756097562,136.63779527559058L117.75609756097562,133.8681102362205L117.75609756097562,132.02165354330714L122.95121951219511,121.86614173228344L122.95121951219511,117.25L135.0731707317073,112.63385826771656L147.1951219512195,106.1712598425197L147.1951219512195,105.24803149606299L147.1951219512195,103.40157480314963L152.390243902439,101.55511811023621L154.1219512195122,96.93897637795271L161.0487804878049,89.5531496062992L161.0487804878049,88.62992125984249L166.2439024390244,81.24409448818898L171.4390243902439,77.55118110236225L173.17073170731706,76.62795275590554L187.02439024390245,71.08858267716533L188.75609756097563,71.08858267716533L200.87804878048777,67.39566929133855L206.0731707317073,67.39566929133855L211.2682926829268,64.62598425196848L221.65853658536585,64.62598425196848L223.39024390243904,64.62598425196848L232.0487804878049,64.62598425196848L280.5365853658537,64.62598425196848L316.9024390243903,64.62598425196848L322.0975609756098,63.70275590551182L348.0731707317073,63.70275590551182L386.1707317073171,56.31692913385825L406.9512195121951,54.47047244094489L412.1463414634146,53.54724409448818L474.4878048780488,51.700787401574814L507.390243902439,48.93110236220474L524.7073170731708,48.93110236220474L554.1463414634146,48.93110236220474L710,0"/>
        <g class="knime-legend" transform="translate(0,539)">
            <text class="knime-legend-label" x="20">
                DT
            </text>
            <circle fill="#1f77b4" r="5" class="knime-legend-symbol" cx="5"
                    cy="-5"/>
        </g>
        <path class="line"
              style="stroke: rgb(255, 127, 14); fill: none; stroke-width: 2;"
              d="M0,469L0,459.76771653543307L3.4634146341463414,437.6102362204724L8.658536585365853,415.4527559055118L10.390243902439025,392.37204724409446L10.390243902439025,375.753937007874L10.390243902439025,352.6732283464567L10.390243902439025,339.748031496063L12.121951219512196,319.43700787401576L17.317073170731707,306.51181102362204L19.048780487804876,293.5866141732283L22.51219512195122,276.0452755905512L24.243902439024392,263.1200787401575L24.243902439024392,248.3484251968504L27.70731707317073,235.42322834645668L29.439024390243905,227.11417322834646L31.17073170731707,218.8051181102362L31.17073170731707,209.57283464566927L36.36585365853659,197.57086614173232L38.09756097560975,189.26181102362204L41.5609756097561,180.0295275590551L43.292682926829265,173.56692913385825L45.02439024390244,166.18110236220474L45.02439024390244,161.5649606299213L48.487804878048784,153.25590551181102L51.95121951219512,149.56299212598424L55.41463414634146,141.25393700787401L57.146341463414636,135.71456692913387L60.60975609756098,131.09842519685037L62.34146341463414,127.40551181102359L65.80487804878048,124.63582677165351L67.53658536585365,118.17322834645671L67.53658536585365,112.63385826771656L71,106.1712598425197L71,103.40157480314963L74.46341463414633,98.78543307086613L74.46341463414633,90.47637795275591L74.46341463414633,86.78346456692913L74.46341463414633,85.86023622047247L76.1951219512195,80.32086614173232L83.1219512195122,77.55118110236225L86.58536585365853,73.85826771653547L86.58536585365853,71.08858267716533L90.04878048780488,68.31889763779526L93.51219512195122,66.4724409448819L102.17073170731706,62.77952755905511L105.6341463414634,58.16338582677167L107.36585365853658,55.3937007874016L114.29268292682927,54.47047244094489L119.48780487804879,49.85433070866145L119.48780487804879,48.00787401574803L122.95121951219511,46.161417322834666L128.14634146341464,44.3149606299213L129.8780487804878,41.54527559055117L133.34146341463415,39.69881889763775L135.0731707317073,37.852362204724386L136.8048780487805,36.00590551181102L140.26829268292684,34.1594488188976L145.46341463414635,34.1594488188976L150.65853658536585,31.389763779527527L154.1219512195122,26.77362204724409L157.58536585365854,25.850393700787436L166.2439024390244,25.850393700787436L171.4390243902439,25.850393700787436L180.09756097560975,24.927165354330725L185.2926829268293,23.08070866141736L188.75609756097563,23.08070866141736L193.95121951219514,22.15748031496065L199.14634146341464,21.23425196850394L202.60975609756096,19.387795275590577L206.0731707317073,18.464566929133866L213,17.541338582677213L225.1219512195122,17.541338582677213L228.58536585365854,17.541338582677213L237.2439024390244,14.771653543307139L242.43902439024393,14.771653543307139L252.8292682926829,14.771653543307139L264.9512195121951,13.848425196850371L271.8780487804878,13.848425196850371L282.26829268292687,12.001968503937007L290.9268292682927,11.078740157480297L299.5853658536585,10.155511811023587L311.7073170731707,8.309055118110223L315.1707317073171,8.309055118110223L329.0243902439025,8.309055118110223L337.6829268292683,8.309055118110223L348.0731707317073,6.462598425196859L361.9268292682927,4.616141732283438L368.8536585365854,4.616141732283438L382.70731707317077,3.6929133858267846L398.2926829268293,2.7696850393700743L403.48780487804873,2.7696850393700743L426,1.846456692913364L446.7804878048781,1.846456692913364L458.9024390243903,1.846456692913364L476.219512195122,1.846456692913364L493.5365853658536,1.846456692913364L526.4390243902438,1.846456692913364L566.2682926829268,1.846456692913364L628.609756097561,0L710,0"/>
        <g class="knime-legend" transform="translate(46,539)">
            <text class="knime-legend-label" x="20">
                RF
            </text>
            <circle fill="#ff7f0e" r="5" class="knime-legend-symbol" cx="5"
                    cy="-5"/>
        </g>
        <path class="line"
              style="stroke: rgb(44, 160, 44); fill: none; stroke-width: 2;"
              d="M0,469L161.0487804878049,384.98622047244095L304.780487804878,292.6633858267717L446.7804878048781,199.4173228346457L585.3170731707316,103.40157480314963L710,0"/>
        <g class="knime-legend" transform="translate(92,539)">
            <text class="knime-legend-label" x="20">
                ZeroR
            </text>
            <circle fill="#2ca02c" r="5" class="knime-legend-symbol" cx="5"
                    cy="-5"/>
        </g>
        <path class="line"
              style="stroke: rgb(214, 39, 40); fill: none; stroke-width: 2;"
              d="M0,469L0,468.0767716535433L0,467.15354330708664L0,466.2303149606299L0,465.3070866141732L0,464.38385826771656L0,463.46062992125985L1.7317073170731707,463.46062992125985L1.7317073170731707,462.53740157480314L1.7317073170731707,461.61417322834643L1.7317073170731707,460.6909448818898L1.7317073170731707,459.76771653543307L1.7317073170731707,458.84448818897636L1.7317073170731707,457.9212598425197L1.7317073170731707,456.998031496063L1.7317073170731707,456.0748031496063L1.7317073170731707,455.15157480314963L1.7317073170731707,454.2283464566929L1.7317073170731707,453.3051181102362L1.7317073170731707,452.38188976377955L1.7317073170731707,451.45866141732284L1.7317073170731707,450.53543307086613L1.7317073170731707,449.6122047244094L1.7317073170731707,448.68897637795277L1.7317073170731707,447.76574803149606L1.7317073170731707,446.84251968503935L1.7317073170731707,445.9192913385827L1.7317073170731707,444.996062992126L1.7317073170731707,444.0728346456693L1.7317073170731707,443.1496062992126L1.7317073170731707,442.2263779527559L1.7317073170731707,441.3031496062992L1.7317073170731707,440.3799212598425L1.7317073170731707,439.45669291338584L1.7317073170731707,438.5334645669291L1.7317073170731707,437.6102362204724L1.7317073170731707,436.68700787401576L1.7317073170731707,435.76377952755905L1.7317073170731707,434.84055118110234L1.7317073170731707,433.9173228346457L1.7317073170731707,432.994094488189L1.7317073170731707,432.07086614173227L3.4634146341463414,432.07086614173227L3.4634146341463414,431.1476377952756L3.4634146341463414,430.2244094488189L3.4634146341463414,429.3011811023622L3.4634146341463414,428.37795275590554L3.4634146341463414,427.45472440944883L3.4634146341463414,426.5314960629921L3.4634146341463414,425.6082677165354L3.4634146341463414,424.68503937007875L3.4634146341463414,423.76181102362204L3.4634146341463414,422.83858267716533L3.4634146341463414,421.9153543307087L3.4634146341463414,420.99212598425197L3.4634146341463414,420.06889763779526L3.4634146341463414,419.14566929133855L3.4634146341463414,418.2224409448819L3.4634146341463414,417.2992125984252L3.4634146341463414,416.3759842519685L3.4634146341463414,415.4527559055118L3.4634146341463414,414.5295275590551L3.4634146341463414,413.6062992125984L3.4634146341463414,412.68307086614175L3.4634146341463414,411.75984251968504L3.4634146341463414,410.8366141732283L3.4634146341463414,409.9133858267717L3.4634146341463414,408.99015748031496L3.4634146341463414,408.06692913385825L3.4634146341463414,407.1437007874016L3.4634146341463414,406.2204724409449L3.4634146341463414,405.2972440944882L3.4634146341463414,404.3740157480315L3.4634146341463414,403.4507874015748L3.4634146341463414,402.5275590551181L3.4634146341463414,401.60433070866145L3.4634146341463414,400.68110236220474L3.4634146341463414,399.75787401574803L3.4634146341463414,398.8346456692913L3.4634146341463414,397.9114173228346L3.4634146341463414,396.98818897637796L3.4634146341463414,396.06496062992125L3.4634146341463414,395.14173228346453L3.4634146341463414,394.2185039370079L3.4634146341463414,393.29527559055117L5.195121951219512,393.29527559055117L5.195121951219512,392.37204724409446L5.195121951219512,391.4488188976378L5.195121951219512,390.5255905511811L5.195121951219512,389.6023622047244L5.195121951219512,388.67913385826773L5.195121951219512,387.755905511811L5.195121951219512,386.8326771653543L5.195121951219512,385.90944881889766L5.195121951219512,384.98622047244095L5.195121951219512,384.06299212598424L5.195121951219512,383.1397637795276L5.195121951219512,382.2165354330709L5.195121951219512,381.29330708661416L5.195121951219512,380.3700787401575L5.195121951219512,379.4468503937008L5.195121951219512,378.5236220472441L5.195121951219512,377.60039370078744L5.195121951219512,376.67716535433067L5.195121951219512,375.753937007874L5.195121951219512,374.8307086614173L5.195121951219512,373.9074803149606L5.195121951219512,372.98425196850394L5.195121951219512,372.06102362204723L5.195121951219512,371.1377952755906L5.195121951219512,370.21456692913387L5.195121951219512,369.29133858267716L5.195121951219512,368.36811023622045L5.195121951219512,367.4448818897638L5.195121951219512,366.5216535433071L5.195121951219512,365.59842519685037L5.195121951219512,364.6751968503937L5.195121951219512,363.751968503937L6.926829268292683,363.751968503937L8.658536585365853,363.751968503937L8.658536585365853,362.8287401574803L8.658536585365853,361.90551181102364L8.658536585365853,360.98228346456693L8.658536585365853,360.0590551181102L8.658536585365853,359.13582677165357L8.658536585365853,358.21259842519686L8.658536585365853,357.28937007874015L8.658536585365853,356.3661417322835L8.658536585365853,355.4429133858268L8.658536585365853,354.5196850393701L8.658536585365853,353.59645669291336L8.658536585365853,352.6732283464567L8.658536585365853,351.75L8.658536585365853,350.8267716535433L8.658536585365853,349.90354330708664L8.658536585365853,348.9803149606299L8.658536585365853,348.0570866141732L8.658536585365853,347.13385826771656L8.658536585365853,346.21062992125985L10.390243902439025,346.21062992125985L10.390243902439025,345.28740157480314L10.390243902439025,344.36417322834643L10.390243902439025,343.4409448818898L10.390243902439025,342.51771653543307L10.390243902439025,341.59448818897636L10.390243902439025,340.6712598425197L10.390243902439025,339.748031496063L10.390243902439025,338.8248031496063L10.390243902439025,337.90157480314963L10.390243902439025,336.9783464566929L10.390243902439025,336.0551181102362L10.390243902439025,335.13188976377955L10.390243902439025,334.20866141732284L10.390243902439025,333.28543307086613L10.390243902439025,332.3622047244095L12.121951219512196,332.3622047244095L12.121951219512196,331.43897637795277L12.121951219512196,330.51574803149606L12.121951219512196,329.59251968503935L12.121951219512196,328.66929133858264L12.121951219512196,327.746062992126L12.121951219512196,326.8228346456693L12.121951219512196,325.89960629921256L12.121951219512196,324.9763779527559L12.121951219512196,324.0531496062992L12.121951219512196,323.1299212598425L12.121951219512196,322.20669291338584L12.121951219512196,321.2834645669291L12.121951219512196,320.3602362204724L12.121951219512196,319.43700787401576L12.121951219512196,318.51377952755905L13.853658536585366,318.51377952755905L13.853658536585366,317.59055118110234L13.853658536585366,316.6673228346457L13.853658536585366,315.744094488189L13.853658536585366,314.82086614173227L13.853658536585366,313.8976377952756L13.853658536585366,312.97440944881885L13.853658536585366,312.0511811023622L13.853658536585366,311.12795275590554L13.853658536585366,310.2047244094488L13.853658536585366,309.2814960629921L13.853658536585366,308.35826771653547L13.853658536585366,307.43503937007875L13.853658536585366,306.51181102362204L13.853658536585366,305.5885826771654L13.853658536585366,304.6653543307087L13.853658536585366,303.74212598425197L13.853658536585366,302.8188976377953L13.853658536585366,301.8956692913386L13.853658536585366,300.9724409448819L13.853658536585366,300.0492125984252L13.853658536585366,299.1259842519685L13.853658536585366,298.2027559055118L13.853658536585366,297.2795275590551L13.853658536585366,296.3562992125984L13.853658536585366,295.43307086614175L13.853658536585366,294.50984251968504L13.853658536585366,293.5866141732283L13.853658536585366,292.6633858267717L13.853658536585366,291.74015748031496L13.853658536585366,290.81692913385825L13.853658536585366,289.8937007874016L13.853658536585366,288.9704724409449L13.853658536585366,288.0472440944882L13.853658536585366,287.1240157480315L13.853658536585366,286.2007874015748L13.853658536585366,285.2775590551181L13.853658536585366,284.3543307086614L15.585365853658535,284.3543307086614L15.585365853658535,283.4311023622047L17.317073170731707,283.4311023622047L17.317073170731707,282.50787401574803L17.317073170731707,281.5846456692913L17.317073170731707,280.6614173228346L17.317073170731707,279.73818897637796L17.317073170731707,278.81496062992125L17.317073170731707,277.89173228346453L17.317073170731707,276.9685039370079L17.317073170731707,276.0452755905512L17.317073170731707,275.12204724409446L19.048780487804876,275.12204724409446L19.048780487804876,274.1988188976378L19.048780487804876,273.27559055118115L19.048780487804876,272.3523622047244L19.048780487804876,271.42913385826773L19.048780487804876,270.505905511811L20.78048780487805,270.505905511811L20.78048780487805,269.5826771653543L20.78048780487805,268.65944881889766L20.78048780487805,267.73622047244095L20.78048780487805,266.81299212598424L20.78048780487805,265.8897637795276L20.78048780487805,264.9665354330709L22.51219512195122,264.9665354330709L22.51219512195122,264.04330708661416L22.51219512195122,263.1200787401575L24.243902439024392,263.1200787401575L24.243902439024392,262.1968503937008L24.243902439024392,261.2736220472441L24.243902439024392,260.35039370078744L24.243902439024392,259.4271653543307L24.243902439024392,258.503937007874L24.243902439024392,257.58070866141736L24.243902439024392,256.65748031496065L24.243902439024392,255.7342519685039L24.243902439024392,254.81102362204723L24.243902439024392,253.88779527559055L24.243902439024392,252.96456692913384L24.243902439024392,252.04133858267716L24.243902439024392,251.11811023622047L24.243902439024392,250.19488188976376L24.243902439024392,249.27165354330708L25.97560975609756,249.27165354330708L25.97560975609756,248.3484251968504L25.97560975609756,247.42519685039372L25.97560975609756,246.501968503937L25.97560975609756,245.57874015748033L25.97560975609756,244.65551181102364L25.97560975609756,243.73228346456693L25.97560975609756,242.80905511811025L25.97560975609756,241.88582677165357L25.97560975609756,240.96259842519683L25.97560975609756,240.03937007874015L25.97560975609756,239.11614173228347L25.97560975609756,238.19291338582676L27.70731707317073,238.19291338582676L27.70731707317073,237.26968503937007L27.70731707317073,236.3464566929134L27.70731707317073,235.42322834645668L27.70731707317073,234.5L27.70731707317073,233.57677165354332L27.70731707317073,232.6535433070866L27.70731707317073,231.73031496062993L27.70731707317073,230.80708661417324L27.70731707317073,229.88385826771653L27.70731707317073,228.96062992125985L27.70731707317073,228.03740157480317L27.70731707317073,227.11417322834646L29.439024390243905,227.11417322834646L29.439024390243905,226.19094488188978L29.439024390243905,225.2677165354331L29.439024390243905,224.34448818897638L29.439024390243905,223.4212598425197L29.439024390243905,222.49803149606302L29.439024390243905,221.5748031496063L29.439024390243905,220.65157480314963L29.439024390243905,219.7283464566929L29.439024390243905,218.8051181102362L29.439024390243905,217.8818897637795L31.17073170731707,217.8818897637795L32.90243902439024,217.8818897637795L32.90243902439024,216.95866141732282L32.90243902439024,216.03543307086613L32.90243902439024,215.11220472440942L32.90243902439024,214.18897637795274L32.90243902439024,213.26574803149606L32.90243902439024,212.34251968503935L32.90243902439024,211.41929133858264L32.90243902439024,210.49606299212599L34.63414634146341,210.49606299212599L34.63414634146341,209.57283464566927L34.63414634146341,208.64960629921256L34.63414634146341,207.7263779527559L34.63414634146341,206.8031496062992L34.63414634146341,205.8799212598425L34.63414634146341,204.95669291338584L34.63414634146341,204.03346456692913L34.63414634146341,203.11023622047247L34.63414634146341,202.18700787401576L34.63414634146341,201.26377952755905L36.36585365853659,201.26377952755905L36.36585365853659,200.3405511811024L36.36585365853659,199.4173228346457L36.36585365853659,198.49409448818898L36.36585365853659,197.57086614173232L36.36585365853659,196.6476377952756L36.36585365853659,195.7244094488189L36.36585365853659,194.80118110236225L38.09756097560975,194.80118110236225L38.09756097560975,193.87795275590554L38.09756097560975,192.95472440944883L39.829268292682926,192.95472440944883L39.829268292682926,192.03149606299218L39.829268292682926,191.10826771653547L39.829268292682926,190.1850393700787L39.829268292682926,189.26181102362204L39.829268292682926,188.33858267716533L39.829268292682926,187.41535433070862L41.5609756097561,187.41535433070862L41.5609756097561,186.49212598425197L41.5609756097561,185.56889763779526L41.5609756097561,184.64566929133855L41.5609756097561,183.7224409448819L41.5609756097561,182.79921259842519L41.5609756097561,181.87598425196848L41.5609756097561,180.95275590551182L43.292682926829265,180.95275590551182L43.292682926829265,180.0295275590551L43.292682926829265,179.1062992125984L43.292682926829265,178.18307086614175L43.292682926829265,177.25984251968504L43.292682926829265,176.33661417322833L43.292682926829265,175.41338582677167L43.292682926829265,174.49015748031496L43.292682926829265,173.56692913385825L43.292682926829265,172.6437007874016L43.292682926829265,171.7204724409449L43.292682926829265,170.79724409448818L43.292682926829265,169.87401574803152L43.292682926829265,168.95078740157481L45.02439024390244,168.95078740157481L45.02439024390244,168.0275590551181L45.02439024390244,167.10433070866145L46.75609756097561,167.10433070866145L46.75609756097561,166.18110236220474L46.75609756097561,165.25787401574803L46.75609756097561,164.33464566929138L46.75609756097561,163.41141732283467L46.75609756097561,162.48818897637796L46.75609756097561,161.5649606299213L46.75609756097561,160.64173228346453L46.75609756097561,159.71850393700782L46.75609756097561,158.79527559055117L46.75609756097561,157.87204724409446L48.487804878048784,157.87204724409446L48.487804878048784,156.94881889763775L50.21951219512194,156.94881889763775L51.95121951219512,156.94881889763775L51.95121951219512,156.0255905511811L51.95121951219512,155.1023622047244L51.95121951219512,154.17913385826768L51.95121951219512,153.25590551181102L51.95121951219512,152.3326771653543L51.95121951219512,151.4094488188976L51.95121951219512,150.48622047244095L53.68292682926829,150.48622047244095L53.68292682926829,149.56299212598424L55.41463414634146,149.56299212598424L55.41463414634146,148.63976377952753L55.41463414634146,147.71653543307087L55.41463414634146,146.79330708661416L55.41463414634146,145.8700787401575L55.41463414634146,144.9468503937008L57.146341463414636,144.9468503937008L57.146341463414636,144.0236220472441L57.146341463414636,143.10039370078744L57.146341463414636,142.17716535433073L57.146341463414636,141.25393700787401L57.146341463414636,140.33070866141736L57.146341463414636,139.40748031496065L58.87804878048781,139.40748031496065L58.87804878048781,138.48425196850394L58.87804878048781,137.5610236220473L58.87804878048781,136.63779527559058L60.60975609756098,136.63779527559058L60.60975609756098,135.71456692913387L60.60975609756098,134.7913385826772L62.34146341463414,134.7913385826772L62.34146341463414,133.8681102362205L62.34146341463414,132.9448818897638L62.34146341463414,132.02165354330714L62.34146341463414,131.09842519685037L62.34146341463414,130.17519685039366L62.34146341463414,129.251968503937L62.34146341463414,128.3287401574803L62.34146341463414,127.40551181102359L62.34146341463414,126.48228346456693L62.34146341463414,125.55905511811022L62.34146341463414,124.63582677165351L62.34146341463414,123.71259842519686L62.34146341463414,122.78937007874015L62.34146341463414,121.86614173228344L64.07317073170732,121.86614173228344L65.80487804878048,121.86614173228344L67.53658536585365,121.86614173228344L69.26829268292683,121.86614173228344L69.26829268292683,120.94291338582678L71,120.94291338582678L71,120.01968503937007L71,119.09645669291336L71,118.17322834645671L71,117.25L71,116.32677165354329L71,115.40354330708664L71,114.48031496062993L71,113.55708661417322L72.73170731707317,113.55708661417322L72.73170731707317,112.63385826771656L74.46341463414633,112.63385826771656L74.46341463414633,111.71062992125985L74.46341463414633,110.78740157480314L74.46341463414633,109.86417322834649L76.1951219512195,109.86417322834649L76.1951219512195,108.94094488188978L76.1951219512195,108.01771653543307L76.1951219512195,107.09448818897641L76.1951219512195,106.1712598425197L76.1951219512195,105.24803149606299L77.92682926829268,105.24803149606299L77.92682926829268,104.32480314960634L77.92682926829268,103.40157480314963L77.92682926829268,102.47834645669286L79.65853658536585,102.47834645669286L79.65853658536585,101.55511811023621L79.65853658536585,100.6318897637795L79.65853658536585,99.70866141732279L79.65853658536585,98.78543307086613L81.39024390243902,98.78543307086613L81.39024390243902,97.86220472440942L81.39024390243902,96.93897637795271L83.1219512195122,96.93897637795271L83.1219512195122,96.01574803149606L84.85365853658536,96.01574803149606L84.85365853658536,95.09251968503935L84.85365853658536,94.16929133858264L84.85365853658536,93.24606299212599L84.85365853658536,92.32283464566927L84.85365853658536,91.39960629921256L84.85365853658536,90.47637795275591L86.58536585365853,90.47637795275591L86.58536585365853,89.5531496062992L88.3170731707317,89.5531496062992L90.04878048780488,89.5531496062992L91.78048780487805,89.5531496062992L91.78048780487805,88.62992125984249L91.78048780487805,87.70669291338584L93.51219512195122,87.70669291338584L95.2439024390244,87.70669291338584L95.2439024390244,86.78346456692913L96.97560975609757,86.78346456692913L98.70731707317074,86.78346456692913L98.70731707317074,85.86023622047247L98.70731707317074,84.93700787401576L100.43902439024389,84.93700787401576L100.43902439024389,84.01377952755905L100.43902439024389,83.0905511811024L100.43902439024389,82.16732283464569L100.43902439024389,81.24409448818898L102.17073170731706,81.24409448818898L102.17073170731706,80.32086614173232L102.17073170731706,79.39763779527561L103.90243902439023,79.39763779527561L103.90243902439023,78.4744094488189L105.6341463414634,78.4744094488189L105.6341463414634,77.55118110236225L105.6341463414634,76.62795275590554L105.6341463414634,75.70472440944883L107.36585365853658,75.70472440944883L109.09756097560975,75.70472440944883L110.82926829268293,75.70472440944883L110.82926829268293,74.78149606299218L112.5609756097561,74.78149606299218L114.29268292682927,74.78149606299218L116.02439024390245,74.78149606299218L116.02439024390245,73.85826771653547L116.02439024390245,72.9350393700787L117.75609756097562,72.9350393700787L119.48780487804879,72.9350393700787L119.48780487804879,72.01181102362204L121.21951219512196,72.01181102362204L122.95121951219511,72.01181102362204L122.95121951219511,71.08858267716533L122.95121951219511,70.16535433070862L124.68292682926828,70.16535433070862L124.68292682926828,69.24212598425197L126.41463414634146,69.24212598425197L126.41463414634146,68.31889763779526L126.41463414634146,67.39566929133855L128.14634146341464,67.39566929133855L128.14634146341464,66.4724409448819L128.14634146341464,65.54921259842519L128.14634146341464,64.62598425196848L128.14634146341464,63.70275590551182L128.14634146341464,62.77952755905511L129.8780487804878,62.77952755905511L129.8780487804878,61.8562992125984L129.8780487804878,60.93307086614175L131.60975609756096,60.93307086614175L133.34146341463415,60.93307086614175L135.0731707317073,60.93307086614175L135.0731707317073,60.00984251968504L135.0731707317073,59.08661417322833L136.8048780487805,59.08661417322833L136.8048780487805,58.16338582677167L138.53658536585365,58.16338582677167L138.53658536585365,57.24015748031496L138.53658536585365,56.31692913385825L138.53658536585365,55.3937007874016L138.53658536585365,54.47047244094489L138.53658536585365,53.54724409448818L140.26829268292684,53.54724409448818L142,53.54724409448818L142,52.624015748031525L143.7317073170732,52.624015748031525L145.46341463414635,52.624015748031525L145.46341463414635,51.700787401574814L147.1951219512195,51.700787401574814L148.92682926829266,51.700787401574814L148.92682926829266,50.777559055118104L148.92682926829266,49.85433070866145L150.65853658536585,49.85433070866145L150.65853658536585,48.93110236220474L152.390243902439,48.93110236220474L154.1219512195122,48.93110236220474L155.85365853658536,48.93110236220474L157.58536585365854,48.93110236220474L159.3170731707317,48.93110236220474L159.3170731707317,48.00787401574803L159.3170731707317,47.084645669291376L161.0487804878049,47.084645669291376L162.78048780487805,47.084645669291376L162.78048780487805,46.161417322834666L162.78048780487805,45.238188976377955L162.78048780487805,44.3149606299213L164.51219512195124,44.3149606299213L166.2439024390244,44.3149606299213L167.97560975609755,44.3149606299213L167.97560975609755,43.391732283464535L167.97560975609755,42.468503937007824L167.97560975609755,41.54527559055117L167.97560975609755,40.62204724409446L169.7073170731707,40.62204724409446L169.7073170731707,39.69881889763775L171.4390243902439,39.69881889763775L173.17073170731706,39.69881889763775L173.17073170731706,38.7755905511811L174.90243902439025,38.7755905511811L176.6341463414634,38.7755905511811L178.3658536585366,38.7755905511811L178.3658536585366,37.852362204724386L180.09756097560975,37.852362204724386L181.82926829268294,37.852362204724386L183.5609756097561,37.852362204724386L185.2926829268293,37.852362204724386L187.02439024390245,37.852362204724386L187.02439024390245,36.929133858267676L187.02439024390245,36.00590551181102L188.75609756097563,36.00590551181102L190.4878048780488,36.00590551181102L192.21951219512195,36.00590551181102L193.95121951219514,36.00590551181102L195.6829268292683,36.00590551181102L197.41463414634148,36.00590551181102L197.41463414634148,35.08267716535431L199.14634146341464,35.08267716535431L200.87804878048777,35.08267716535431L202.60975609756096,35.08267716535431L204.34146341463412,35.08267716535431L206.0731707317073,35.08267716535431L207.80487804878047,35.08267716535431L209.53658536585365,35.08267716535431L209.53658536585365,34.1594488188976L209.53658536585365,33.23622047244095L209.53658536585365,32.31299212598424L211.2682926829268,32.31299212598424L213,32.31299212598424L214.73170731707316,32.31299212598424L216.46341463414635,32.31299212598424L216.46341463414635,31.389763779527527L218.1951219512195,31.389763779527527L218.1951219512195,30.466535433070874L219.9268292682927,30.466535433070874L221.65853658536585,30.466535433070874L223.39024390243904,30.466535433070874L225.1219512195122,30.466535433070874L226.85365853658536,30.466535433070874L226.85365853658536,29.543307086614163L226.85365853658536,28.62007874015751L228.58536585365854,28.62007874015751L228.58536585365854,27.6968503937008L230.3170731707317,27.6968503937008L232.0487804878049,27.6968503937008L233.78048780487805,27.6968503937008L235.51219512195124,27.6968503937008L237.2439024390244,27.6968503937008L238.97560975609758,27.6968503937008L240.70731707317074,27.6968503937008L242.43902439024393,27.6968503937008L244.17073170731706,27.6968503937008L244.17073170731706,26.77362204724409L245.90243902439022,26.77362204724409L247.6341463414634,26.77362204724409L249.36585365853657,26.77362204724409L251.09756097560975,26.77362204724409L251.09756097560975,25.850393700787436L252.8292682926829,25.850393700787436L254.5609756097561,25.850393700787436L256.2926829268293,25.850393700787436L258.0243902439024,25.850393700787436L258.0243902439024,24.927165354330725L259.7560975609756,24.927165354330725L259.7560975609756,24.003937007874015L261.4878048780488,24.003937007874015L263.2195121951219,24.003937007874015L264.9512195121951,24.003937007874015L266.6829268292683,24.003937007874015L268.4146341463415,24.003937007874015L268.4146341463415,23.08070866141736L270.1463414634146,23.08070866141736L270.1463414634146,22.15748031496065L271.8780487804878,22.15748031496065L273.609756097561,22.15748031496065L275.3414634146342,22.15748031496065L277.0731707317073,22.15748031496065L278.8048780487805,22.15748031496065L278.8048780487805,21.23425196850394L280.5365853658537,21.23425196850394L282.26829268292687,21.23425196850394L284,21.23425196850394L285.7317073170732,21.23425196850394L287.4634146341464,21.23425196850394L289.1951219512195,21.23425196850394L289.1951219512195,20.311023622047287L290.9268292682927,20.311023622047287L292.6585365853658,20.311023622047287L294.390243902439,20.311023622047287L294.390243902439,19.387795275590577L296.1219512195122,19.387795275590577L297.8536585365853,19.387795275590577L299.5853658536585,19.387795275590577L301.3170731707317,19.387795275590577L301.3170731707317,18.464566929133866L303.0487804878049,18.464566929133866L304.780487804878,18.464566929133866L306.5121951219512,18.464566929133866L308.2439024390244,18.464566929133866L309.9756097560976,18.464566929133866L311.7073170731707,18.464566929133866L311.7073170731707,17.541338582677213L311.7073170731707,16.618110236220502L313.4390243902439,16.618110236220502L315.1707317073171,16.618110236220502L316.9024390243903,16.618110236220502L316.9024390243903,15.694881889763792L316.9024390243903,14.771653543307139L318.6341463414634,14.771653543307139L320.3658536585366,14.771653543307139L322.0975609756098,14.771653543307139L323.8292682926829,14.771653543307139L323.8292682926829,13.848425196850371L325.5609756097561,13.848425196850371L327.2926829268293,13.848425196850371L329.0243902439025,13.848425196850371L330.7560975609756,13.848425196850371L332.4878048780488,13.848425196850371L332.4878048780488,12.925196850393661L334.2195121951219,12.925196850393661L335.9512195121951,12.925196850393661L335.9512195121951,12.001968503937007L337.6829268292683,12.001968503937007L339.4146341463414,12.001968503937007L341.1463414634146,12.001968503937007L342.8780487804878,12.001968503937007L344.609756097561,12.001968503937007L346.3414634146341,12.001968503937007L348.0731707317073,12.001968503937007L349.8048780487805,12.001968503937007L351.5365853658537,12.001968503937007L353.2682926829268,12.001968503937007L355,12.001968503937007L356.7317073170732,12.001968503937007L358.4634146341463,12.001968503937007L360.1951219512195,12.001968503937007L360.1951219512195,11.078740157480297L361.9268292682927,11.078740157480297L361.9268292682927,10.155511811023587L361.9268292682927,9.232283464566933L361.9268292682927,8.309055118110223L361.9268292682927,7.385826771653512L361.9268292682927,6.462598425196859L363.6585365853659,6.462598425196859L365.390243902439,6.462598425196859L367.1219512195122,6.462598425196859L368.8536585365854,6.462598425196859L370.5853658536586,6.462598425196859L372.3170731707317,6.462598425196859L374.0487804878049,6.462598425196859L375.7804878048781,6.462598425196859L377.51219512195127,6.462598425196859L379.2439024390244,6.462598425196859L380.9756097560976,6.462598425196859L382.70731707317077,6.462598425196859L384.4390243902439,6.462598425196859L386.1707317073171,6.462598425196859L387.9024390243903,6.462598425196859L389.63414634146346,6.462598425196859L391.3658536585366,6.462598425196859L393.0975609756098,6.462598425196859L393.0975609756098,5.5393700787401485L394.82926829268297,5.5393700787401485L394.82926829268297,4.616141732283438L396.56097560975616,4.616141732283438L398.2926829268293,4.616141732283438L400.0243902439024,4.616141732283438L401.75609756097555,4.616141732283438L403.48780487804873,4.616141732283438L405.2195121951219,4.616141732283438L406.9512195121951,4.616141732283438L408.68292682926824,4.616141732283438L410.4146341463414,4.616141732283438L412.1463414634146,4.616141732283438L413.8780487804878,4.616141732283438L415.60975609756093,4.616141732283438L417.3414634146341,4.616141732283438L419.0731707317073,4.616141732283438L420.8048780487805,4.616141732283438L422.5365853658536,4.616141732283438L424.2682926829268,4.616141732283438L426,4.616141732283438L427.73170731707313,4.616141732283438L429.4634146341463,4.616141732283438L431.1951219512195,4.616141732283438L432.9268292682927,4.616141732283438L432.9268292682927,3.6929133858267846L434.6585365853658,3.6929133858267846L436.390243902439,3.6929133858267846L438.1219512195122,3.6929133858267846L439.8536585365854,3.6929133858267846L441.5853658536585,3.6929133858267846L443.3170731707317,3.6929133858267846L445.0487804878049,3.6929133858267846L446.7804878048781,3.6929133858267846L448.5121951219512,3.6929133858267846L450.2439024390244,3.6929133858267846L451.9756097560976,3.6929133858267846L451.9756097560976,2.7696850393700743L453.7073170731707,2.7696850393700743L453.7073170731707,1.846456692913364L455.4390243902439,1.846456692913364L457.1707317073171,1.846456692913364L458.9024390243903,1.846456692913364L460.6341463414634,1.846456692913364L462.3658536585366,1.846456692913364L462.3658536585366,0.9232283464567104L464.0975609756098,0.9232283464567104L465.82926829268297,0.9232283464567104L467.5609756097561,0.9232283464567104L469.2926829268293,0.9232283464567104L471.0243902439025,0.9232283464567104L472.75609756097566,0.9232283464567104L474.4878048780488,0.9232283464567104L476.219512195122,0.9232283464567104L477.95121951219517,0.9232283464567104L479.6829268292683,0.9232283464567104L481.4146341463415,0.9232283464567104L483.1463414634147,0.9232283464567104L484.87804878048786,0.9232283464567104L486.609756097561,0.9232283464567104L488.3414634146341,0.9232283464567104L490.0731707317073,0.9232283464567104L491.80487804878044,0.9232283464567104L493.5365853658536,0.9232283464567104L495.2682926829268,0.9232283464567104L496.99999999999994,0.9232283464567104L498.73170731707313,0.9232283464567104L500.4634146341463,0.9232283464567104L502.1951219512195,0.9232283464567104L503.92682926829264,0.9232283464567104L505.6585365853658,0.9232283464567104L507.390243902439,0.9232283464567104L509.1219512195122,0.9232283464567104L510.8536585365853,0.9232283464567104L512.5853658536586,0.9232283464567104L514.3170731707316,0.9232283464567104L516.0487804878048,0.9232283464567104L517.780487804878,0.9232283464567104L519.5121951219512,0.9232283464567104L521.2439024390244,0.9232283464567104L522.9756097560976,0.9232283464567104L524.7073170731708,0.9232283464567104L526.4390243902438,0.9232283464567104L528.170731707317,0.9232283464567104L529.9024390243902,0.9232283464567104L531.6341463414634,0.9232283464567104L533.3658536585366,0.9232283464567104L535.0975609756098,0.9232283464567104L536.829268292683,0.9232283464567104L538.5609756097562,0.9232283464567104L540.2926829268292,0.9232283464567104L542.0243902439024,0.9232283464567104L543.7560975609756,0.9232283464567104L545.4878048780488,0.9232283464567104L547.219512195122,0.9232283464567104L548.9512195121952,0.9232283464567104L550.6829268292684,0.9232283464567104L552.4146341463414,0.9232283464567104L554.1463414634146,0.9232283464567104L555.8780487804878,0.9232283464567104L557.609756097561,0.9232283464567104L559.3414634146342,0.9232283464567104L561.0731707317074,0.9232283464567104L562.8048780487806,0.9232283464567104L564.5365853658537,0.9232283464567104L566.2682926829268,0.9232283464567104L568,0.9232283464567104L569.7317073170732,0.9232283464567104L571.4634146341464,0.9232283464567104L573.1951219512196,0.9232283464567104L574.9268292682927,0.9232283464567104L576.6585365853659,0.9232283464567104L578.390243902439,0.9232283464567104L580.1219512195122,0.9232283464567104L581.8536585365854,0.9232283464567104L583.5853658536585,0.9232283464567104L585.3170731707316,0.9232283464567104L587.0487804878048,0.9232283464567104L588.780487804878,0.9232283464567104L590.5121951219512,0.9232283464567104L590.5121951219512,0L592.2439024390244,0L593.9756097560976,0L595.7073170731707,0L597.4390243902438,0L599.170731707317,0L600.9024390243902,0L602.6341463414634,0L604.3658536585366,0L606.0975609756098,0L607.829268292683,0L609.560975609756,0L611.2926829268292,0L613.0243902439024,0L614.7560975609756,0L616.4878048780488,0L618.219512195122,0L619.9512195121952,0L621.6829268292682,0L623.4146341463414,0L625.1463414634146,0L626.8780487804878,0L628.609756097561,0L630.3414634146342,0L632.0731707317074,0L633.8048780487806,0L635.5365853658536,0L637.2682926829268,0L639,0L640.7317073170732,0L642.4634146341464,0L644.1951219512196,0L645.9268292682927,0L647.6585365853658,0L649.390243902439,0L651.1219512195122,0L652.8536585365854,0L654.5853658536586,0L656.3170731707318,0L658.048780487805,0L659.7804878048781,0L661.5121951219512,0L663.2439024390244,0L664.9756097560976,0L666.7073170731707,0L668.4390243902438,0L670.170731707317,0L671.9024390243902,0L673.6341463414634,0L675.3658536585366,0L677.0975609756098,0L678.8292682926829,0L680.560975609756,0L682.2926829268292,0L684.0243902439024,0L685.7560975609756,0L687.4878048780488,0L689.219512195122,0L690.951219512195,0L692.6829268292682,0L694.4146341463414,0L696.1463414634146,0L697.8780487804878,0L699.609756097561,0L701.3414634146342,0L703.0731707317074,0L704.8048780487804,0L706.5365853658536,0L708.2682926829268,0L710,0"/>
        <g class="knime-legend" transform="translate(155,539)">
            <text class="knime-legend-label" x="20">
                NB
            </text>
            <circle fill="#d62728" r="5" class="knime-legend-symbol" cx="5"
                    cy="-5"/>
        </g>
        <path class="line"
              style="stroke: rgb(148, 103, 189); fill: none; stroke-width: 2;"
              d="M0,469L0,468.0767716535433L0,467.15354330708664L0,466.2303149606299L0,465.3070866141732L0,464.38385826771656L0,463.46062992125985L0,462.53740157480314L0,461.61417322834643L0,460.6909448818898L0,459.76771653543307L0,458.84448818897636L0,457.9212598425197L0,456.998031496063L0,456.0748031496063L0,455.15157480314963L0,454.2283464566929L0,453.3051181102362L0,452.38188976377955L0,451.45866141732284L0,450.53543307086613L0,449.6122047244094L0,448.68897637795277L0,447.76574803149606L1.7317073170731707,447.76574803149606L1.7317073170731707,446.84251968503935L1.7317073170731707,445.9192913385827L1.7317073170731707,444.996062992126L1.7317073170731707,444.0728346456693L1.7317073170731707,443.1496062992126L1.7317073170731707,442.2263779527559L1.7317073170731707,441.3031496062992L1.7317073170731707,440.3799212598425L1.7317073170731707,439.45669291338584L1.7317073170731707,438.5334645669291L1.7317073170731707,437.6102362204724L1.7317073170731707,436.68700787401576L1.7317073170731707,435.76377952755905L1.7317073170731707,434.84055118110234L1.7317073170731707,433.9173228346457L1.7317073170731707,432.994094488189L1.7317073170731707,432.07086614173227L1.7317073170731707,431.1476377952756L1.7317073170731707,430.2244094488189L1.7317073170731707,429.3011811023622L1.7317073170731707,428.37795275590554L1.7317073170731707,427.45472440944883L1.7317073170731707,426.5314960629921L1.7317073170731707,425.6082677165354L3.4634146341463414,425.6082677165354L3.4634146341463414,424.68503937007875L3.4634146341463414,423.76181102362204L3.4634146341463414,422.83858267716533L3.4634146341463414,421.9153543307087L3.4634146341463414,420.99212598425197L3.4634146341463414,420.06889763779526L3.4634146341463414,419.14566929133855L3.4634146341463414,418.2224409448819L3.4634146341463414,417.2992125984252L3.4634146341463414,416.3759842519685L3.4634146341463414,415.4527559055118L3.4634146341463414,414.5295275590551L3.4634146341463414,413.6062992125984L3.4634146341463414,412.68307086614175L3.4634146341463414,411.75984251968504L3.4634146341463414,410.8366141732283L3.4634146341463414,409.9133858267717L3.4634146341463414,408.99015748031496L3.4634146341463414,408.06692913385825L3.4634146341463414,407.1437007874016L3.4634146341463414,406.2204724409449L3.4634146341463414,405.2972440944882L3.4634146341463414,404.3740157480315L3.4634146341463414,403.4507874015748L3.4634146341463414,402.5275590551181L3.4634146341463414,401.60433070866145L3.4634146341463414,400.68110236220474L3.4634146341463414,399.75787401574803L3.4634146341463414,398.8346456692913L3.4634146341463414,397.9114173228346L3.4634146341463414,396.98818897637796L3.4634146341463414,396.06496062992125L3.4634146341463414,395.14173228346453L3.4634146341463414,394.2185039370079L3.4634146341463414,393.29527559055117L3.4634146341463414,392.37204724409446L3.4634146341463414,391.4488188976378L3.4634146341463414,390.5255905511811L3.4634146341463414,389.6023622047244L3.4634146341463414,388.67913385826773L5.195121951219512,388.67913385826773L5.195121951219512,387.755905511811L5.195121951219512,386.8326771653543L5.195121951219512,385.90944881889766L5.195121951219512,384.98622047244095L5.195121951219512,384.06299212598424L5.195121951219512,383.1397637795276L5.195121951219512,382.2165354330709L5.195121951219512,381.29330708661416L5.195121951219512,380.3700787401575L5.195121951219512,379.4468503937008L5.195121951219512,378.5236220472441L5.195121951219512,377.60039370078744L5.195121951219512,376.67716535433067L5.195121951219512,375.753937007874L5.195121951219512,374.8307086614173L5.195121951219512,373.9074803149606L5.195121951219512,372.98425196850394L5.195121951219512,372.06102362204723L5.195121951219512,371.1377952755906L5.195121951219512,370.21456692913387L5.195121951219512,369.29133858267716L5.195121951219512,368.36811023622045L5.195121951219512,367.4448818897638L5.195121951219512,366.5216535433071L5.195121951219512,365.59842519685037L5.195121951219512,364.6751968503937L5.195121951219512,363.751968503937L5.195121951219512,362.8287401574803L5.195121951219512,361.90551181102364L5.195121951219512,360.98228346456693L5.195121951219512,360.0590551181102L5.195121951219512,359.13582677165357L5.195121951219512,358.21259842519686L5.195121951219512,357.28937007874015L5.195121951219512,356.3661417322835L5.195121951219512,355.4429133858268L5.195121951219512,354.5196850393701L5.195121951219512,353.59645669291336L5.195121951219512,352.6732283464567L5.195121951219512,351.75L5.195121951219512,350.8267716535433L5.195121951219512,349.90354330708664L5.195121951219512,348.9803149606299L5.195121951219512,348.0570866141732L5.195121951219512,347.13385826771656L6.926829268292683,347.13385826771656L6.926829268292683,346.21062992125985L6.926829268292683,345.28740157480314L6.926829268292683,344.36417322834643L6.926829268292683,343.4409448818898L6.926829268292683,342.51771653543307L6.926829268292683,341.59448818897636L6.926829268292683,340.6712598425197L8.658536585365853,340.6712598425197L8.658536585365853,339.748031496063L10.390243902439025,339.748031496063L10.390243902439025,338.8248031496063L10.390243902439025,337.90157480314963L10.390243902439025,336.9783464566929L10.390243902439025,336.0551181102362L10.390243902439025,335.13188976377955L10.390243902439025,334.20866141732284L10.390243902439025,333.28543307086613L10.390243902439025,332.3622047244095L10.390243902439025,331.43897637795277L10.390243902439025,330.51574803149606L10.390243902439025,329.59251968503935L10.390243902439025,328.66929133858264L10.390243902439025,327.746062992126L10.390243902439025,326.8228346456693L10.390243902439025,325.89960629921256L10.390243902439025,324.9763779527559L10.390243902439025,324.0531496062992L10.390243902439025,323.1299212598425L10.390243902439025,322.20669291338584L10.390243902439025,321.2834645669291L10.390243902439025,320.3602362204724L10.390243902439025,319.43700787401576L10.390243902439025,318.51377952755905L10.390243902439025,317.59055118110234L10.390243902439025,316.6673228346457L10.390243902439025,315.744094488189L10.390243902439025,314.82086614173227L12.121951219512196,314.82086614173227L13.853658536585366,314.82086614173227L13.853658536585366,313.8976377952756L13.853658536585366,312.97440944881885L13.853658536585366,312.0511811023622L13.853658536585366,311.12795275590554L13.853658536585366,310.2047244094488L13.853658536585366,309.2814960629921L13.853658536585366,308.35826771653547L13.853658536585366,307.43503937007875L13.853658536585366,306.51181102362204L15.585365853658535,306.51181102362204L15.585365853658535,305.5885826771654L17.317073170731707,305.5885826771654L17.317073170731707,304.6653543307087L17.317073170731707,303.74212598425197L17.317073170731707,302.8188976377953L17.317073170731707,301.8956692913386L17.317073170731707,300.9724409448819L19.048780487804876,300.9724409448819L19.048780487804876,300.0492125984252L19.048780487804876,299.1259842519685L19.048780487804876,298.2027559055118L19.048780487804876,297.2795275590551L19.048780487804876,296.3562992125984L19.048780487804876,295.43307086614175L19.048780487804876,294.50984251968504L19.048780487804876,293.5866141732283L19.048780487804876,292.6633858267717L19.048780487804876,291.74015748031496L19.048780487804876,290.81692913385825L19.048780487804876,289.8937007874016L19.048780487804876,288.9704724409449L19.048780487804876,288.0472440944882L19.048780487804876,287.1240157480315L19.048780487804876,286.2007874015748L19.048780487804876,285.2775590551181L19.048780487804876,284.3543307086614L19.048780487804876,283.4311023622047L19.048780487804876,282.50787401574803L19.048780487804876,281.5846456692913L19.048780487804876,280.6614173228346L19.048780487804876,279.73818897637796L19.048780487804876,278.81496062992125L20.78048780487805,278.81496062992125L20.78048780487805,277.89173228346453L20.78048780487805,276.9685039370079L20.78048780487805,276.0452755905512L20.78048780487805,275.12204724409446L20.78048780487805,274.1988188976378L20.78048780487805,273.27559055118115L20.78048780487805,272.3523622047244L20.78048780487805,271.42913385826773L20.78048780487805,270.505905511811L20.78048780487805,269.5826771653543L22.51219512195122,269.5826771653543L22.51219512195122,268.65944881889766L22.51219512195122,267.73622047244095L22.51219512195122,266.81299212598424L22.51219512195122,265.8897637795276L22.51219512195122,264.9665354330709L22.51219512195122,264.04330708661416L22.51219512195122,263.1200787401575L22.51219512195122,262.1968503937008L22.51219512195122,261.2736220472441L22.51219512195122,260.35039370078744L22.51219512195122,259.4271653543307L22.51219512195122,258.503937007874L22.51219512195122,257.58070866141736L22.51219512195122,256.65748031496065L22.51219512195122,255.7342519685039L22.51219512195122,254.81102362204723L22.51219512195122,253.88779527559055L22.51219512195122,252.96456692913384L22.51219512195122,252.04133858267716L22.51219512195122,251.11811023622047L22.51219512195122,250.19488188976376L22.51219512195122,249.27165354330708L22.51219512195122,248.3484251968504L22.51219512195122,247.42519685039372L24.243902439024392,247.42519685039372L24.243902439024392,246.501968503937L24.243902439024392,245.57874015748033L24.243902439024392,244.65551181102364L24.243902439024392,243.73228346456693L24.243902439024392,242.80905511811025L24.243902439024392,241.88582677165357L24.243902439024392,240.96259842519683L24.243902439024392,240.03937007874015L24.243902439024392,239.11614173228347L24.243902439024392,238.19291338582676L24.243902439024392,237.26968503937007L24.243902439024392,236.3464566929134L24.243902439024392,235.42322834645668L24.243902439024392,234.5L24.243902439024392,233.57677165354332L24.243902439024392,232.6535433070866L24.243902439024392,231.73031496062993L24.243902439024392,230.80708661417324L24.243902439024392,229.88385826771653L24.243902439024392,228.96062992125985L24.243902439024392,228.03740157480317L24.243902439024392,227.11417322834646L24.243902439024392,226.19094488188978L24.243902439024392,225.2677165354331L24.243902439024392,224.34448818897638L24.243902439024392,223.4212598425197L24.243902439024392,222.49803149606302L24.243902439024392,221.5748031496063L25.97560975609756,221.5748031496063L25.97560975609756,220.65157480314963L25.97560975609756,219.7283464566929L25.97560975609756,218.8051181102362L25.97560975609756,217.8818897637795L25.97560975609756,216.95866141732282L25.97560975609756,216.03543307086613L25.97560975609756,215.11220472440942L27.70731707317073,215.11220472440942L29.439024390243905,215.11220472440942L29.439024390243905,214.18897637795274L31.17073170731707,214.18897637795274L31.17073170731707,213.26574803149606L31.17073170731707,212.34251968503935L31.17073170731707,211.41929133858264L31.17073170731707,210.49606299212599L31.17073170731707,209.57283464566927L32.90243902439024,209.57283464566927L32.90243902439024,208.64960629921256L34.63414634146341,208.64960629921256L34.63414634146341,207.7263779527559L34.63414634146341,206.8031496062992L34.63414634146341,205.8799212598425L34.63414634146341,204.95669291338584L36.36585365853659,204.95669291338584L36.36585365853659,204.03346456692913L36.36585365853659,203.11023622047247L36.36585365853659,202.18700787401576L36.36585365853659,201.26377952755905L36.36585365853659,200.3405511811024L36.36585365853659,199.4173228346457L36.36585365853659,198.49409448818898L36.36585365853659,197.57086614173232L36.36585365853659,196.6476377952756L36.36585365853659,195.7244094488189L36.36585365853659,194.80118110236225L36.36585365853659,193.87795275590554L36.36585365853659,192.95472440944883L36.36585365853659,192.03149606299218L36.36585365853659,191.10826771653547L36.36585365853659,190.1850393700787L36.36585365853659,189.26181102362204L38.09756097560975,189.26181102362204L39.829268292682926,189.26181102362204L41.5609756097561,189.26181102362204L41.5609756097561,188.33858267716533L43.292682926829265,188.33858267716533L43.292682926829265,187.41535433070862L43.292682926829265,186.49212598425197L45.02439024390244,186.49212598425197L46.75609756097561,186.49212598425197L46.75609756097561,185.56889763779526L46.75609756097561,184.64566929133855L46.75609756097561,183.7224409448819L48.487804878048784,183.7224409448819L48.487804878048784,182.79921259842519L50.21951219512194,182.79921259842519L50.21951219512194,181.87598425196848L50.21951219512194,180.95275590551182L50.21951219512194,180.0295275590551L50.21951219512194,179.1062992125984L51.95121951219512,179.1062992125984L51.95121951219512,178.18307086614175L51.95121951219512,177.25984251968504L51.95121951219512,176.33661417322833L51.95121951219512,175.41338582677167L51.95121951219512,174.49015748031496L51.95121951219512,173.56692913385825L51.95121951219512,172.6437007874016L51.95121951219512,171.7204724409449L51.95121951219512,170.79724409448818L51.95121951219512,169.87401574803152L51.95121951219512,168.95078740157481L51.95121951219512,168.0275590551181L51.95121951219512,167.10433070866145L51.95121951219512,166.18110236220474L51.95121951219512,165.25787401574803L51.95121951219512,164.33464566929138L51.95121951219512,163.41141732283467L51.95121951219512,162.48818897637796L51.95121951219512,161.5649606299213L51.95121951219512,160.64173228346453L51.95121951219512,159.71850393700782L51.95121951219512,158.79527559055117L51.95121951219512,157.87204724409446L51.95121951219512,156.94881889763775L51.95121951219512,156.0255905511811L51.95121951219512,155.1023622047244L53.68292682926829,155.1023622047244L53.68292682926829,154.17913385826768L53.68292682926829,153.25590551181102L53.68292682926829,152.3326771653543L53.68292682926829,151.4094488188976L53.68292682926829,150.48622047244095L53.68292682926829,149.56299212598424L53.68292682926829,148.63976377952753L53.68292682926829,147.71653543307087L53.68292682926829,146.79330708661416L53.68292682926829,145.8700787401575L55.41463414634146,145.8700787401575L55.41463414634146,144.9468503937008L55.41463414634146,144.0236220472441L55.41463414634146,143.10039370078744L55.41463414634146,142.17716535433073L55.41463414634146,141.25393700787401L55.41463414634146,140.33070866141736L55.41463414634146,139.40748031496065L55.41463414634146,138.48425196850394L57.146341463414636,138.48425196850394L58.87804878048781,138.48425196850394L58.87804878048781,137.5610236220473L60.60975609756098,137.5610236220473L62.34146341463414,137.5610236220473L62.34146341463414,136.63779527559058L62.34146341463414,135.71456692913387L62.34146341463414,134.7913385826772L64.07317073170732,134.7913385826772L64.07317073170732,133.8681102362205L64.07317073170732,132.9448818897638L64.07317073170732,132.02165354330714L64.07317073170732,131.09842519685037L64.07317073170732,130.17519685039366L64.07317073170732,129.251968503937L64.07317073170732,128.3287401574803L64.07317073170732,127.40551181102359L64.07317073170732,126.48228346456693L64.07317073170732,125.55905511811022L65.80487804878048,125.55905511811022L65.80487804878048,124.63582677165351L65.80487804878048,123.71259842519686L65.80487804878048,122.78937007874015L65.80487804878048,121.86614173228344L67.53658536585365,121.86614173228344L69.26829268292683,121.86614173228344L69.26829268292683,120.94291338582678L71,120.94291338582678L71,120.01968503937007L71,119.09645669291336L72.73170731707317,119.09645669291336L72.73170731707317,118.17322834645671L72.73170731707317,117.25L72.73170731707317,116.32677165354329L72.73170731707317,115.40354330708664L74.46341463414633,115.40354330708664L74.46341463414633,114.48031496062993L76.1951219512195,114.48031496062993L76.1951219512195,113.55708661417322L76.1951219512195,112.63385826771656L76.1951219512195,111.71062992125985L76.1951219512195,110.78740157480314L76.1951219512195,109.86417322834649L76.1951219512195,108.94094488188978L76.1951219512195,108.01771653543307L76.1951219512195,107.09448818897641L76.1951219512195,106.1712598425197L76.1951219512195,105.24803149606299L77.92682926829268,105.24803149606299L79.65853658536585,105.24803149606299L81.39024390243902,105.24803149606299L81.39024390243902,104.32480314960634L81.39024390243902,103.40157480314963L81.39024390243902,102.47834645669286L81.39024390243902,101.55511811023621L81.39024390243902,100.6318897637795L81.39024390243902,99.70866141732279L81.39024390243902,98.78543307086613L81.39024390243902,97.86220472440942L81.39024390243902,96.93897637795271L83.1219512195122,96.93897637795271L83.1219512195122,96.01574803149606L84.85365853658536,96.01574803149606L84.85365853658536,95.09251968503935L84.85365853658536,94.16929133858264L84.85365853658536,93.24606299212599L86.58536585365853,93.24606299212599L88.3170731707317,93.24606299212599L90.04878048780488,93.24606299212599L90.04878048780488,92.32283464566927L91.78048780487805,92.32283464566927L91.78048780487805,91.39960629921256L91.78048780487805,90.47637795275591L93.51219512195122,90.47637795275591L93.51219512195122,89.5531496062992L93.51219512195122,88.62992125984249L93.51219512195122,87.70669291338584L93.51219512195122,86.78346456692913L95.2439024390244,86.78346456692913L95.2439024390244,85.86023622047247L96.97560975609757,85.86023622047247L98.70731707317074,85.86023622047247L100.43902439024389,85.86023622047247L100.43902439024389,84.93700787401576L102.17073170731706,84.93700787401576L102.17073170731706,84.01377952755905L102.17073170731706,83.0905511811024L103.90243902439023,83.0905511811024L105.6341463414634,83.0905511811024L105.6341463414634,82.16732283464569L105.6341463414634,81.24409448818898L107.36585365853658,81.24409448818898L107.36585365853658,80.32086614173232L107.36585365853658,79.39763779527561L107.36585365853658,78.4744094488189L107.36585365853658,77.55118110236225L107.36585365853658,76.62795275590554L107.36585365853658,75.70472440944883L107.36585365853658,74.78149606299218L109.09756097560975,74.78149606299218L110.82926829268293,74.78149606299218L112.5609756097561,74.78149606299218L112.5609756097561,73.85826771653547L112.5609756097561,72.9350393700787L112.5609756097561,72.01181102362204L112.5609756097561,71.08858267716533L112.5609756097561,70.16535433070862L112.5609756097561,69.24212598425197L112.5609756097561,68.31889763779526L112.5609756097561,67.39566929133855L112.5609756097561,66.4724409448819L112.5609756097561,65.54921259842519L112.5609756097561,64.62598425196848L114.29268292682927,64.62598425196848L114.29268292682927,63.70275590551182L114.29268292682927,62.77952755905511L114.29268292682927,61.8562992125984L114.29268292682927,60.93307086614175L116.02439024390245,60.93307086614175L116.02439024390245,60.00984251968504L116.02439024390245,59.08661417322833L116.02439024390245,58.16338582677167L117.75609756097562,58.16338582677167L117.75609756097562,57.24015748031496L117.75609756097562,56.31692913385825L117.75609756097562,55.3937007874016L119.48780487804879,55.3937007874016L121.21951219512196,55.3937007874016L122.95121951219511,55.3937007874016L122.95121951219511,54.47047244094489L122.95121951219511,53.54724409448818L124.68292682926828,53.54724409448818L124.68292682926828,52.624015748031525L126.41463414634146,52.624015748031525L126.41463414634146,51.700787401574814L126.41463414634146,50.777559055118104L126.41463414634146,49.85433070866145L126.41463414634146,48.93110236220474L126.41463414634146,48.00787401574803L126.41463414634146,47.084645669291376L126.41463414634146,46.161417322834666L128.14634146341464,46.161417322834666L128.14634146341464,45.238188976377955L128.14634146341464,44.3149606299213L128.14634146341464,43.391732283464535L129.8780487804878,43.391732283464535L131.60975609756096,43.391732283464535L133.34146341463415,43.391732283464535L135.0731707317073,43.391732283464535L136.8048780487805,43.391732283464535L138.53658536585365,43.391732283464535L138.53658536585365,42.468503937007824L140.26829268292684,42.468503937007824L140.26829268292684,41.54527559055117L142,41.54527559055117L143.7317073170732,41.54527559055117L143.7317073170732,40.62204724409446L143.7317073170732,39.69881889763775L143.7317073170732,38.7755905511811L145.46341463414635,38.7755905511811L147.1951219512195,38.7755905511811L148.92682926829266,38.7755905511811L150.65853658536585,38.7755905511811L152.390243902439,38.7755905511811L152.390243902439,37.852362204724386L154.1219512195122,37.852362204724386L154.1219512195122,36.929133858267676L155.85365853658536,36.929133858267676L155.85365853658536,36.00590551181102L157.58536585365854,36.00590551181102L157.58536585365854,35.08267716535431L159.3170731707317,35.08267716535431L161.0487804878049,35.08267716535431L162.78048780487805,35.08267716535431L164.51219512195124,35.08267716535431L164.51219512195124,34.1594488188976L166.2439024390244,34.1594488188976L167.97560975609755,34.1594488188976L169.7073170731707,34.1594488188976L171.4390243902439,34.1594488188976L171.4390243902439,33.23622047244095L173.17073170731706,33.23622047244095L173.17073170731706,32.31299212598424L174.90243902439025,32.31299212598424L176.6341463414634,32.31299212598424L178.3658536585366,32.31299212598424L180.09756097560975,32.31299212598424L181.82926829268294,32.31299212598424L181.82926829268294,31.389763779527527L183.5609756097561,31.389763779527527L185.2926829268293,31.389763779527527L185.2926829268293,30.466535433070874L187.02439024390245,30.466535433070874L188.75609756097563,30.466535433070874L190.4878048780488,30.466535433070874L190.4878048780488,29.543307086614163L192.21951219512195,29.543307086614163L193.95121951219514,29.543307086614163L195.6829268292683,29.543307086614163L195.6829268292683,28.62007874015751L195.6829268292683,27.6968503937008L195.6829268292683,26.77362204724409L197.41463414634148,26.77362204724409L197.41463414634148,25.850393700787436L197.41463414634148,24.927165354330725L197.41463414634148,24.003937007874015L199.14634146341464,24.003937007874015L200.87804878048777,24.003937007874015L202.60975609756096,24.003937007874015L204.34146341463412,24.003937007874015L206.0731707317073,24.003937007874015L207.80487804878047,24.003937007874015L209.53658536585365,24.003937007874015L211.2682926829268,24.003937007874015L213,24.003937007874015L214.73170731707316,24.003937007874015L216.46341463414635,24.003937007874015L216.46341463414635,23.08070866141736L218.1951219512195,23.08070866141736L219.9268292682927,23.08070866141736L221.65853658536585,23.08070866141736L223.39024390243904,23.08070866141736L225.1219512195122,23.08070866141736L226.85365853658536,23.08070866141736L228.58536585365854,23.08070866141736L230.3170731707317,23.08070866141736L232.0487804878049,23.08070866141736L233.78048780487805,23.08070866141736L233.78048780487805,22.15748031496065L235.51219512195124,22.15748031496065L237.2439024390244,22.15748031496065L238.97560975609758,22.15748031496065L240.70731707317074,22.15748031496065L242.43902439024393,22.15748031496065L244.17073170731706,22.15748031496065L244.17073170731706,21.23425196850394L245.90243902439022,21.23425196850394L247.6341463414634,21.23425196850394L247.6341463414634,20.311023622047287L247.6341463414634,19.387795275590577L249.36585365853657,19.387795275590577L249.36585365853657,18.464566929133866L251.09756097560975,18.464566929133866L252.8292682926829,18.464566929133866L254.5609756097561,18.464566929133866L256.2926829268293,18.464566929133866L258.0243902439024,18.464566929133866L259.7560975609756,18.464566929133866L261.4878048780488,18.464566929133866L263.2195121951219,18.464566929133866L264.9512195121951,18.464566929133866L264.9512195121951,17.541338582677213L266.6829268292683,17.541338582677213L268.4146341463415,17.541338582677213L270.1463414634146,17.541338582677213L270.1463414634146,16.618110236220502L271.8780487804878,16.618110236220502L273.609756097561,16.618110236220502L275.3414634146342,16.618110236220502L277.0731707317073,16.618110236220502L277.0731707317073,15.694881889763792L277.0731707317073,14.771653543307139L277.0731707317073,13.848425196850371L278.8048780487805,13.848425196850371L278.8048780487805,12.925196850393661L280.5365853658537,12.925196850393661L282.26829268292687,12.925196850393661L284,12.925196850393661L285.7317073170732,12.925196850393661L287.4634146341464,12.925196850393661L289.1951219512195,12.925196850393661L290.9268292682927,12.925196850393661L292.6585365853658,12.925196850393661L294.390243902439,12.925196850393661L296.1219512195122,12.925196850393661L297.8536585365853,12.925196850393661L299.5853658536585,12.925196850393661L301.3170731707317,12.925196850393661L303.0487804878049,12.925196850393661L304.780487804878,12.925196850393661L306.5121951219512,12.925196850393661L308.2439024390244,12.925196850393661L309.9756097560976,12.925196850393661L311.7073170731707,12.925196850393661L313.4390243902439,12.925196850393661L315.1707317073171,12.925196850393661L316.9024390243903,12.925196850393661L318.6341463414634,12.925196850393661L320.3658536585366,12.925196850393661L322.0975609756098,12.925196850393661L323.8292682926829,12.925196850393661L325.5609756097561,12.925196850393661L327.2926829268293,12.925196850393661L329.0243902439025,12.925196850393661L330.7560975609756,12.925196850393661L330.7560975609756,12.001968503937007L330.7560975609756,11.078740157480297L332.4878048780488,11.078740157480297L334.2195121951219,11.078740157480297L335.9512195121951,11.078740157480297L337.6829268292683,11.078740157480297L337.6829268292683,10.155511811023587L337.6829268292683,9.232283464566933L339.4146341463414,9.232283464566933L341.1463414634146,9.232283464566933L342.8780487804878,9.232283464566933L344.609756097561,9.232283464566933L346.3414634146341,9.232283464566933L348.0731707317073,9.232283464566933L349.8048780487805,9.232283464566933L351.5365853658537,9.232283464566933L353.2682926829268,9.232283464566933L355,9.232283464566933L355,8.309055118110223L356.7317073170732,8.309055118110223L358.4634146341463,8.309055118110223L360.1951219512195,8.309055118110223L361.9268292682927,8.309055118110223L363.6585365853659,8.309055118110223L365.390243902439,8.309055118110223L367.1219512195122,8.309055118110223L368.8536585365854,8.309055118110223L370.5853658536586,8.309055118110223L372.3170731707317,8.309055118110223L374.0487804878049,8.309055118110223L375.7804878048781,8.309055118110223L377.51219512195127,8.309055118110223L379.2439024390244,8.309055118110223L380.9756097560976,8.309055118110223L382.70731707317077,8.309055118110223L384.4390243902439,8.309055118110223L386.1707317073171,8.309055118110223L387.9024390243903,8.309055118110223L389.63414634146346,8.309055118110223L391.3658536585366,8.309055118110223L393.0975609756098,8.309055118110223L394.82926829268297,8.309055118110223L396.56097560975616,8.309055118110223L398.2926829268293,8.309055118110223L400.0243902439024,8.309055118110223L401.75609756097555,8.309055118110223L403.48780487804873,8.309055118110223L405.2195121951219,8.309055118110223L406.9512195121951,8.309055118110223L408.68292682926824,8.309055118110223L410.4146341463414,8.309055118110223L412.1463414634146,8.309055118110223L413.8780487804878,8.309055118110223L415.60975609756093,8.309055118110223L415.60975609756093,7.385826771653512L417.3414634146341,7.385826771653512L419.0731707317073,7.385826771653512L419.0731707317073,6.462598425196859L420.8048780487805,6.462598425196859L422.5365853658536,6.462598425196859L424.2682926829268,6.462598425196859L426,6.462598425196859L427.73170731707313,6.462598425196859L429.4634146341463,6.462598425196859L429.4634146341463,5.5393700787401485L431.1951219512195,5.5393700787401485L432.9268292682927,5.5393700787401485L434.6585365853658,5.5393700787401485L436.390243902439,5.5393700787401485L438.1219512195122,5.5393700787401485L439.8536585365854,5.5393700787401485L441.5853658536585,5.5393700787401485L443.3170731707317,5.5393700787401485L445.0487804878049,5.5393700787401485L446.7804878048781,5.5393700787401485L448.5121951219512,5.5393700787401485L450.2439024390244,5.5393700787401485L451.9756097560976,5.5393700787401485L453.7073170731707,5.5393700787401485L455.4390243902439,5.5393700787401485L457.1707317073171,5.5393700787401485L458.9024390243903,5.5393700787401485L460.6341463414634,5.5393700787401485L462.3658536585366,5.5393700787401485L464.0975609756098,5.5393700787401485L465.82926829268297,5.5393700787401485L465.82926829268297,4.616141732283438L467.5609756097561,4.616141732283438L467.5609756097561,3.6929133858267846L469.2926829268293,3.6929133858267846L471.0243902439025,3.6929133858267846L472.75609756097566,3.6929133858267846L474.4878048780488,3.6929133858267846L476.219512195122,3.6929133858267846L477.95121951219517,3.6929133858267846L479.6829268292683,3.6929133858267846L481.4146341463415,3.6929133858267846L483.1463414634147,3.6929133858267846L484.87804878048786,3.6929133858267846L486.609756097561,3.6929133858267846L488.3414634146341,3.6929133858267846L490.0731707317073,3.6929133858267846L491.80487804878044,3.6929133858267846L493.5365853658536,3.6929133858267846L493.5365853658536,2.7696850393700743L495.2682926829268,2.7696850393700743L496.99999999999994,2.7696850393700743L498.73170731707313,2.7696850393700743L500.4634146341463,2.7696850393700743L502.1951219512195,2.7696850393700743L503.92682926829264,2.7696850393700743L505.6585365853658,2.7696850393700743L507.390243902439,2.7696850393700743L509.1219512195122,2.7696850393700743L510.8536585365853,2.7696850393700743L512.5853658536586,2.7696850393700743L514.3170731707316,2.7696850393700743L516.0487804878048,2.7696850393700743L517.780487804878,2.7696850393700743L519.5121951219512,2.7696850393700743L521.2439024390244,2.7696850393700743L522.9756097560976,2.7696850393700743L524.7073170731708,2.7696850393700743L526.4390243902438,2.7696850393700743L526.4390243902438,1.846456692913364L528.170731707317,1.846456692913364L529.9024390243902,1.846456692913364L531.6341463414634,1.846456692913364L533.3658536585366,1.846456692913364L535.0975609756098,1.846456692913364L536.829268292683,1.846456692913364L538.5609756097562,1.846456692913364L540.2926829268292,1.846456692913364L540.2926829268292,0.9232283464567104L542.0243902439024,0.9232283464567104L543.7560975609756,0.9232283464567104L545.4878048780488,0.9232283464567104L547.219512195122,0.9232283464567104L548.9512195121952,0.9232283464567104L550.6829268292684,0.9232283464567104L552.4146341463414,0.9232283464567104L554.1463414634146,0.9232283464567104L555.8780487804878,0.9232283464567104L557.609756097561,0.9232283464567104L559.3414634146342,0.9232283464567104L561.0731707317074,0.9232283464567104L562.8048780487806,0.9232283464567104L564.5365853658537,0.9232283464567104L566.2682926829268,0.9232283464567104L568,0.9232283464567104L569.7317073170732,0.9232283464567104L571.4634146341464,0.9232283464567104L573.1951219512196,0.9232283464567104L574.9268292682927,0.9232283464567104L576.6585365853659,0.9232283464567104L578.390243902439,0.9232283464567104L580.1219512195122,0.9232283464567104L581.8536585365854,0.9232283464567104L583.5853658536585,0.9232283464567104L585.3170731707316,0.9232283464567104L587.0487804878048,0.9232283464567104L588.780487804878,0.9232283464567104L590.5121951219512,0.9232283464567104L592.2439024390244,0.9232283464567104L593.9756097560976,0.9232283464567104L595.7073170731707,0.9232283464567104L597.4390243902438,0.9232283464567104L599.170731707317,0.9232283464567104L599.170731707317,0L600.9024390243902,0L602.6341463414634,0L604.3658536585366,0L606.0975609756098,0L607.829268292683,0L609.560975609756,0L611.2926829268292,0L613.0243902439024,0L614.7560975609756,0L616.4878048780488,0L618.219512195122,0L619.9512195121952,0L621.6829268292682,0L623.4146341463414,0L625.1463414634146,0L626.8780487804878,0L628.609756097561,0L630.3414634146342,0L632.0731707317074,0L633.8048780487806,0L635.5365853658536,0L637.2682926829268,0L639,0L640.7317073170732,0L642.4634146341464,0L644.1951219512196,0L645.9268292682927,0L647.6585365853658,0L649.390243902439,0L651.1219512195122,0L652.8536585365854,0L654.5853658536586,0L656.3170731707318,0L658.048780487805,0L659.7804878048781,0L661.5121951219512,0L663.2439024390244,0L664.9756097560976,0L666.7073170731707,0L668.4390243902438,0L670.170731707317,0L671.9024390243902,0L673.6341463414634,0L675.3658536585366,0L677.0975609756098,0L678.8292682926829,0L680.560975609756,0L682.2926829268292,0L684.0243902439024,0L685.7560975609756,0L687.4878048780488,0L689.219512195122,0L690.951219512195,0L692.6829268292682,0L694.4146341463414,0L696.1463414634146,0L697.8780487804878,0L699.609756097561,0L701.3414634146342,0L703.0731707317074,0L704.8048780487804,0L706.5365853658536,0L708.2682926829268,0L710,0"/>
        <g class="knime-legend" transform="translate(201,539)">
            <text class="knime-legend-label" x="20">
                XGB
            </text>
            <circle fill="#9467bd" r="5" class="knime-legend-symbol" cx="5"
                    cy="-5"/>
        </g>
        <path class="line"
              style="stroke: rgb(140, 86, 75); fill: none; stroke-width: 2;"
              d="M0,469L143.7317073170732,53.54724409448818L710,0"/>
        <g class="knime-legend" transform="translate(256,539)">
            <text class="knime-legend-label" x="20">
                k-NN
            </text>
            <circle fill="#8c564b" r="5" class="knime-legend-symbol" cx="5"
                    cy="-5"/>
        </g>
        <path class="line" style="stroke: black; fill: none; stroke-width: 2;"
              d="M0,469L710,0"/>
        <g class="knime-legend" transform="translate(313,539)">
            <text class="knime-legend-label" x="20">
                random
            </text>
            <circle fill="black" r="5" class="knime-legend-symbol" cx="5"
                    cy="-5"/>
        </g>
    </g>
    <g transform="translate(70,0)">
        <text class="knime-title" id="title" y="30">
            ROC Curve
        </text>
    </g>
</svg>