<!DOCTYPE svg PUBLIC "-//W3C//DTD SVG 1.1//EN"
    "http://www.w3.org/Graphics/SVG/1.1/DTD/svg11.dtd" >
<svg contentScriptType="text/ecmascript" width="800"
     xmlns:xlink="http://www.w3.org/1999/xlink" zoomAndPan="magnify"
     style="height: 600px;" contentStyleType="text/css" height="600"
     preserveAspectRatio="xMidYMid meet" xmlns="http://www.w3.org/2000/svg"
     version="1.0">
    <style type="text/css" xml:space="preserve">.knime-title { color: black; fill: black; font-size: 24px; }
.knime-label, .knime-axis-label, .knime-tick-label, .knime-label text, text.knime-axis-label, text.knime-tick-label { color: black; fill: black; font-size: 12px; }
.knime-legend-label, text.knime-legend-label { color: black; fill: black; font-size: 12px; font-weight: normal; }
.knime-tooltip-caption, .knime-tooltip-key, .knime-tooltip-value { color: black; fill: black; font-size: 12px; }
.knime-tooltip-key { font-weight: normal; }
.knime-tooltip-caption, .knime-tooltip-value { font-weight: bold; }</style><g transform="translate(70,46)">
        <rect x="-70" fill="rgb(255,255,255)" width="800" fill-opacity="1.0"
              height="600" y="-46"/>
        <rect fill="rgb(230,230,230)" width="710" fill-opacity="1.0"
              height="469"/>
        <g class="x axis knime-x knime-axis" transform="translate(0,469)">
            <g class="tick major knime-tick" style="opacity: 1;"
               transform="translate(0,0)">
                <line y2="-469" class="knime-tick-line" x2="0"
                      stroke="rgb(255,255,255)"/>
                <text x="0" dy=".71em" y="10" style="text-anchor: middle;"
                      class="knime-tick-label">
                    0.0
                </text>
            </g>
            <g class="tick major knime-tick" style="opacity: 1;"
               transform="translate(71,0)">
                <line y2="-469" class="knime-tick-line" x2="0"
                      stroke="rgb(255,255,255)"/>
                <text x="0" dy=".71em" y="10" style="text-anchor: middle;"
                      class="knime-tick-label">
                    0.1
                </text>
            </g>
            <g class="tick major knime-tick" style="opacity: 1;"
               transform="translate(142,0)">
                <line y2="-469" class="knime-tick-line" x2="0"
                      stroke="rgb(255,255,255)"/>
                <text x="0" dy=".71em" y="10" style="text-anchor: middle;"
                      class="knime-tick-label">
                    0.2
                </text>
            </g>
            <g class="tick major knime-tick" style="opacity: 1;"
               transform="translate(213,0)">
                <line y2="-469" class="knime-tick-line" x2="0"
                      stroke="rgb(255,255,255)"/>
                <text x="0" dy=".71em" y="10" style="text-anchor: middle;"
                      class="knime-tick-label">
                    0.3
                </text>
            </g>
            <g class="tick major knime-tick" style="opacity: 1;"
               transform="translate(284,0)">
                <line y2="-469" class="knime-tick-line" x2="0"
                      stroke="rgb(255,255,255)"/>
                <text x="0" dy=".71em" y="10" style="text-anchor: middle;"
                      class="knime-tick-label">
                    0.4
                </text>
            </g>
            <g class="tick major knime-tick" style="opacity: 1;"
               transform="translate(355,0)">
                <line y2="-469" class="knime-tick-line" x2="0"
                      stroke="rgb(255,255,255)"/>
                <text x="0" dy=".71em" y="10" style="text-anchor: middle;"
                      class="knime-tick-label">
                    0.5
                </text>
            </g>
            <g class="tick major knime-tick" style="opacity: 1;"
               transform="translate(426,0)">
                <line y2="-469" class="knime-tick-line" x2="0"
                      stroke="rgb(255,255,255)"/>
                <text x="0" dy=".71em" y="10" style="text-anchor: middle;"
                      class="knime-tick-label">
                    0.6
                </text>
            </g>
            <g class="tick major knime-tick" style="opacity: 1;"
               transform="translate(496.99999999999994,0)">
                <line y2="-469" class="knime-tick-line" x2="0"
                      stroke="rgb(255,255,255)"/>
                <text x="0" dy=".71em" y="10" style="text-anchor: middle;"
                      class="knime-tick-label">
                    0.7
                </text>
            </g>
            <g class="tick major knime-tick" style="opacity: 1;"
               transform="translate(568,0)">
                <line y2="-469" class="knime-tick-line" x2="0"
                      stroke="rgb(255,255,255)"/>
                <text x="0" dy=".71em" y="10" style="text-anchor: middle;"
                      class="knime-tick-label">
                    0.8
                </text>
            </g>
            <g class="tick major knime-tick" style="opacity: 1;"
               transform="translate(639,0)">
                <line y2="-469" class="knime-tick-line" x2="0"
                      stroke="rgb(255,255,255)"/>
                <text x="0" dy=".71em" y="10" style="text-anchor: middle;"
                      class="knime-tick-label">
                    0.9
                </text>
            </g>
            <g class="tick major knime-tick" style="opacity: 1;"
               transform="translate(710,0)">
                <line y2="-469" class="knime-tick-line" x2="0"
                      stroke="rgb(255,255,255)"/>
                <text x="0" dy=".71em" y="10" style="text-anchor: middle;"
                      class="knime-tick-label">
                    1.0
                </text>
            </g>
            <path fill="none" stroke-width="1" d="M0,0V0H710V0" class="domain"
                  stroke="rgb(255,255,255)"/>
        </g>
        <g class="y axis knime-y knime-axis">
            <g class="tick major knime-tick" style="opacity: 1;"
               transform="translate(0,469)">
                <line y2="0" class="knime-tick-line" x2="710"
                      stroke="rgb(255,255,255)"/>
                <text x="-10" dy=".32em" y="0" style="text-anchor: end;"
                      class="knime-tick-label">
                    0.0
                </text>
            </g>
            <g class="tick major knime-tick" style="opacity: 1;"
               transform="translate(0,422.1)">
                <line y2="0" class="knime-tick-line" x2="710"
                      stroke="rgb(255,255,255)"/>
                <text x="-10" dy=".32em" y="0" style="text-anchor: end;"
                      class="knime-tick-label">
                    0.1
                </text>
            </g>
            <g class="tick major knime-tick" style="opacity: 1;"
               transform="translate(0,375.2)">
                <line y2="0" class="knime-tick-line" x2="710"
                      stroke="rgb(255,255,255)"/>
                <text x="-10" dy=".32em" y="0" style="text-anchor: end;"
                      class="knime-tick-label">
                    0.2
                </text>
            </g>
            <g class="tick major knime-tick" style="opacity: 1;"
               transform="translate(0,328.3)">
                <line y2="0" class="knime-tick-line" x2="710"
                      stroke="rgb(255,255,255)"/>
                <text x="-10" dy=".32em" y="0" style="text-anchor: end;"
                      class="knime-tick-label">
                    0.3
                </text>
            </g>
            <g class="tick major knime-tick" style="opacity: 1;"
               transform="translate(0,281.4)">
                <line y2="0" class="knime-tick-line" x2="710"
                      stroke="rgb(255,255,255)"/>
                <text x="-10" dy=".32em" y="0" style="text-anchor: end;"
                      class="knime-tick-label">
                    0.4
                </text>
            </g>
            <g class="tick major knime-tick" style="opacity: 1;"
               transform="translate(0,234.5)">
                <line y2="0" class="knime-tick-line" x2="710"
                      stroke="rgb(255,255,255)"/>
                <text x="-10" dy=".32em" y="0" style="text-anchor: end;"
                      class="knime-tick-label">
                    0.5
                </text>
            </g>
            <g class="tick major knime-tick" style="opacity: 1;"
               transform="translate(0,187.60000000000002)">
                <line y2="0" class="knime-tick-line" x2="710"
                      stroke="rgb(255,255,255)"/>
                <text x="-10" dy=".32em" y="0" style="text-anchor: end;"
                      class="knime-tick-label">
                    0.6
                </text>
            </g>
            <g class="tick major knime-tick" style="opacity: 1;"
               transform="translate(0,140.70000000000005)">
                <line y2="0" class="knime-tick-line" x2="710"
                      stroke="rgb(255,255,255)"/>
                <text x="-10" dy=".32em" y="0" style="text-anchor: end;"
                      class="knime-tick-label">
                    0.7
                </text>
            </g>
            <g class="tick major knime-tick" style="opacity: 1;"
               transform="translate(0,93.79999999999995)">
                <line y2="0" class="knime-tick-line" x2="710"
                      stroke="rgb(255,255,255)"/>
                <text x="-10" dy=".32em" y="0" style="text-anchor: end;"
                      class="knime-tick-label">
                    0.8
                </text>
            </g>
            <g class="tick major knime-tick" style="opacity: 1;"
               transform="translate(0,46.89999999999998)">
                <line y2="0" class="knime-tick-line" x2="710"
                      stroke="rgb(255,255,255)"/>
                <text x="-10" dy=".32em" y="0" style="text-anchor: end;"
                      class="knime-tick-label">
                    0.9
                </text>
            </g>
            <g class="tick major knime-tick" style="opacity: 1;"
               transform="translate(0,0)">
                <line y2="0" class="knime-tick-line" x2="710"
                      stroke="rgb(255,255,255)"/>
                <text x="-10" dy=".32em" y="0" style="text-anchor: end;"
                      class="knime-tick-label">
                    1.0
                </text>
            </g>
            <path fill="none" stroke-width="1" d="M0,0H0V469H0" class="domain"
                  stroke="rgb(255,255,255)"/>
        </g>
        <text x="700" id="xtitle" y="514"
              class="x label knime-x knime-axis-label" text-anchor="end">
            False Positive Rate
        </text>
        <text dy=".75em" id="ytitle" y="-55"
              class="y label knime-y knime-axis-label" transform="rotate(-90)"
              text-anchor="end">
            True Positive Rate
        </text>
        <g class="knime-tooltip" transform="translate(624,319)">
            <text x="0" y="0" style="fill: rgb(31, 119, 180);"
                  class="knime-tooltip-key knime-tooltip-value knime-tooltip-color">
                DT (0.809)
            </text>
            <text x="0" y="25" style="fill: rgb(255, 127, 14);"
                  class="knime-tooltip-key knime-tooltip-value knime-tooltip-color">
                RF (0.923)
            </text>
            <text x="0" y="50" style="fill: rgb(44, 160, 44);"
                  class="knime-tooltip-key knime-tooltip-value knime-tooltip-color">
                ZeroR (0.482)
            </text>
            <text x="0" y="75" style="fill: rgb(214, 39, 40);"
                  class="knime-tooltip-key knime-tooltip-value knime-tooltip-color">
                NB (0.915)
            </text>
            <text x="0" y="100" style="fill: rgb(148, 103, 189);"
                  class="knime-tooltip-key knime-tooltip-value knime-tooltip-color">
                XGB (0.783)
            </text>
            <text x="0" y="125" style="fill: rgb(140, 86, 75);"
                  class="knime-tooltip-key knime-tooltip-value knime-tooltip-color">
                k-NN (0.842)
            </text>
        </g>
        <path class="line"
              style="stroke: rgb(31, 119, 180); fill: none; stroke-width: 2;"
              d="M0,469L84.85365853658536,252.04133858267716L84.85365853658536,239.11614173228347L86.58536585365853,221.5748031496063L90.04878048780488,196.6476377952756L91.78048780487805,195.7244094488189L95.2439024390244,192.03149606299218L95.2439024390244,183.7224409448819L95.2439024390244,180.0295275590551L96.97560975609757,173.56692913385825L98.70731707317074,168.95078740157481L102.17073170731706,160.64173228346453L105.6341463414634,145.8700787401575L109.09756097560975,135.71456692913387L109.09756097560975,132.9448818897638L110.82926829268293,119.09645669291336L110.82926829268293,117.25L112.5609756097561,114.48031496062993L112.5609756097561,111.71062992125985L114.29268292682927,108.94094488188978L114.29268292682927,105.24803149606299L117.75609756097562,104.32480314960634L121.21951219512196,101.55511811023621L133.34146341463415,98.78543307086613L133.34146341463415,97.86220472440942L147.1951219512195,87.70669291338584L148.92682926829266,87.70669291338584L148.92682926829266,85.86023622047247L150.65853658536585,85.86023622047247L150.65853658536585,84.93700787401576L150.65853658536585,84.01377952755905L155.85365853658536,82.16732283464569L161.0487804878049,73.85826771653547L164.51219512195124,68.31889763779526L174.90243902439025,64.62598425196848L180.09756097560975,63.70275590551182L180.09756097560975,62.77952755905511L180.09756097560975,61.8562992125984L181.82926829268294,60.00984251968504L188.75609756097563,58.16338582677167L199.14634146341464,57.24015748031496L206.0731707317073,56.31692913385825L211.2682926829268,56.31692913385825L216.46341463414635,56.31692913385825L221.65853658536585,53.54724409448818L225.1219512195122,52.624015748031525L252.8292682926829,51.700787401574814L299.5853658536585,50.777559055118104L303.0487804878049,50.777559055118104L335.9512195121951,49.85433070866145L365.390243902439,48.93110236220474L393.0975609756098,48.00787401574803L451.9756097560976,44.3149606299213L455.4390243902439,44.3149606299213L457.1707317073171,44.3149606299213L458.9024390243903,43.391732283464535L507.390243902439,40.62204724409446L550.6829268292684,40.62204724409446L592.2439024390244,40.62204724409446L623.4146341463414,40.62204724409446L710,0"/>
        <g class="knime-legend" transform="translate(0,539)">
            <text class="knime-legend-label" x="20">
                DT
            </text>
            <circle fill="#1f77b4" r="5" class="knime-legend-symbol" cx="5"
                    cy="-5"/>
        </g>
        <path class="line"
              style="stroke: rgb(255, 127, 14); fill: none; stroke-width: 2;"
              d="M0,469L1.7317073170731707,451.45866141732284L10.390243902439025,428.37795275590554L13.853658536585366,402.5275590551181L13.853658536585366,378.5236220472441L13.853658536585366,363.751968503937L15.585365853658535,346.21062992125985L17.317073170731707,331.43897637795277L17.317073170731707,317.59055118110234L17.317073170731707,304.6653543307087L17.317073170731707,284.3543307086614L20.78048780487805,265.8897637795276L22.51219512195122,252.96456692913384L27.70731707317073,240.03937007874015L29.439024390243905,231.73031496062993L34.63414634146341,216.95866141732282L39.829268292682926,209.57283464566927L43.292682926829265,201.26377952755905L43.292682926829265,191.10826771653547L45.02439024390244,185.56889763779526L45.02439024390244,180.0295275590551L45.02439024390244,172.6437007874016L45.02439024390244,168.0275590551181L46.75609756097561,162.48818897637796L50.21951219512194,157.87204724409446L53.68292682926829,152.3326771653543L57.146341463414636,150.48622047244095L58.87804878048781,140.33070866141736L64.07317073170732,138.48425196850394L64.07317073170732,131.09842519685037L64.07317073170732,125.55905511811022L67.53658536585365,119.09645669291336L69.26829268292683,116.32677165354329L71,110.78740157480314L71,105.24803149606299L76.1951219512195,96.93897637795271L76.1951219512195,93.24606299212599L76.1951219512195,89.5531496062992L76.1951219512195,84.01377952755905L77.92682926829268,81.24409448818898L83.1219512195122,79.39763779527561L84.85365853658536,75.70472440944883L86.58536585365853,73.85826771653547L88.3170731707317,71.08858267716533L95.2439024390244,66.4724409448819L96.97560975609757,62.77952755905511L105.6341463414634,60.93307086614175L107.36585365853658,58.16338582677167L109.09756097560975,55.3937007874016L114.29268292682927,50.777559055118104L122.95121951219511,48.93110236220474L131.60975609756096,48.00787401574803L135.0731707317073,45.238188976377955L135.0731707317073,42.468503937007824L138.53658536585365,38.7755905511811L142,37.852362204724386L143.7317073170732,35.08267716535431L145.46341463414635,33.23622047244095L148.92682926829266,32.31299212598424L155.85365853658536,31.389763779527527L162.78048780487805,30.466535433070874L167.97560975609755,29.543307086614163L167.97560975609755,26.77362204724409L173.17073170731706,24.927165354330725L180.09756097560975,24.003937007874015L183.5609756097561,24.003937007874015L187.02439024390245,22.15748031496065L192.21951219512195,19.387795275590577L197.41463414634148,19.387795275590577L200.87804878048777,18.464566929133866L207.80487804878047,16.618110236220502L211.2682926829268,15.694881889763792L213,15.694881889763792L221.65853658536585,15.694881889763792L223.39024390243904,14.771653543307139L228.58536585365854,13.848425196850371L242.43902439024393,13.848425196850371L249.36585365853657,12.925196850393661L254.5609756097561,12.925196850393661L261.4878048780488,12.925196850393661L275.3414634146342,12.001968503937007L282.26829268292687,12.001968503937007L290.9268292682927,12.001968503937007L306.5121951219512,11.078740157480297L315.1707317073171,9.232283464566933L323.8292682926829,9.232283464566933L334.2195121951219,6.462598425196859L342.8780487804878,6.462598425196859L360.1951219512195,6.462598425196859L370.5853658536586,6.462598425196859L380.9756097560976,6.462598425196859L398.2926829268293,4.616141732283438L427.73170731707313,3.6929133858267846L445.0487804878049,2.7696850393700743L472.75609756097566,1.846456692913364L484.87804878048786,1.846456692913364L503.92682926829264,0.9232283464567104L540.2926829268292,0.9232283464567104L569.7317073170732,0.9232283464567104L632.0731707317074,0.9232283464567104L710,0"/>
        <g class="knime-legend" transform="translate(46,539)">
            <text class="knime-legend-label" x="20">
                RF
            </text>
            <circle fill="#ff7f0e" r="5" class="knime-legend-symbol" cx="5"
                    cy="-5"/>
        </g>
        <path class="line"
              style="stroke: rgb(44, 160, 44); fill: none; stroke-width: 2;"
              d="M0,469L294.390243902439,286.2007874015748L439.8536585365854,194.80118110236225L574.9268292682927,97.86220472440942L710,0"/>
        <g class="knime-legend" transform="translate(92,539)">
            <text class="knime-legend-label" x="20">
                ZeroR
            </text>
            <circle fill="#2ca02c" r="5" class="knime-legend-symbol" cx="5"
                    cy="-5"/>
        </g>
        <path class="line"
              style="stroke: rgb(214, 39, 40); fill: none; stroke-width: 2;"
              d="M0,469L0,468.0767716535433L0,467.15354330708664L0,466.2303149606299L0,465.3070866141732L0,464.38385826771656L0,463.46062992125985L0,462.53740157480314L0,461.61417322834643L0,460.6909448818898L1.7317073170731707,460.6909448818898L1.7317073170731707,459.76771653543307L1.7317073170731707,458.84448818897636L1.7317073170731707,457.9212598425197L1.7317073170731707,456.998031496063L1.7317073170731707,456.0748031496063L1.7317073170731707,455.15157480314963L1.7317073170731707,454.2283464566929L1.7317073170731707,453.3051181102362L1.7317073170731707,452.38188976377955L1.7317073170731707,451.45866141732284L1.7317073170731707,450.53543307086613L1.7317073170731707,449.6122047244094L1.7317073170731707,448.68897637795277L1.7317073170731707,447.76574803149606L3.4634146341463414,447.76574803149606L3.4634146341463414,446.84251968503935L3.4634146341463414,445.9192913385827L3.4634146341463414,444.996062992126L3.4634146341463414,444.0728346456693L3.4634146341463414,443.1496062992126L3.4634146341463414,442.2263779527559L3.4634146341463414,441.3031496062992L3.4634146341463414,440.3799212598425L3.4634146341463414,439.45669291338584L3.4634146341463414,438.5334645669291L3.4634146341463414,437.6102362204724L3.4634146341463414,436.68700787401576L3.4634146341463414,435.76377952755905L3.4634146341463414,434.84055118110234L3.4634146341463414,433.9173228346457L3.4634146341463414,432.994094488189L3.4634146341463414,432.07086614173227L3.4634146341463414,431.1476377952756L3.4634146341463414,430.2244094488189L3.4634146341463414,429.3011811023622L3.4634146341463414,428.37795275590554L3.4634146341463414,427.45472440944883L3.4634146341463414,426.5314960629921L3.4634146341463414,425.6082677165354L3.4634146341463414,424.68503937007875L3.4634146341463414,423.76181102362204L3.4634146341463414,422.83858267716533L3.4634146341463414,421.9153543307087L3.4634146341463414,420.99212598425197L3.4634146341463414,420.06889763779526L3.4634146341463414,419.14566929133855L3.4634146341463414,418.2224409448819L3.4634146341463414,417.2992125984252L5.195121951219512,417.2992125984252L5.195121951219512,416.3759842519685L6.926829268292683,416.3759842519685L6.926829268292683,415.4527559055118L6.926829268292683,414.5295275590551L6.926829268292683,413.6062992125984L6.926829268292683,412.68307086614175L6.926829268292683,411.75984251968504L6.926829268292683,410.8366141732283L6.926829268292683,409.9133858267717L6.926829268292683,408.99015748031496L6.926829268292683,408.06692913385825L6.926829268292683,407.1437007874016L6.926829268292683,406.2204724409449L6.926829268292683,405.2972440944882L6.926829268292683,404.3740157480315L6.926829268292683,403.4507874015748L6.926829268292683,402.5275590551181L6.926829268292683,401.60433070866145L6.926829268292683,400.68110236220474L6.926829268292683,399.75787401574803L6.926829268292683,398.8346456692913L6.926829268292683,397.9114173228346L6.926829268292683,396.98818897637796L6.926829268292683,396.06496062992125L6.926829268292683,395.14173228346453L6.926829268292683,394.2185039370079L6.926829268292683,393.29527559055117L6.926829268292683,392.37204724409446L6.926829268292683,391.4488188976378L6.926829268292683,390.5255905511811L6.926829268292683,389.6023622047244L6.926829268292683,388.67913385826773L6.926829268292683,387.755905511811L6.926829268292683,386.8326771653543L6.926829268292683,385.90944881889766L6.926829268292683,384.98622047244095L6.926829268292683,384.06299212598424L6.926829268292683,383.1397637795276L6.926829268292683,382.2165354330709L6.926829268292683,381.29330708661416L6.926829268292683,380.3700787401575L6.926829268292683,379.4468503937008L6.926829268292683,378.5236220472441L6.926829268292683,377.60039370078744L6.926829268292683,376.67716535433067L6.926829268292683,375.753937007874L6.926829268292683,374.8307086614173L6.926829268292683,373.9074803149606L6.926829268292683,372.98425196850394L6.926829268292683,372.06102362204723L6.926829268292683,371.1377952755906L6.926829268292683,370.21456692913387L8.658536585365853,370.21456692913387L8.658536585365853,369.29133858267716L8.658536585365853,368.36811023622045L8.658536585365853,367.4448818897638L8.658536585365853,366.5216535433071L8.658536585365853,365.59842519685037L8.658536585365853,364.6751968503937L8.658536585365853,363.751968503937L8.658536585365853,362.8287401574803L8.658536585365853,361.90551181102364L8.658536585365853,360.98228346456693L8.658536585365853,360.0590551181102L8.658536585365853,359.13582677165357L8.658536585365853,358.21259842519686L8.658536585365853,357.28937007874015L8.658536585365853,356.3661417322835L8.658536585365853,355.4429133858268L8.658536585365853,354.5196850393701L8.658536585365853,353.59645669291336L8.658536585365853,352.6732283464567L8.658536585365853,351.75L8.658536585365853,350.8267716535433L10.390243902439025,350.8267716535433L10.390243902439025,349.90354330708664L10.390243902439025,348.9803149606299L10.390243902439025,348.0570866141732L10.390243902439025,347.13385826771656L10.390243902439025,346.21062992125985L10.390243902439025,345.28740157480314L10.390243902439025,344.36417322834643L10.390243902439025,343.4409448818898L10.390243902439025,342.51771653543307L10.390243902439025,341.59448818897636L10.390243902439025,340.6712598425197L10.390243902439025,339.748031496063L10.390243902439025,338.8248031496063L10.390243902439025,337.90157480314963L10.390243902439025,336.9783464566929L10.390243902439025,336.0551181102362L10.390243902439025,335.13188976377955L10.390243902439025,334.20866141732284L10.390243902439025,333.28543307086613L10.390243902439025,332.3622047244095L10.390243902439025,331.43897637795277L10.390243902439025,330.51574803149606L10.390243902439025,329.59251968503935L12.121951219512196,329.59251968503935L12.121951219512196,328.66929133858264L12.121951219512196,327.746062992126L12.121951219512196,326.8228346456693L12.121951219512196,325.89960629921256L12.121951219512196,324.9763779527559L12.121951219512196,324.0531496062992L12.121951219512196,323.1299212598425L12.121951219512196,322.20669291338584L12.121951219512196,321.2834645669291L12.121951219512196,320.3602362204724L12.121951219512196,319.43700787401576L13.853658536585366,319.43700787401576L13.853658536585366,318.51377952755905L13.853658536585366,317.59055118110234L13.853658536585366,316.6673228346457L13.853658536585366,315.744094488189L13.853658536585366,314.82086614173227L13.853658536585366,313.8976377952756L13.853658536585366,312.97440944881885L13.853658536585366,312.0511811023622L13.853658536585366,311.12795275590554L13.853658536585366,310.2047244094488L13.853658536585366,309.2814960629921L13.853658536585366,308.35826771653547L13.853658536585366,307.43503937007875L15.585365853658535,307.43503937007875L15.585365853658535,306.51181102362204L15.585365853658535,305.5885826771654L15.585365853658535,304.6653543307087L15.585365853658535,303.74212598425197L15.585365853658535,302.8188976377953L15.585365853658535,301.8956692913386L15.585365853658535,300.9724409448819L17.317073170731707,300.9724409448819L17.317073170731707,300.0492125984252L17.317073170731707,299.1259842519685L17.317073170731707,298.2027559055118L17.317073170731707,297.2795275590551L17.317073170731707,296.3562992125984L17.317073170731707,295.43307086614175L17.317073170731707,294.50984251968504L19.048780487804876,294.50984251968504L19.048780487804876,293.5866141732283L19.048780487804876,292.6633858267717L19.048780487804876,291.74015748031496L19.048780487804876,290.81692913385825L19.048780487804876,289.8937007874016L19.048780487804876,288.9704724409449L19.048780487804876,288.0472440944882L19.048780487804876,287.1240157480315L19.048780487804876,286.2007874015748L19.048780487804876,285.2775590551181L19.048780487804876,284.3543307086614L19.048780487804876,283.4311023622047L19.048780487804876,282.50787401574803L19.048780487804876,281.5846456692913L19.048780487804876,280.6614173228346L19.048780487804876,279.73818897637796L19.048780487804876,278.81496062992125L19.048780487804876,277.89173228346453L19.048780487804876,276.9685039370079L19.048780487804876,276.0452755905512L19.048780487804876,275.12204724409446L19.048780487804876,274.1988188976378L19.048780487804876,273.27559055118115L19.048780487804876,272.3523622047244L19.048780487804876,271.42913385826773L19.048780487804876,270.505905511811L19.048780487804876,269.5826771653543L19.048780487804876,268.65944881889766L19.048780487804876,267.73622047244095L19.048780487804876,266.81299212598424L19.048780487804876,265.8897637795276L19.048780487804876,264.9665354330709L19.048780487804876,264.04330708661416L19.048780487804876,263.1200787401575L19.048780487804876,262.1968503937008L19.048780487804876,261.2736220472441L20.78048780487805,261.2736220472441L20.78048780487805,260.35039370078744L20.78048780487805,259.4271653543307L20.78048780487805,258.503937007874L20.78048780487805,257.58070866141736L20.78048780487805,256.65748031496065L20.78048780487805,255.7342519685039L22.51219512195122,255.7342519685039L22.51219512195122,254.81102362204723L22.51219512195122,253.88779527559055L22.51219512195122,252.96456692913384L22.51219512195122,252.04133858267716L22.51219512195122,251.11811023622047L22.51219512195122,250.19488188976376L24.243902439024392,250.19488188976376L24.243902439024392,249.27165354330708L24.243902439024392,248.3484251968504L25.97560975609756,248.3484251968504L25.97560975609756,247.42519685039372L25.97560975609756,246.501968503937L27.70731707317073,246.501968503937L27.70731707317073,245.57874015748033L27.70731707317073,244.65551181102364L27.70731707317073,243.73228346456693L27.70731707317073,242.80905511811025L27.70731707317073,241.88582677165357L27.70731707317073,240.96259842519683L27.70731707317073,240.03937007874015L27.70731707317073,239.11614173228347L27.70731707317073,238.19291338582676L27.70731707317073,237.26968503937007L29.439024390243905,237.26968503937007L29.439024390243905,236.3464566929134L29.439024390243905,235.42322834645668L29.439024390243905,234.5L29.439024390243905,233.57677165354332L29.439024390243905,232.6535433070866L29.439024390243905,231.73031496062993L29.439024390243905,230.80708661417324L29.439024390243905,229.88385826771653L29.439024390243905,228.96062992125985L29.439024390243905,228.03740157480317L29.439024390243905,227.11417322834646L29.439024390243905,226.19094488188978L29.439024390243905,225.2677165354331L29.439024390243905,224.34448818897638L29.439024390243905,223.4212598425197L31.17073170731707,223.4212598425197L31.17073170731707,222.49803149606302L31.17073170731707,221.5748031496063L31.17073170731707,220.65157480314963L31.17073170731707,219.7283464566929L31.17073170731707,218.8051181102362L31.17073170731707,217.8818897637795L31.17073170731707,216.95866141732282L31.17073170731707,216.03543307086613L31.17073170731707,215.11220472440942L31.17073170731707,214.18897637795274L31.17073170731707,213.26574803149606L32.90243902439024,213.26574803149606L32.90243902439024,212.34251968503935L32.90243902439024,211.41929133858264L32.90243902439024,210.49606299212599L32.90243902439024,209.57283464566927L32.90243902439024,208.64960629921256L32.90243902439024,207.7263779527559L34.63414634146341,207.7263779527559L36.36585365853659,207.7263779527559L36.36585365853659,206.8031496062992L36.36585365853659,205.8799212598425L36.36585365853659,204.95669291338584L38.09756097560975,204.95669291338584L38.09756097560975,204.03346456692913L38.09756097560975,203.11023622047247L38.09756097560975,202.18700787401576L38.09756097560975,201.26377952755905L38.09756097560975,200.3405511811024L38.09756097560975,199.4173228346457L38.09756097560975,198.49409448818898L38.09756097560975,197.57086614173232L38.09756097560975,196.6476377952756L38.09756097560975,195.7244094488189L38.09756097560975,194.80118110236225L38.09756097560975,193.87795275590554L38.09756097560975,192.95472440944883L38.09756097560975,192.03149606299218L38.09756097560975,191.10826771653547L38.09756097560975,190.1850393700787L38.09756097560975,189.26181102362204L38.09756097560975,188.33858267716533L38.09756097560975,187.41535433070862L38.09756097560975,186.49212598425197L38.09756097560975,185.56889763779526L39.829268292682926,185.56889763779526L39.829268292682926,184.64566929133855L39.829268292682926,183.7224409448819L39.829268292682926,182.79921259842519L39.829268292682926,181.87598425196848L39.829268292682926,180.95275590551182L41.5609756097561,180.95275590551182L41.5609756097561,180.0295275590551L41.5609756097561,179.1062992125984L41.5609756097561,178.18307086614175L41.5609756097561,177.25984251968504L41.5609756097561,176.33661417322833L41.5609756097561,175.41338582677167L41.5609756097561,174.49015748031496L41.5609756097561,173.56692913385825L41.5609756097561,172.6437007874016L41.5609756097561,171.7204724409449L43.292682926829265,171.7204724409449L43.292682926829265,170.79724409448818L43.292682926829265,169.87401574803152L45.02439024390244,169.87401574803152L45.02439024390244,168.95078740157481L45.02439024390244,168.0275590551181L45.02439024390244,167.10433070866145L45.02439024390244,166.18110236220474L45.02439024390244,165.25787401574803L46.75609756097561,165.25787401574803L46.75609756097561,164.33464566929138L46.75609756097561,163.41141732283467L48.487804878048784,163.41141732283467L48.487804878048784,162.48818897637796L48.487804878048784,161.5649606299213L48.487804878048784,160.64173228346453L48.487804878048784,159.71850393700782L48.487804878048784,158.79527559055117L48.487804878048784,157.87204724409446L50.21951219512194,157.87204724409446L50.21951219512194,156.94881889763775L50.21951219512194,156.0255905511811L51.95121951219512,156.0255905511811L51.95121951219512,155.1023622047244L53.68292682926829,155.1023622047244L53.68292682926829,154.17913385826768L53.68292682926829,153.25590551181102L55.41463414634146,153.25590551181102L55.41463414634146,152.3326771653543L55.41463414634146,151.4094488188976L55.41463414634146,150.48622047244095L55.41463414634146,149.56299212598424L55.41463414634146,148.63976377952753L57.146341463414636,148.63976377952753L57.146341463414636,147.71653543307087L57.146341463414636,146.79330708661416L57.146341463414636,145.8700787401575L57.146341463414636,144.9468503937008L57.146341463414636,144.0236220472441L57.146341463414636,143.10039370078744L57.146341463414636,142.17716535433073L57.146341463414636,141.25393700787401L57.146341463414636,140.33070866141736L58.87804878048781,140.33070866141736L58.87804878048781,139.40748031496065L58.87804878048781,138.48425196850394L58.87804878048781,137.5610236220473L58.87804878048781,136.63779527559058L58.87804878048781,135.71456692913387L60.60975609756098,135.71456692913387L60.60975609756098,134.7913385826772L60.60975609756098,133.8681102362205L60.60975609756098,132.9448818897638L60.60975609756098,132.02165354330714L62.34146341463414,132.02165354330714L62.34146341463414,131.09842519685037L62.34146341463414,130.17519685039366L64.07317073170732,130.17519685039366L64.07317073170732,129.251968503937L64.07317073170732,128.3287401574803L64.07317073170732,127.40551181102359L64.07317073170732,126.48228346456693L65.80487804878048,126.48228346456693L65.80487804878048,125.55905511811022L65.80487804878048,124.63582677165351L65.80487804878048,123.71259842519686L65.80487804878048,122.78937007874015L67.53658536585365,122.78937007874015L67.53658536585365,121.86614173228344L67.53658536585365,120.94291338582678L67.53658536585365,120.01968503937007L69.26829268292683,120.01968503937007L71,120.01968503937007L71,119.09645669291336L71,118.17322834645671L71,117.25L71,116.32677165354329L72.73170731707317,116.32677165354329L72.73170731707317,115.40354330708664L72.73170731707317,114.48031496062993L72.73170731707317,113.55708661417322L72.73170731707317,112.63385826771656L72.73170731707317,111.71062992125985L72.73170731707317,110.78740157480314L72.73170731707317,109.86417322834649L74.46341463414633,109.86417322834649L74.46341463414633,108.94094488188978L76.1951219512195,108.94094488188978L77.92682926829268,108.94094488188978L77.92682926829268,108.01771653543307L77.92682926829268,107.09448818897641L77.92682926829268,106.1712598425197L77.92682926829268,105.24803149606299L77.92682926829268,104.32480314960634L79.65853658536585,104.32480314960634L79.65853658536585,103.40157480314963L79.65853658536585,102.47834645669286L79.65853658536585,101.55511811023621L79.65853658536585,100.6318897637795L79.65853658536585,99.70866141732279L79.65853658536585,98.78543307086613L81.39024390243902,98.78543307086613L81.39024390243902,97.86220472440942L81.39024390243902,96.93897637795271L81.39024390243902,96.01574803149606L83.1219512195122,96.01574803149606L83.1219512195122,95.09251968503935L83.1219512195122,94.16929133858264L83.1219512195122,93.24606299212599L83.1219512195122,92.32283464566927L83.1219512195122,91.39960629921256L84.85365853658536,91.39960629921256L84.85365853658536,90.47637795275591L86.58536585365853,90.47637795275591L86.58536585365853,89.5531496062992L86.58536585365853,88.62992125984249L86.58536585365853,87.70669291338584L88.3170731707317,87.70669291338584L88.3170731707317,86.78346456692913L90.04878048780488,86.78346456692913L91.78048780487805,86.78346456692913L93.51219512195122,86.78346456692913L95.2439024390244,86.78346456692913L95.2439024390244,85.86023622047247L96.97560975609757,85.86023622047247L96.97560975609757,84.93700787401576L98.70731707317074,84.93700787401576L98.70731707317074,84.01377952755905L98.70731707317074,83.0905511811024L98.70731707317074,82.16732283464569L98.70731707317074,81.24409448818898L100.43902439024389,81.24409448818898L102.17073170731706,81.24409448818898L103.90243902439023,81.24409448818898L103.90243902439023,80.32086614173232L103.90243902439023,79.39763779527561L103.90243902439023,78.4744094488189L105.6341463414634,78.4744094488189L105.6341463414634,77.55118110236225L107.36585365853658,77.55118110236225L109.09756097560975,77.55118110236225L109.09756097560975,76.62795275590554L109.09756097560975,75.70472440944883L109.09756097560975,74.78149606299218L110.82926829268293,74.78149606299218L110.82926829268293,73.85826771653547L112.5609756097561,73.85826771653547L114.29268292682927,73.85826771653547L116.02439024390245,73.85826771653547L117.75609756097562,73.85826771653547L117.75609756097562,72.9350393700787L117.75609756097562,72.01181102362204L117.75609756097562,71.08858267716533L119.48780487804879,71.08858267716533L121.21951219512196,71.08858267716533L122.95121951219511,71.08858267716533L122.95121951219511,70.16535433070862L122.95121951219511,69.24212598425197L124.68292682926828,69.24212598425197L124.68292682926828,68.31889763779526L124.68292682926828,67.39566929133855L124.68292682926828,66.4724409448819L124.68292682926828,65.54921259842519L124.68292682926828,64.62598425196848L124.68292682926828,63.70275590551182L124.68292682926828,62.77952755905511L126.41463414634146,62.77952755905511L126.41463414634146,61.8562992125984L128.14634146341464,61.8562992125984L128.14634146341464,60.93307086614175L129.8780487804878,60.93307086614175L131.60975609756096,60.93307086614175L131.60975609756096,60.00984251968504L131.60975609756096,59.08661417322833L131.60975609756096,58.16338582677167L131.60975609756096,57.24015748031496L133.34146341463415,57.24015748031496L135.0731707317073,57.24015748031496L136.8048780487805,57.24015748031496L136.8048780487805,56.31692913385825L136.8048780487805,55.3937007874016L136.8048780487805,54.47047244094489L138.53658536585365,54.47047244094489L140.26829268292684,54.47047244094489L142,54.47047244094489L143.7317073170732,54.47047244094489L145.46341463414635,54.47047244094489L147.1951219512195,54.47047244094489L147.1951219512195,53.54724409448818L148.92682926829266,53.54724409448818L148.92682926829266,52.624015748031525L150.65853658536585,52.624015748031525L152.390243902439,52.624015748031525L152.390243902439,51.700787401574814L152.390243902439,50.777559055118104L154.1219512195122,50.777559055118104L154.1219512195122,49.85433070866145L155.85365853658536,49.85433070866145L155.85365853658536,48.93110236220474L157.58536585365854,48.93110236220474L157.58536585365854,48.00787401574803L157.58536585365854,47.084645669291376L157.58536585365854,46.161417322834666L157.58536585365854,45.238188976377955L159.3170731707317,45.238188976377955L159.3170731707317,44.3149606299213L161.0487804878049,44.3149606299213L161.0487804878049,43.391732283464535L162.78048780487805,43.391732283464535L164.51219512195124,43.391732283464535L164.51219512195124,42.468503937007824L164.51219512195124,41.54527559055117L166.2439024390244,41.54527559055117L166.2439024390244,40.62204724409446L167.97560975609755,40.62204724409446L169.7073170731707,40.62204724409446L169.7073170731707,39.69881889763775L169.7073170731707,38.7755905511811L171.4390243902439,38.7755905511811L173.17073170731706,38.7755905511811L173.17073170731706,37.852362204724386L174.90243902439025,37.852362204724386L176.6341463414634,37.852362204724386L176.6341463414634,36.929133858267676L176.6341463414634,36.00590551181102L176.6341463414634,35.08267716535431L178.3658536585366,35.08267716535431L180.09756097560975,35.08267716535431L181.82926829268294,35.08267716535431L183.5609756097561,35.08267716535431L185.2926829268293,35.08267716535431L187.02439024390245,35.08267716535431L188.75609756097563,35.08267716535431L190.4878048780488,35.08267716535431L192.21951219512195,35.08267716535431L193.95121951219514,35.08267716535431L195.6829268292683,35.08267716535431L197.41463414634148,35.08267716535431L199.14634146341464,35.08267716535431L200.87804878048777,35.08267716535431L200.87804878048777,34.1594488188976L202.60975609756096,34.1594488188976L204.34146341463412,34.1594488188976L204.34146341463412,33.23622047244095L206.0731707317073,33.23622047244095L206.0731707317073,32.31299212598424L207.80487804878047,32.31299212598424L209.53658536585365,32.31299212598424L211.2682926829268,32.31299212598424L213,32.31299212598424L214.73170731707316,32.31299212598424L216.46341463414635,32.31299212598424L216.46341463414635,31.389763779527527L218.1951219512195,31.389763779527527L218.1951219512195,30.466535433070874L219.9268292682927,30.466535433070874L219.9268292682927,29.543307086614163L221.65853658536585,29.543307086614163L221.65853658536585,28.62007874015751L221.65853658536585,27.6968503937008L221.65853658536585,26.77362204724409L223.39024390243904,26.77362204724409L225.1219512195122,26.77362204724409L226.85365853658536,26.77362204724409L228.58536585365854,26.77362204724409L230.3170731707317,26.77362204724409L232.0487804878049,26.77362204724409L233.78048780487805,26.77362204724409L235.51219512195124,26.77362204724409L237.2439024390244,26.77362204724409L238.97560975609758,26.77362204724409L240.70731707317074,26.77362204724409L242.43902439024393,26.77362204724409L244.17073170731706,26.77362204724409L244.17073170731706,25.850393700787436L245.90243902439022,25.850393700787436L247.6341463414634,25.850393700787436L247.6341463414634,24.927165354330725L249.36585365853657,24.927165354330725L251.09756097560975,24.927165354330725L252.8292682926829,24.927165354330725L254.5609756097561,24.927165354330725L254.5609756097561,24.003937007874015L256.2926829268293,24.003937007874015L258.0243902439024,24.003937007874015L259.7560975609756,24.003937007874015L259.7560975609756,23.08070866141736L261.4878048780488,23.08070866141736L263.2195121951219,23.08070866141736L264.9512195121951,23.08070866141736L266.6829268292683,23.08070866141736L268.4146341463415,23.08070866141736L270.1463414634146,23.08070866141736L271.8780487804878,23.08070866141736L273.609756097561,23.08070866141736L275.3414634146342,23.08070866141736L277.0731707317073,23.08070866141736L278.8048780487805,23.08070866141736L280.5365853658537,23.08070866141736L282.26829268292687,23.08070866141736L284,23.08070866141736L285.7317073170732,23.08070866141736L287.4634146341464,23.08070866141736L287.4634146341464,22.15748031496065L287.4634146341464,21.23425196850394L289.1951219512195,21.23425196850394L289.1951219512195,20.311023622047287L290.9268292682927,20.311023622047287L292.6585365853658,20.311023622047287L294.390243902439,20.311023622047287L296.1219512195122,20.311023622047287L297.8536585365853,20.311023622047287L297.8536585365853,19.387795275590577L297.8536585365853,18.464566929133866L299.5853658536585,18.464566929133866L301.3170731707317,18.464566929133866L303.0487804878049,18.464566929133866L303.0487804878049,17.541338582677213L304.780487804878,17.541338582677213L306.5121951219512,17.541338582677213L308.2439024390244,17.541338582677213L308.2439024390244,16.618110236220502L309.9756097560976,16.618110236220502L311.7073170731707,16.618110236220502L313.4390243902439,16.618110236220502L315.1707317073171,16.618110236220502L315.1707317073171,15.694881889763792L316.9024390243903,15.694881889763792L318.6341463414634,15.694881889763792L318.6341463414634,14.771653543307139L320.3658536585366,14.771653543307139L322.0975609756098,14.771653543307139L323.8292682926829,14.771653543307139L325.5609756097561,14.771653543307139L327.2926829268293,14.771653543307139L329.0243902439025,14.771653543307139L330.7560975609756,14.771653543307139L332.4878048780488,14.771653543307139L334.2195121951219,14.771653543307139L334.2195121951219,13.848425196850371L335.9512195121951,13.848425196850371L335.9512195121951,12.925196850393661L335.9512195121951,12.001968503937007L337.6829268292683,12.001968503937007L337.6829268292683,11.078740157480297L339.4146341463414,11.078740157480297L341.1463414634146,11.078740157480297L342.8780487804878,11.078740157480297L344.609756097561,11.078740157480297L346.3414634146341,11.078740157480297L348.0731707317073,11.078740157480297L349.8048780487805,11.078740157480297L351.5365853658537,11.078740157480297L353.2682926829268,11.078740157480297L355,11.078740157480297L356.7317073170732,11.078740157480297L358.4634146341463,11.078740157480297L360.1951219512195,11.078740157480297L361.9268292682927,11.078740157480297L361.9268292682927,10.155511811023587L363.6585365853659,10.155511811023587L363.6585365853659,9.232283464566933L363.6585365853659,8.309055118110223L365.390243902439,8.309055118110223L365.390243902439,7.385826771653512L365.390243902439,6.462598425196859L367.1219512195122,6.462598425196859L367.1219512195122,5.5393700787401485L368.8536585365854,5.5393700787401485L370.5853658536586,5.5393700787401485L372.3170731707317,5.5393700787401485L374.0487804878049,5.5393700787401485L375.7804878048781,5.5393700787401485L377.51219512195127,5.5393700787401485L379.2439024390244,5.5393700787401485L380.9756097560976,5.5393700787401485L382.70731707317077,5.5393700787401485L384.4390243902439,5.5393700787401485L386.1707317073171,5.5393700787401485L387.9024390243903,5.5393700787401485L389.63414634146346,5.5393700787401485L391.3658536585366,5.5393700787401485L393.0975609756098,5.5393700787401485L394.82926829268297,5.5393700787401485L396.56097560975616,5.5393700787401485L398.2926829268293,5.5393700787401485L400.0243902439024,5.5393700787401485L401.75609756097555,5.5393700787401485L403.48780487804873,5.5393700787401485L405.2195121951219,5.5393700787401485L406.9512195121951,5.5393700787401485L408.68292682926824,5.5393700787401485L408.68292682926824,4.616141732283438L410.4146341463414,4.616141732283438L412.1463414634146,4.616141732283438L413.8780487804878,4.616141732283438L415.60975609756093,4.616141732283438L417.3414634146341,4.616141732283438L419.0731707317073,4.616141732283438L420.8048780487805,4.616141732283438L422.5365853658536,4.616141732283438L424.2682926829268,4.616141732283438L426,4.616141732283438L427.73170731707313,4.616141732283438L429.4634146341463,4.616141732283438L431.1951219512195,4.616141732283438L432.9268292682927,4.616141732283438L434.6585365853658,4.616141732283438L436.390243902439,4.616141732283438L438.1219512195122,4.616141732283438L439.8536585365854,4.616141732283438L441.5853658536585,4.616141732283438L443.3170731707317,4.616141732283438L443.3170731707317,3.6929133858267846L445.0487804878049,3.6929133858267846L446.7804878048781,3.6929133858267846L448.5121951219512,3.6929133858267846L448.5121951219512,2.7696850393700743L450.2439024390244,2.7696850393700743L451.9756097560976,2.7696850393700743L453.7073170731707,2.7696850393700743L453.7073170731707,1.846456692913364L455.4390243902439,1.846456692913364L457.1707317073171,1.846456692913364L458.9024390243903,1.846456692913364L460.6341463414634,1.846456692913364L462.3658536585366,1.846456692913364L464.0975609756098,1.846456692913364L465.82926829268297,1.846456692913364L467.5609756097561,1.846456692913364L467.5609756097561,0.9232283464567104L469.2926829268293,0.9232283464567104L471.0243902439025,0.9232283464567104L472.75609756097566,0.9232283464567104L474.4878048780488,0.9232283464567104L476.219512195122,0.9232283464567104L477.95121951219517,0.9232283464567104L479.6829268292683,0.9232283464567104L481.4146341463415,0.9232283464567104L483.1463414634147,0.9232283464567104L484.87804878048786,0.9232283464567104L486.609756097561,0.9232283464567104L488.3414634146341,0.9232283464567104L490.0731707317073,0.9232283464567104L491.80487804878044,0.9232283464567104L493.5365853658536,0.9232283464567104L495.2682926829268,0.9232283464567104L496.99999999999994,0.9232283464567104L498.73170731707313,0.9232283464567104L500.4634146341463,0.9232283464567104L502.1951219512195,0.9232283464567104L503.92682926829264,0.9232283464567104L505.6585365853658,0.9232283464567104L507.390243902439,0.9232283464567104L509.1219512195122,0.9232283464567104L510.8536585365853,0.9232283464567104L512.5853658536586,0.9232283464567104L514.3170731707316,0.9232283464567104L516.0487804878048,0.9232283464567104L517.780487804878,0.9232283464567104L519.5121951219512,0.9232283464567104L521.2439024390244,0.9232283464567104L522.9756097560976,0.9232283464567104L524.7073170731708,0.9232283464567104L526.4390243902438,0.9232283464567104L528.170731707317,0.9232283464567104L529.9024390243902,0.9232283464567104L531.6341463414634,0.9232283464567104L533.3658536585366,0.9232283464567104L535.0975609756098,0.9232283464567104L536.829268292683,0.9232283464567104L538.5609756097562,0.9232283464567104L540.2926829268292,0.9232283464567104L542.0243902439024,0.9232283464567104L543.7560975609756,0.9232283464567104L543.7560975609756,0L545.4878048780488,0L547.219512195122,0L548.9512195121952,0L550.6829268292684,0L552.4146341463414,0L554.1463414634146,0L555.8780487804878,0L557.609756097561,0L559.3414634146342,0L561.0731707317074,0L562.8048780487806,0L564.5365853658537,0L566.2682926829268,0L568,0L569.7317073170732,0L571.4634146341464,0L573.1951219512196,0L574.9268292682927,0L576.6585365853659,0L578.390243902439,0L580.1219512195122,0L581.8536585365854,0L583.5853658536585,0L585.3170731707316,0L587.0487804878048,0L588.780487804878,0L590.5121951219512,0L592.2439024390244,0L593.9756097560976,0L595.7073170731707,0L597.4390243902438,0L599.170731707317,0L600.9024390243902,0L602.6341463414634,0L604.3658536585366,0L606.0975609756098,0L607.829268292683,0L609.560975609756,0L611.2926829268292,0L613.0243902439024,0L614.7560975609756,0L616.4878048780488,0L618.219512195122,0L619.9512195121952,0L621.6829268292682,0L623.4146341463414,0L625.1463414634146,0L626.8780487804878,0L628.609756097561,0L630.3414634146342,0L632.0731707317074,0L633.8048780487806,0L635.5365853658536,0L637.2682926829268,0L639,0L640.7317073170732,0L642.4634146341464,0L644.1951219512196,0L645.9268292682927,0L647.6585365853658,0L649.390243902439,0L651.1219512195122,0L652.8536585365854,0L654.5853658536586,0L656.3170731707318,0L658.048780487805,0L659.7804878048781,0L661.5121951219512,0L663.2439024390244,0L664.9756097560976,0L666.7073170731707,0L668.4390243902438,0L670.170731707317,0L671.9024390243902,0L673.6341463414634,0L675.3658536585366,0L677.0975609756098,0L678.8292682926829,0L680.560975609756,0L682.2926829268292,0L684.0243902439024,0L685.7560975609756,0L687.4878048780488,0L689.219512195122,0L690.951219512195,0L692.6829268292682,0L694.4146341463414,0L696.1463414634146,0L697.8780487804878,0L699.609756097561,0L701.3414634146342,0L703.0731707317074,0L704.8048780487804,0L706.5365853658536,0L708.2682926829268,0L710,0"/>
        <g class="knime-legend" transform="translate(155,539)">
            <text class="knime-legend-label" x="20">
                NB
            </text>
            <circle fill="#d62728" r="5" class="knime-legend-symbol" cx="5"
                    cy="-5"/>
        </g>
        <path class="line"
              style="stroke: rgb(148, 103, 189); fill: none; stroke-width: 2;"
              d="M0,469L100.43902439024389,215.11220472440942L103.90243902439023,208.64960629921256L103.90243902439023,204.03346456692913L107.36585365853658,203.11023622047247L110.82926829268293,200.3405511811024L114.29268292682927,200.3405511811024L117.75609756097562,200.3405511811024L117.75609756097562,199.4173228346457L119.48780487804879,199.4173228346457L119.48780487804879,198.49409448818898L119.48780487804879,197.57086614173232L119.48780487804879,196.6476377952756L119.48780487804879,194.80118110236225L121.21951219512196,194.80118110236225L124.68292682926828,194.80118110236225L124.68292682926828,193.87795275590554L126.41463414634146,192.95472440944883L126.41463414634146,192.03149606299218L126.41463414634146,191.10826771653547L128.14634146341464,191.10826771653547L128.14634146341464,190.1850393700787L128.14634146341464,189.26181102362204L128.14634146341464,188.33858267716533L128.14634146341464,187.41535433070862L129.8780487804878,186.49212598425197L133.34146341463415,186.49212598425197L133.34146341463415,185.56889763779526L133.34146341463415,184.64566929133855L135.0731707317073,184.64566929133855L136.8048780487805,184.64566929133855L136.8048780487805,183.7224409448819L136.8048780487805,182.79921259842519L136.8048780487805,181.87598425196848L136.8048780487805,180.95275590551182L136.8048780487805,180.0295275590551L138.53658536585365,180.0295275590551L140.26829268292684,180.0295275590551L142,180.0295275590551L142,179.1062992125984L142,178.18307086614175L142,177.25984251968504L142,176.33661417322833L142,175.41338582677167L143.7317073170732,175.41338582677167L145.46341463414635,175.41338582677167L145.46341463414635,174.49015748031496L145.46341463414635,173.56692913385825L145.46341463414635,172.6437007874016L145.46341463414635,171.7204724409449L147.1951219512195,171.7204724409449L148.92682926829266,171.7204724409449L148.92682926829266,170.79724409448818L150.65853658536585,170.79724409448818L152.390243902439,170.79724409448818L152.390243902439,169.87401574803152L152.390243902439,168.95078740157481L152.390243902439,168.0275590551181L154.1219512195122,168.0275590551181L154.1219512195122,167.10433070866145L155.85365853658536,167.10433070866145L157.58536585365854,167.10433070866145L159.3170731707317,167.10433070866145L159.3170731707317,166.18110236220474L161.0487804878049,166.18110236220474L161.0487804878049,165.25787401574803L162.78048780487805,165.25787401574803L164.51219512195124,165.25787401574803L164.51219512195124,164.33464566929138L164.51219512195124,163.41141732283467L164.51219512195124,162.48818897637796L166.2439024390244,162.48818897637796L167.97560975609755,162.48818897637796L167.97560975609755,161.5649606299213L169.7073170731707,161.5649606299213L169.7073170731707,160.64173228346453L171.4390243902439,160.64173228346453L171.4390243902439,159.71850393700782L173.17073170731706,159.71850393700782L173.17073170731706,158.79527559055117L174.90243902439025,158.79527559055117L174.90243902439025,157.87204724409446L174.90243902439025,156.94881889763775L176.6341463414634,156.94881889763775L176.6341463414634,156.0255905511811L178.3658536585366,156.0255905511811L178.3658536585366,155.1023622047244L178.3658536585366,154.17913385826768L180.09756097560975,154.17913385826768L180.09756097560975,153.25590551181102L180.09756097560975,152.3326771653543L180.09756097560975,151.4094488188976L180.09756097560975,150.48622047244095L180.09756097560975,149.56299212598424L180.09756097560975,148.63976377952753L180.09756097560975,147.71653543307087L180.09756097560975,146.79330708661416L180.09756097560975,145.8700787401575L180.09756097560975,144.9468503937008L181.82926829268294,144.9468503937008L183.5609756097561,144.9468503937008L185.2926829268293,144.9468503937008L185.2926829268293,144.0236220472441L185.2926829268293,143.10039370078744L185.2926829268293,142.17716535433073L185.2926829268293,141.25393700787401L185.2926829268293,140.33070866141736L187.02439024390245,140.33070866141736L188.75609756097563,140.33070866141736L188.75609756097563,139.40748031496065L190.4878048780488,139.40748031496065L190.4878048780488,138.48425196850394L190.4878048780488,137.5610236220473L190.4878048780488,136.63779527559058L192.21951219512195,136.63779527559058L192.21951219512195,135.71456692913387L192.21951219512195,134.7913385826772L192.21951219512195,133.8681102362205L193.95121951219514,133.8681102362205L193.95121951219514,132.9448818897638L195.6829268292683,132.9448818897638L195.6829268292683,132.02165354330714L195.6829268292683,131.09842519685037L197.41463414634148,131.09842519685037L197.41463414634148,130.17519685039366L199.14634146341464,130.17519685039366L199.14634146341464,129.251968503937L199.14634146341464,128.3287401574803L200.87804878048777,128.3287401574803L202.60975609756096,128.3287401574803L202.60975609756096,127.40551181102359L202.60975609756096,126.48228346456693L204.34146341463412,126.48228346456693L204.34146341463412,125.55905511811022L204.34146341463412,124.63582677165351L204.34146341463412,123.71259842519686L204.34146341463412,122.78937007874015L206.0731707317073,122.78937007874015L206.0731707317073,121.86614173228344L206.0731707317073,120.94291338582678L206.0731707317073,120.01968503937007L206.0731707317073,119.09645669291336L206.0731707317073,118.17322834645671L206.0731707317073,117.25L207.80487804878047,117.25L209.53658536585365,117.25L211.2682926829268,117.25L213,117.25L213,116.32677165354329L214.73170731707316,116.32677165354329L214.73170731707316,115.40354330708664L214.73170731707316,114.48031496062993L216.46341463414635,114.48031496062993L218.1951219512195,114.48031496062993L219.9268292682927,114.48031496062993L219.9268292682927,113.55708661417322L219.9268292682927,112.63385826771656L219.9268292682927,111.71062992125985L219.9268292682927,110.78740157480314L221.65853658536585,110.78740157480314L223.39024390243904,110.78740157480314L225.1219512195122,110.78740157480314L225.1219512195122,109.86417322834649L225.1219512195122,108.94094488188978L225.1219512195122,108.01771653543307L226.85365853658536,108.01771653543307L226.85365853658536,107.09448818897641L226.85365853658536,106.1712598425197L228.58536585365854,106.1712598425197L230.3170731707317,106.1712598425197L230.3170731707317,105.24803149606299L230.3170731707317,104.32480314960634L230.3170731707317,103.40157480314963L232.0487804878049,103.40157480314963L232.0487804878049,102.47834645669286L232.0487804878049,101.55511811023621L233.78048780487805,101.55511811023621L233.78048780487805,100.6318897637795L233.78048780487805,99.70866141732279L233.78048780487805,98.78543307086613L235.51219512195124,98.78543307086613L235.51219512195124,97.86220472440942L237.2439024390244,97.86220472440942L238.97560975609758,97.86220472440942L238.97560975609758,96.93897637795271L238.97560975609758,96.01574803149606L240.70731707317074,96.01574803149606L242.43902439024393,96.01574803149606L244.17073170731706,96.01574803149606L245.90243902439022,96.01574803149606L247.6341463414634,96.01574803149606L247.6341463414634,95.09251968503935L249.36585365853657,95.09251968503935L251.09756097560975,95.09251968503935L252.8292682926829,95.09251968503935L252.8292682926829,94.16929133858264L254.5609756097561,94.16929133858264L254.5609756097561,93.24606299212599L256.2926829268293,93.24606299212599L256.2926829268293,92.32283464566927L258.0243902439024,92.32283464566927L258.0243902439024,91.39960629921256L259.7560975609756,91.39960629921256L259.7560975609756,90.47637795275591L259.7560975609756,89.5531496062992L259.7560975609756,88.62992125984249L259.7560975609756,87.70669291338584L261.4878048780488,87.70669291338584L261.4878048780488,86.78346456692913L263.2195121951219,86.78346456692913L264.9512195121951,86.78346456692913L266.6829268292683,86.78346456692913L266.6829268292683,85.86023622047247L268.4146341463415,85.86023622047247L268.4146341463415,84.93700787401576L268.4146341463415,84.01377952755905L270.1463414634146,84.01377952755905L271.8780487804878,84.01377952755905L273.609756097561,84.01377952755905L275.3414634146342,84.01377952755905L277.0731707317073,84.01377952755905L278.8048780487805,84.01377952755905L280.5365853658537,84.01377952755905L280.5365853658537,83.0905511811024L282.26829268292687,83.0905511811024L282.26829268292687,82.16732283464569L284,82.16732283464569L285.7317073170732,82.16732283464569L285.7317073170732,81.24409448818898L287.4634146341464,81.24409448818898L287.4634146341464,80.32086614173232L287.4634146341464,79.39763779527561L287.4634146341464,78.4744094488189L287.4634146341464,77.55118110236225L287.4634146341464,76.62795275590554L287.4634146341464,75.70472440944883L287.4634146341464,74.78149606299218L289.1951219512195,74.78149606299218L289.1951219512195,73.85826771653547L290.9268292682927,73.85826771653547L292.6585365853658,73.85826771653547L294.390243902439,73.85826771653547L296.1219512195122,73.85826771653547L296.1219512195122,72.9350393700787L297.8536585365853,72.9350393700787L297.8536585365853,72.01181102362204L299.5853658536585,72.01181102362204L301.3170731707317,72.01181102362204L303.0487804878049,72.01181102362204L303.0487804878049,71.08858267716533L304.780487804878,71.08858267716533L304.780487804878,70.16535433070862L306.5121951219512,70.16535433070862L308.2439024390244,70.16535433070862L309.9756097560976,70.16535433070862L311.7073170731707,70.16535433070862L313.4390243902439,70.16535433070862L315.1707317073171,70.16535433070862L316.9024390243903,70.16535433070862L318.6341463414634,70.16535433070862L320.3658536585366,70.16535433070862L320.3658536585366,69.24212598425197L322.0975609756098,69.24212598425197L323.8292682926829,69.24212598425197L325.5609756097561,69.24212598425197L327.2926829268293,69.24212598425197L327.2926829268293,68.31889763779526L329.0243902439025,68.31889763779526L330.7560975609756,68.31889763779526L332.4878048780488,68.31889763779526L334.2195121951219,68.31889763779526L335.9512195121951,68.31889763779526L337.6829268292683,68.31889763779526L337.6829268292683,67.39566929133855L337.6829268292683,66.4724409448819L339.4146341463414,66.4724409448819L341.1463414634146,66.4724409448819L341.1463414634146,65.54921259842519L342.8780487804878,65.54921259842519L342.8780487804878,64.62598425196848L344.609756097561,64.62598425196848L346.3414634146341,64.62598425196848L346.3414634146341,63.70275590551182L346.3414634146341,62.77952755905511L346.3414634146341,61.8562992125984L348.0731707317073,61.8562992125984L348.0731707317073,60.93307086614175L349.8048780487805,60.93307086614175L351.5365853658537,60.93307086614175L353.2682926829268,60.93307086614175L355,60.93307086614175L355,60.00984251968504L355,59.08661417322833L356.7317073170732,59.08661417322833L358.4634146341463,59.08661417322833L358.4634146341463,58.16338582677167L360.1951219512195,58.16338582677167L361.9268292682927,58.16338582677167L363.6585365853659,58.16338582677167L365.390243902439,58.16338582677167L367.1219512195122,58.16338582677167L367.1219512195122,57.24015748031496L367.1219512195122,56.31692913385825L368.8536585365854,56.31692913385825L370.5853658536586,56.31692913385825L372.3170731707317,56.31692913385825L372.3170731707317,55.3937007874016L372.3170731707317,54.47047244094489L374.0487804878049,54.47047244094489L375.7804878048781,54.47047244094489L375.7804878048781,53.54724409448818L377.51219512195127,53.54724409448818L379.2439024390244,53.54724409448818L380.9756097560976,53.54724409448818L380.9756097560976,52.624015748031525L382.70731707317077,52.624015748031525L382.70731707317077,51.700787401574814L384.4390243902439,51.700787401574814L386.1707317073171,51.700787401574814L386.1707317073171,50.777559055118104L387.9024390243903,50.777559055118104L389.63414634146346,50.777559055118104L391.3658536585366,50.777559055118104L391.3658536585366,49.85433070866145L391.3658536585366,48.93110236220474L393.0975609756098,48.93110236220474L394.82926829268297,48.93110236220474L396.56097560975616,48.93110236220474L396.56097560975616,48.00787401574803L398.2926829268293,48.00787401574803L400.0243902439024,48.00787401574803L401.75609756097555,48.00787401574803L403.48780487804873,48.00787401574803L405.2195121951219,48.00787401574803L405.2195121951219,47.084645669291376L406.9512195121951,47.084645669291376L408.68292682926824,47.084645669291376L410.4146341463414,47.084645669291376L412.1463414634146,47.084645669291376L413.8780487804878,47.084645669291376L415.60975609756093,47.084645669291376L417.3414634146341,47.084645669291376L417.3414634146341,46.161417322834666L419.0731707317073,46.161417322834666L420.8048780487805,46.161417322834666L420.8048780487805,45.238188976377955L422.5365853658536,45.238188976377955L424.2682926829268,45.238188976377955L424.2682926829268,44.3149606299213L424.2682926829268,43.391732283464535L424.2682926829268,42.468503937007824L426,42.468503937007824L427.73170731707313,42.468503937007824L429.4634146341463,42.468503937007824L431.1951219512195,42.468503937007824L431.1951219512195,41.54527559055117L432.9268292682927,41.54527559055117L432.9268292682927,40.62204724409446L432.9268292682927,39.69881889763775L434.6585365853658,39.69881889763775L434.6585365853658,38.7755905511811L436.390243902439,38.7755905511811L438.1219512195122,38.7755905511811L439.8536585365854,38.7755905511811L441.5853658536585,38.7755905511811L441.5853658536585,37.852362204724386L443.3170731707317,37.852362204724386L445.0487804878049,37.852362204724386L446.7804878048781,37.852362204724386L446.7804878048781,36.929133858267676L446.7804878048781,36.00590551181102L448.5121951219512,36.00590551181102L450.2439024390244,36.00590551181102L451.9756097560976,36.00590551181102L451.9756097560976,35.08267716535431L453.7073170731707,35.08267716535431L453.7073170731707,34.1594488188976L455.4390243902439,34.1594488188976L455.4390243902439,33.23622047244095L457.1707317073171,33.23622047244095L458.9024390243903,33.23622047244095L458.9024390243903,32.31299212598424L460.6341463414634,32.31299212598424L462.3658536585366,32.31299212598424L464.0975609756098,32.31299212598424L465.82926829268297,32.31299212598424L465.82926829268297,31.389763779527527L465.82926829268297,30.466535433070874L465.82926829268297,29.543307086614163L465.82926829268297,28.62007874015751L467.5609756097561,28.62007874015751L469.2926829268293,28.62007874015751L469.2926829268293,27.6968503937008L469.2926829268293,26.77362204724409L471.0243902439025,26.77362204724409L472.75609756097566,26.77362204724409L474.4878048780488,26.77362204724409L474.4878048780488,25.850393700787436L474.4878048780488,24.927165354330725L476.219512195122,24.927165354330725L476.219512195122,24.003937007874015L477.95121951219517,24.003937007874015L477.95121951219517,23.08070866141736L479.6829268292683,23.08070866141736L481.4146341463415,23.08070866141736L483.1463414634147,23.08070866141736L484.87804878048786,23.08070866141736L486.609756097561,23.08070866141736L486.609756097561,22.15748031496065L488.3414634146341,22.15748031496065L490.0731707317073,22.15748031496065L490.0731707317073,21.23425196850394L491.80487804878044,21.23425196850394L493.5365853658536,21.23425196850394L493.5365853658536,20.311023622047287L495.2682926829268,20.311023622047287L496.99999999999994,20.311023622047287L498.73170731707313,20.311023622047287L500.4634146341463,20.311023622047287L502.1951219512195,20.311023622047287L502.1951219512195,19.387795275590577L503.92682926829264,19.387795275590577L505.6585365853658,19.387795275590577L505.6585365853658,18.464566929133866L507.390243902439,18.464566929133866L509.1219512195122,18.464566929133866L510.8536585365853,18.464566929133866L512.5853658536586,18.464566929133866L514.3170731707316,18.464566929133866L514.3170731707316,17.541338582677213L516.0487804878048,17.541338582677213L516.0487804878048,16.618110236220502L517.780487804878,16.618110236220502L519.5121951219512,16.618110236220502L521.2439024390244,16.618110236220502L521.2439024390244,15.694881889763792L522.9756097560976,15.694881889763792L522.9756097560976,14.771653543307139L524.7073170731708,14.771653543307139L526.4390243902438,14.771653543307139L528.170731707317,14.771653543307139L529.9024390243902,14.771653543307139L531.6341463414634,14.771653543307139L533.3658536585366,14.771653543307139L535.0975609756098,14.771653543307139L536.829268292683,14.771653543307139L538.5609756097562,14.771653543307139L540.2926829268292,14.771653543307139L542.0243902439024,14.771653543307139L542.0243902439024,13.848425196850371L543.7560975609756,13.848425196850371L545.4878048780488,13.848425196850371L545.4878048780488,12.925196850393661L545.4878048780488,12.001968503937007L547.219512195122,12.001968503937007L547.219512195122,11.078740157480297L548.9512195121952,11.078740157480297L550.6829268292684,11.078740157480297L550.6829268292684,10.155511811023587L552.4146341463414,10.155511811023587L554.1463414634146,10.155511811023587L555.8780487804878,10.155511811023587L557.609756097561,10.155511811023587L559.3414634146342,10.155511811023587L561.0731707317074,10.155511811023587L562.8048780487806,10.155511811023587L564.5365853658537,10.155511811023587L564.5365853658537,9.232283464566933L566.2682926829268,9.232283464566933L568,9.232283464566933L569.7317073170732,9.232283464566933L571.4634146341464,9.232283464566933L573.1951219512196,9.232283464566933L574.9268292682927,9.232283464566933L576.6585365853659,9.232283464566933L578.390243902439,9.232283464566933L580.1219512195122,9.232283464566933L581.8536585365854,9.232283464566933L581.8536585365854,8.309055118110223L583.5853658536585,8.309055118110223L585.3170731707316,8.309055118110223L587.0487804878048,8.309055118110223L588.780487804878,8.309055118110223L588.780487804878,7.385826771653512L590.5121951219512,7.385826771653512L592.2439024390244,7.385826771653512L593.9756097560976,7.385826771653512L595.7073170731707,7.385826771653512L597.4390243902438,7.385826771653512L597.4390243902438,6.462598425196859L599.170731707317,6.462598425196859L600.9024390243902,6.462598425196859L602.6341463414634,6.462598425196859L604.3658536585366,6.462598425196859L604.3658536585366,5.5393700787401485L606.0975609756098,5.5393700787401485L607.829268292683,5.5393700787401485L609.560975609756,5.5393700787401485L611.2926829268292,5.5393700787401485L611.2926829268292,4.616141732283438L613.0243902439024,4.616141732283438L614.7560975609756,4.616141732283438L616.4878048780488,4.616141732283438L618.219512195122,4.616141732283438L619.9512195121952,4.616141732283438L621.6829268292682,4.616141732283438L623.4146341463414,4.616141732283438L625.1463414634146,4.616141732283438L626.8780487804878,4.616141732283438L628.609756097561,4.616141732283438L630.3414634146342,4.616141732283438L630.3414634146342,3.6929133858267846L632.0731707317074,3.6929133858267846L633.8048780487806,3.6929133858267846L635.5365853658536,3.6929133858267846L637.2682926829268,3.6929133858267846L639,3.6929133858267846L640.7317073170732,3.6929133858267846L642.4634146341464,3.6929133858267846L644.1951219512196,3.6929133858267846L645.9268292682927,3.6929133858267846L647.6585365853658,3.6929133858267846L649.390243902439,3.6929133858267846L651.1219512195122,3.6929133858267846L652.8536585365854,3.6929133858267846L654.5853658536586,3.6929133858267846L656.3170731707318,3.6929133858267846L658.048780487805,3.6929133858267846L659.7804878048781,3.6929133858267846L661.5121951219512,3.6929133858267846L663.2439024390244,3.6929133858267846L664.9756097560976,3.6929133858267846L666.7073170731707,3.6929133858267846L668.4390243902438,3.6929133858267846L670.170731707317,3.6929133858267846L671.9024390243902,3.6929133858267846L673.6341463414634,3.6929133858267846L675.3658536585366,3.6929133858267846L677.0975609756098,3.6929133858267846L678.8292682926829,3.6929133858267846L680.560975609756,3.6929133858267846L682.2926829268292,3.6929133858267846L684.0243902439024,3.6929133858267846L685.7560975609756,3.6929133858267846L687.4878048780488,3.6929133858267846L687.4878048780488,2.7696850393700743L689.219512195122,2.7696850393700743L690.951219512195,2.7696850393700743L692.6829268292682,2.7696850393700743L694.4146341463414,2.7696850393700743L696.1463414634146,2.7696850393700743L697.8780487804878,2.7696850393700743L699.609756097561,2.7696850393700743L701.3414634146342,2.7696850393700743L701.3414634146342,1.846456692913364L701.3414634146342,0.9232283464567104L703.0731707317074,0.9232283464567104L704.8048780487804,0.9232283464567104L710,0"/>
        <g class="knime-legend" transform="translate(201,539)">
            <text class="knime-legend-label" x="20">
                XGB
            </text>
            <circle fill="#9467bd" r="5" class="knime-legend-symbol" cx="5"
                    cy="-5"/>
        </g>
        <path class="line"
              style="stroke: rgb(140, 86, 75); fill: none; stroke-width: 2;"
              d="M0,469L143.7317073170732,53.54724409448818L710,0"/>
        <g class="knime-legend" transform="translate(256,539)">
            <text class="knime-legend-label" x="20">
                k-NN
            </text>
            <circle fill="#8c564b" r="5" class="knime-legend-symbol" cx="5"
                    cy="-5"/>
        </g>
        <path class="line" style="stroke: black; fill: none; stroke-width: 2;"
              d="M0,469L710,0"/>
        <g class="knime-legend" transform="translate(313,539)">
            <text class="knime-legend-label" x="20">
                random
            </text>
            <circle fill="black" r="5" class="knime-legend-symbol" cx="5"
                    cy="-5"/>
        </g>
    </g>
    <g transform="translate(70,0)">
        <text class="knime-title" id="title" y="30">
            ROC Curve
        </text>
    </g>
</svg>