<!DOCTYPE svg PUBLIC "-//W3C//DTD SVG 1.1//EN"
    "http://www.w3.org/Graphics/SVG/1.1/DTD/svg11.dtd" >
<svg contentScriptType="text/ecmascript" width="800"
     xmlns:xlink="http://www.w3.org/1999/xlink" zoomAndPan="magnify"
     style="height: 600px;" contentStyleType="text/css" height="600"
     preserveAspectRatio="xMidYMid meet" xmlns="http://www.w3.org/2000/svg"
     version="1.0">
    <style type="text/css" xml:space="preserve">.knime-title { color: black; fill: black; font-size: 24px; }
.knime-label, .knime-axis-label, .knime-tick-label, .knime-label text, text.knime-axis-label, text.knime-tick-label { color: black; fill: black; font-size: 12px; }
.knime-legend-label, text.knime-legend-label { color: black; fill: black; font-size: 12px; font-weight: normal; }
.knime-tooltip-caption, .knime-tooltip-key, .knime-tooltip-value { color: black; fill: black; font-size: 12px; }
.knime-tooltip-key { font-weight: normal; }
.knime-tooltip-caption, .knime-tooltip-value { font-weight: bold; }</style><g transform="translate(70,46)">
        <rect x="-70" fill="rgb(255,255,255)" width="800" fill-opacity="1.0"
              height="600" y="-46"/>
        <rect fill="rgb(230,230,230)" width="710" fill-opacity="1.0"
              height="469"/>
        <g class="x axis knime-x knime-axis" transform="translate(0,469)">
            <g class="tick major knime-tick" style="opacity: 1;"
               transform="translate(0,0)">
                <line y2="-469" class="knime-tick-line" x2="0"
                      stroke="rgb(255,255,255)"/>
                <text x="0" dy=".71em" y="10" style="text-anchor: middle;"
                      class="knime-tick-label">
                    0.0
                </text>
            </g>
            <g class="tick major knime-tick" style="opacity: 1;"
               transform="translate(71,0)">
                <line y2="-469" class="knime-tick-line" x2="0"
                      stroke="rgb(255,255,255)"/>
                <text x="0" dy=".71em" y="10" style="text-anchor: middle;"
                      class="knime-tick-label">
                    0.1
                </text>
            </g>
            <g class="tick major knime-tick" style="opacity: 1;"
               transform="translate(142,0)">
                <line y2="-469" class="knime-tick-line" x2="0"
                      stroke="rgb(255,255,255)"/>
                <text x="0" dy=".71em" y="10" style="text-anchor: middle;"
                      class="knime-tick-label">
                    0.2
                </text>
            </g>
            <g class="tick major knime-tick" style="opacity: 1;"
               transform="translate(213,0)">
                <line y2="-469" class="knime-tick-line" x2="0"
                      stroke="rgb(255,255,255)"/>
                <text x="0" dy=".71em" y="10" style="text-anchor: middle;"
                      class="knime-tick-label">
                    0.3
                </text>
            </g>
            <g class="tick major knime-tick" style="opacity: 1;"
               transform="translate(284,0)">
                <line y2="-469" class="knime-tick-line" x2="0"
                      stroke="rgb(255,255,255)"/>
                <text x="0" dy=".71em" y="10" style="text-anchor: middle;"
                      class="knime-tick-label">
                    0.4
                </text>
            </g>
            <g class="tick major knime-tick" style="opacity: 1;"
               transform="translate(355,0)">
                <line y2="-469" class="knime-tick-line" x2="0"
                      stroke="rgb(255,255,255)"/>
                <text x="0" dy=".71em" y="10" style="text-anchor: middle;"
                      class="knime-tick-label">
                    0.5
                </text>
            </g>
            <g class="tick major knime-tick" style="opacity: 1;"
               transform="translate(426,0)">
                <line y2="-469" class="knime-tick-line" x2="0"
                      stroke="rgb(255,255,255)"/>
                <text x="0" dy=".71em" y="10" style="text-anchor: middle;"
                      class="knime-tick-label">
                    0.6
                </text>
            </g>
            <g class="tick major knime-tick" style="opacity: 1;"
               transform="translate(496.99999999999994,0)">
                <line y2="-469" class="knime-tick-line" x2="0"
                      stroke="rgb(255,255,255)"/>
                <text x="0" dy=".71em" y="10" style="text-anchor: middle;"
                      class="knime-tick-label">
                    0.7
                </text>
            </g>
            <g class="tick major knime-tick" style="opacity: 1;"
               transform="translate(568,0)">
                <line y2="-469" class="knime-tick-line" x2="0"
                      stroke="rgb(255,255,255)"/>
                <text x="0" dy=".71em" y="10" style="text-anchor: middle;"
                      class="knime-tick-label">
                    0.8
                </text>
            </g>
            <g class="tick major knime-tick" style="opacity: 1;"
               transform="translate(639,0)">
                <line y2="-469" class="knime-tick-line" x2="0"
                      stroke="rgb(255,255,255)"/>
                <text x="0" dy=".71em" y="10" style="text-anchor: middle;"
                      class="knime-tick-label">
                    0.9
                </text>
            </g>
            <g class="tick major knime-tick" style="opacity: 1;"
               transform="translate(710,0)">
                <line y2="-469" class="knime-tick-line" x2="0"
                      stroke="rgb(255,255,255)"/>
                <text x="0" dy=".71em" y="10" style="text-anchor: middle;"
                      class="knime-tick-label">
                    1.0
                </text>
            </g>
            <path fill="none" stroke-width="1" d="M0,0V0H710V0" class="domain"
                  stroke="rgb(255,255,255)"/>
        </g>
        <g class="y axis knime-y knime-axis">
            <g class="tick major knime-tick" style="opacity: 1;"
               transform="translate(0,469)">
                <line y2="0" class="knime-tick-line" x2="710"
                      stroke="rgb(255,255,255)"/>
                <text x="-10" dy=".32em" y="0" style="text-anchor: end;"
                      class="knime-tick-label">
                    0.0
                </text>
            </g>
            <g class="tick major knime-tick" style="opacity: 1;"
               transform="translate(0,422.1)">
                <line y2="0" class="knime-tick-line" x2="710"
                      stroke="rgb(255,255,255)"/>
                <text x="-10" dy=".32em" y="0" style="text-anchor: end;"
                      class="knime-tick-label">
                    0.1
                </text>
            </g>
            <g class="tick major knime-tick" style="opacity: 1;"
               transform="translate(0,375.2)">
                <line y2="0" class="knime-tick-line" x2="710"
                      stroke="rgb(255,255,255)"/>
                <text x="-10" dy=".32em" y="0" style="text-anchor: end;"
                      class="knime-tick-label">
                    0.2
                </text>
            </g>
            <g class="tick major knime-tick" style="opacity: 1;"
               transform="translate(0,328.3)">
                <line y2="0" class="knime-tick-line" x2="710"
                      stroke="rgb(255,255,255)"/>
                <text x="-10" dy=".32em" y="0" style="text-anchor: end;"
                      class="knime-tick-label">
                    0.3
                </text>
            </g>
            <g class="tick major knime-tick" style="opacity: 1;"
               transform="translate(0,281.4)">
                <line y2="0" class="knime-tick-line" x2="710"
                      stroke="rgb(255,255,255)"/>
                <text x="-10" dy=".32em" y="0" style="text-anchor: end;"
                      class="knime-tick-label">
                    0.4
                </text>
            </g>
            <g class="tick major knime-tick" style="opacity: 1;"
               transform="translate(0,234.5)">
                <line y2="0" class="knime-tick-line" x2="710"
                      stroke="rgb(255,255,255)"/>
                <text x="-10" dy=".32em" y="0" style="text-anchor: end;"
                      class="knime-tick-label">
                    0.5
                </text>
            </g>
            <g class="tick major knime-tick" style="opacity: 1;"
               transform="translate(0,187.60000000000002)">
                <line y2="0" class="knime-tick-line" x2="710"
                      stroke="rgb(255,255,255)"/>
                <text x="-10" dy=".32em" y="0" style="text-anchor: end;"
                      class="knime-tick-label">
                    0.6
                </text>
            </g>
            <g class="tick major knime-tick" style="opacity: 1;"
               transform="translate(0,140.70000000000005)">
                <line y2="0" class="knime-tick-line" x2="710"
                      stroke="rgb(255,255,255)"/>
                <text x="-10" dy=".32em" y="0" style="text-anchor: end;"
                      class="knime-tick-label">
                    0.7
                </text>
            </g>
            <g class="tick major knime-tick" style="opacity: 1;"
               transform="translate(0,93.79999999999995)">
                <line y2="0" class="knime-tick-line" x2="710"
                      stroke="rgb(255,255,255)"/>
                <text x="-10" dy=".32em" y="0" style="text-anchor: end;"
                      class="knime-tick-label">
                    0.8
                </text>
            </g>
            <g class="tick major knime-tick" style="opacity: 1;"
               transform="translate(0,46.89999999999998)">
                <line y2="0" class="knime-tick-line" x2="710"
                      stroke="rgb(255,255,255)"/>
                <text x="-10" dy=".32em" y="0" style="text-anchor: end;"
                      class="knime-tick-label">
                    0.9
                </text>
            </g>
            <g class="tick major knime-tick" style="opacity: 1;"
               transform="translate(0,0)">
                <line y2="0" class="knime-tick-line" x2="710"
                      stroke="rgb(255,255,255)"/>
                <text x="-10" dy=".32em" y="0" style="text-anchor: end;"
                      class="knime-tick-label">
                    1.0
                </text>
            </g>
            <path fill="none" stroke-width="1" d="M0,0H0V469H0" class="domain"
                  stroke="rgb(255,255,255)"/>
        </g>
        <text x="700" id="xtitle" y="514"
              class="x label knime-x knime-axis-label" text-anchor="end">
            False Positive Rate
        </text>
        <text dy=".75em" id="ytitle" y="-55"
              class="y label knime-y knime-axis-label" transform="rotate(-90)"
              text-anchor="end">
            True Positive Rate
        </text>
        <g class="knime-tooltip" transform="translate(624,319)">
            <text x="0" y="0" style="fill: rgb(31, 119, 180);"
                  class="knime-tooltip-key knime-tooltip-value knime-tooltip-color">
                DT (0.844)
            </text>
            <text x="0" y="25" style="fill: rgb(255, 127, 14);"
                  class="knime-tooltip-key knime-tooltip-value knime-tooltip-color">
                RF (0.947)
            </text>
            <text x="0" y="50" style="fill: rgb(44, 160, 44);"
                  class="knime-tooltip-key knime-tooltip-value knime-tooltip-color">
                ZeroR (0.474)
            </text>
            <text x="0" y="75" style="fill: rgb(214, 39, 40);"
                  class="knime-tooltip-key knime-tooltip-value knime-tooltip-color">
                NB (0.917)
            </text>
            <text x="0" y="100" style="fill: rgb(148, 103, 189);"
                  class="knime-tooltip-key knime-tooltip-value knime-tooltip-color">
                XGB (0.927)
            </text>
            <text x="0" y="125" style="fill: rgb(140, 86, 75);"
                  class="knime-tooltip-key knime-tooltip-value knime-tooltip-color">
                k-NN (0.843)
            </text>
        </g>
        <path class="line"
              style="stroke: rgb(31, 119, 180); fill: none; stroke-width: 2;"
              d="M0,469L43.32677165354331,285.2775590551181L48.917322834645674,257.58070866141736L55.90551181102362,233.57677165354332L58.70078740157481,219.7283464566929L58.70078740157481,200.3405511811024L61.496062992125985,199.4173228346457L62.89370078740157,191.10826771653547L64.29133858267717,185.56889763779526L68.48425196850394,174.49015748031496L69.88188976377953,165.25787401574803L72.67716535433071,159.71850393700782L72.67716535433071,156.0255905511811L76.87007874015748,154.17913385826768L79.66535433070865,143.10039370078744L81.06299212598425,141.25393700787401L83.85826771653544,135.71456692913387L83.85826771653544,133.8681102362205L85.25590551181102,130.17519685039366L86.65354330708662,123.71259842519686L88.05118110236221,116.32677165354329L92.24409448818896,113.55708661417322L93.64173228346456,108.94094488188978L99.23228346456693,105.24803149606299L100.62992125984252,102.47834645669286L102.0275590551181,100.6318897637795L106.22047244094489,97.86220472440942L106.22047244094489,96.01574803149606L106.22047244094489,94.16929133858264L116.003937007874,88.62992125984249L117.40157480314961,88.62992125984249L118.7992125984252,88.62992125984249L120.19685039370079,88.62992125984249L120.19685039370079,86.78346456692913L122.99212598425197,86.78346456692913L134.17322834645668,76.62795275590554L138.36614173228347,72.9350393700787L138.36614173228347,72.01181102362204L153.74015748031496,69.24212598425197L155.13779527559055,68.31889763779526L162.1259842519685,66.4724409448819L164.92125984251967,66.4724409448819L173.30708661417324,65.54921259842519L177.5,62.77952755905511L177.5,61.8562992125984L181.69291338582676,61.8562992125984L188.68110236220474,61.8562992125984L199.86220472440945,61.8562992125984L205.4527559055118,60.93307086614175L208.24803149606296,60.00984251968504L212.44094488188978,57.24015748031496L222.2244094488189,53.54724409448818L223.6220472440945,53.54724409448818L233.40551181102364,50.777559055118104L234.80314960629923,50.777559055118104L276.73228346456693,50.777559055118104L313.07086614173227,48.93110236220474L314.4685039370079,48.93110236220474L315.86614173228344,48.00787401574803L321.4566929133858,48.00787401574803L322.85433070866145,47.084645669291376L336.8307086614173,46.161417322834666L342.42125984251965,44.3149606299213L388.5433070866142,41.54527559055117L433.26771653543307,38.7755905511811L464.015748031496,36.929133858267676L490.57086614173227,35.08267716535431L532.5,35.08267716535431L567.4409448818898,35.08267716535431L710,0"/>
        <g class="knime-legend" transform="translate(0,539)">
            <text class="knime-legend-label" x="20">
                DT
            </text>
            <circle fill="#1f77b4" r="5" class="knime-legend-symbol" cx="5"
                    cy="-5"/>
        </g>
        <path class="line"
              style="stroke: rgb(255, 127, 14); fill: none; stroke-width: 2;"
              d="M0,469L0,456.998031496063L1.3976377952755905,432.07086614173227L2.795275590551181,408.99015748031496L2.795275590551181,392.37204724409446L2.795275590551181,374.8307086614173L2.795275590551181,354.5196850393701L2.795275590551181,335.13188976377955L5.590551181102362,315.744094488189L5.590551181102362,303.74212598425197L6.988188976377953,291.74015748031496L8.385826771653543,275.12204724409446L11.181102362204724,261.2736220472441L13.976377952755906,252.04133858267716L13.976377952755906,240.96259842519683L15.374015748031496,227.11417322834646L15.374015748031496,224.34448818897638L15.374015748031496,213.26574803149606L16.771653543307085,202.18700787401576L18.169291338582678,188.33858267716533L22.362204724409448,180.95275590551182L25.15748031496063,175.41338582677167L26.555118110236222,170.79724409448818L26.555118110236222,165.25787401574803L29.350393700787404,160.64173228346453L32.145669291338585,156.0255905511811L33.54330708661417,147.71653543307087L34.94094488188976,142.17716535433073L39.13385826771653,133.8681102362205L39.13385826771653,129.251968503937L40.531496062992126,126.48228346456693L43.32677165354331,115.40354330708664L43.32677165354331,109.86417322834649L44.724409448818896,107.09448818897641L44.724409448818896,102.47834645669286L44.724409448818896,98.78543307086613L46.12204724409448,95.09251968503935L46.12204724409448,87.70669291338584L47.51968503937008,83.0905511811024L50.31496062992126,80.32086614173232L50.31496062992126,78.4744094488189L50.31496062992126,74.78149606299218L51.712598425196845,71.08858267716533L54.50787401574803,67.39566929133855L58.70078740157481,66.4724409448819L61.496062992125985,63.70275590551182L62.89370078740157,62.77952755905511L62.89370078740157,61.8562992125984L67.08661417322834,59.08661417322833L69.88188976377953,57.24015748031496L71.27952755905513,55.3937007874016L78.26771653543307,52.624015748031525L81.06299212598425,51.700787401574814L82.46062992125984,48.93110236220474L86.65354330708662,48.00787401574803L93.64173228346456,48.00787401574803L99.23228346456693,48.00787401574803L99.23228346456693,45.238188976377955L102.0275590551181,42.468503937007824L104.82283464566929,37.852362204724386L111.81102362204724,36.00590551181102L114.60629921259842,33.23622047244095L122.99212598425197,32.31299212598424L128.58267716535434,29.543307086614163L129.98031496062993,27.6968503937008L135.57086614173227,25.850393700787436L138.36614173228347,25.850393700787436L139.76377952755905,24.927165354330725L143.95669291338584,24.003937007874015L153.74015748031496,23.08070866141736L162.1259842519685,22.15748031496065L164.92125984251967,19.387795275590577L171.90944881889763,19.387795275590577L183.09055118110234,17.541338582677213L188.68110236220474,16.618110236220502L192.8740157480315,15.694881889763792L201.25984251968504,15.694881889763792L204.0551181102362,15.694881889763792L212.44094488188978,14.771653543307139L220.82677165354332,14.771653543307139L225.01968503937007,14.771653543307139L232.007874015748,13.848425196850371L237.5984251968504,12.925196850393661L247.38188976377953,12.925196850393661L264.15354330708664,12.925196850393661L278.12992125984255,12.001968503937007L290.70866141732284,10.155511811023587L304.68503937007875,10.155511811023587L318.6614173228346,10.155511811023587L331.24015748031496,9.232283464566933L349.40944881889766,7.385826771653512L353.6023622047244,6.462598425196859L357.79527559055117,4.616141732283438L381.55511811023626,3.6929133858267846L398.3267716535433,3.6929133858267846L424.88188976377955,3.6929133858267846L451.43700787401576,1.846456692913364L473.79921259842524,1.846456692913364L507.34251968503935,0.9232283464567104L539.488188976378,0.9232283464567104L614.9606299212599,0.9232283464567104L710,0"/>
        <g class="knime-legend" transform="translate(46,539)">
            <text class="knime-legend-label" x="20">
                RF
            </text>
            <circle fill="#ff7f0e" r="5" class="knime-legend-symbol" cx="5"
                    cy="-5"/>
        </g>
        <path class="line"
              style="stroke: rgb(44, 160, 44); fill: none; stroke-width: 2;"
              d="M0,469L152.34251968503938,381.29330708661416L299.09448818897636,290.81692913385825L438.85826771653547,195.7244094488189L577.2244094488188,99.70866141732279L710,0"/>
        <g class="knime-legend" transform="translate(92,539)">
            <text class="knime-legend-label" x="20">
                ZeroR
            </text>
            <circle fill="#2ca02c" r="5" class="knime-legend-symbol" cx="5"
                    cy="-5"/>
        </g>
        <path class="line"
              style="stroke: rgb(214, 39, 40); fill: none; stroke-width: 2;"
              d="M0,469L0,468.0767716535433L0,467.15354330708664L0,466.2303149606299L0,465.3070866141732L0,464.38385826771656L1.3976377952755905,464.38385826771656L1.3976377952755905,463.46062992125985L1.3976377952755905,462.53740157480314L1.3976377952755905,461.61417322834643L1.3976377952755905,460.6909448818898L1.3976377952755905,459.76771653543307L1.3976377952755905,458.84448818897636L1.3976377952755905,457.9212598425197L1.3976377952755905,456.998031496063L1.3976377952755905,456.0748031496063L1.3976377952755905,455.15157480314963L1.3976377952755905,454.2283464566929L1.3976377952755905,453.3051181102362L1.3976377952755905,452.38188976377955L1.3976377952755905,451.45866141732284L1.3976377952755905,450.53543307086613L1.3976377952755905,449.6122047244094L1.3976377952755905,448.68897637795277L1.3976377952755905,447.76574803149606L1.3976377952755905,446.84251968503935L2.795275590551181,446.84251968503935L2.795275590551181,445.9192913385827L2.795275590551181,444.996062992126L2.795275590551181,444.0728346456693L2.795275590551181,443.1496062992126L2.795275590551181,442.2263779527559L2.795275590551181,441.3031496062992L2.795275590551181,440.3799212598425L2.795275590551181,439.45669291338584L2.795275590551181,438.5334645669291L2.795275590551181,437.6102362204724L2.795275590551181,436.68700787401576L2.795275590551181,435.76377952755905L2.795275590551181,434.84055118110234L2.795275590551181,433.9173228346457L2.795275590551181,432.994094488189L2.795275590551181,432.07086614173227L2.795275590551181,431.1476377952756L2.795275590551181,430.2244094488189L2.795275590551181,429.3011811023622L2.795275590551181,428.37795275590554L2.795275590551181,427.45472440944883L2.795275590551181,426.5314960629921L2.795275590551181,425.6082677165354L4.192913385826771,425.6082677165354L4.192913385826771,424.68503937007875L4.192913385826771,423.76181102362204L5.590551181102362,423.76181102362204L5.590551181102362,422.83858267716533L5.590551181102362,421.9153543307087L5.590551181102362,420.99212598425197L5.590551181102362,420.06889763779526L5.590551181102362,419.14566929133855L5.590551181102362,418.2224409448819L5.590551181102362,417.2992125984252L5.590551181102362,416.3759842519685L5.590551181102362,415.4527559055118L5.590551181102362,414.5295275590551L5.590551181102362,413.6062992125984L5.590551181102362,412.68307086614175L5.590551181102362,411.75984251968504L5.590551181102362,410.8366141732283L5.590551181102362,409.9133858267717L5.590551181102362,408.99015748031496L5.590551181102362,408.06692913385825L5.590551181102362,407.1437007874016L5.590551181102362,406.2204724409449L5.590551181102362,405.2972440944882L5.590551181102362,404.3740157480315L5.590551181102362,403.4507874015748L5.590551181102362,402.5275590551181L5.590551181102362,401.60433070866145L5.590551181102362,400.68110236220474L5.590551181102362,399.75787401574803L5.590551181102362,398.8346456692913L5.590551181102362,397.9114173228346L5.590551181102362,396.98818897637796L5.590551181102362,396.06496062992125L5.590551181102362,395.14173228346453L5.590551181102362,394.2185039370079L5.590551181102362,393.29527559055117L5.590551181102362,392.37204724409446L5.590551181102362,391.4488188976378L5.590551181102362,390.5255905511811L6.988188976377953,390.5255905511811L6.988188976377953,389.6023622047244L6.988188976377953,388.67913385826773L6.988188976377953,387.755905511811L6.988188976377953,386.8326771653543L6.988188976377953,385.90944881889766L8.385826771653543,385.90944881889766L8.385826771653543,384.98622047244095L8.385826771653543,384.06299212598424L8.385826771653543,383.1397637795276L8.385826771653543,382.2165354330709L8.385826771653543,381.29330708661416L8.385826771653543,380.3700787401575L8.385826771653543,379.4468503937008L8.385826771653543,378.5236220472441L8.385826771653543,377.60039370078744L8.385826771653543,376.67716535433067L8.385826771653543,375.753937007874L8.385826771653543,374.8307086614173L8.385826771653543,373.9074803149606L8.385826771653543,372.98425196850394L8.385826771653543,372.06102362204723L8.385826771653543,371.1377952755906L8.385826771653543,370.21456692913387L8.385826771653543,369.29133858267716L8.385826771653543,368.36811023622045L8.385826771653543,367.4448818897638L8.385826771653543,366.5216535433071L8.385826771653543,365.59842519685037L8.385826771653543,364.6751968503937L8.385826771653543,363.751968503937L8.385826771653543,362.8287401574803L8.385826771653543,361.90551181102364L8.385826771653543,360.98228346456693L8.385826771653543,360.0590551181102L8.385826771653543,359.13582677165357L8.385826771653543,358.21259842519686L8.385826771653543,357.28937007874015L8.385826771653543,356.3661417322835L8.385826771653543,355.4429133858268L8.385826771653543,354.5196850393701L8.385826771653543,353.59645669291336L8.385826771653543,352.6732283464567L8.385826771653543,351.75L8.385826771653543,350.8267716535433L8.385826771653543,349.90354330708664L8.385826771653543,348.9803149606299L8.385826771653543,348.0570866141732L8.385826771653543,347.13385826771656L8.385826771653543,346.21062992125985L8.385826771653543,345.28740157480314L8.385826771653543,344.36417322834643L8.385826771653543,343.4409448818898L8.385826771653543,342.51771653543307L8.385826771653543,341.59448818897636L8.385826771653543,340.6712598425197L8.385826771653543,339.748031496063L8.385826771653543,338.8248031496063L8.385826771653543,337.90157480314963L8.385826771653543,336.9783464566929L8.385826771653543,336.0551181102362L8.385826771653543,335.13188976377955L8.385826771653543,334.20866141732284L8.385826771653543,333.28543307086613L8.385826771653543,332.3622047244095L8.385826771653543,331.43897637795277L8.385826771653543,330.51574803149606L8.385826771653543,329.59251968503935L8.385826771653543,328.66929133858264L8.385826771653543,327.746062992126L9.783464566929133,327.746062992126L9.783464566929133,326.8228346456693L9.783464566929133,325.89960629921256L9.783464566929133,324.9763779527559L9.783464566929133,324.0531496062992L9.783464566929133,323.1299212598425L9.783464566929133,322.20669291338584L9.783464566929133,321.2834645669291L9.783464566929133,320.3602362204724L9.783464566929133,319.43700787401576L11.181102362204724,319.43700787401576L11.181102362204724,318.51377952755905L11.181102362204724,317.59055118110234L11.181102362204724,316.6673228346457L11.181102362204724,315.744094488189L11.181102362204724,314.82086614173227L11.181102362204724,313.8976377952756L11.181102362204724,312.97440944881885L11.181102362204724,312.0511811023622L11.181102362204724,311.12795275590554L11.181102362204724,310.2047244094488L11.181102362204724,309.2814960629921L11.181102362204724,308.35826771653547L11.181102362204724,307.43503937007875L12.578740157480315,307.43503937007875L12.578740157480315,306.51181102362204L12.578740157480315,305.5885826771654L12.578740157480315,304.6653543307087L12.578740157480315,303.74212598425197L12.578740157480315,302.8188976377953L12.578740157480315,301.8956692913386L13.976377952755906,301.8956692913386L15.374015748031496,301.8956692913386L15.374015748031496,300.9724409448819L15.374015748031496,300.0492125984252L15.374015748031496,299.1259842519685L15.374015748031496,298.2027559055118L15.374015748031496,297.2795275590551L15.374015748031496,296.3562992125984L15.374015748031496,295.43307086614175L15.374015748031496,294.50984251968504L15.374015748031496,293.5866141732283L15.374015748031496,292.6633858267717L15.374015748031496,291.74015748031496L16.771653543307085,291.74015748031496L16.771653543307085,290.81692913385825L16.771653543307085,289.8937007874016L16.771653543307085,288.9704724409449L16.771653543307085,288.0472440944882L16.771653543307085,287.1240157480315L16.771653543307085,286.2007874015748L16.771653543307085,285.2775590551181L16.771653543307085,284.3543307086614L18.169291338582678,284.3543307086614L18.169291338582678,283.4311023622047L18.169291338582678,282.50787401574803L18.169291338582678,281.5846456692913L19.566929133858267,281.5846456692913L20.96456692913386,281.5846456692913L20.96456692913386,280.6614173228346L20.96456692913386,279.73818897637796L20.96456692913386,278.81496062992125L20.96456692913386,277.89173228346453L20.96456692913386,276.9685039370079L20.96456692913386,276.0452755905512L20.96456692913386,275.12204724409446L20.96456692913386,274.1988188976378L20.96456692913386,273.27559055118115L20.96456692913386,272.3523622047244L20.96456692913386,271.42913385826773L20.96456692913386,270.505905511811L20.96456692913386,269.5826771653543L20.96456692913386,268.65944881889766L20.96456692913386,267.73622047244095L20.96456692913386,266.81299212598424L20.96456692913386,265.8897637795276L20.96456692913386,264.9665354330709L20.96456692913386,264.04330708661416L20.96456692913386,263.1200787401575L20.96456692913386,262.1968503937008L20.96456692913386,261.2736220472441L20.96456692913386,260.35039370078744L20.96456692913386,259.4271653543307L20.96456692913386,258.503937007874L22.362204724409448,258.503937007874L22.362204724409448,257.58070866141736L22.362204724409448,256.65748031496065L22.362204724409448,255.7342519685039L22.362204724409448,254.81102362204723L22.362204724409448,253.88779527559055L22.362204724409448,252.96456692913384L22.362204724409448,252.04133858267716L22.362204724409448,251.11811023622047L22.362204724409448,250.19488188976376L22.362204724409448,249.27165354330708L22.362204724409448,248.3484251968504L22.362204724409448,247.42519685039372L22.362204724409448,246.501968503937L22.362204724409448,245.57874015748033L22.362204724409448,244.65551181102364L22.362204724409448,243.73228346456693L22.362204724409448,242.80905511811025L23.75984251968504,242.80905511811025L23.75984251968504,241.88582677165357L23.75984251968504,240.96259842519683L23.75984251968504,240.03937007874015L23.75984251968504,239.11614173228347L23.75984251968504,238.19291338582676L23.75984251968504,237.26968503937007L23.75984251968504,236.3464566929134L23.75984251968504,235.42322834645668L23.75984251968504,234.5L23.75984251968504,233.57677165354332L23.75984251968504,232.6535433070866L23.75984251968504,231.73031496062993L23.75984251968504,230.80708661417324L25.15748031496063,230.80708661417324L25.15748031496063,229.88385826771653L26.555118110236222,229.88385826771653L26.555118110236222,228.96062992125985L26.555118110236222,228.03740157480317L26.555118110236222,227.11417322834646L26.555118110236222,226.19094488188978L26.555118110236222,225.2677165354331L26.555118110236222,224.34448818897638L26.555118110236222,223.4212598425197L26.555118110236222,222.49803149606302L26.555118110236222,221.5748031496063L26.555118110236222,220.65157480314963L26.555118110236222,219.7283464566929L26.555118110236222,218.8051181102362L26.555118110236222,217.8818897637795L26.555118110236222,216.95866141732282L26.555118110236222,216.03543307086613L26.555118110236222,215.11220472440942L26.555118110236222,214.18897637795274L26.555118110236222,213.26574803149606L26.555118110236222,212.34251968503935L26.555118110236222,211.41929133858264L26.555118110236222,210.49606299212599L26.555118110236222,209.57283464566927L27.95275590551181,209.57283464566927L27.95275590551181,208.64960629921256L27.95275590551181,207.7263779527559L27.95275590551181,206.8031496062992L27.95275590551181,205.8799212598425L29.350393700787404,205.8799212598425L30.748031496062993,205.8799212598425L30.748031496062993,204.95669291338584L30.748031496062993,204.03346456692913L30.748031496062993,203.11023622047247L30.748031496062993,202.18700787401576L30.748031496062993,201.26377952755905L30.748031496062993,200.3405511811024L30.748031496062993,199.4173228346457L30.748031496062993,198.49409448818898L30.748031496062993,197.57086614173232L30.748031496062993,196.6476377952756L30.748031496062993,195.7244094488189L30.748031496062993,194.80118110236225L30.748031496062993,193.87795275590554L30.748031496062993,192.95472440944883L30.748031496062993,192.03149606299218L32.145669291338585,192.03149606299218L32.145669291338585,191.10826771653547L32.145669291338585,190.1850393700787L32.145669291338585,189.26181102362204L32.145669291338585,188.33858267716533L32.145669291338585,187.41535433070862L32.145669291338585,186.49212598425197L33.54330708661417,186.49212598425197L33.54330708661417,185.56889763779526L33.54330708661417,184.64566929133855L33.54330708661417,183.7224409448819L33.54330708661417,182.79921259842519L33.54330708661417,181.87598425196848L33.54330708661417,180.95275590551182L34.94094488188976,180.95275590551182L34.94094488188976,180.0295275590551L34.94094488188976,179.1062992125984L34.94094488188976,178.18307086614175L34.94094488188976,177.25984251968504L34.94094488188976,176.33661417322833L34.94094488188976,175.41338582677167L34.94094488188976,174.49015748031496L36.338582677165356,174.49015748031496L36.338582677165356,173.56692913385825L36.338582677165356,172.6437007874016L36.338582677165356,171.7204724409449L37.73622047244095,171.7204724409449L37.73622047244095,170.79724409448818L37.73622047244095,169.87401574803152L37.73622047244095,168.95078740157481L39.13385826771653,168.95078740157481L39.13385826771653,168.0275590551181L39.13385826771653,167.10433070866145L39.13385826771653,166.18110236220474L39.13385826771653,165.25787401574803L39.13385826771653,164.33464566929138L39.13385826771653,163.41141732283467L40.531496062992126,163.41141732283467L40.531496062992126,162.48818897637796L40.531496062992126,161.5649606299213L40.531496062992126,160.64173228346453L41.92913385826772,160.64173228346453L41.92913385826772,159.71850393700782L41.92913385826772,158.79527559055117L43.32677165354331,158.79527559055117L43.32677165354331,157.87204724409446L43.32677165354331,156.94881889763775L44.724409448818896,156.94881889763775L46.12204724409448,156.94881889763775L46.12204724409448,156.0255905511811L46.12204724409448,155.1023622047244L47.51968503937008,155.1023622047244L47.51968503937008,154.17913385826768L47.51968503937008,153.25590551181102L48.917322834645674,153.25590551181102L50.31496062992126,153.25590551181102L50.31496062992126,152.3326771653543L51.712598425196845,152.3326771653543L53.110236220472444,152.3326771653543L53.110236220472444,151.4094488188976L54.50787401574803,151.4094488188976L54.50787401574803,150.48622047244095L54.50787401574803,149.56299212598424L54.50787401574803,148.63976377952753L54.50787401574803,147.71653543307087L54.50787401574803,146.79330708661416L54.50787401574803,145.8700787401575L55.90551181102362,145.8700787401575L55.90551181102362,144.9468503937008L57.30314960629921,144.9468503937008L57.30314960629921,144.0236220472441L57.30314960629921,143.10039370078744L57.30314960629921,142.17716535433073L58.70078740157481,142.17716535433073L58.70078740157481,141.25393700787401L58.70078740157481,140.33070866141736L60.09842519685039,140.33070866141736L60.09842519685039,139.40748031496065L60.09842519685039,138.48425196850394L60.09842519685039,137.5610236220473L61.496062992125985,137.5610236220473L61.496062992125985,136.63779527559058L61.496062992125985,135.71456692913387L61.496062992125985,134.7913385826772L61.496062992125985,133.8681102362205L61.496062992125985,132.9448818897638L62.89370078740157,132.9448818897638L62.89370078740157,132.02165354330714L62.89370078740157,131.09842519685037L64.29133858267717,131.09842519685037L64.29133858267717,130.17519685039366L64.29133858267717,129.251968503937L64.29133858267717,128.3287401574803L64.29133858267717,127.40551181102359L65.68897637795276,127.40551181102359L65.68897637795276,126.48228346456693L65.68897637795276,125.55905511811022L65.68897637795276,124.63582677165351L65.68897637795276,123.71259842519686L65.68897637795276,122.78937007874015L67.08661417322834,122.78937007874015L68.48425196850394,122.78937007874015L68.48425196850394,121.86614173228344L68.48425196850394,120.94291338582678L68.48425196850394,120.01968503937007L69.88188976377953,120.01968503937007L69.88188976377953,119.09645669291336L69.88188976377953,118.17322834645671L69.88188976377953,117.25L69.88188976377953,116.32677165354329L69.88188976377953,115.40354330708664L69.88188976377953,114.48031496062993L69.88188976377953,113.55708661417322L71.27952755905513,113.55708661417322L71.27952755905513,112.63385826771656L71.27952755905513,111.71062992125985L71.27952755905513,110.78740157480314L71.27952755905513,109.86417322834649L71.27952755905513,108.94094488188978L71.27952755905513,108.01771653543307L71.27952755905513,107.09448818897641L72.67716535433071,107.09448818897641L74.0748031496063,107.09448818897641L75.4724409448819,107.09448818897641L76.87007874015748,107.09448818897641L76.87007874015748,106.1712598425197L78.26771653543307,106.1712598425197L78.26771653543307,105.24803149606299L79.66535433070865,105.24803149606299L79.66535433070865,104.32480314960634L79.66535433070865,103.40157480314963L79.66535433070865,102.47834645669286L79.66535433070865,101.55511811023621L81.06299212598425,101.55511811023621L81.06299212598425,100.6318897637795L81.06299212598425,99.70866141732279L81.06299212598425,98.78543307086613L81.06299212598425,97.86220472440942L81.06299212598425,96.93897637795271L81.06299212598425,96.01574803149606L81.06299212598425,95.09251968503935L82.46062992125984,95.09251968503935L82.46062992125984,94.16929133858264L82.46062992125984,93.24606299212599L82.46062992125984,92.32283464566927L82.46062992125984,91.39960629921256L82.46062992125984,90.47637795275591L83.85826771653544,90.47637795275591L83.85826771653544,89.5531496062992L83.85826771653544,88.62992125984249L83.85826771653544,87.70669291338584L83.85826771653544,86.78346456692913L85.25590551181102,86.78346456692913L85.25590551181102,85.86023622047247L86.65354330708662,85.86023622047247L86.65354330708662,84.93700787401576L86.65354330708662,84.01377952755905L88.05118110236221,84.01377952755905L89.44881889763779,84.01377952755905L89.44881889763779,83.0905511811024L89.44881889763779,82.16732283464569L90.84645669291338,82.16732283464569L92.24409448818896,82.16732283464569L93.64173228346456,82.16732283464569L93.64173228346456,81.24409448818898L93.64173228346456,80.32086614173232L95.03937007874016,80.32086614173232L96.43700787401575,80.32086614173232L97.83464566929135,80.32086614173232L97.83464566929135,79.39763779527561L97.83464566929135,78.4744094488189L99.23228346456693,78.4744094488189L100.62992125984252,78.4744094488189L100.62992125984252,77.55118110236225L100.62992125984252,76.62795275590554L102.0275590551181,76.62795275590554L102.0275590551181,75.70472440944883L103.42519685039369,75.70472440944883L104.82283464566929,75.70472440944883L104.82283464566929,74.78149606299218L104.82283464566929,73.85826771653547L106.22047244094489,73.85826771653547L107.61811023622047,73.85826771653547L109.01574803149606,73.85826771653547L109.01574803149606,72.9350393700787L110.41338582677166,72.9350393700787L111.81102362204724,72.9350393700787L111.81102362204724,72.01181102362204L113.20866141732283,72.01181102362204L114.60629921259842,72.01181102362204L114.60629921259842,71.08858267716533L114.60629921259842,70.16535433070862L114.60629921259842,69.24212598425197L114.60629921259842,68.31889763779526L116.003937007874,68.31889763779526L116.003937007874,67.39566929133855L117.40157480314961,67.39566929133855L118.7992125984252,67.39566929133855L120.19685039370079,67.39566929133855L121.59448818897638,67.39566929133855L122.99212598425197,67.39566929133855L124.38976377952756,67.39566929133855L125.78740157480314,67.39566929133855L127.18503937007873,67.39566929133855L127.18503937007873,66.4724409448819L127.18503937007873,65.54921259842519L128.58267716535434,65.54921259842519L128.58267716535434,64.62598425196848L128.58267716535434,63.70275590551182L128.58267716535434,62.77952755905511L129.98031496062993,62.77952755905511L131.3779527559055,62.77952755905511L131.3779527559055,61.8562992125984L131.3779527559055,60.93307086614175L132.7755905511811,60.93307086614175L132.7755905511811,60.00984251968504L132.7755905511811,59.08661417322833L132.7755905511811,58.16338582677167L134.17322834645668,58.16338582677167L134.17322834645668,57.24015748031496L134.17322834645668,56.31692913385825L135.57086614173227,56.31692913385825L136.96850393700788,56.31692913385825L136.96850393700788,55.3937007874016L138.36614173228347,55.3937007874016L139.76377952755905,55.3937007874016L141.16141732283464,55.3937007874016L141.16141732283464,54.47047244094489L142.55905511811025,54.47047244094489L143.95669291338584,54.47047244094489L143.95669291338584,53.54724409448818L145.35433070866142,53.54724409448818L146.751968503937,53.54724409448818L146.751968503937,52.624015748031525L146.751968503937,51.700787401574814L146.751968503937,50.777559055118104L146.751968503937,49.85433070866145L148.1496062992126,49.85433070866145L149.54724409448818,49.85433070866145L149.54724409448818,48.93110236220474L149.54724409448818,48.00787401574803L150.9448818897638,48.00787401574803L150.9448818897638,47.084645669291376L152.34251968503938,47.084645669291376L153.74015748031496,47.084645669291376L153.74015748031496,46.161417322834666L153.74015748031496,45.238188976377955L153.74015748031496,44.3149606299213L153.74015748031496,43.391732283464535L153.74015748031496,42.468503937007824L153.74015748031496,41.54527559055117L153.74015748031496,40.62204724409446L155.13779527559055,40.62204724409446L155.13779527559055,39.69881889763775L156.53543307086613,39.69881889763775L156.53543307086613,38.7755905511811L157.93307086614172,38.7755905511811L160.7283464566929,38.7755905511811L162.1259842519685,38.7755905511811L163.5236220472441,38.7755905511811L164.92125984251967,38.7755905511811L166.3188976377953,38.7755905511811L167.71653543307087,38.7755905511811L169.11417322834646,38.7755905511811L169.11417322834646,37.852362204724386L170.51181102362204,37.852362204724386L171.90944881889763,37.852362204724386L171.90944881889763,36.929133858267676L173.30708661417324,36.929133858267676L174.70472440944883,36.929133858267676L174.70472440944883,36.00590551181102L174.70472440944883,35.08267716535431L176.10236220472441,35.08267716535431L177.5,35.08267716535431L178.89763779527559,35.08267716535431L180.29527559055117,35.08267716535431L181.69291338582676,35.08267716535431L183.09055118110234,35.08267716535431L184.48818897637793,35.08267716535431L185.88582677165354,35.08267716535431L187.28346456692913,35.08267716535431L188.68110236220474,35.08267716535431L188.68110236220474,34.1594488188976L190.07874015748033,34.1594488188976L191.4763779527559,34.1594488188976L192.8740157480315,34.1594488188976L194.2716535433071,34.1594488188976L195.6692913385827,34.1594488188976L197.06692913385828,34.1594488188976L198.46456692913387,34.1594488188976L199.86220472440945,34.1594488188976L201.25984251968504,34.1594488188976L202.65748031496062,34.1594488188976L204.0551181102362,34.1594488188976L205.4527559055118,34.1594488188976L206.85039370078738,34.1594488188976L208.24803149606296,34.1594488188976L209.64566929133858,34.1594488188976L211.0433070866142,34.1594488188976L212.44094488188978,34.1594488188976L213.83858267716536,34.1594488188976L213.83858267716536,33.23622047244095L213.83858267716536,32.31299212598424L213.83858267716536,31.389763779527527L215.23622047244095,31.389763779527527L215.23622047244095,30.466535433070874L216.63385826771653,30.466535433070874L216.63385826771653,29.543307086614163L218.03149606299212,29.543307086614163L219.42913385826773,29.543307086614163L220.82677165354332,29.543307086614163L222.2244094488189,29.543307086614163L222.2244094488189,28.62007874015751L223.6220472440945,28.62007874015751L225.01968503937007,28.62007874015751L226.41732283464566,28.62007874015751L227.81496062992125,28.62007874015751L227.81496062992125,27.6968503937008L227.81496062992125,26.77362204724409L229.21259842519683,26.77362204724409L230.61023622047242,26.77362204724409L233.40551181102364,26.77362204724409L234.80314960629923,26.77362204724409L236.20078740157481,26.77362204724409L237.5984251968504,26.77362204724409L238.99606299212599,26.77362204724409L240.39370078740157,26.77362204724409L241.79133858267716,26.77362204724409L243.18897637795277,26.77362204724409L244.58661417322836,26.77362204724409L245.98425196850394,26.77362204724409L247.38188976377953,26.77362204724409L248.7795275590551,26.77362204724409L250.1771653543307,26.77362204724409L251.57480314960628,26.77362204724409L252.97244094488187,26.77362204724409L252.97244094488187,25.850393700787436L254.37007874015745,25.850393700787436L255.7677165354331,25.850393700787436L257.1653543307087,25.850393700787436L257.1653543307087,24.927165354330725L258.56299212598424,24.927165354330725L259.96062992125985,24.927165354330725L261.35826771653547,24.927165354330725L262.755905511811,24.927165354330725L264.15354330708664,24.927165354330725L265.5511811023622,24.927165354330725L266.9488188976378,24.927165354330725L266.9488188976378,24.003937007874015L268.34645669291336,24.003937007874015L268.34645669291336,23.08070866141736L269.744094488189,23.08070866141736L269.744094488189,22.15748031496065L271.14173228346453,22.15748031496065L272.53937007874015,22.15748031496065L273.93700787401576,22.15748031496065L275.3346456692913,22.15748031496065L276.73228346456693,22.15748031496065L278.12992125984255,22.15748031496065L279.5275590551181,22.15748031496065L280.9251968503937,22.15748031496065L282.3228346456693,22.15748031496065L283.7204724409449,22.15748031496065L285.1181102362205,22.15748031496065L285.1181102362205,21.23425196850394L286.51574803149606,21.23425196850394L287.9133858267717,21.23425196850394L287.9133858267717,20.311023622047287L289.31102362204723,20.311023622047287L289.31102362204723,19.387795275590577L290.70866141732284,19.387795275590577L292.1062992125984,19.387795275590577L293.503937007874,19.387795275590577L294.9015748031496,19.387795275590577L296.2992125984252,19.387795275590577L296.2992125984252,18.464566929133866L297.69685039370074,18.464566929133866L299.09448818897636,18.464566929133866L300.49212598425197,18.464566929133866L301.8897637795276,18.464566929133866L303.28740157480314,18.464566929133866L303.28740157480314,17.541338582677213L304.68503937007875,17.541338582677213L306.0826771653543,17.541338582677213L307.4803149606299,17.541338582677213L308.87795275590554,17.541338582677213L310.2755905511811,17.541338582677213L311.6732283464567,17.541338582677213L313.07086614173227,17.541338582677213L313.07086614173227,16.618110236220502L314.4685039370079,16.618110236220502L315.86614173228344,16.618110236220502L315.86614173228344,15.694881889763792L315.86614173228344,14.771653543307139L317.26377952755905,14.771653543307139L318.6614173228346,14.771653543307139L318.6614173228346,13.848425196850371L320.0590551181102,13.848425196850371L321.4566929133858,13.848425196850371L322.85433070866145,13.848425196850371L324.251968503937,13.848425196850371L325.6496062992126,13.848425196850371L327.0472440944882,13.848425196850371L328.4448818897638,13.848425196850371L329.84251968503935,13.848425196850371L331.24015748031496,13.848425196850371L332.6377952755906,13.848425196850371L332.6377952755906,12.925196850393661L332.6377952755906,12.001968503937007L334.03543307086613,12.001968503937007L335.43307086614175,12.001968503937007L336.8307086614173,12.001968503937007L338.2283464566929,12.001968503937007L339.6259842519685,12.001968503937007L341.0236220472441,12.001968503937007L341.0236220472441,11.078740157480297L342.42125984251965,11.078740157480297L343.81889763779526,11.078740157480297L345.2165354330709,11.078740157480297L346.6141732283465,11.078740157480297L346.6141732283465,10.155511811023587L346.6141732283465,9.232283464566933L348.01181102362204,9.232283464566933L348.01181102362204,8.309055118110223L349.40944881889766,8.309055118110223L350.8070866141732,8.309055118110223L352.20472440944883,8.309055118110223L353.6023622047244,8.309055118110223L355,8.309055118110223L356.3976377952756,8.309055118110223L357.79527559055117,8.309055118110223L359.1929133858268,8.309055118110223L360.59055118110234,8.309055118110223L361.98818897637796,8.309055118110223L363.3858267716535,8.309055118110223L364.7834645669291,8.309055118110223L366.1811023622047,8.309055118110223L367.5787401574803,8.309055118110223L368.97637795275585,8.309055118110223L370.37401574803147,8.309055118110223L371.7716535433071,8.309055118110223L373.16929133858264,8.309055118110223L374.56692913385825,8.309055118110223L375.9645669291338,8.309055118110223L377.3622047244095,8.309055118110223L378.7598425196851,8.309055118110223L380.15748031496065,8.309055118110223L380.15748031496065,7.385826771653512L381.55511811023626,7.385826771653512L382.9527559055118,7.385826771653512L384.35039370078744,7.385826771653512L385.748031496063,7.385826771653512L387.1456692913386,7.385826771653512L388.5433070866142,7.385826771653512L389.9409448818898,7.385826771653512L391.3385826771654,7.385826771653512L392.73622047244095,7.385826771653512L394.13385826771656,7.385826771653512L395.5314960629921,7.385826771653512L396.92913385826773,7.385826771653512L398.3267716535433,7.385826771653512L399.7244094488189,7.385826771653512L401.12204724409446,7.385826771653512L401.12204724409446,6.462598425196859L402.5196850393701,6.462598425196859L403.9173228346457,6.462598425196859L405.31496062992125,6.462598425196859L406.71259842519686,6.462598425196859L406.71259842519686,5.5393700787401485L408.1102362204724,5.5393700787401485L409.50787401574803,5.5393700787401485L409.50787401574803,4.616141732283438L410.9055118110236,4.616141732283438L412.3031496062992,4.616141732283438L413.70078740157476,4.616141732283438L415.09842519685037,4.616141732283438L416.4960629921259,4.616141732283438L417.89370078740154,4.616141732283438L419.29133858267716,4.616141732283438L420.6889763779527,4.616141732283438L422.0866141732284,4.616141732283438L423.484251968504,4.616141732283438L424.88188976377955,4.616141732283438L426.27952755905517,4.616141732283438L427.6771653543307,4.616141732283438L429.07480314960634,4.616141732283438L430.4724409448819,4.616141732283438L431.8700787401575,4.616141732283438L433.26771653543307,4.616141732283438L434.6653543307087,4.616141732283438L436.06299212598424,4.616141732283438L437.46062992125985,4.616141732283438L438.85826771653547,4.616141732283438L440.255905511811,4.616141732283438L441.65354330708664,4.616141732283438L443.0511811023622,4.616141732283438L444.4488188976378,4.616141732283438L445.84645669291336,4.616141732283438L447.244094488189,4.616141732283438L448.64173228346453,4.616141732283438L448.64173228346453,3.6929133858267846L450.03937007874015,3.6929133858267846L451.43700787401576,3.6929133858267846L452.8346456692913,3.6929133858267846L454.23228346456693,3.6929133858267846L455.6299212598425,3.6929133858267846L457.0275590551181,3.6929133858267846L458.42519685039366,3.6929133858267846L459.8228346456693,3.6929133858267846L461.22047244094483,3.6929133858267846L462.61811023622045,3.6929133858267846L464.015748031496,3.6929133858267846L465.4133858267716,3.6929133858267846L466.8110236220473,3.6929133858267846L468.20866141732284,3.6929133858267846L469.60629921259846,3.6929133858267846L471.0039370078741,3.6929133858267846L472.40157480314963,3.6929133858267846L472.40157480314963,2.7696850393700743L473.79921259842524,2.7696850393700743L475.1968503937008,2.7696850393700743L476.5944881889764,2.7696850393700743L477.99212598425197,2.7696850393700743L479.3897637795276,2.7696850393700743L480.78740157480314,2.7696850393700743L482.18503937007875,2.7696850393700743L482.18503937007875,1.846456692913364L483.5826771653543,1.846456692913364L484.9803149606299,1.846456692913364L486.37795275590554,1.846456692913364L487.7755905511811,1.846456692913364L489.1732283464567,1.846456692913364L490.57086614173227,1.846456692913364L491.9685039370079,1.846456692913364L493.36614173228344,1.846456692913364L494.76377952755905,1.846456692913364L496.1614173228346,1.846456692913364L497.5590551181102,1.846456692913364L498.9566929133858,1.846456692913364L500.3543307086614,1.846456692913364L501.751968503937,1.846456692913364L503.14960629921256,1.846456692913364L504.5472440944882,1.846456692913364L504.5472440944882,0.9232283464567104L505.94488188976374,0.9232283464567104L507.34251968503935,0.9232283464567104L508.7401574803149,0.9232283464567104L510.1377952755905,0.9232283464567104L511.5354330708662,0.9232283464567104L512.9330708661417,0.9232283464567104L514.3307086614174,0.9232283464567104L515.728346456693,0.9232283464567104L517.1259842519685,0.9232283464567104L518.5236220472441,0.9232283464567104L519.9212598425197,0.9232283464567104L521.3188976377953,0.9232283464567104L522.7165354330709,0.9232283464567104L524.1141732283464,0.9232283464567104L525.511811023622,0.9232283464567104L526.9094488188977,0.9232283464567104L528.3070866141733,0.9232283464567104L529.7047244094488,0.9232283464567104L531.1023622047244,0.9232283464567104L532.5,0.9232283464567104L533.8976377952756,0.9232283464567104L535.2952755905512,0.9232283464567104L536.6929133858267,0.9232283464567104L538.0905511811023,0.9232283464567104L539.488188976378,0.9232283464567104L540.8858267716536,0.9232283464567104L542.2834645669291,0.9232283464567104L543.6811023622047,0.9232283464567104L545.0787401574803,0.9232283464567104L546.4763779527559,0.9232283464567104L547.8740157480315,0.9232283464567104L549.271653543307,0.9232283464567104L550.6692913385826,0.9232283464567104L552.0669291338583,0.9232283464567104L553.4645669291339,0.9232283464567104L554.8622047244095,0.9232283464567104L556.2598425196851,0.9232283464567104L557.6574803149607,0.9232283464567104L559.0551181102362,0.9232283464567104L560.4527559055118,0.9232283464567104L561.8503937007874,0.9232283464567104L563.248031496063,0.9232283464567104L564.6456692913385,0.9232283464567104L566.0433070866142,0.9232283464567104L567.4409448818898,0.9232283464567104L568.8385826771654,0.9232283464567104L570.236220472441,0.9232283464567104L571.6338582677165,0.9232283464567104L573.0314960629921,0.9232283464567104L574.4291338582677,0.9232283464567104L575.8267716535433,0.9232283464567104L577.2244094488188,0.9232283464567104L578.6220472440945,0.9232283464567104L580.0196850393701,0.9232283464567104L581.4173228346457,0.9232283464567104L582.8149606299213,0.9232283464567104L584.2125984251968,0.9232283464567104L585.6102362204724,0.9232283464567104L587.007874015748,0.9232283464567104L588.4055118110236,0.9232283464567104L589.8031496062991,0.9232283464567104L591.2007874015748,0.9232283464567104L592.5984251968504,0.9232283464567104L593.996062992126,0.9232283464567104L595.3937007874015,0.9232283464567104L596.7913385826771,0.9232283464567104L598.1889763779527,0.9232283464567104L599.5866141732284,0.9232283464567104L600.9842519685039,0.9232283464567104L602.3818897637796,0.9232283464567104L602.3818897637796,0L603.7795275590552,0L605.1771653543308,0L606.5748031496063,0L607.9724409448819,0L609.3700787401575,0L610.7677165354331,0L612.1653543307086,0L613.5629921259842,0L614.9606299212599,0L616.3582677165355,0L617.7559055118111,0L619.1535433070866,0L620.5511811023622,0L621.9488188976378,0L623.3464566929134,0L624.7440944881889,0L626.1417322834645,0L627.5393700787401,0L628.9370078740158,0L630.3346456692914,0L631.7322834645669,0L633.1299212598425,0L634.5275590551181,0L635.9251968503937,0L637.3228346456692,0L638.7204724409448,0L640.1181102362204,0L641.5157480314961,0L642.9133858267716,0L644.3110236220473,0L645.7086614173229,0L647.1062992125985,0L648.503937007874,0L649.9015748031496,0L651.2992125984252,0L652.6968503937009,0L654.0944881889764,0L655.492125984252,0L656.8897637795276,0L658.2874015748032,0L659.6850393700787,0L661.0826771653543,0L662.4803149606299,0L663.8779527559055,0L665.2755905511812,0L666.6732283464567,0L668.0708661417323,0L669.4685039370079,0L670.8661417322835,0L672.263779527559,0L673.6614173228346,0L675.0590551181102,0L676.4566929133858,0L677.8543307086615,0L679.251968503937,0L680.6496062992126,0L682.0472440944882,0L683.4448818897638,0L684.8425196850393,0L686.2401574803149,0L687.6377952755905,0L689.0354330708661,0L690.4330708661417,0L691.8307086614174,0L693.228346456693,0L694.6259842519685,0L696.0236220472441,0L697.4212598425197,0L698.8188976377953,0L700.2165354330709,0L701.6141732283464,0L703.011811023622,0L704.4094488188977,0L705.8070866141733,0L707.2047244094488,0L708.6023622047244,0L710,0"/>
        <g class="knime-legend" transform="translate(155,539)">
            <text class="knime-legend-label" x="20">
                NB
            </text>
            <circle fill="#d62728" r="5" class="knime-legend-symbol" cx="5"
                    cy="-5"/>
        </g>
        <path class="line"
              style="stroke: rgb(148, 103, 189); fill: none; stroke-width: 2;"
              d="M0,469L0,468.0767716535433L0,467.15354330708664L0,466.2303149606299L0,465.3070866141732L0,464.38385826771656L0,463.46062992125985L0,462.53740157480314L0,461.61417322834643L0,460.6909448818898L0,459.76771653543307L0,458.84448818897636L0,457.9212598425197L0,456.998031496063L0,456.0748031496063L0,455.15157480314963L0,454.2283464566929L0,453.3051181102362L0,452.38188976377955L0,451.45866141732284L0,450.53543307086613L0,449.6122047244094L0,448.68897637795277L0,447.76574803149606L0,446.84251968503935L0,445.9192913385827L0,444.996062992126L0,444.0728346456693L0,443.1496062992126L0,442.2263779527559L0,441.3031496062992L0,440.3799212598425L0,439.45669291338584L0,438.5334645669291L0,437.6102362204724L0,436.68700787401576L0,435.76377952755905L0,434.84055118110234L0,433.9173228346457L0,432.994094488189L0,432.07086614173227L0,431.1476377952756L0,430.2244094488189L0,429.3011811023622L0,428.37795275590554L0,427.45472440944883L0,426.5314960629921L0,425.6082677165354L0,424.68503937007875L0,423.76181102362204L0,422.83858267716533L0,421.9153543307087L0,420.99212598425197L0,420.06889763779526L0,419.14566929133855L0,418.2224409448819L0,417.2992125984252L0,416.3759842519685L0,415.4527559055118L0,414.5295275590551L0,413.6062992125984L0,412.68307086614175L0,411.75984251968504L0,410.8366141732283L0,409.9133858267717L0,408.99015748031496L0,408.06692913385825L0,407.1437007874016L0,406.2204724409449L0,405.2972440944882L0,404.3740157480315L0,403.4507874015748L0,402.5275590551181L0,401.60433070866145L0,400.68110236220474L0,399.75787401574803L0,398.8346456692913L0,397.9114173228346L0,396.98818897637796L0,396.06496062992125L0,395.14173228346453L0,394.2185039370079L0,393.29527559055117L0,392.37204724409446L1.3976377952755905,392.37204724409446L1.3976377952755905,391.4488188976378L1.3976377952755905,390.5255905511811L1.3976377952755905,389.6023622047244L1.3976377952755905,388.67913385826773L1.3976377952755905,387.755905511811L1.3976377952755905,386.8326771653543L1.3976377952755905,385.90944881889766L1.3976377952755905,384.98622047244095L1.3976377952755905,384.06299212598424L1.3976377952755905,383.1397637795276L1.3976377952755905,382.2165354330709L1.3976377952755905,381.29330708661416L1.3976377952755905,380.3700787401575L1.3976377952755905,379.4468503937008L1.3976377952755905,378.5236220472441L1.3976377952755905,377.60039370078744L1.3976377952755905,376.67716535433067L1.3976377952755905,375.753937007874L1.3976377952755905,374.8307086614173L1.3976377952755905,373.9074803149606L1.3976377952755905,372.98425196850394L1.3976377952755905,372.06102362204723L1.3976377952755905,371.1377952755906L1.3976377952755905,370.21456692913387L1.3976377952755905,369.29133858267716L2.795275590551181,369.29133858267716L2.795275590551181,368.36811023622045L2.795275590551181,367.4448818897638L2.795275590551181,366.5216535433071L2.795275590551181,365.59842519685037L2.795275590551181,364.6751968503937L2.795275590551181,363.751968503937L2.795275590551181,362.8287401574803L2.795275590551181,361.90551181102364L2.795275590551181,360.98228346456693L2.795275590551181,360.0590551181102L2.795275590551181,359.13582677165357L2.795275590551181,358.21259842519686L2.795275590551181,357.28937007874015L2.795275590551181,356.3661417322835L2.795275590551181,355.4429133858268L2.795275590551181,354.5196850393701L2.795275590551181,353.59645669291336L2.795275590551181,352.6732283464567L4.192913385826771,352.6732283464567L4.192913385826771,351.75L4.192913385826771,350.8267716535433L4.192913385826771,349.90354330708664L4.192913385826771,348.9803149606299L4.192913385826771,348.0570866141732L4.192913385826771,347.13385826771656L5.590551181102362,347.13385826771656L5.590551181102362,346.21062992125985L5.590551181102362,345.28740157480314L5.590551181102362,344.36417322834643L5.590551181102362,343.4409448818898L5.590551181102362,342.51771653543307L5.590551181102362,341.59448818897636L5.590551181102362,340.6712598425197L5.590551181102362,339.748031496063L5.590551181102362,338.8248031496063L5.590551181102362,337.90157480314963L5.590551181102362,336.9783464566929L6.988188976377953,336.9783464566929L6.988188976377953,336.0551181102362L6.988188976377953,335.13188976377955L6.988188976377953,334.20866141732284L6.988188976377953,333.28543307086613L6.988188976377953,332.3622047244095L6.988188976377953,331.43897637795277L6.988188976377953,330.51574803149606L6.988188976377953,329.59251968503935L6.988188976377953,328.66929133858264L6.988188976377953,327.746062992126L6.988188976377953,326.8228346456693L8.385826771653543,326.8228346456693L8.385826771653543,325.89960629921256L8.385826771653543,324.9763779527559L8.385826771653543,324.0531496062992L8.385826771653543,323.1299212598425L8.385826771653543,322.20669291338584L9.783464566929133,322.20669291338584L9.783464566929133,321.2834645669291L9.783464566929133,320.3602362204724L9.783464566929133,319.43700787401576L11.181102362204724,319.43700787401576L11.181102362204724,318.51377952755905L11.181102362204724,317.59055118110234L12.578740157480315,317.59055118110234L12.578740157480315,316.6673228346457L12.578740157480315,315.744094488189L12.578740157480315,314.82086614173227L12.578740157480315,313.8976377952756L12.578740157480315,312.97440944881885L12.578740157480315,312.0511811023622L12.578740157480315,311.12795275590554L13.976377952755906,311.12795275590554L13.976377952755906,310.2047244094488L13.976377952755906,309.2814960629921L13.976377952755906,308.35826771653547L13.976377952755906,307.43503937007875L13.976377952755906,306.51181102362204L13.976377952755906,305.5885826771654L13.976377952755906,304.6653543307087L13.976377952755906,303.74212598425197L13.976377952755906,302.8188976377953L13.976377952755906,301.8956692913386L13.976377952755906,300.9724409448819L13.976377952755906,300.0492125984252L13.976377952755906,299.1259842519685L13.976377952755906,298.2027559055118L13.976377952755906,297.2795275590551L13.976377952755906,296.3562992125984L13.976377952755906,295.43307086614175L13.976377952755906,294.50984251968504L13.976377952755906,293.5866141732283L13.976377952755906,292.6633858267717L13.976377952755906,291.74015748031496L13.976377952755906,290.81692913385825L13.976377952755906,289.8937007874016L13.976377952755906,288.9704724409449L13.976377952755906,288.0472440944882L13.976377952755906,287.1240157480315L15.374015748031496,287.1240157480315L15.374015748031496,286.2007874015748L15.374015748031496,285.2775590551181L15.374015748031496,284.3543307086614L16.771653543307085,284.3543307086614L16.771653543307085,283.4311023622047L16.771653543307085,282.50787401574803L16.771653543307085,281.5846456692913L16.771653543307085,280.6614173228346L16.771653543307085,279.73818897637796L16.771653543307085,278.81496062992125L16.771653543307085,277.89173228346453L18.169291338582678,277.89173228346453L18.169291338582678,276.9685039370079L18.169291338582678,276.0452755905512L18.169291338582678,275.12204724409446L18.169291338582678,274.1988188976378L18.169291338582678,273.27559055118115L18.169291338582678,272.3523622047244L19.566929133858267,272.3523622047244L19.566929133858267,271.42913385826773L20.96456692913386,271.42913385826773L20.96456692913386,270.505905511811L20.96456692913386,269.5826771653543L20.96456692913386,268.65944881889766L20.96456692913386,267.73622047244095L20.96456692913386,266.81299212598424L20.96456692913386,265.8897637795276L20.96456692913386,264.9665354330709L20.96456692913386,264.04330708661416L20.96456692913386,263.1200787401575L20.96456692913386,262.1968503937008L20.96456692913386,261.2736220472441L20.96456692913386,260.35039370078744L20.96456692913386,259.4271653543307L20.96456692913386,258.503937007874L20.96456692913386,257.58070866141736L20.96456692913386,256.65748031496065L20.96456692913386,255.7342519685039L20.96456692913386,254.81102362204723L20.96456692913386,253.88779527559055L20.96456692913386,252.96456692913384L20.96456692913386,252.04133858267716L20.96456692913386,251.11811023622047L20.96456692913386,250.19488188976376L22.362204724409448,250.19488188976376L22.362204724409448,249.27165354330708L22.362204724409448,248.3484251968504L22.362204724409448,247.42519685039372L23.75984251968504,247.42519685039372L23.75984251968504,246.501968503937L23.75984251968504,245.57874015748033L23.75984251968504,244.65551181102364L23.75984251968504,243.73228346456693L23.75984251968504,242.80905511811025L23.75984251968504,241.88582677165357L23.75984251968504,240.96259842519683L23.75984251968504,240.03937007874015L23.75984251968504,239.11614173228347L23.75984251968504,238.19291338582676L23.75984251968504,237.26968503937007L23.75984251968504,236.3464566929134L23.75984251968504,235.42322834645668L23.75984251968504,234.5L23.75984251968504,233.57677165354332L23.75984251968504,232.6535433070866L23.75984251968504,231.73031496062993L23.75984251968504,230.80708661417324L23.75984251968504,229.88385826771653L23.75984251968504,228.96062992125985L23.75984251968504,228.03740157480317L23.75984251968504,227.11417322834646L23.75984251968504,226.19094488188978L23.75984251968504,225.2677165354331L23.75984251968504,224.34448818897638L23.75984251968504,223.4212598425197L23.75984251968504,222.49803149606302L23.75984251968504,221.5748031496063L25.15748031496063,221.5748031496063L25.15748031496063,220.65157480314963L25.15748031496063,219.7283464566929L25.15748031496063,218.8051181102362L25.15748031496063,217.8818897637795L25.15748031496063,216.95866141732282L25.15748031496063,216.03543307086613L25.15748031496063,215.11220472440942L25.15748031496063,214.18897637795274L25.15748031496063,213.26574803149606L25.15748031496063,212.34251968503935L25.15748031496063,211.41929133858264L25.15748031496063,210.49606299212599L25.15748031496063,209.57283464566927L25.15748031496063,208.64960629921256L25.15748031496063,207.7263779527559L25.15748031496063,206.8031496062992L25.15748031496063,205.8799212598425L25.15748031496063,204.95669291338584L26.555118110236222,204.95669291338584L26.555118110236222,204.03346456692913L26.555118110236222,203.11023622047247L26.555118110236222,202.18700787401576L26.555118110236222,201.26377952755905L27.95275590551181,201.26377952755905L27.95275590551181,200.3405511811024L27.95275590551181,199.4173228346457L27.95275590551181,198.49409448818898L27.95275590551181,197.57086614173232L29.350393700787404,197.57086614173232L30.748031496062993,197.57086614173232L30.748031496062993,196.6476377952756L30.748031496062993,195.7244094488189L30.748031496062993,194.80118110236225L30.748031496062993,193.87795275590554L30.748031496062993,192.95472440944883L30.748031496062993,192.03149606299218L30.748031496062993,191.10826771653547L30.748031496062993,190.1850393700787L30.748031496062993,189.26181102362204L30.748031496062993,188.33858267716533L30.748031496062993,187.41535433070862L30.748031496062993,186.49212598425197L30.748031496062993,185.56889763779526L30.748031496062993,184.64566929133855L30.748031496062993,183.7224409448819L32.145669291338585,183.7224409448819L32.145669291338585,182.79921259842519L32.145669291338585,181.87598425196848L32.145669291338585,180.95275590551182L32.145669291338585,180.0295275590551L32.145669291338585,179.1062992125984L32.145669291338585,178.18307086614175L32.145669291338585,177.25984251968504L32.145669291338585,176.33661417322833L32.145669291338585,175.41338582677167L32.145669291338585,174.49015748031496L32.145669291338585,173.56692913385825L32.145669291338585,172.6437007874016L32.145669291338585,171.7204724409449L32.145669291338585,170.79724409448818L33.54330708661417,170.79724409448818L34.94094488188976,170.79724409448818L36.338582677165356,170.79724409448818L36.338582677165356,169.87401574803152L37.73622047244095,169.87401574803152L37.73622047244095,168.95078740157481L37.73622047244095,168.0275590551181L37.73622047244095,167.10433070866145L37.73622047244095,166.18110236220474L39.13385826771653,166.18110236220474L39.13385826771653,165.25787401574803L39.13385826771653,164.33464566929138L39.13385826771653,163.41141732283467L39.13385826771653,162.48818897637796L39.13385826771653,161.5649606299213L40.531496062992126,161.5649606299213L40.531496062992126,160.64173228346453L40.531496062992126,159.71850393700782L40.531496062992126,158.79527559055117L41.92913385826772,158.79527559055117L43.32677165354331,158.79527559055117L43.32677165354331,157.87204724409446L43.32677165354331,156.94881889763775L43.32677165354331,156.0255905511811L43.32677165354331,155.1023622047244L43.32677165354331,154.17913385826768L44.724409448818896,154.17913385826768L46.12204724409448,154.17913385826768L46.12204724409448,153.25590551181102L47.51968503937008,153.25590551181102L48.917322834645674,153.25590551181102L48.917322834645674,152.3326771653543L48.917322834645674,151.4094488188976L48.917322834645674,150.48622047244095L48.917322834645674,149.56299212598424L48.917322834645674,148.63976377952753L48.917322834645674,147.71653543307087L48.917322834645674,146.79330708661416L48.917322834645674,145.8700787401575L48.917322834645674,144.9468503937008L48.917322834645674,144.0236220472441L48.917322834645674,143.10039370078744L50.31496062992126,143.10039370078744L51.712598425196845,143.10039370078744L53.110236220472444,143.10039370078744L53.110236220472444,142.17716535433073L53.110236220472444,141.25393700787401L53.110236220472444,140.33070866141736L53.110236220472444,139.40748031496065L53.110236220472444,138.48425196850394L53.110236220472444,137.5610236220473L53.110236220472444,136.63779527559058L54.50787401574803,136.63779527559058L54.50787401574803,135.71456692913387L54.50787401574803,134.7913385826772L54.50787401574803,133.8681102362205L54.50787401574803,132.9448818897638L54.50787401574803,132.02165354330714L54.50787401574803,131.09842519685037L54.50787401574803,130.17519685039366L55.90551181102362,130.17519685039366L57.30314960629921,130.17519685039366L57.30314960629921,129.251968503937L57.30314960629921,128.3287401574803L57.30314960629921,127.40551181102359L57.30314960629921,126.48228346456693L57.30314960629921,125.55905511811022L57.30314960629921,124.63582677165351L58.70078740157481,124.63582677165351L58.70078740157481,123.71259842519686L58.70078740157481,122.78937007874015L58.70078740157481,121.86614173228344L58.70078740157481,120.94291338582678L58.70078740157481,120.01968503937007L60.09842519685039,120.01968503937007L60.09842519685039,119.09645669291336L61.496062992125985,119.09645669291336L61.496062992125985,118.17322834645671L61.496062992125985,117.25L61.496062992125985,116.32677165354329L61.496062992125985,115.40354330708664L61.496062992125985,114.48031496062993L61.496062992125985,113.55708661417322L61.496062992125985,112.63385826771656L61.496062992125985,111.71062992125985L61.496062992125985,110.78740157480314L61.496062992125985,109.86417322834649L61.496062992125985,108.94094488188978L62.89370078740157,108.94094488188978L62.89370078740157,108.01771653543307L62.89370078740157,107.09448818897641L64.29133858267717,107.09448818897641L64.29133858267717,106.1712598425197L64.29133858267717,105.24803149606299L64.29133858267717,104.32480314960634L65.68897637795276,104.32480314960634L65.68897637795276,103.40157480314963L65.68897637795276,102.47834645669286L65.68897637795276,101.55511811023621L67.08661417322834,101.55511811023621L67.08661417322834,100.6318897637795L68.48425196850394,100.6318897637795L68.48425196850394,99.70866141732279L68.48425196850394,98.78543307086613L68.48425196850394,97.86220472440942L69.88188976377953,97.86220472440942L69.88188976377953,96.93897637795271L71.27952755905513,96.93897637795271L71.27952755905513,96.01574803149606L72.67716535433071,96.01574803149606L72.67716535433071,95.09251968503935L72.67716535433071,94.16929133858264L72.67716535433071,93.24606299212599L74.0748031496063,93.24606299212599L74.0748031496063,92.32283464566927L75.4724409448819,92.32283464566927L75.4724409448819,91.39960629921256L75.4724409448819,90.47637795275591L75.4724409448819,89.5531496062992L76.87007874015748,89.5531496062992L76.87007874015748,88.62992125984249L76.87007874015748,87.70669291338584L76.87007874015748,86.78346456692913L76.87007874015748,85.86023622047247L78.26771653543307,85.86023622047247L78.26771653543307,84.93700787401576L79.66535433070865,84.93700787401576L79.66535433070865,84.01377952755905L81.06299212598425,84.01377952755905L82.46062992125984,84.01377952755905L82.46062992125984,83.0905511811024L82.46062992125984,82.16732283464569L82.46062992125984,81.24409448818898L82.46062992125984,80.32086614173232L82.46062992125984,79.39763779527561L82.46062992125984,78.4744094488189L83.85826771653544,78.4744094488189L83.85826771653544,77.55118110236225L83.85826771653544,76.62795275590554L83.85826771653544,75.70472440944883L83.85826771653544,74.78149606299218L85.25590551181102,74.78149606299218L85.25590551181102,73.85826771653547L86.65354330708662,73.85826771653547L86.65354330708662,72.9350393700787L88.05118110236221,72.9350393700787L89.44881889763779,72.9350393700787L89.44881889763779,72.01181102362204L89.44881889763779,71.08858267716533L90.84645669291338,71.08858267716533L90.84645669291338,70.16535433070862L90.84645669291338,69.24212598425197L90.84645669291338,68.31889763779526L90.84645669291338,67.39566929133855L92.24409448818896,67.39566929133855L92.24409448818896,66.4724409448819L92.24409448818896,65.54921259842519L93.64173228346456,65.54921259842519L93.64173228346456,64.62598425196848L95.03937007874016,64.62598425196848L96.43700787401575,64.62598425196848L97.83464566929135,64.62598425196848L99.23228346456693,64.62598425196848L99.23228346456693,63.70275590551182L99.23228346456693,62.77952755905511L99.23228346456693,61.8562992125984L99.23228346456693,60.93307086614175L99.23228346456693,60.00984251968504L100.62992125984252,60.00984251968504L100.62992125984252,59.08661417322833L102.0275590551181,59.08661417322833L102.0275590551181,58.16338582677167L103.42519685039369,58.16338582677167L103.42519685039369,57.24015748031496L104.82283464566929,57.24015748031496L106.22047244094489,57.24015748031496L106.22047244094489,56.31692913385825L107.61811023622047,56.31692913385825L107.61811023622047,55.3937007874016L107.61811023622047,54.47047244094489L109.01574803149606,54.47047244094489L109.01574803149606,53.54724409448818L109.01574803149606,52.624015748031525L109.01574803149606,51.700787401574814L109.01574803149606,50.777559055118104L109.01574803149606,49.85433070866145L109.01574803149606,48.93110236220474L110.41338582677166,48.93110236220474L111.81102362204724,48.93110236220474L113.20866141732283,48.93110236220474L114.60629921259842,48.93110236220474L114.60629921259842,48.00787401574803L116.003937007874,48.00787401574803L117.40157480314961,48.00787401574803L117.40157480314961,47.084645669291376L118.7992125984252,47.084645669291376L120.19685039370079,47.084645669291376L121.59448818897638,47.084645669291376L122.99212598425197,47.084645669291376L122.99212598425197,46.161417322834666L124.38976377952756,46.161417322834666L125.78740157480314,46.161417322834666L127.18503937007873,46.161417322834666L127.18503937007873,45.238188976377955L128.58267716535434,45.238188976377955L128.58267716535434,44.3149606299213L128.58267716535434,43.391732283464535L128.58267716535434,42.468503937007824L128.58267716535434,41.54527559055117L128.58267716535434,40.62204724409446L129.98031496062993,40.62204724409446L131.3779527559055,40.62204724409446L131.3779527559055,39.69881889763775L132.7755905511811,39.69881889763775L134.17322834645668,39.69881889763775L135.57086614173227,39.69881889763775L136.96850393700788,39.69881889763775L138.36614173228347,39.69881889763775L138.36614173228347,38.7755905511811L139.76377952755905,38.7755905511811L141.16141732283464,38.7755905511811L142.55905511811025,38.7755905511811L142.55905511811025,37.852362204724386L143.95669291338584,37.852362204724386L145.35433070866142,37.852362204724386L146.751968503937,37.852362204724386L148.1496062992126,37.852362204724386L148.1496062992126,36.929133858267676L149.54724409448818,36.929133858267676L149.54724409448818,36.00590551181102L150.9448818897638,36.00590551181102L152.34251968503938,36.00590551181102L153.74015748031496,36.00590551181102L155.13779527559055,36.00590551181102L156.53543307086613,36.00590551181102L157.93307086614172,36.00590551181102L157.93307086614172,35.08267716535431L159.3307086614173,35.08267716535431L160.7283464566929,35.08267716535431L162.1259842519685,35.08267716535431L163.5236220472441,35.08267716535431L164.92125984251967,35.08267716535431L166.3188976377953,35.08267716535431L167.71653543307087,35.08267716535431L169.11417322834646,35.08267716535431L170.51181102362204,35.08267716535431L171.90944881889763,35.08267716535431L173.30708661417324,35.08267716535431L173.30708661417324,34.1594488188976L174.70472440944883,34.1594488188976L174.70472440944883,33.23622047244095L174.70472440944883,32.31299212598424L176.10236220472441,32.31299212598424L177.5,32.31299212598424L177.5,31.389763779527527L178.89763779527559,31.389763779527527L178.89763779527559,30.466535433070874L180.29527559055117,30.466535433070874L180.29527559055117,29.543307086614163L180.29527559055117,28.62007874015751L180.29527559055117,27.6968503937008L181.69291338582676,27.6968503937008L183.09055118110234,27.6968503937008L184.48818897637793,27.6968503937008L185.88582677165354,27.6968503937008L187.28346456692913,27.6968503937008L188.68110236220474,27.6968503937008L190.07874015748033,27.6968503937008L191.4763779527559,27.6968503937008L192.8740157480315,27.6968503937008L192.8740157480315,26.77362204724409L192.8740157480315,25.850393700787436L192.8740157480315,24.927165354330725L194.2716535433071,24.927165354330725L197.06692913385828,24.927165354330725L198.46456692913387,24.927165354330725L199.86220472440945,24.927165354330725L201.25984251968504,24.927165354330725L202.65748031496062,24.927165354330725L204.0551181102362,24.927165354330725L205.4527559055118,24.927165354330725L206.85039370078738,24.927165354330725L208.24803149606296,24.927165354330725L208.24803149606296,24.003937007874015L209.64566929133858,24.003937007874015L209.64566929133858,23.08070866141736L209.64566929133858,22.15748031496065L209.64566929133858,21.23425196850394L211.0433070866142,21.23425196850394L211.0433070866142,20.311023622047287L211.0433070866142,19.387795275590577L212.44094488188978,19.387795275590577L213.83858267716536,19.387795275590577L215.23622047244095,19.387795275590577L216.63385826771653,19.387795275590577L218.03149606299212,19.387795275590577L219.42913385826773,19.387795275590577L220.82677165354332,19.387795275590577L220.82677165354332,18.464566929133866L220.82677165354332,17.541338582677213L222.2244094488189,17.541338582677213L223.6220472440945,17.541338582677213L225.01968503937007,17.541338582677213L226.41732283464566,17.541338582677213L227.81496062992125,17.541338582677213L229.21259842519683,17.541338582677213L230.61023622047242,17.541338582677213L232.007874015748,17.541338582677213L233.40551181102364,17.541338582677213L234.80314960629923,17.541338582677213L236.20078740157481,17.541338582677213L236.20078740157481,16.618110236220502L236.20078740157481,15.694881889763792L237.5984251968504,15.694881889763792L238.99606299212599,15.694881889763792L240.39370078740157,15.694881889763792L241.79133858267716,15.694881889763792L243.18897637795277,15.694881889763792L244.58661417322836,15.694881889763792L244.58661417322836,14.771653543307139L245.98425196850394,14.771653543307139L247.38188976377953,14.771653543307139L248.7795275590551,14.771653543307139L250.1771653543307,14.771653543307139L251.57480314960628,14.771653543307139L251.57480314960628,13.848425196850371L252.97244094488187,13.848425196850371L254.37007874015745,13.848425196850371L255.7677165354331,13.848425196850371L257.1653543307087,13.848425196850371L258.56299212598424,13.848425196850371L259.96062992125985,13.848425196850371L261.35826771653547,13.848425196850371L262.755905511811,13.848425196850371L264.15354330708664,13.848425196850371L265.5511811023622,13.848425196850371L266.9488188976378,13.848425196850371L268.34645669291336,13.848425196850371L269.744094488189,13.848425196850371L271.14173228346453,13.848425196850371L272.53937007874015,13.848425196850371L273.93700787401576,13.848425196850371L275.3346456692913,13.848425196850371L276.73228346456693,13.848425196850371L278.12992125984255,13.848425196850371L279.5275590551181,13.848425196850371L280.9251968503937,13.848425196850371L282.3228346456693,13.848425196850371L282.3228346456693,12.925196850393661L283.7204724409449,12.925196850393661L285.1181102362205,12.925196850393661L286.51574803149606,12.925196850393661L287.9133858267717,12.925196850393661L289.31102362204723,12.925196850393661L289.31102362204723,12.001968503937007L290.70866141732284,12.001968503937007L292.1062992125984,12.001968503937007L292.1062992125984,11.078740157480297L293.503937007874,11.078740157480297L294.9015748031496,11.078740157480297L296.2992125984252,11.078740157480297L297.69685039370074,11.078740157480297L299.09448818897636,11.078740157480297L300.49212598425197,11.078740157480297L301.8897637795276,11.078740157480297L303.28740157480314,11.078740157480297L304.68503937007875,11.078740157480297L304.68503937007875,10.155511811023587L307.4803149606299,10.155511811023587L308.87795275590554,10.155511811023587L310.2755905511811,10.155511811023587L311.6732283464567,10.155511811023587L313.07086614173227,10.155511811023587L314.4685039370079,10.155511811023587L315.86614173228344,10.155511811023587L317.26377952755905,10.155511811023587L318.6614173228346,10.155511811023587L320.0590551181102,10.155511811023587L321.4566929133858,10.155511811023587L322.85433070866145,10.155511811023587L324.251968503937,10.155511811023587L325.6496062992126,10.155511811023587L327.0472440944882,10.155511811023587L328.4448818897638,10.155511811023587L329.84251968503935,10.155511811023587L331.24015748031496,10.155511811023587L332.6377952755906,10.155511811023587L334.03543307086613,10.155511811023587L335.43307086614175,10.155511811023587L336.8307086614173,10.155511811023587L338.2283464566929,10.155511811023587L339.6259842519685,10.155511811023587L341.0236220472441,10.155511811023587L342.42125984251965,10.155511811023587L343.81889763779526,10.155511811023587L345.2165354330709,10.155511811023587L346.6141732283465,10.155511811023587L348.01181102362204,10.155511811023587L349.40944881889766,10.155511811023587L350.8070866141732,10.155511811023587L352.20472440944883,10.155511811023587L353.6023622047244,10.155511811023587L355,10.155511811023587L356.3976377952756,10.155511811023587L357.79527559055117,10.155511811023587L359.1929133858268,10.155511811023587L360.59055118110234,10.155511811023587L361.98818897637796,10.155511811023587L363.3858267716535,10.155511811023587L364.7834645669291,10.155511811023587L366.1811023622047,10.155511811023587L367.5787401574803,10.155511811023587L368.97637795275585,10.155511811023587L370.37401574803147,10.155511811023587L371.7716535433071,10.155511811023587L373.16929133858264,10.155511811023587L374.56692913385825,10.155511811023587L375.9645669291338,10.155511811023587L377.3622047244095,10.155511811023587L378.7598425196851,10.155511811023587L380.15748031496065,10.155511811023587L381.55511811023626,10.155511811023587L382.9527559055118,10.155511811023587L384.35039370078744,10.155511811023587L385.748031496063,10.155511811023587L387.1456692913386,10.155511811023587L388.5433070866142,10.155511811023587L389.9409448818898,10.155511811023587L391.3385826771654,10.155511811023587L392.73622047244095,10.155511811023587L394.13385826771656,10.155511811023587L395.5314960629921,10.155511811023587L396.92913385826773,10.155511811023587L398.3267716535433,10.155511811023587L399.7244094488189,10.155511811023587L401.12204724409446,10.155511811023587L402.5196850393701,10.155511811023587L403.9173228346457,10.155511811023587L405.31496062992125,10.155511811023587L406.71259842519686,10.155511811023587L408.1102362204724,10.155511811023587L409.50787401574803,10.155511811023587L410.9055118110236,10.155511811023587L412.3031496062992,10.155511811023587L413.70078740157476,10.155511811023587L415.09842519685037,10.155511811023587L416.4960629921259,10.155511811023587L417.89370078740154,10.155511811023587L419.29133858267716,10.155511811023587L420.6889763779527,10.155511811023587L422.0866141732284,10.155511811023587L423.484251968504,10.155511811023587L424.88188976377955,10.155511811023587L426.27952755905517,10.155511811023587L427.6771653543307,10.155511811023587L429.07480314960634,10.155511811023587L430.4724409448819,10.155511811023587L431.8700787401575,10.155511811023587L433.26771653543307,10.155511811023587L434.6653543307087,10.155511811023587L436.06299212598424,10.155511811023587L437.46062992125985,10.155511811023587L438.85826771653547,10.155511811023587L440.255905511811,10.155511811023587L441.65354330708664,10.155511811023587L441.65354330708664,9.232283464566933L443.0511811023622,9.232283464566933L444.4488188976378,9.232283464566933L445.84645669291336,9.232283464566933L447.244094488189,9.232283464566933L448.64173228346453,9.232283464566933L450.03937007874015,9.232283464566933L451.43700787401576,9.232283464566933L452.8346456692913,9.232283464566933L454.23228346456693,9.232283464566933L455.6299212598425,9.232283464566933L457.0275590551181,9.232283464566933L458.42519685039366,9.232283464566933L458.42519685039366,8.309055118110223L459.8228346456693,8.309055118110223L461.22047244094483,8.309055118110223L462.61811023622045,8.309055118110223L464.015748031496,8.309055118110223L465.4133858267716,8.309055118110223L466.8110236220473,8.309055118110223L468.20866141732284,8.309055118110223L469.60629921259846,8.309055118110223L471.0039370078741,8.309055118110223L471.0039370078741,7.385826771653512L472.40157480314963,7.385826771653512L473.79921259842524,7.385826771653512L475.1968503937008,7.385826771653512L476.5944881889764,7.385826771653512L477.99212598425197,7.385826771653512L479.3897637795276,7.385826771653512L480.78740157480314,7.385826771653512L482.18503937007875,7.385826771653512L483.5826771653543,7.385826771653512L483.5826771653543,6.462598425196859L484.9803149606299,6.462598425196859L486.37795275590554,6.462598425196859L487.7755905511811,6.462598425196859L489.1732283464567,6.462598425196859L490.57086614173227,6.462598425196859L491.9685039370079,6.462598425196859L493.36614173228344,6.462598425196859L493.36614173228344,5.5393700787401485L494.76377952755905,5.5393700787401485L496.1614173228346,5.5393700787401485L497.5590551181102,5.5393700787401485L498.9566929133858,5.5393700787401485L500.3543307086614,5.5393700787401485L501.751968503937,5.5393700787401485L501.751968503937,4.616141732283438L503.14960629921256,4.616141732283438L504.5472440944882,4.616141732283438L505.94488188976374,4.616141732283438L507.34251968503935,4.616141732283438L508.7401574803149,4.616141732283438L510.1377952755905,4.616141732283438L511.5354330708662,4.616141732283438L512.9330708661417,4.616141732283438L514.3307086614174,4.616141732283438L515.728346456693,4.616141732283438L515.728346456693,3.6929133858267846L517.1259842519685,3.6929133858267846L518.5236220472441,3.6929133858267846L518.5236220472441,2.7696850393700743L519.9212598425197,2.7696850393700743L521.3188976377953,2.7696850393700743L522.7165354330709,2.7696850393700743L524.1141732283464,2.7696850393700743L525.511811023622,2.7696850393700743L526.9094488188977,2.7696850393700743L526.9094488188977,1.846456692913364L528.3070866141733,1.846456692913364L529.7047244094488,1.846456692913364L531.1023622047244,1.846456692913364L532.5,1.846456692913364L533.8976377952756,1.846456692913364L535.2952755905512,1.846456692913364L536.6929133858267,1.846456692913364L538.0905511811023,1.846456692913364L539.488188976378,1.846456692913364L540.8858267716536,1.846456692913364L542.2834645669291,1.846456692913364L543.6811023622047,1.846456692913364L545.0787401574803,1.846456692913364L546.4763779527559,1.846456692913364L547.8740157480315,1.846456692913364L549.271653543307,1.846456692913364L550.6692913385826,1.846456692913364L552.0669291338583,1.846456692913364L553.4645669291339,1.846456692913364L554.8622047244095,1.846456692913364L556.2598425196851,1.846456692913364L557.6574803149607,1.846456692913364L557.6574803149607,0.9232283464567104L559.0551181102362,0.9232283464567104L560.4527559055118,0.9232283464567104L561.8503937007874,0.9232283464567104L563.248031496063,0.9232283464567104L564.6456692913385,0.9232283464567104L566.0433070866142,0.9232283464567104L567.4409448818898,0.9232283464567104L568.8385826771654,0.9232283464567104L570.236220472441,0.9232283464567104L571.6338582677165,0.9232283464567104L573.0314960629921,0.9232283464567104L574.4291338582677,0.9232283464567104L575.8267716535433,0.9232283464567104L577.2244094488188,0.9232283464567104L578.6220472440945,0.9232283464567104L580.0196850393701,0.9232283464567104L580.0196850393701,0L581.4173228346457,0L582.8149606299213,0L584.2125984251968,0L585.6102362204724,0L587.007874015748,0L588.4055118110236,0L589.8031496062991,0L591.2007874015748,0L592.5984251968504,0L593.996062992126,0L595.3937007874015,0L596.7913385826771,0L598.1889763779527,0L599.5866141732284,0L600.9842519685039,0L602.3818897637796,0L603.7795275590552,0L605.1771653543308,0L606.5748031496063,0L607.9724409448819,0L609.3700787401575,0L610.7677165354331,0L612.1653543307086,0L613.5629921259842,0L614.9606299212599,0L616.3582677165355,0L617.7559055118111,0L619.1535433070866,0L620.5511811023622,0L621.9488188976378,0L623.3464566929134,0L624.7440944881889,0L626.1417322834645,0L627.5393700787401,0L628.9370078740158,0L630.3346456692914,0L631.7322834645669,0L633.1299212598425,0L634.5275590551181,0L635.9251968503937,0L637.3228346456692,0L638.7204724409448,0L640.1181102362204,0L641.5157480314961,0L642.9133858267716,0L644.3110236220473,0L645.7086614173229,0L647.1062992125985,0L648.503937007874,0L649.9015748031496,0L651.2992125984252,0L652.6968503937009,0L654.0944881889764,0L655.492125984252,0L656.8897637795276,0L658.2874015748032,0L659.6850393700787,0L661.0826771653543,0L662.4803149606299,0L663.8779527559055,0L665.2755905511812,0L666.6732283464567,0L668.0708661417323,0L669.4685039370079,0L670.8661417322835,0L672.263779527559,0L673.6614173228346,0L675.0590551181102,0L676.4566929133858,0L677.8543307086615,0L679.251968503937,0L680.6496062992126,0L682.0472440944882,0L683.4448818897638,0L684.8425196850393,0L686.2401574803149,0L687.6377952755905,0L689.0354330708661,0L690.4330708661417,0L691.8307086614174,0L693.228346456693,0L694.6259842519685,0L696.0236220472441,0L697.4212598425197,0L698.8188976377953,0L700.2165354330709,0L701.6141732283464,0L703.011811023622,0L704.4094488188977,0L705.8070866141733,0L707.2047244094488,0L708.6023622047244,0L710,0"/>
        <g class="knime-legend" transform="translate(201,539)">
            <text class="knime-legend-label" x="20">
                XGB
            </text>
            <circle fill="#9467bd" r="5" class="knime-legend-symbol" cx="5"
                    cy="-5"/>
        </g>
        <path class="line"
              style="stroke: rgb(140, 86, 75); fill: none; stroke-width: 2;"
              d="M0,469L120.19685039370079,68.31889763779526L710,0"/>
        <g class="knime-legend" transform="translate(256,539)">
            <text class="knime-legend-label" x="20">
                k-NN
            </text>
            <circle fill="#8c564b" r="5" class="knime-legend-symbol" cx="5"
                    cy="-5"/>
        </g>
        <path class="line" style="stroke: black; fill: none; stroke-width: 2;"
              d="M0,469L710,0"/>
        <g class="knime-legend" transform="translate(313,539)">
            <text class="knime-legend-label" x="20">
                random
            </text>
            <circle fill="black" r="5" class="knime-legend-symbol" cx="5"
                    cy="-5"/>
        </g>
    </g>
    <g transform="translate(70,0)">
        <text class="knime-title" id="title" y="30">
            ROC Curve
        </text>
    </g>
</svg>